<?xml version="1.0"?>
<!-- Generated by SVGo -->
<svg width="423.146mm" height="164.182mm"
     viewBox="0.000 0.000 423.146 164.182"
     xmlns="http://www.w3.org/2000/svg" 
     xmlns:xlink="http://www.w3.org/1999/xlink">
<polygon points="418.146,159.182 5.000,159.182 5.000,5.000 418.146,5.000" style="fill:none;stroke-width:0.050000mm;stroke:black"/>
<polygon points="7.190,155.731 6.912,155.873 6.690,156.094 6.548,156.373 6.499,156.682 6.548,156.991 6.690,157.269 6.912,157.491 7.190,157.633 7.499,157.682 7.809,157.633 8.087,157.491 8.309,157.269 8.451,156.991 8.500,156.682 8.451,156.373 8.309,156.094 8.087,155.873 7.809,155.731 7.500,155.682" style="fill:none;stroke-width:0.050000mm;stroke:black"/>
<polygon points="211.264,155.731 210.985,155.873 210.764,156.094 210.622,156.373 210.573,156.682 210.622,156.991 210.764,157.269 210.985,157.491 211.264,157.633 211.573,157.682 211.882,157.633 212.161,157.491 212.382,157.269 212.524,156.991 212.573,156.682 212.524,156.373 212.382,156.094 212.161,155.873 211.882,155.731 211.573,155.682" style="fill:none;stroke-width:0.050000mm;stroke:black"/>
<polygon points="415.337,155.731 415.058,155.873 414.837,156.094 414.695,156.373 414.646,156.682 414.695,156.991 414.837,157.269 415.058,157.491 415.337,157.633 415.646,157.682 415.955,157.633 416.234,157.491 416.455,157.269 416.597,156.991 416.646,156.682 416.597,156.373 416.455,156.094 416.234,155.873 415.955,155.731 415.646,155.682" style="fill:none;stroke-width:0.050000mm;stroke:black"/>
<polygon points="263.290,137.136 269.206,149.825 281.895,143.908 275.978,131.220" style="fill:none;stroke-width:0.050000mm;stroke:black"/>
<polygon points="144.917,143.908 157.605,149.825 163.522,137.136 150.833,131.220" style="fill:none;stroke-width:0.050000mm;stroke:black"/>
<polygon points="302.833,117.587 304.198,120.514 302.815,121.159 300.829,116.899 288.141,122.816 290.127,127.075 288.745,127.720 287.380,124.792 281.263,127.645 282.628,130.572 281.880,130.919 283.063,133.459 283.811,133.110 286.461,138.793 288.024,138.064 288.531,139.151 291.522,137.757 291.015,136.669 292.578,135.940 290.689,131.889 292.072,131.244 294.058,135.504 306.746,129.586 304.760,125.328 306.142,124.683 308.031,128.734 309.594,128.005 310.101,129.092 313.092,127.698 312.585,126.611 314.148,125.882 311.499,120.199 312.246,119.850 311.063,117.313 310.315,117.661 308.950,114.734" style="fill:none;stroke-width:0.050000mm;stroke:black"/>
<polygon points="119.949,114.339 118.385,113.610 115.736,119.293 114.988,118.944 113.804,121.482 114.552,121.830 113.187,124.758 119.305,127.611 120.670,124.683 122.052,125.328 120.066,129.586 132.754,135.504 134.740,131.245 136.122,131.889 134.757,134.816 140.875,137.669 142.240,134.741 142.988,135.090 144.171,132.552 143.423,132.204 146.073,126.521 144.510,125.792 145.017,124.705 142.026,123.310 141.519,124.398 139.955,123.669 138.066,127.720 136.684,127.076 138.671,122.816 125.982,116.899 123.996,121.158 122.614,120.514 124.503,116.463 122.940,115.734 123.447,114.646 120.456,113.252" style="fill:none;stroke-width:0.050000mm;stroke:black"/>
<polygon points="255.239,119.871 261.156,132.560 273.844,126.643 267.927,113.955" style="fill:none;stroke-width:0.050000mm;stroke:black"/>
<polygon points="152.968,126.643 165.656,132.560 171.573,119.871 158.884,113.955" style="fill:none;stroke-width:0.050000mm;stroke:black"/>
<polygon points="271.458,109.576 277.374,122.264 290.062,116.348 284.146,103.659" style="fill:none;stroke-width:0.050000mm;stroke:black"/>
<polygon points="136.749,116.348 149.437,122.264 155.354,109.576 142.666,103.659" style="fill:none;stroke-width:0.050000mm;stroke:black"/>
<polygon points="312.026,106.423 317.943,119.111 330.631,113.195 324.714,100.506" style="fill:none;stroke-width:0.050000mm;stroke:black"/>
<polygon points="96.181,113.195 108.869,119.111 114.786,106.423 102.097,100.506" style="fill:none;stroke-width:0.050000mm;stroke:black"/>
<polygon points="330.338,100.617 336.254,113.305 348.943,107.388 343.026,94.700" style="fill:none;stroke-width:0.050000mm;stroke:black"/>
<polygon points="77.869,107.388 90.557,113.305 96.474,100.617 83.785,94.700" style="fill:none;stroke-width:0.050000mm;stroke:black"/>
<polygon points="287.757,99.453 293.673,112.142 306.362,106.225 300.445,93.537" style="fill:none;stroke-width:0.050000mm;stroke:black"/>
<polygon points="120.450,106.225 133.138,112.142 139.055,99.453 126.367,93.537" style="fill:none;stroke-width:0.050000mm;stroke:black"/>
<polygon points="349.616,96.882 355.532,109.570 368.221,103.654 362.304,90.965" style="fill:none;stroke-width:0.050000mm;stroke:black"/>
<polygon points="58.591,103.654 71.279,109.570 77.196,96.882 64.507,90.965" style="fill:none;stroke-width:0.050000mm;stroke:black"/>
<polygon points="369.860,95.219 375.776,107.908 388.465,101.991 382.548,89.303" style="fill:none;stroke-width:0.050000mm;stroke:black"/>
<polygon points="38.347,101.991 51.035,107.908 56.952,95.219 44.264,89.303" style="fill:none;stroke-width:0.050000mm;stroke:black"/>
<polygon points="390.184,93.729 396.101,106.417 408.789,100.501 402.872,87.813" style="fill:none;stroke-width:0.050000mm;stroke:black"/>
<polygon points="18.022,100.501 30.711,106.417 36.627,93.729 23.939,87.813" style="fill:none;stroke-width:0.050000mm;stroke:black"/>
<polygon points="263.407,92.311 269.323,104.999 282.012,99.082 276.095,86.394" style="fill:none;stroke-width:0.050000mm;stroke:black"/>
<polygon points="144.800,99.082 157.488,104.999 163.405,92.311 150.717,86.394" style="fill:none;stroke-width:0.050000mm;stroke:black"/>
<polygon points="303.975,89.158 309.892,101.846 322.580,95.930 316.663,83.241" style="fill:none;stroke-width:0.050000mm;stroke:black"/>
<polygon points="104.231,95.930 116.920,101.846 122.836,89.158 110.148,83.241" style="fill:none;stroke-width:0.050000mm;stroke:black"/>
<polygon points="322.287,83.351 328.204,96.040 340.892,90.123 334.975,77.435" style="fill:none;stroke-width:0.050000mm;stroke:black"/>
<polygon points="85.920,90.123 98.608,96.040 104.525,83.351 91.836,77.435" style="fill:none;stroke-width:0.050000mm;stroke:black"/>
<polygon points="279.706,82.188 285.622,94.876 298.311,88.960 292.394,76.271" style="fill:none;stroke-width:0.050000mm;stroke:black"/>
<polygon points="128.501,88.960 141.189,94.876 147.106,82.188 134.417,76.271" style="fill:none;stroke-width:0.050000mm;stroke:black"/>
<polygon points="341.565,79.617 347.481,92.305 360.170,86.389 354.253,73.700" style="fill:none;stroke-width:0.050000mm;stroke:black"/>
<polygon points="66.642,86.389 79.330,92.305 85.247,79.617 72.558,73.700" style="fill:none;stroke-width:0.050000mm;stroke:black"/>
<polygon points="361.809,77.954 367.725,90.642 380.414,84.726 374.497,72.037" style="fill:none;stroke-width:0.050000mm;stroke:black"/>
<polygon points="46.398,84.726 59.086,90.642 65.003,77.954 52.314,72.037" style="fill:none;stroke-width:0.050000mm;stroke:black"/>
<polygon points="26.073,83.236 38.762,89.152 44.678,76.464 31.990,70.547" style="fill:none;stroke-width:0.050000mm;stroke:black"/>
<polygon points="383.039,56.401 382.691,55.654 380.153,56.837 380.502,57.585 374.819,60.235 375.548,61.798 374.461,62.305 375.855,65.296 376.943,64.789 377.672,66.352 381.723,64.462 382.367,65.845 378.108,67.831 384.024,80.520 388.284,78.533 388.929,79.916 384.877,81.805 385.606,83.368 384.519,83.875 385.914,86.866 387.001,86.359 387.730,87.922 393.413,85.272 393.761,86.020 396.299,84.837 395.950,84.089 398.878,82.724 396.025,76.606 393.098,77.971 392.454,76.589 396.713,74.603 390.796,61.915 386.537,63.901 385.892,62.519 388.819,61.154 385.967,55.036" style="fill:none;stroke-width:0.050000mm;stroke:black"/>
<polygon points="255.356,75.046 261.272,87.734 273.961,81.817 268.044,69.129" style="fill:none;stroke-width:0.050000mm;stroke:black"/>
<polygon points="152.851,81.817 165.539,87.734 171.456,75.046 158.767,69.129" style="fill:none;stroke-width:0.050000mm;stroke:black"/>
<polygon points="295.924,71.893 301.841,84.581 314.529,78.664 308.613,65.976" style="fill:none;stroke-width:0.050000mm;stroke:black"/>
<polygon points="112.282,78.664 124.971,84.581 130.887,71.893 118.199,65.976" style="fill:none;stroke-width:0.050000mm;stroke:black"/>
<polygon points="314.236,66.086 320.153,78.775 332.841,72.858 326.924,60.170" style="fill:none;stroke-width:0.050000mm;stroke:black"/>
<polygon points="93.971,72.858 106.659,78.775 112.575,66.086 99.887,60.170" style="fill:none;stroke-width:0.050000mm;stroke:black"/>
<polygon points="271.655,64.923 277.571,77.611 290.260,71.695 284.343,59.006" style="fill:none;stroke-width:0.050000mm;stroke:black"/>
<polygon points="136.552,71.695 149.240,77.611 155.157,64.923 142.468,59.006" style="fill:none;stroke-width:0.050000mm;stroke:black"/>
<polygon points="333.514,62.352 339.431,75.040 352.119,69.123 346.202,56.435" style="fill:none;stroke-width:0.050000mm;stroke:black"/>
<polygon points="74.693,69.123 87.381,75.040 93.298,62.352 80.609,56.435" style="fill:none;stroke-width:0.050000mm;stroke:black"/>
<polygon points="353.758,60.689 359.675,73.377 372.363,67.461 366.446,54.772" style="fill:none;stroke-width:0.050000mm;stroke:black"/>
<polygon points="54.449,67.461 67.137,73.377 73.054,60.689 60.365,54.772" style="fill:none;stroke-width:0.050000mm;stroke:black"/>
<polygon points="34.124,65.970 46.812,71.887 52.729,59.199 40.041,53.282" style="fill:none;stroke-width:0.050000mm;stroke:black"/>
<polygon points="247.305,57.780 253.222,70.469 265.910,64.552 259.993,51.864" style="fill:none;stroke-width:0.050000mm;stroke:black"/>
<polygon points="160.902,64.552 173.590,70.469 179.507,57.780 166.818,51.864" style="fill:none;stroke-width:0.050000mm;stroke:black"/>
<polygon points="287.873,54.628 293.790,67.316 306.478,61.399 300.562,48.711" style="fill:none;stroke-width:0.050000mm;stroke:black"/>
<polygon points="120.333,61.399 133.021,67.316 138.938,54.628 126.250,48.711" style="fill:none;stroke-width:0.050000mm;stroke:black"/>
<polygon points="306.185,48.821 312.102,61.509 324.790,55.593 318.873,42.904" style="fill:none;stroke-width:0.050000mm;stroke:black"/>
<polygon points="102.021,55.593 114.710,61.509 120.626,48.821 107.938,42.904" style="fill:none;stroke-width:0.050000mm;stroke:black"/>
<polygon points="263.604,47.658 269.521,60.346 282.209,54.429 276.292,41.741" style="fill:none;stroke-width:0.050000mm;stroke:black"/>
<polygon points="144.603,54.429 157.291,60.346 163.208,47.658 150.519,41.741" style="fill:none;stroke-width:0.050000mm;stroke:black"/>
<polygon points="325.463,45.087 331.380,57.775 344.068,51.858 338.151,39.170" style="fill:none;stroke-width:0.050000mm;stroke:black"/>
<polygon points="82.744,51.858 95.432,57.775 101.348,45.087 88.660,39.170" style="fill:none;stroke-width:0.050000mm;stroke:black"/>
<polygon points="345.707,43.424 351.624,56.112 364.312,50.195 358.395,37.507" style="fill:none;stroke-width:0.050000mm;stroke:black"/>
<polygon points="62.500,50.195 75.188,56.112 81.104,43.424 68.416,37.507" style="fill:none;stroke-width:0.050000mm;stroke:black"/>
<polygon points="366.032,41.934 371.948,54.622 384.636,48.705 378.720,36.017" style="fill:none;stroke-width:0.050000mm;stroke:black"/>
<polygon points="42.175,48.705 54.863,54.622 60.780,41.934 48.092,36.017" style="fill:none;stroke-width:0.050000mm;stroke:black"/>
<polygon points="279.822,37.362 285.739,50.051 298.427,44.134 292.511,31.446" style="fill:none;stroke-width:0.050000mm;stroke:black"/>
<polygon points="128.383,44.134 141.072,50.051 146.989,37.362 134.301,31.446" style="fill:none;stroke-width:0.050000mm;stroke:black"/>
<polygon points="298.134,31.556 304.051,44.244 316.739,38.328 310.823,25.639" style="fill:none;stroke-width:0.050000mm;stroke:black"/>
<polygon points="110.072,38.328 122.761,44.244 128.675,31.556 115.989,25.639" style="fill:none;stroke-width:0.050000mm;stroke:black"/>
<polygon points="317.412,27.821 323.329,40.510 336.017,34.593 330.100,21.905" style="fill:none;stroke-width:0.050000mm;stroke:black"/>
<polygon points="90.794,34.593 103.483,40.510 109.399,27.821 96.711,21.905" style="fill:none;stroke-width:0.050000mm;stroke:black"/>
<polygon points="337.656,26.159 343.573,38.847 356.261,32.930 350.344,20.242" style="fill:none;stroke-width:0.050000mm;stroke:black"/>
<polygon points="70.550,32.930 83.239,38.847 89.155,26.159 76.467,20.242" style="fill:none;stroke-width:0.050000mm;stroke:black"/>
<polygon points="357.981,24.669 363.897,37.357 376.586,31.440 370.669,18.752" style="fill:none;stroke-width:0.050000mm;stroke:black"/>
<polygon points="50.226,31.440 62.914,37.357 68.831,24.669 56.143,18.752" style="fill:none;stroke-width:0.050000mm;stroke:black"/>
<polygon points="7.190,6.548 6.912,6.690 6.690,6.912 6.548,7.190 6.499,7.499 6.548,7.809 6.690,8.087 6.912,8.309 7.190,8.451 7.499,8.500 7.809,8.451 8.087,8.309 8.309,8.087 8.451,7.809 8.500,7.500 8.451,7.190 8.309,6.912 8.087,6.690 7.809,6.548 7.500,6.500" style="fill:none;stroke-width:0.050000mm;stroke:black"/>
<polygon points="415.337,6.548 415.058,6.690 414.837,6.912 414.695,7.190 414.646,7.499 414.695,7.809 414.837,8.087 415.058,8.309 415.337,8.451 415.646,8.500 415.955,8.451 416.234,8.309 416.455,8.087 416.597,7.809 416.646,7.500 416.597,7.190 416.455,6.912 416.234,6.690 415.955,6.548 415.646,6.500" style="fill:none;stroke-width:0.050000mm;stroke:black"/>
<polygon points="211.264,6.548 210.985,6.690 210.764,6.912 210.622,7.190 210.573,7.499 210.622,7.809 210.764,8.087 210.985,8.309 211.264,8.451 211.573,8.500 211.882,8.451 212.161,8.309 212.382,8.087 212.524,7.809 212.573,7.500 212.524,7.190 212.382,6.912 212.161,6.690 211.882,6.548 211.573,6.500" style="fill:none;stroke-width:0.050000mm;stroke:black"/>
</svg>
