M48
METRIC,LZ,000.000
;FILE_FORMAT=3:3
;TYPE=NON_PLATED
;Layer: Drill NPTH
;EasyEDA v6.4.20.2, 2021-06-30T10:48:07+02:00
;d10c3ea4707d49af85f46b29c2d7dc23,563db0ff5b334ec4995e7372edb549dc,10
;Gerber Generator version 0.2
;Holesize 1 = 0.650 mm
T01C0.650
;Holesize 2 = 1.501 mm
T02C1.501
;Holesize 3 = 1.905 mm
T03C1.905
;Holesize 4 = 4.191 mm
T04C4.191
%
G05
G90
T01
X014702Y164428
X008921Y164428
T02
X153016Y159908
X145998Y159969
T03
X016764Y138176
X006604Y138176
X016764Y119126
X006604Y119126
X016764Y100076
X006604Y100076
X016764Y081026
X006604Y081026
X016764Y061976
X006604Y061976
X150114Y095377
X139954Y095377
X035814Y145415
X025654Y145415
X054864Y152400
X044704Y152400
X073914Y157099
X063754Y157099
X092964Y159639
X082804Y159639
X112014Y157226
X101854Y157226
X131064Y154813
X120904Y154813
X035814Y126238
X025654Y126238
X054864Y133350
X044704Y133350
X073914Y138049
X063754Y138049
X092964Y140589
X082804Y140589
X112014Y138176
X101854Y138176
X131064Y135763
X120904Y135763
X035814Y107315
X025654Y107315
X054864Y114300
X044704Y114300
X073914Y118999
X063754Y118999
X092964Y121539
X082804Y121539
X112014Y119126
X101854Y119126
X131064Y116713
X120904Y116713
X035814Y088138
X025654Y088138
X054864Y095250
X044704Y095250
X073914Y099949
X063754Y099949
X092964Y102489
X082804Y102489
X112014Y100076
X101854Y100076
X131064Y097663
X120904Y097663
X035814Y069088
X025654Y069088
X054864Y076200
X044704Y076200
X073914Y080899
X063754Y080899
X092964Y083439
X082804Y083439
X121539Y078740
X111379Y078740
X150114Y076327
X139954Y076327
T04
X011684Y138176
X011684Y119126
X011684Y100076
X011684Y081026
X011684Y061976
X145034Y095377
X030734Y145415
X049784Y152400
X068834Y157099
X087884Y159639
X106934Y157226
X125984Y154813
X030734Y126238
X049784Y133350
X068834Y138049
X087884Y140589
X106934Y138176
X125984Y135763
X030734Y107315
X049784Y114300
X068834Y118999
X087884Y121539
X106934Y119126
X125984Y116713
X030734Y088138
X049784Y095250
X068834Y099949
X087884Y102489
X106934Y100076
X125984Y097663
X030734Y069088
X049784Y076200
X068834Y080899
X087884Y083439
X116459Y078740
X145034Y076327
M30
