M48
METRIC,LZ,000.000
;FILE_FORMAT=3:3
;TYPE=PLATED
;Layer: Drill PTH
;EasyEDA v6.4.20.2, 2021-06-30T10:48:07+02:00
;d10c3ea4707d49af85f46b29c2d7dc23,563db0ff5b334ec4995e7372edb549dc,10
;Gerber Generator version 0.2
;Holesize 1 = 0.305 mm
T01C0.305
;Holesize 2 = 0.310 mm
T02C0.310
;Holesize 3 = 0.600 mm
T03C0.600
;Holesize 4 = 0.800 mm
T04C0.800
;Holesize 5 = 0.901 mm
T05C0.901
;Holesize 6 = 1.016 mm
T06C1.016
;Holesize 7 = 1.101 mm
T07C1.101
;Holesize 8 = 1.524 mm
T08C1.524
%
G05
G90
T01
X139496Y148336
X140208Y147701
X139700Y162052
X140462Y163068
X137922Y157988
X137922Y130810
X057658Y159004
X057658Y150241
X050038Y157099
X045974Y128778
X032004Y133096
X035501Y157480
X034417Y135001
X018669Y135001
X036830Y154178
X042545Y149098
X043307Y156210
X045212Y148082
X141351Y148971
X141986Y149606
X141351Y133604
X141986Y135763
X028194Y130302
X059944Y129667
X059944Y087757
X096266Y091313
X096266Y082423
X100457Y074168
X086614Y074295
X099695Y080899
X080391Y081026
X079756Y080364
X079756Y108712
X080391Y109347
X038354Y104394
X038735Y105410
X136525Y089154
X136525Y156845
X099695Y074803
X096266Y084663
X097155Y080137
X097917Y080645
X097917Y135509
X098552Y081788
X099441Y081788
X098552Y112014
X099441Y093345
X097124Y154305
X100330Y081788
X100330Y094996
X101473Y074930
X101727Y081534
X102743Y080391
X101092Y092583
X140716Y069850
X107696Y070993
X040259Y153162
X039751Y135890
X041148Y154178
X039497Y116713
X041656Y158369
X038354Y097790
X038354Y090678
X053848Y161290
X056642Y155702
X022606Y157734
X020701Y071374
X045339Y160909
X046355Y161290
X136525Y145765
X046609Y149225
X094742Y156591
X038989Y167259
X116205Y108204
X040005Y166878
X115570Y161036
X046736Y163322
X110998Y074803
X114173Y069342
X119380Y069469
X066548Y073787
X011557Y164719
X012827Y164465
T02
X034163Y156591
X034163Y163957
X019812Y065659
X019050Y057658
X038989Y090170
X038989Y096266
X032131Y096266
X022479Y102235
X022479Y114046
X051054Y122174
X125730Y073787
X075565Y162179
X075565Y143129
X075565Y124079
X075565Y105029
X075565Y085979
X056642Y081280
X056642Y100330
X056642Y119380
X056642Y138430
X056642Y157480
X037465Y074168
X037465Y093218
X037465Y112395
X037465Y131318
X037465Y150495
X018669Y067056
X018669Y086106
X018669Y105156
X018669Y124206
X018669Y143256
X024003Y163449
X029210Y162052
X029464Y164719
X030226Y162306
X014478Y161925
X009144Y161925
X018542Y160909
X036703Y167005
X030861Y154305
X030226Y152146
X028194Y152908
X037846Y167005
X036830Y159766
X032385Y165735
X037465Y153543
X042545Y160659
X042545Y152146
X011811Y146647
X029464Y149860
X036830Y155067
X016510Y155067
X029337Y157226
X028194Y142621
X034163Y152908
X029464Y152908
X033528Y143637
X042164Y145923
X046101Y147066
X052832Y151765
X059309Y152654
X077216Y155194
X077343Y158496
X073787Y154305
X103886Y156210
X109982Y154940
X033528Y138938
X055245Y144526
X040513Y163830
X040767Y147320
X135255Y163576
X134366Y162687
X134366Y143510
X135255Y144272
X094742Y164719
X094742Y145669
X113792Y162306
X113792Y143256
X094742Y126619
X094742Y107569
X113792Y124206
X132969Y140970
X132969Y121793
X113792Y105156
X132969Y102743
X132969Y159893
X094742Y088519
X132969Y083058
X113792Y085598
X038862Y158115
X038100Y158369
X038354Y139700
X038354Y138811
X039116Y163576
X039878Y163195
X033528Y167132
X038481Y159131
X038481Y160401
X038354Y137922
X038735Y137033
X100457Y080772
T03
X016131Y168508G85X016131Y167708
X007491Y168508G85X007491Y167708
X016131Y164478G85X016131Y163378
X007491Y164478G85X007491Y163378
T04
X018859Y149873G85X018859Y149879
X018859Y151872G85X018859Y151878
X016860Y149873G85X016860Y149879
X016860Y151872G85X016860Y151878
X014858Y149873G85X014858Y149879
X014858Y151872G85X014858Y151878
X012860Y149873G85X012860Y149879
X012860Y151872G85X012860Y151878
X010858Y149873G85X010858Y149879
X010858Y151872G85X010858Y151878
T05
X143701Y162098G85X144600Y162098
X142701Y157688G85X143601Y157688
X147700Y162098G85X148600Y162098
X151039Y162098G85X151939Y162098
T06
X012954Y133096
X010414Y133096
X012954Y114046
X010414Y114046
X012954Y094996
X010414Y094996
X012954Y075946
X010414Y075946
X012954Y056896
X010414Y056896
X146304Y090297
X143764Y090297
X032004Y140335
X029464Y140335
X051054Y147320
X048514Y147320
X070104Y152019
X067564Y152019
X089154Y154559
X086614Y154559
X108204Y152146
X105664Y152146
X127254Y149733
X124714Y149733
X032004Y121158
X029464Y121158
X051054Y128270
X048514Y128270
X070104Y132969
X067564Y132969
X089154Y135509
X086614Y135509
X108204Y133096
X105664Y133096
X127254Y130683
X124714Y130683
X032004Y102235
X029464Y102235
X051054Y109220
X048514Y109220
X070104Y113919
X067564Y113919
X089154Y116459
X086614Y116459
X108204Y114046
X105664Y114046
X127254Y111633
X124714Y111633
X032004Y083058
X029464Y083058
X051054Y090170
X048514Y090170
X070104Y094869
X067564Y094869
X089154Y097409
X086614Y097409
X108204Y094996
X105664Y094996
X127254Y092583
X124714Y092583
X032004Y064008
X029464Y064008
X051054Y071120
X048514Y071120
X070104Y075819
X067564Y075819
X089154Y078359
X086614Y078359
X117729Y073660
X115189Y073660
X146304Y071247
X143764Y071247
T07
X148844Y149606
X148844Y152146
X148844Y154686
X148844Y138303
X148844Y135763
X148844Y133223
X148844Y130683
T08
X007874Y140716
X014224Y143256
X007874Y121666
X014224Y124206
X007874Y102616
X014224Y105156
X007874Y083566
X014224Y086106
X007874Y064516
X014224Y067056
X141224Y097917
X147574Y100457
X026924Y147955
X033274Y150495
X045974Y154940
X052324Y157480
X065024Y159639
X071374Y162179
X084074Y162179
X090424Y164719
X103124Y159766
X109474Y162306
X122174Y157353
X128524Y159893
X026924Y128778
X033274Y131318
X045974Y135890
X052324Y138430
X065024Y140589
X071374Y143129
X084074Y143129
X090424Y145669
X103124Y140716
X109474Y143256
X122174Y138303
X128524Y140843
X026924Y109855
X033274Y112395
X045974Y116840
X052324Y119380
X065024Y121539
X071374Y124079
X084074Y124079
X090424Y126619
X103124Y121666
X109474Y124206
X122174Y119253
X128524Y121793
X026924Y090678
X033274Y093218
X045974Y097790
X052324Y100330
X065024Y102489
X071374Y105029
X084074Y105029
X090424Y107569
X103124Y102616
X109474Y105156
X122174Y100203
X128524Y102743
X026924Y071628
X033274Y074168
X045974Y078740
X052324Y081280
X065024Y083439
X071374Y085979
X084074Y085979
X090424Y088519
X112649Y081280
X118999Y083820
X141224Y078867
X147574Y081407
M30
