G04 Layer: BottomSilkLayer*
G04 EasyEDA v6.4.20.2, 2021-06-30T10:48:07+02:00*
G04 d10c3ea4707d49af85f46b29c2d7dc23,563db0ff5b334ec4995e7372edb549dc,10*
G04 Gerber Generator version 0.2*
G04 Scale: 100 percent, Rotated: No, Reflected: No *
G04 Dimensions in millimeters *
G04 leading zeros omitted , absolute positions ,4 integer and 5 decimal *
%FSLAX45Y45*%
%MOMM*%

%ADD10C,0.2540*%
%ADD42C,0.1524*%
%ADD43C,0.2032*%
%ADD44C,0.2030*%
%ADD45C,0.1200*%
%ADD46C,0.0800*%
%ADD47C,0.1000*%
%ADD48C,0.1500*%
%ADD49C,0.2000*%
%ADD50C,0.1520*%
%ADD51C,0.4000*%

%LPD*%
D42*
X10526534Y8395208D02*
G01*
X10531868Y8405621D01*
X10542282Y8416036D01*
X10552442Y8421115D01*
X10573270Y8421115D01*
X10583684Y8416036D01*
X10594098Y8405621D01*
X10599432Y8395208D01*
X10604512Y8379460D01*
X10604512Y8353552D01*
X10599432Y8338058D01*
X10594098Y8327644D01*
X10583684Y8317229D01*
X10573270Y8312150D01*
X10552442Y8312150D01*
X10542282Y8317229D01*
X10531868Y8327644D01*
X10526534Y8338058D01*
X10440428Y8421115D02*
G01*
X10492244Y8348471D01*
X10414266Y8348471D01*
X10440428Y8421115D02*
G01*
X10440428Y8312150D01*
X15061184Y15488157D02*
G01*
X15066263Y15498571D01*
X15076677Y15508986D01*
X15087091Y15514320D01*
X15102840Y15519400D01*
X15128747Y15519400D01*
X15144241Y15514320D01*
X15154656Y15508986D01*
X15165070Y15498571D01*
X15170150Y15488157D01*
X15170150Y15467329D01*
X15165070Y15457170D01*
X15154656Y15446755D01*
X15144241Y15441421D01*
X15128747Y15436342D01*
X15102840Y15436342D01*
X15087091Y15441421D01*
X15076677Y15446755D01*
X15066263Y15457170D01*
X15061184Y15467329D01*
X15061184Y15488157D01*
X15061184Y15402052D02*
G01*
X15170150Y15402052D01*
X15170150Y15402052D02*
G01*
X15170150Y15339568D01*
X15061184Y15305278D02*
G01*
X15170150Y15305278D01*
X15061184Y15305278D02*
G01*
X15061184Y15237713D01*
X15113000Y15305278D02*
G01*
X15113000Y15263876D01*
X15170150Y15305278D02*
G01*
X15170150Y15237713D01*
X15061184Y15203424D02*
G01*
X15170150Y15203424D01*
X15061184Y15203424D02*
G01*
X15061184Y15167102D01*
X15066263Y15151607D01*
X15076677Y15141194D01*
X15087091Y15135860D01*
X15102840Y15130779D01*
X15128747Y15130779D01*
X15144241Y15135860D01*
X15154656Y15141194D01*
X15165070Y15151607D01*
X15170150Y15167102D01*
X15170150Y15203424D01*
X15061184Y15016479D02*
G01*
X15170150Y15016479D01*
X15061184Y15016479D02*
G01*
X15061184Y14969744D01*
X15066263Y14954250D01*
X15071597Y14948916D01*
X15082011Y14943836D01*
X15097506Y14943836D01*
X15107920Y14948916D01*
X15113000Y14954250D01*
X15118334Y14969744D01*
X15118334Y15016479D01*
X15097506Y14883384D02*
G01*
X15102840Y14893797D01*
X15113000Y14904212D01*
X15128747Y14909545D01*
X15139161Y14909545D01*
X15154656Y14904212D01*
X15165070Y14893797D01*
X15170150Y14883384D01*
X15170150Y14867889D01*
X15165070Y14857476D01*
X15154656Y14847062D01*
X15139161Y14841981D01*
X15128747Y14841981D01*
X15113000Y14847062D01*
X15102840Y14857476D01*
X15097506Y14867889D01*
X15097506Y14883384D01*
X15097506Y14807692D02*
G01*
X15170150Y14807692D01*
X15128747Y14807692D02*
G01*
X15113000Y14802357D01*
X15102840Y14791944D01*
X15097506Y14781529D01*
X15097506Y14766036D01*
X15061184Y14716252D02*
G01*
X15149575Y14716252D01*
X15165070Y14710918D01*
X15170150Y14700504D01*
X15170150Y14690089D01*
X15097506Y14731745D02*
G01*
X15097506Y14695424D01*
X14591284Y14770100D02*
G01*
X14700250Y14770100D01*
X14591284Y14770100D02*
G01*
X14591284Y14723363D01*
X14596363Y14707870D01*
X14601697Y14702536D01*
X14612111Y14697455D01*
X14627606Y14697455D01*
X14638020Y14702536D01*
X14643100Y14707870D01*
X14648434Y14723363D01*
X14648434Y14770100D01*
X14591284Y14611095D02*
G01*
X14663927Y14663166D01*
X14663927Y14585187D01*
X14591284Y14611095D02*
G01*
X14700250Y14611095D01*
X4050284Y15049489D02*
G01*
X4159250Y15049489D01*
X4050284Y15049489D02*
G01*
X4050284Y15002753D01*
X4055363Y14987259D01*
X4060697Y14981925D01*
X4071111Y14976845D01*
X4081525Y14976845D01*
X4091940Y14981925D01*
X4097020Y14987259D01*
X4102100Y15002753D01*
X4102100Y15049489D01*
X4102100Y15013167D02*
G01*
X4159250Y14976845D01*
X4071111Y14942555D02*
G01*
X4065777Y14932141D01*
X4050284Y14916393D01*
X4159250Y14916393D01*
X4076191Y14877023D02*
G01*
X4071111Y14877023D01*
X4060697Y14871689D01*
X4055363Y14866609D01*
X4050284Y14856195D01*
X4050284Y14835367D01*
X4055363Y14824953D01*
X4060697Y14819873D01*
X4071111Y14814539D01*
X4081525Y14814539D01*
X4091940Y14819873D01*
X4107434Y14830287D01*
X4159250Y14882103D01*
X4159250Y14809459D01*
X4060443Y13920975D02*
G01*
X4050029Y13910561D01*
X4034536Y13905481D01*
X4013708Y13905481D01*
X3998213Y13910561D01*
X3987800Y13920975D01*
X3987800Y13931389D01*
X3992879Y13941803D01*
X3998213Y13947137D01*
X4008627Y13952217D01*
X4039870Y13962631D01*
X4050029Y13967711D01*
X4055363Y13973045D01*
X4060443Y13983459D01*
X4060443Y13998953D01*
X4050029Y14009367D01*
X4034536Y14014447D01*
X4013708Y14014447D01*
X3998213Y14009367D01*
X3987800Y13998953D01*
X4094734Y13905481D02*
G01*
X4120895Y14014447D01*
X4146804Y13905481D02*
G01*
X4120895Y14014447D01*
X4146804Y13905481D02*
G01*
X4172711Y14014447D01*
X4198620Y13905481D02*
G01*
X4172711Y14014447D01*
X4300474Y13941803D02*
G01*
X4295393Y13957297D01*
X4284979Y13967711D01*
X4269486Y13973045D01*
X4264152Y13973045D01*
X4248658Y13967711D01*
X4238243Y13957297D01*
X4232909Y13941803D01*
X4232909Y13936723D01*
X4238243Y13920975D01*
X4248658Y13910561D01*
X4264152Y13905481D01*
X4269486Y13905481D01*
X4284979Y13910561D01*
X4295393Y13920975D01*
X4300474Y13941803D01*
X4300474Y13967711D01*
X4295393Y13993873D01*
X4284979Y14009367D01*
X4269486Y14014447D01*
X4259072Y14014447D01*
X4243324Y14009367D01*
X4238243Y13998953D01*
X4402327Y13941803D02*
G01*
X4397247Y13957297D01*
X4386834Y13967711D01*
X4371340Y13973045D01*
X4366006Y13973045D01*
X4350511Y13967711D01*
X4340097Y13957297D01*
X4334763Y13941803D01*
X4334763Y13936723D01*
X4340097Y13920975D01*
X4350511Y13910561D01*
X4366006Y13905481D01*
X4371340Y13905481D01*
X4386834Y13910561D01*
X4397247Y13920975D01*
X4402327Y13941803D01*
X4402327Y13967711D01*
X4397247Y13993873D01*
X4386834Y14009367D01*
X4371340Y14014447D01*
X4360925Y14014447D01*
X4345177Y14009367D01*
X4340097Y13998953D01*
X2391064Y13625253D02*
G01*
X2401455Y13635644D01*
X2417041Y13640838D01*
X2437823Y13640838D01*
X2453408Y13635644D01*
X2463800Y13625253D01*
X2463800Y13614862D01*
X2458605Y13604471D01*
X2453408Y13599274D01*
X2443017Y13594079D01*
X2411844Y13583688D01*
X2401455Y13578494D01*
X2396258Y13573297D01*
X2391064Y13562906D01*
X2391064Y13547321D01*
X2401455Y13536929D01*
X2417041Y13531735D01*
X2437823Y13531735D01*
X2453408Y13536929D01*
X2463800Y13547321D01*
X2356774Y13640838D02*
G01*
X2330795Y13531735D01*
X2304818Y13640838D02*
G01*
X2330795Y13531735D01*
X2304818Y13640838D02*
G01*
X2278842Y13531735D01*
X2252865Y13640838D02*
G01*
X2278842Y13531735D01*
X2187402Y13640838D02*
G01*
X2202987Y13635644D01*
X2213378Y13620056D01*
X2218575Y13594079D01*
X2218575Y13578494D01*
X2213378Y13552515D01*
X2202987Y13536929D01*
X2187402Y13531735D01*
X2177011Y13531735D01*
X2161425Y13536929D01*
X2151034Y13552515D01*
X2145837Y13578494D01*
X2145837Y13594079D01*
X2151034Y13620056D01*
X2161425Y13635644D01*
X2177011Y13640838D01*
X2187402Y13640838D01*
X3416289Y15444216D02*
G01*
X3416289Y15335250D01*
X3416289Y15444216D02*
G01*
X3369553Y15444216D01*
X3354059Y15439136D01*
X3348725Y15433802D01*
X3343645Y15423387D01*
X3343645Y15412974D01*
X3348725Y15402560D01*
X3354059Y15397479D01*
X3369553Y15392400D01*
X3416289Y15392400D01*
X3379967Y15392400D02*
G01*
X3343645Y15335250D01*
X3309355Y15423387D02*
G01*
X3298941Y15428721D01*
X3283193Y15444216D01*
X3283193Y15335250D01*
X3217915Y15444216D02*
G01*
X3233409Y15439136D01*
X3243823Y15423387D01*
X3248903Y15397479D01*
X3248903Y15381986D01*
X3243823Y15355824D01*
X3233409Y15340329D01*
X3217915Y15335250D01*
X3207501Y15335250D01*
X3191753Y15340329D01*
X3181339Y15355824D01*
X3176259Y15381986D01*
X3176259Y15397479D01*
X3181339Y15423387D01*
X3191753Y15439136D01*
X3207501Y15444216D01*
X3217915Y15444216D01*
X2984489Y15647416D02*
G01*
X2984489Y15538450D01*
X2984489Y15647416D02*
G01*
X2937753Y15647416D01*
X2922259Y15642336D01*
X2916925Y15637002D01*
X2911845Y15626587D01*
X2911845Y15616174D01*
X2916925Y15605760D01*
X2922259Y15600679D01*
X2937753Y15595600D01*
X2984489Y15595600D01*
X2948167Y15595600D02*
G01*
X2911845Y15538450D01*
X2877555Y15626587D02*
G01*
X2867141Y15631921D01*
X2851393Y15647416D01*
X2851393Y15538450D01*
X2817103Y15626587D02*
G01*
X2806689Y15631921D01*
X2791195Y15647416D01*
X2791195Y15538450D01*
X940815Y15024100D02*
G01*
X831850Y15024100D01*
X940815Y15024100D02*
G01*
X940815Y15070836D01*
X935736Y15086329D01*
X930402Y15091663D01*
X919987Y15096744D01*
X904494Y15096744D01*
X894079Y15091663D01*
X889000Y15086329D01*
X883665Y15070836D01*
X883665Y15024100D01*
X919987Y15131034D02*
G01*
X925321Y15141447D01*
X940815Y15157195D01*
X831850Y15157195D01*
X13576300Y12904215D02*
G01*
X13576300Y12795250D01*
X13576300Y12904215D02*
G01*
X13529563Y12904215D01*
X13514070Y12899136D01*
X13508736Y12893802D01*
X13503656Y12883387D01*
X13503656Y12872974D01*
X13508736Y12862560D01*
X13514070Y12857479D01*
X13529563Y12852400D01*
X13576300Y12852400D02*
G01*
X13529563Y12852400D01*
X13514070Y12847065D01*
X13508736Y12841986D01*
X13503656Y12831571D01*
X13503656Y12815824D01*
X13508736Y12805410D01*
X13514070Y12800329D01*
X13529563Y12795250D01*
X13576300Y12795250D01*
X13469366Y12883387D02*
G01*
X13458952Y12888721D01*
X13443204Y12904215D01*
X13443204Y12795250D01*
X2741414Y16040607D02*
G01*
X2746748Y16051021D01*
X2757162Y16061436D01*
X2767322Y16066516D01*
X2788150Y16066516D01*
X2798564Y16061436D01*
X2808978Y16051021D01*
X2814312Y16040607D01*
X2819392Y16024860D01*
X2819392Y15998952D01*
X2814312Y15983457D01*
X2808978Y15973044D01*
X2798564Y15962629D01*
X2788150Y15957550D01*
X2767322Y15957550D01*
X2757162Y15962629D01*
X2746748Y15973044D01*
X2741414Y15983457D01*
X2707124Y16045687D02*
G01*
X2696710Y16051021D01*
X2681216Y16066516D01*
X2681216Y15957550D01*
X1852414Y16713707D02*
G01*
X1857748Y16724121D01*
X1868162Y16734536D01*
X1878322Y16739616D01*
X1899150Y16739616D01*
X1909564Y16734536D01*
X1919978Y16724121D01*
X1925312Y16713707D01*
X1930392Y16697960D01*
X1930392Y16672052D01*
X1925312Y16656557D01*
X1919978Y16646144D01*
X1909564Y16635729D01*
X1899150Y16630650D01*
X1878322Y16630650D01*
X1868162Y16635729D01*
X1857748Y16646144D01*
X1852414Y16656557D01*
X1813044Y16713707D02*
G01*
X1813044Y16718787D01*
X1807710Y16729202D01*
X1802630Y16734536D01*
X1792216Y16739616D01*
X1771388Y16739616D01*
X1760974Y16734536D01*
X1755894Y16729202D01*
X1750560Y16718787D01*
X1750560Y16708374D01*
X1755894Y16697960D01*
X1766308Y16682466D01*
X1818124Y16630650D01*
X1745480Y16630650D01*
X5433834Y16358107D02*
G01*
X5439168Y16368521D01*
X5449582Y16378936D01*
X5459742Y16384016D01*
X5480570Y16384016D01*
X5490984Y16378936D01*
X5501398Y16368521D01*
X5506732Y16358107D01*
X5511812Y16342360D01*
X5511812Y16316452D01*
X5506732Y16300957D01*
X5501398Y16290544D01*
X5490984Y16280129D01*
X5480570Y16275050D01*
X5459742Y16275050D01*
X5449582Y16280129D01*
X5439168Y16290544D01*
X5433834Y16300957D01*
X5389130Y16384016D02*
G01*
X5331980Y16384016D01*
X5363222Y16342360D01*
X5347728Y16342360D01*
X5337314Y16337279D01*
X5331980Y16332200D01*
X5326900Y16316452D01*
X5326900Y16306037D01*
X5331980Y16290544D01*
X5342394Y16280129D01*
X5358142Y16275050D01*
X5373636Y16275050D01*
X5389130Y16280129D01*
X5394464Y16285210D01*
X5399544Y16295624D01*
X5446534Y16142207D02*
G01*
X5451868Y16152621D01*
X5462282Y16163036D01*
X5472442Y16168116D01*
X5493270Y16168116D01*
X5503684Y16163036D01*
X5514098Y16152621D01*
X5519432Y16142207D01*
X5524512Y16126460D01*
X5524512Y16100552D01*
X5519432Y16085057D01*
X5514098Y16074644D01*
X5503684Y16064229D01*
X5493270Y16059150D01*
X5472442Y16059150D01*
X5462282Y16064229D01*
X5451868Y16074644D01*
X5446534Y16085057D01*
X5350014Y16168116D02*
G01*
X5401830Y16168116D01*
X5407164Y16121379D01*
X5401830Y16126460D01*
X5386336Y16131794D01*
X5370842Y16131794D01*
X5355094Y16126460D01*
X5344680Y16116300D01*
X5339600Y16100552D01*
X5339600Y16090137D01*
X5344680Y16074644D01*
X5355094Y16064229D01*
X5370842Y16059150D01*
X5386336Y16059150D01*
X5401830Y16064229D01*
X5407164Y16069310D01*
X5412244Y16079724D01*
X3338334Y16510507D02*
G01*
X3343668Y16520921D01*
X3354082Y16531336D01*
X3364242Y16536416D01*
X3385070Y16536416D01*
X3395484Y16531336D01*
X3405898Y16520921D01*
X3411232Y16510507D01*
X3416312Y16494760D01*
X3416312Y16468852D01*
X3411232Y16453357D01*
X3405898Y16442944D01*
X3395484Y16432529D01*
X3385070Y16427450D01*
X3364242Y16427450D01*
X3354082Y16432529D01*
X3343668Y16442944D01*
X3338334Y16453357D01*
X3241814Y16520921D02*
G01*
X3246894Y16531336D01*
X3262642Y16536416D01*
X3272802Y16536416D01*
X3288550Y16531336D01*
X3298964Y16515587D01*
X3304044Y16489679D01*
X3304044Y16463771D01*
X3298964Y16442944D01*
X3288550Y16432529D01*
X3272802Y16427450D01*
X3267722Y16427450D01*
X3252228Y16432529D01*
X3241814Y16442944D01*
X3236480Y16458437D01*
X3236480Y16463771D01*
X3241814Y16479266D01*
X3252228Y16489679D01*
X3267722Y16494760D01*
X3272802Y16494760D01*
X3288550Y16489679D01*
X3298964Y16479266D01*
X3304044Y16463771D01*
X4418926Y16713707D02*
G01*
X4424260Y16724121D01*
X4434674Y16734536D01*
X4444834Y16739616D01*
X4465662Y16739616D01*
X4476076Y16734536D01*
X4486490Y16724121D01*
X4491824Y16713707D01*
X4496904Y16697960D01*
X4496904Y16672052D01*
X4491824Y16656557D01*
X4486490Y16646144D01*
X4476076Y16635729D01*
X4465662Y16630650D01*
X4444834Y16630650D01*
X4434674Y16635729D01*
X4424260Y16646144D01*
X4418926Y16656557D01*
X4311992Y16739616D02*
G01*
X4363808Y16630650D01*
X4384636Y16739616D02*
G01*
X4311992Y16739616D01*
X3617734Y15304007D02*
G01*
X3623068Y15314421D01*
X3633482Y15324836D01*
X3643642Y15329916D01*
X3664470Y15329916D01*
X3674884Y15324836D01*
X3685298Y15314421D01*
X3690632Y15304007D01*
X3695712Y15288260D01*
X3695712Y15262352D01*
X3690632Y15246857D01*
X3685298Y15236444D01*
X3674884Y15226029D01*
X3664470Y15220950D01*
X3643642Y15220950D01*
X3633482Y15226029D01*
X3623068Y15236444D01*
X3617734Y15246857D01*
X3557536Y15329916D02*
G01*
X3573030Y15324836D01*
X3578364Y15314421D01*
X3578364Y15304007D01*
X3573030Y15293594D01*
X3562616Y15288260D01*
X3542042Y15283179D01*
X3526294Y15278100D01*
X3515880Y15267686D01*
X3510800Y15257271D01*
X3510800Y15241524D01*
X3515880Y15231110D01*
X3521214Y15226029D01*
X3536708Y15220950D01*
X3557536Y15220950D01*
X3573030Y15226029D01*
X3578364Y15231110D01*
X3583444Y15241524D01*
X3583444Y15257271D01*
X3578364Y15267686D01*
X3567950Y15278100D01*
X3552202Y15283179D01*
X3531628Y15288260D01*
X3521214Y15293594D01*
X3515880Y15304007D01*
X3515880Y15314421D01*
X3521214Y15324836D01*
X3536708Y15329916D01*
X3557536Y15329916D01*
X5004308Y15914865D02*
G01*
X5014722Y15909531D01*
X5025136Y15899117D01*
X5030215Y15888957D01*
X5030215Y15868129D01*
X5025136Y15857715D01*
X5014722Y15847301D01*
X5004308Y15841967D01*
X4988559Y15836887D01*
X4962652Y15836887D01*
X4947158Y15841967D01*
X4936743Y15847301D01*
X4926329Y15857715D01*
X4921250Y15868129D01*
X4921250Y15888957D01*
X4926329Y15899117D01*
X4936743Y15909531D01*
X4947158Y15914865D01*
X4993893Y16016719D02*
G01*
X4978400Y16011385D01*
X4967986Y16000971D01*
X4962652Y15985477D01*
X4962652Y15980397D01*
X4967986Y15964649D01*
X4978400Y15954235D01*
X4993893Y15949155D01*
X4998974Y15949155D01*
X5014722Y15954235D01*
X5025136Y15964649D01*
X5030215Y15980397D01*
X5030215Y15985477D01*
X5025136Y16000971D01*
X5014722Y16011385D01*
X4993893Y16016719D01*
X4967986Y16016719D01*
X4941824Y16011385D01*
X4926329Y16000971D01*
X4921250Y15985477D01*
X4921250Y15975063D01*
X4926329Y15959569D01*
X4936743Y15954235D01*
X9272015Y7823210D02*
G01*
X9163050Y7823210D01*
X9272015Y7823210D02*
G01*
X9272015Y7869946D01*
X9266936Y7885440D01*
X9261602Y7890774D01*
X9251188Y7895854D01*
X9240774Y7895854D01*
X9230359Y7890774D01*
X9225279Y7885440D01*
X9220200Y7869946D01*
X9220200Y7823210D01*
X9220200Y7859532D02*
G01*
X9163050Y7895854D01*
X9272015Y7992628D02*
G01*
X9272015Y7940558D01*
X9225279Y7935478D01*
X9230359Y7940558D01*
X9235693Y7956306D01*
X9235693Y7971800D01*
X9230359Y7987294D01*
X9220200Y7997708D01*
X9204452Y8003042D01*
X9194038Y8003042D01*
X9178543Y7997708D01*
X9168129Y7987294D01*
X9163050Y7971800D01*
X9163050Y7956306D01*
X9168129Y7940558D01*
X9173209Y7935478D01*
X9183624Y7930144D01*
X9664689Y8370315D02*
G01*
X9664689Y8261350D01*
X9664689Y8370315D02*
G01*
X9617953Y8370315D01*
X9602459Y8365236D01*
X9597125Y8359902D01*
X9592045Y8349487D01*
X9592045Y8339073D01*
X9597125Y8328660D01*
X9602459Y8323579D01*
X9617953Y8318500D01*
X9664689Y8318500D01*
X9628367Y8318500D02*
G01*
X9592045Y8261350D01*
X9490191Y8333994D02*
G01*
X9495271Y8318500D01*
X9505685Y8308086D01*
X9521179Y8302752D01*
X9526513Y8302752D01*
X9542007Y8308086D01*
X9552421Y8318500D01*
X9557755Y8333994D01*
X9557755Y8339073D01*
X9552421Y8354821D01*
X9542007Y8365236D01*
X9526513Y8370315D01*
X9521179Y8370315D01*
X9505685Y8365236D01*
X9495271Y8354821D01*
X9490191Y8333994D01*
X9490191Y8308086D01*
X9495271Y8281923D01*
X9505685Y8266429D01*
X9521179Y8261350D01*
X9531593Y8261350D01*
X9547341Y8266429D01*
X9552421Y8276844D01*
X2667000Y16752316D02*
G01*
X2667000Y16674337D01*
X2661920Y16658844D01*
X2651506Y16648429D01*
X2635758Y16643350D01*
X2625343Y16643350D01*
X2609850Y16648429D01*
X2599436Y16658844D01*
X2594356Y16674337D01*
X2594356Y16752316D01*
X2560065Y16731487D02*
G01*
X2549652Y16736821D01*
X2533904Y16752316D01*
X2533904Y16643350D01*
X4876812Y16561828D02*
G01*
X4804168Y16452862D01*
X4804168Y16561828D02*
G01*
X4876812Y16452862D01*
X4769878Y16541000D02*
G01*
X4759464Y16546334D01*
X4743716Y16561828D01*
X4743716Y16452862D01*
X3237229Y16142716D02*
G01*
X3237229Y16059657D01*
X3242563Y16043910D01*
X3247643Y16038829D01*
X3258058Y16033750D01*
X3268472Y16033750D01*
X3278886Y16038829D01*
X3284220Y16043910D01*
X3289300Y16059657D01*
X3289300Y16070071D01*
X3202940Y16121887D02*
G01*
X3192779Y16127221D01*
X3177031Y16142716D01*
X3177031Y16033750D01*
X1422389Y15545816D02*
G01*
X1422389Y15436850D01*
X1422389Y15545816D02*
G01*
X1375653Y15545816D01*
X1360159Y15540736D01*
X1354825Y15535402D01*
X1349745Y15524987D01*
X1349745Y15514574D01*
X1354825Y15504160D01*
X1360159Y15499079D01*
X1375653Y15494000D01*
X1422389Y15494000D01*
X1386067Y15494000D02*
G01*
X1349745Y15436850D01*
X1315455Y15524987D02*
G01*
X1305041Y15530321D01*
X1289293Y15545816D01*
X1289293Y15436850D01*
X1079489Y15545816D02*
G01*
X1079489Y15436850D01*
X1079489Y15545816D02*
G01*
X1032753Y15545816D01*
X1017259Y15540736D01*
X1011925Y15535402D01*
X1006845Y15524987D01*
X1006845Y15514574D01*
X1011925Y15504160D01*
X1017259Y15499079D01*
X1032753Y15494000D01*
X1079489Y15494000D01*
X1043167Y15494000D02*
G01*
X1006845Y15436850D01*
X967221Y15519907D02*
G01*
X967221Y15524987D01*
X962141Y15535402D01*
X956807Y15540736D01*
X946393Y15545816D01*
X925819Y15545816D01*
X915405Y15540736D01*
X910071Y15535402D01*
X904991Y15524987D01*
X904991Y15514574D01*
X910071Y15504160D01*
X920485Y15488666D01*
X972555Y15436850D01*
X899657Y15436850D01*
X712215Y15925810D02*
G01*
X603250Y15925810D01*
X712215Y15925810D02*
G01*
X712215Y15972546D01*
X707136Y15988040D01*
X701802Y15993374D01*
X691387Y15998454D01*
X680973Y15998454D01*
X670560Y15993374D01*
X665479Y15988040D01*
X660400Y15972546D01*
X660400Y15925810D01*
X660400Y15962132D02*
G01*
X603250Y15998454D01*
X712215Y16043158D02*
G01*
X712215Y16100308D01*
X670560Y16069320D01*
X670560Y16084814D01*
X665479Y16095228D01*
X660400Y16100308D01*
X644652Y16105642D01*
X634237Y16105642D01*
X618744Y16100308D01*
X608329Y16089894D01*
X603250Y16074400D01*
X603250Y16058906D01*
X608329Y16043158D01*
X613410Y16038078D01*
X623823Y16032744D01*
X1649984Y16090889D02*
G01*
X1758950Y16090889D01*
X1649984Y16090889D02*
G01*
X1649984Y16044153D01*
X1655063Y16028659D01*
X1660397Y16023325D01*
X1670812Y16018245D01*
X1681226Y16018245D01*
X1691639Y16023325D01*
X1696720Y16028659D01*
X1701800Y16044153D01*
X1701800Y16090889D01*
X1701800Y16054567D02*
G01*
X1758950Y16018245D01*
X1649984Y15931885D02*
G01*
X1722628Y15983955D01*
X1722628Y15905977D01*
X1649984Y15931885D02*
G01*
X1758950Y15931885D01*
X9612884Y7772400D02*
G01*
X9690861Y7772400D01*
X9706356Y7767320D01*
X9716770Y7756905D01*
X9721850Y7741158D01*
X9721850Y7730744D01*
X9716770Y7715250D01*
X9706356Y7704836D01*
X9690861Y7699755D01*
X9612884Y7699755D01*
X9638791Y7660131D02*
G01*
X9633711Y7660131D01*
X9623297Y7655052D01*
X9617963Y7649718D01*
X9612884Y7639304D01*
X9612884Y7618729D01*
X9617963Y7608315D01*
X9623297Y7602981D01*
X9633711Y7597902D01*
X9644125Y7597902D01*
X9654540Y7602981D01*
X9670034Y7613395D01*
X9721850Y7665465D01*
X9721850Y7592568D01*
X10643615Y7772486D02*
G01*
X10534650Y7772486D01*
X10643615Y7772486D02*
G01*
X10643615Y7819222D01*
X10638536Y7834716D01*
X10633202Y7840050D01*
X10622788Y7845130D01*
X10612374Y7845130D01*
X10601959Y7840050D01*
X10596879Y7834716D01*
X10591800Y7819222D01*
X10591800Y7772486D01*
X10591800Y7808808D02*
G01*
X10534650Y7845130D01*
X10628122Y7941904D02*
G01*
X10638536Y7936570D01*
X10643615Y7921076D01*
X10643615Y7910662D01*
X10638536Y7894914D01*
X10622788Y7884754D01*
X10596879Y7879420D01*
X10570972Y7879420D01*
X10550143Y7884754D01*
X10539729Y7894914D01*
X10534650Y7910662D01*
X10534650Y7915742D01*
X10539729Y7931490D01*
X10550143Y7941904D01*
X10565638Y7946984D01*
X10570972Y7946984D01*
X10586465Y7941904D01*
X10596879Y7931490D01*
X10601959Y7915742D01*
X10601959Y7910662D01*
X10596879Y7894914D01*
X10586465Y7884754D01*
X10570972Y7879420D01*
X10643615Y7378786D02*
G01*
X10534650Y7378786D01*
X10643615Y7378786D02*
G01*
X10643615Y7425522D01*
X10638536Y7441016D01*
X10633202Y7446350D01*
X10622788Y7451430D01*
X10612374Y7451430D01*
X10601959Y7446350D01*
X10596879Y7441016D01*
X10591800Y7425522D01*
X10591800Y7378786D01*
X10591800Y7415108D02*
G01*
X10534650Y7451430D01*
X10643615Y7558364D02*
G01*
X10534650Y7506548D01*
X10643615Y7485720D02*
G01*
X10643615Y7558364D01*
X2502915Y14719386D02*
G01*
X2393950Y14719386D01*
X2502915Y14719386D02*
G01*
X2502915Y14766122D01*
X2497836Y14781616D01*
X2492502Y14786950D01*
X2482088Y14792030D01*
X2471674Y14792030D01*
X2461259Y14786950D01*
X2456179Y14781616D01*
X2451100Y14766122D01*
X2451100Y14719386D01*
X2451100Y14755708D02*
G01*
X2393950Y14792030D01*
X2502915Y14852228D02*
G01*
X2497836Y14836734D01*
X2487422Y14831654D01*
X2477008Y14831654D01*
X2466593Y14836734D01*
X2461259Y14847148D01*
X2456179Y14867976D01*
X2451100Y14883470D01*
X2440686Y14893884D01*
X2430272Y14898964D01*
X2414524Y14898964D01*
X2404109Y14893884D01*
X2399029Y14888804D01*
X2393950Y14873056D01*
X2393950Y14852228D01*
X2399029Y14836734D01*
X2404109Y14831654D01*
X2414524Y14826320D01*
X2430272Y14826320D01*
X2440686Y14831654D01*
X2451100Y14841814D01*
X2456179Y14857562D01*
X2461259Y14878390D01*
X2466593Y14888804D01*
X2477008Y14893884D01*
X2487422Y14893884D01*
X2497836Y14888804D01*
X2502915Y14873056D01*
X2502915Y14852228D01*
X1092200Y16115284D02*
G01*
X1092200Y16224250D01*
X1092200Y16115284D02*
G01*
X1128521Y16115284D01*
X1144270Y16120363D01*
X1154429Y16130778D01*
X1159763Y16141192D01*
X1164844Y16156939D01*
X1164844Y16182847D01*
X1159763Y16198342D01*
X1154429Y16208755D01*
X1144270Y16219170D01*
X1128521Y16224250D01*
X1092200Y16224250D01*
X1230376Y16115284D02*
G01*
X1214881Y16120363D01*
X1204468Y16136112D01*
X1199134Y16162020D01*
X1199134Y16177513D01*
X1204468Y16203676D01*
X1214881Y16219170D01*
X1230376Y16224250D01*
X1240789Y16224250D01*
X1256284Y16219170D01*
X1266697Y16203676D01*
X1272031Y16177513D01*
X1272031Y16162020D01*
X1266697Y16136112D01*
X1256284Y16120363D01*
X1240789Y16115284D01*
X1230376Y16115284D01*
X4381500Y15533116D02*
G01*
X4381500Y15455137D01*
X4376420Y15439644D01*
X4366006Y15429229D01*
X4350258Y15424150D01*
X4339843Y15424150D01*
X4324350Y15429229D01*
X4313936Y15439644D01*
X4308856Y15455137D01*
X4308856Y15533116D01*
X4264152Y15533116D02*
G01*
X4207002Y15533116D01*
X4237990Y15491460D01*
X4222495Y15491460D01*
X4212081Y15486379D01*
X4207002Y15481300D01*
X4201668Y15465552D01*
X4201668Y15455137D01*
X4207002Y15439644D01*
X4217415Y15429229D01*
X4232909Y15424150D01*
X4248404Y15424150D01*
X4264152Y15429229D01*
X4269231Y15434310D01*
X4274565Y15444724D01*
X15073861Y13868400D02*
G01*
X15182964Y13868400D01*
X15073861Y13868400D02*
G01*
X15073861Y13821641D01*
X15079055Y13806055D01*
X15084252Y13800858D01*
X15094643Y13795664D01*
X15110228Y13795664D01*
X15120620Y13800858D01*
X15125814Y13806055D01*
X15131011Y13821641D01*
X15131011Y13868400D01*
X15089446Y13688636D02*
G01*
X15079055Y13699027D01*
X15073861Y13714615D01*
X15073861Y13735395D01*
X15079055Y13750983D01*
X15089446Y13761374D01*
X15099837Y13761374D01*
X15110228Y13756177D01*
X15115425Y13750983D01*
X15120620Y13740592D01*
X15131011Y13709418D01*
X15136205Y13699027D01*
X15141402Y13693833D01*
X15151793Y13688636D01*
X15167378Y13688636D01*
X15177770Y13699027D01*
X15182964Y13714615D01*
X15182964Y13735395D01*
X15177770Y13750983D01*
X15167378Y13761374D01*
X15053078Y13560828D02*
G01*
X15219334Y13654346D01*
X15099837Y13521344D02*
G01*
X15094643Y13521344D01*
X15084252Y13516147D01*
X15079055Y13510953D01*
X15073861Y13500562D01*
X15073861Y13479779D01*
X15079055Y13469388D01*
X15084252Y13464194D01*
X15094643Y13458997D01*
X15105034Y13458997D01*
X15115425Y13464194D01*
X15131011Y13474585D01*
X15182964Y13526538D01*
X15182964Y13453803D01*
X15073861Y13339503D02*
G01*
X15182964Y13339503D01*
X15073861Y13339503D02*
G01*
X15073861Y13292744D01*
X15079055Y13277156D01*
X15084252Y13271962D01*
X15094643Y13266765D01*
X15110228Y13266765D01*
X15120620Y13271962D01*
X15125814Y13277156D01*
X15131011Y13292744D01*
X15131011Y13339503D01*
X15110228Y13206498D02*
G01*
X15115425Y13216889D01*
X15125814Y13227281D01*
X15141402Y13232475D01*
X15151793Y13232475D01*
X15167378Y13227281D01*
X15177770Y13216889D01*
X15182964Y13206498D01*
X15182964Y13190913D01*
X15177770Y13180522D01*
X15167378Y13170131D01*
X15151793Y13164934D01*
X15141402Y13164934D01*
X15125814Y13170131D01*
X15115425Y13180522D01*
X15110228Y13190913D01*
X15110228Y13206498D01*
X15110228Y13130644D02*
G01*
X15182964Y13130644D01*
X15141402Y13130644D02*
G01*
X15125814Y13125450D01*
X15115425Y13115058D01*
X15110228Y13104667D01*
X15110228Y13089082D01*
X15073861Y13039204D02*
G01*
X15162184Y13039204D01*
X15177770Y13034010D01*
X15182964Y13023618D01*
X15182964Y13013227D01*
X15110228Y13054792D02*
G01*
X15110228Y13018424D01*
X14603961Y13906500D02*
G01*
X14713064Y13906500D01*
X14603961Y13906500D02*
G01*
X14603961Y13859741D01*
X14609155Y13844155D01*
X14614352Y13838958D01*
X14624743Y13833764D01*
X14640328Y13833764D01*
X14650720Y13838958D01*
X14655914Y13844155D01*
X14661111Y13859741D01*
X14661111Y13906500D01*
X14629937Y13794277D02*
G01*
X14624743Y13794277D01*
X14614352Y13789083D01*
X14609155Y13783886D01*
X14603961Y13773495D01*
X14603961Y13752715D01*
X14609155Y13742324D01*
X14614352Y13737127D01*
X14624743Y13731933D01*
X14635134Y13731933D01*
X14645525Y13737127D01*
X14661111Y13747518D01*
X14713064Y13799474D01*
X14713064Y13726736D01*
X14108661Y16116300D02*
G01*
X14217764Y16116300D01*
X14108661Y16116300D02*
G01*
X14108661Y16069541D01*
X14113855Y16053955D01*
X14119052Y16048758D01*
X14129443Y16043564D01*
X14145028Y16043564D01*
X14155420Y16048758D01*
X14160614Y16053955D01*
X14165811Y16069541D01*
X14165811Y16116300D01*
X14108661Y15998883D02*
G01*
X14108661Y15941733D01*
X14150225Y15972904D01*
X14150225Y15957318D01*
X14155420Y15946927D01*
X14160614Y15941733D01*
X14176202Y15936536D01*
X14186593Y15936536D01*
X14202178Y15941733D01*
X14212570Y15952124D01*
X14217764Y15967710D01*
X14217764Y15983295D01*
X14212570Y15998883D01*
X14207375Y16004077D01*
X14196984Y16009274D01*
X648738Y16446500D02*
G01*
X570806Y16446500D01*
X555221Y16451694D01*
X544829Y16462085D01*
X539635Y16477673D01*
X539635Y16488064D01*
X544829Y16503650D01*
X555221Y16514041D01*
X570806Y16519235D01*
X648738Y16519235D01*
X633153Y16626263D02*
G01*
X643544Y16615872D01*
X648738Y16600284D01*
X648738Y16579504D01*
X643544Y16563916D01*
X633153Y16553525D01*
X622762Y16553525D01*
X612371Y16558722D01*
X607174Y16563916D01*
X601979Y16574307D01*
X591588Y16605481D01*
X586394Y16615872D01*
X581197Y16621066D01*
X570806Y16626263D01*
X555221Y16626263D01*
X544829Y16615872D01*
X539635Y16600284D01*
X539635Y16579504D01*
X544829Y16563916D01*
X555221Y16553525D01*
X648738Y16660553D02*
G01*
X539635Y16660553D01*
X648738Y16660553D02*
G01*
X648738Y16707312D01*
X643544Y16722897D01*
X638347Y16728094D01*
X627956Y16733288D01*
X617565Y16733288D01*
X607174Y16728094D01*
X601979Y16722897D01*
X596785Y16707312D01*
X596785Y16660553D02*
G01*
X596785Y16707312D01*
X591588Y16722897D01*
X586394Y16728094D01*
X576003Y16733288D01*
X560415Y16733288D01*
X550024Y16728094D01*
X544829Y16722897D01*
X539635Y16707312D01*
X539635Y16660553D01*
X622762Y16845511D02*
G01*
X633153Y16840314D01*
X643544Y16829925D01*
X648738Y16819534D01*
X648738Y16798752D01*
X643544Y16788361D01*
X633153Y16777970D01*
X622762Y16772775D01*
X607174Y16767578D01*
X581197Y16767578D01*
X565612Y16772775D01*
X555221Y16777970D01*
X544829Y16788361D01*
X539635Y16798752D01*
X539635Y16819534D01*
X544829Y16829925D01*
X555221Y16840314D01*
X565612Y16845511D01*
X627956Y16879801D02*
G01*
X633153Y16890192D01*
X648738Y16905777D01*
X539635Y16905777D01*
X1752600Y14250416D02*
G01*
X1752600Y14141450D01*
X1752600Y14250416D02*
G01*
X1716278Y14250416D01*
X1700529Y14245336D01*
X1690370Y14234921D01*
X1685036Y14224507D01*
X1679955Y14208760D01*
X1679955Y14182852D01*
X1685036Y14167357D01*
X1690370Y14156944D01*
X1700529Y14146529D01*
X1716278Y14141450D01*
X1752600Y14141450D01*
X1645665Y14229587D02*
G01*
X1635252Y14234921D01*
X1619504Y14250416D01*
X1619504Y14141450D01*
X3657600Y14974316D02*
G01*
X3657600Y14865350D01*
X3657600Y14974316D02*
G01*
X3621277Y14974316D01*
X3605529Y14969236D01*
X3595370Y14958821D01*
X3590036Y14948407D01*
X3584956Y14932660D01*
X3584956Y14906752D01*
X3590036Y14891257D01*
X3595370Y14880844D01*
X3605529Y14870429D01*
X3621277Y14865350D01*
X3657600Y14865350D01*
X3545331Y14948407D02*
G01*
X3545331Y14953487D01*
X3540252Y14963902D01*
X3534918Y14969236D01*
X3524504Y14974316D01*
X3503929Y14974316D01*
X3493515Y14969236D01*
X3488181Y14963902D01*
X3483102Y14953487D01*
X3483102Y14943074D01*
X3488181Y14932660D01*
X3498595Y14917166D01*
X3550665Y14865350D01*
X3477768Y14865350D01*
X5588000Y15672816D02*
G01*
X5588000Y15563850D01*
X5588000Y15672816D02*
G01*
X5551677Y15672816D01*
X5535929Y15667736D01*
X5525770Y15657321D01*
X5520436Y15646907D01*
X5515356Y15631160D01*
X5515356Y15605252D01*
X5520436Y15589757D01*
X5525770Y15579344D01*
X5535929Y15568929D01*
X5551677Y15563850D01*
X5588000Y15563850D01*
X5470652Y15672816D02*
G01*
X5413502Y15672816D01*
X5444490Y15631160D01*
X5428995Y15631160D01*
X5418581Y15626079D01*
X5413502Y15621000D01*
X5408168Y15605252D01*
X5408168Y15594837D01*
X5413502Y15579344D01*
X5423915Y15568929D01*
X5439409Y15563850D01*
X5454904Y15563850D01*
X5470652Y15568929D01*
X5475731Y15574010D01*
X5481065Y15584424D01*
X7480300Y16142716D02*
G01*
X7480300Y16033750D01*
X7480300Y16142716D02*
G01*
X7443977Y16142716D01*
X7428229Y16137636D01*
X7418070Y16127221D01*
X7412736Y16116807D01*
X7407656Y16101060D01*
X7407656Y16075152D01*
X7412736Y16059657D01*
X7418070Y16049244D01*
X7428229Y16038829D01*
X7443977Y16033750D01*
X7480300Y16033750D01*
X7321295Y16142716D02*
G01*
X7373365Y16070071D01*
X7295388Y16070071D01*
X7321295Y16142716D02*
G01*
X7321295Y16033750D01*
X9385300Y16396716D02*
G01*
X9385300Y16287750D01*
X9385300Y16396716D02*
G01*
X9348977Y16396716D01*
X9333229Y16391636D01*
X9323070Y16381221D01*
X9317736Y16370807D01*
X9312656Y16355060D01*
X9312656Y16329152D01*
X9317736Y16313657D01*
X9323070Y16303244D01*
X9333229Y16292829D01*
X9348977Y16287750D01*
X9385300Y16287750D01*
X9215881Y16396716D02*
G01*
X9267952Y16396716D01*
X9273031Y16349979D01*
X9267952Y16355060D01*
X9252204Y16360394D01*
X9236709Y16360394D01*
X9221215Y16355060D01*
X9210802Y16344900D01*
X9205468Y16329152D01*
X9205468Y16318737D01*
X9210802Y16303244D01*
X9221215Y16292829D01*
X9236709Y16287750D01*
X9252204Y16287750D01*
X9267952Y16292829D01*
X9273031Y16297910D01*
X9278365Y16308324D01*
X11290300Y16155416D02*
G01*
X11290300Y16046450D01*
X11290300Y16155416D02*
G01*
X11253977Y16155416D01*
X11238229Y16150336D01*
X11228070Y16139921D01*
X11222736Y16129507D01*
X11217656Y16113760D01*
X11217656Y16087852D01*
X11222736Y16072357D01*
X11228070Y16061944D01*
X11238229Y16051529D01*
X11253977Y16046450D01*
X11290300Y16046450D01*
X11120881Y16139921D02*
G01*
X11126215Y16150336D01*
X11141709Y16155416D01*
X11152124Y16155416D01*
X11167618Y16150336D01*
X11178031Y16134587D01*
X11183365Y16108679D01*
X11183365Y16082771D01*
X11178031Y16061944D01*
X11167618Y16051529D01*
X11152124Y16046450D01*
X11146790Y16046450D01*
X11131295Y16051529D01*
X11120881Y16061944D01*
X11115802Y16077437D01*
X11115802Y16082771D01*
X11120881Y16098266D01*
X11131295Y16108679D01*
X11146790Y16113760D01*
X11152124Y16113760D01*
X11167618Y16108679D01*
X11178031Y16098266D01*
X11183365Y16082771D01*
X13195300Y15914116D02*
G01*
X13195300Y15805150D01*
X13195300Y15914116D02*
G01*
X13158977Y15914116D01*
X13143229Y15909036D01*
X13133070Y15898621D01*
X13127736Y15888207D01*
X13122656Y15872460D01*
X13122656Y15846552D01*
X13127736Y15831057D01*
X13133070Y15820644D01*
X13143229Y15810229D01*
X13158977Y15805150D01*
X13195300Y15805150D01*
X13015468Y15914116D02*
G01*
X13067538Y15805150D01*
X13088365Y15914116D02*
G01*
X13015468Y15914116D01*
X1765300Y12345415D02*
G01*
X1765300Y12236450D01*
X1765300Y12345415D02*
G01*
X1728978Y12345415D01*
X1713229Y12340336D01*
X1703070Y12329921D01*
X1697736Y12319508D01*
X1692655Y12303760D01*
X1692655Y12277852D01*
X1697736Y12262358D01*
X1703070Y12251944D01*
X1713229Y12241529D01*
X1728978Y12236450D01*
X1765300Y12236450D01*
X1632204Y12345415D02*
G01*
X1647952Y12340336D01*
X1653031Y12329921D01*
X1653031Y12319508D01*
X1647952Y12309094D01*
X1637537Y12303760D01*
X1616710Y12298679D01*
X1601215Y12293600D01*
X1590802Y12283186D01*
X1585468Y12272771D01*
X1585468Y12257024D01*
X1590802Y12246610D01*
X1595881Y12241529D01*
X1611629Y12236450D01*
X1632204Y12236450D01*
X1647952Y12241529D01*
X1653031Y12246610D01*
X1658365Y12257024D01*
X1658365Y12272771D01*
X1653031Y12283186D01*
X1642618Y12293600D01*
X1627123Y12298679D01*
X1606295Y12303760D01*
X1595881Y12309094D01*
X1590802Y12319508D01*
X1590802Y12329921D01*
X1595881Y12340336D01*
X1611629Y12345415D01*
X1632204Y12345415D01*
X3670300Y13056615D02*
G01*
X3670300Y12947650D01*
X3670300Y13056615D02*
G01*
X3633977Y13056615D01*
X3618229Y13051536D01*
X3608070Y13041121D01*
X3602736Y13030708D01*
X3597656Y13014960D01*
X3597656Y12989052D01*
X3602736Y12973558D01*
X3608070Y12963144D01*
X3618229Y12952729D01*
X3633977Y12947650D01*
X3670300Y12947650D01*
X3495802Y13020294D02*
G01*
X3500881Y13004800D01*
X3511295Y12994386D01*
X3526790Y12989052D01*
X3532124Y12989052D01*
X3547618Y12994386D01*
X3558031Y13004800D01*
X3563365Y13020294D01*
X3563365Y13025374D01*
X3558031Y13041121D01*
X3547618Y13051536D01*
X3532124Y13056615D01*
X3526790Y13056615D01*
X3511295Y13051536D01*
X3500881Y13041121D01*
X3495802Y13020294D01*
X3495802Y12994386D01*
X3500881Y12968224D01*
X3511295Y12952729D01*
X3526790Y12947650D01*
X3537204Y12947650D01*
X3552952Y12952729D01*
X3558031Y12963144D01*
X5626100Y13767816D02*
G01*
X5626100Y13658850D01*
X5626100Y13767816D02*
G01*
X5589777Y13767816D01*
X5574029Y13762736D01*
X5563870Y13752321D01*
X5558536Y13741907D01*
X5553456Y13726160D01*
X5553456Y13700252D01*
X5558536Y13684757D01*
X5563870Y13674344D01*
X5574029Y13663929D01*
X5589777Y13658850D01*
X5626100Y13658850D01*
X5519165Y13746987D02*
G01*
X5508752Y13752321D01*
X5493004Y13767816D01*
X5493004Y13658850D01*
X5427725Y13767816D02*
G01*
X5443220Y13762736D01*
X5453634Y13746987D01*
X5458713Y13721079D01*
X5458713Y13705586D01*
X5453634Y13679424D01*
X5443220Y13663929D01*
X5427725Y13658850D01*
X5417311Y13658850D01*
X5401563Y13663929D01*
X5391150Y13679424D01*
X5386070Y13705586D01*
X5386070Y13721079D01*
X5391150Y13746987D01*
X5401563Y13762736D01*
X5417311Y13767816D01*
X5427725Y13767816D01*
X7505700Y14237716D02*
G01*
X7505700Y14128750D01*
X7505700Y14237716D02*
G01*
X7469377Y14237716D01*
X7453629Y14232636D01*
X7443470Y14222221D01*
X7438136Y14211807D01*
X7433056Y14196060D01*
X7433056Y14170152D01*
X7438136Y14154657D01*
X7443470Y14144244D01*
X7453629Y14133829D01*
X7469377Y14128750D01*
X7505700Y14128750D01*
X7398765Y14216887D02*
G01*
X7388352Y14222221D01*
X7372604Y14237716D01*
X7372604Y14128750D01*
X7338313Y14216887D02*
G01*
X7327900Y14222221D01*
X7312406Y14237716D01*
X7312406Y14128750D01*
X9423400Y14491716D02*
G01*
X9423400Y14382750D01*
X9423400Y14491716D02*
G01*
X9387077Y14491716D01*
X9371329Y14486636D01*
X9361170Y14476221D01*
X9355836Y14465807D01*
X9350756Y14450060D01*
X9350756Y14424152D01*
X9355836Y14408657D01*
X9361170Y14398244D01*
X9371329Y14387829D01*
X9387077Y14382750D01*
X9423400Y14382750D01*
X9316465Y14470887D02*
G01*
X9306052Y14476221D01*
X9290304Y14491716D01*
X9290304Y14382750D01*
X9250934Y14465807D02*
G01*
X9250934Y14470887D01*
X9245600Y14481302D01*
X9240520Y14486636D01*
X9230106Y14491716D01*
X9209277Y14491716D01*
X9198863Y14486636D01*
X9193784Y14481302D01*
X9188450Y14470887D01*
X9188450Y14460474D01*
X9193784Y14450060D01*
X9204197Y14434566D01*
X9256013Y14382750D01*
X9183370Y14382750D01*
X11328400Y14250416D02*
G01*
X11328400Y14141450D01*
X11328400Y14250416D02*
G01*
X11292077Y14250416D01*
X11276329Y14245336D01*
X11266170Y14234921D01*
X11260836Y14224507D01*
X11255756Y14208760D01*
X11255756Y14182852D01*
X11260836Y14167357D01*
X11266170Y14156944D01*
X11276329Y14146529D01*
X11292077Y14141450D01*
X11328400Y14141450D01*
X11221465Y14229587D02*
G01*
X11211052Y14234921D01*
X11195304Y14250416D01*
X11195304Y14141450D01*
X11150600Y14250416D02*
G01*
X11093450Y14250416D01*
X11124691Y14208760D01*
X11109197Y14208760D01*
X11098784Y14203679D01*
X11093450Y14198600D01*
X11088370Y14182852D01*
X11088370Y14172437D01*
X11093450Y14156944D01*
X11103863Y14146529D01*
X11119611Y14141450D01*
X11135106Y14141450D01*
X11150600Y14146529D01*
X11155934Y14151610D01*
X11161013Y14162024D01*
X13233400Y14009116D02*
G01*
X13233400Y13900150D01*
X13233400Y14009116D02*
G01*
X13197077Y14009116D01*
X13181329Y14004036D01*
X13171170Y13993621D01*
X13165836Y13983207D01*
X13160756Y13967460D01*
X13160756Y13941552D01*
X13165836Y13926057D01*
X13171170Y13915644D01*
X13181329Y13905229D01*
X13197077Y13900150D01*
X13233400Y13900150D01*
X13126466Y13988287D02*
G01*
X13116052Y13993621D01*
X13100304Y14009116D01*
X13100304Y13900150D01*
X13014197Y14009116D02*
G01*
X13066013Y13936471D01*
X12988290Y13936471D01*
X13014197Y14009116D02*
G01*
X13014197Y13900150D01*
X1816100Y10440415D02*
G01*
X1816100Y10331450D01*
X1816100Y10440415D02*
G01*
X1779778Y10440415D01*
X1764029Y10435336D01*
X1753870Y10424921D01*
X1748536Y10414508D01*
X1743455Y10398760D01*
X1743455Y10372852D01*
X1748536Y10357358D01*
X1753870Y10346944D01*
X1764029Y10336529D01*
X1779778Y10331450D01*
X1816100Y10331450D01*
X1709165Y10419587D02*
G01*
X1698752Y10424921D01*
X1683004Y10440415D01*
X1683004Y10331450D01*
X1586484Y10440415D02*
G01*
X1638300Y10440415D01*
X1643634Y10393679D01*
X1638300Y10398760D01*
X1622805Y10404094D01*
X1607312Y10404094D01*
X1591563Y10398760D01*
X1581150Y10388600D01*
X1576070Y10372852D01*
X1576070Y10362437D01*
X1581150Y10346944D01*
X1591563Y10336529D01*
X1607312Y10331450D01*
X1622805Y10331450D01*
X1638300Y10336529D01*
X1643634Y10341610D01*
X1648713Y10352024D01*
X3708400Y11164315D02*
G01*
X3708400Y11055350D01*
X3708400Y11164315D02*
G01*
X3672077Y11164315D01*
X3656329Y11159236D01*
X3646170Y11148821D01*
X3640836Y11138408D01*
X3635756Y11122660D01*
X3635756Y11096752D01*
X3640836Y11081258D01*
X3646170Y11070844D01*
X3656329Y11060429D01*
X3672077Y11055350D01*
X3708400Y11055350D01*
X3601465Y11143487D02*
G01*
X3591052Y11148821D01*
X3575304Y11164315D01*
X3575304Y11055350D01*
X3478784Y11148821D02*
G01*
X3483863Y11159236D01*
X3499611Y11164315D01*
X3510025Y11164315D01*
X3525520Y11159236D01*
X3535934Y11143487D01*
X3541013Y11117579D01*
X3541013Y11091671D01*
X3535934Y11070844D01*
X3525520Y11060429D01*
X3510025Y11055350D01*
X3504691Y11055350D01*
X3489197Y11060429D01*
X3478784Y11070844D01*
X3473450Y11086337D01*
X3473450Y11091671D01*
X3478784Y11107165D01*
X3489197Y11117579D01*
X3504691Y11122660D01*
X3510025Y11122660D01*
X3525520Y11117579D01*
X3535934Y11107165D01*
X3541013Y11091671D01*
X5638800Y11862815D02*
G01*
X5638800Y11753850D01*
X5638800Y11862815D02*
G01*
X5602477Y11862815D01*
X5586729Y11857736D01*
X5576570Y11847321D01*
X5571236Y11836908D01*
X5566156Y11821160D01*
X5566156Y11795252D01*
X5571236Y11779758D01*
X5576570Y11769344D01*
X5586729Y11758929D01*
X5602477Y11753850D01*
X5638800Y11753850D01*
X5531865Y11841987D02*
G01*
X5521452Y11847321D01*
X5505704Y11862815D01*
X5505704Y11753850D01*
X5398770Y11862815D02*
G01*
X5450840Y11753850D01*
X5471413Y11862815D02*
G01*
X5398770Y11862815D01*
X7518400Y12332715D02*
G01*
X7518400Y12223750D01*
X7518400Y12332715D02*
G01*
X7482077Y12332715D01*
X7466329Y12327636D01*
X7456170Y12317221D01*
X7450836Y12306808D01*
X7445756Y12291060D01*
X7445756Y12265152D01*
X7450836Y12249658D01*
X7456170Y12239244D01*
X7466329Y12228829D01*
X7482077Y12223750D01*
X7518400Y12223750D01*
X7411465Y12311887D02*
G01*
X7401052Y12317221D01*
X7385304Y12332715D01*
X7385304Y12223750D01*
X7325106Y12332715D02*
G01*
X7340600Y12327636D01*
X7345934Y12317221D01*
X7345934Y12306808D01*
X7340600Y12296394D01*
X7330440Y12291060D01*
X7309611Y12285979D01*
X7293863Y12280900D01*
X7283450Y12270486D01*
X7278370Y12260071D01*
X7278370Y12244324D01*
X7283450Y12233910D01*
X7288784Y12228829D01*
X7304277Y12223750D01*
X7325106Y12223750D01*
X7340600Y12228829D01*
X7345934Y12233910D01*
X7351013Y12244324D01*
X7351013Y12260071D01*
X7345934Y12270486D01*
X7335520Y12280900D01*
X7320025Y12285979D01*
X7299197Y12291060D01*
X7288784Y12296394D01*
X7283450Y12306808D01*
X7283450Y12317221D01*
X7288784Y12327636D01*
X7304277Y12332715D01*
X7325106Y12332715D01*
X9436100Y12586715D02*
G01*
X9436100Y12477750D01*
X9436100Y12586715D02*
G01*
X9399777Y12586715D01*
X9384029Y12581636D01*
X9373870Y12571221D01*
X9368536Y12560808D01*
X9363456Y12545060D01*
X9363456Y12519152D01*
X9368536Y12503658D01*
X9373870Y12493244D01*
X9384029Y12482829D01*
X9399777Y12477750D01*
X9436100Y12477750D01*
X9329165Y12565887D02*
G01*
X9318752Y12571221D01*
X9303004Y12586715D01*
X9303004Y12477750D01*
X9201150Y12550394D02*
G01*
X9206484Y12534900D01*
X9216897Y12524486D01*
X9232391Y12519152D01*
X9237725Y12519152D01*
X9253220Y12524486D01*
X9263634Y12534900D01*
X9268713Y12550394D01*
X9268713Y12555474D01*
X9263634Y12571221D01*
X9253220Y12581636D01*
X9237725Y12586715D01*
X9232391Y12586715D01*
X9216897Y12581636D01*
X9206484Y12571221D01*
X9201150Y12550394D01*
X9201150Y12524486D01*
X9206484Y12498324D01*
X9216897Y12482829D01*
X9232391Y12477750D01*
X9242806Y12477750D01*
X9258300Y12482829D01*
X9263634Y12493244D01*
X11353800Y12345415D02*
G01*
X11353800Y12236450D01*
X11353800Y12345415D02*
G01*
X11317477Y12345415D01*
X11301729Y12340336D01*
X11291570Y12329921D01*
X11286236Y12319508D01*
X11281156Y12303760D01*
X11281156Y12277852D01*
X11286236Y12262358D01*
X11291570Y12251944D01*
X11301729Y12241529D01*
X11317477Y12236450D01*
X11353800Y12236450D01*
X11241531Y12319508D02*
G01*
X11241531Y12324587D01*
X11236452Y12335002D01*
X11231118Y12340336D01*
X11220704Y12345415D01*
X11200129Y12345415D01*
X11189715Y12340336D01*
X11184381Y12335002D01*
X11179302Y12324587D01*
X11179302Y12314174D01*
X11184381Y12303760D01*
X11194795Y12288265D01*
X11246865Y12236450D01*
X11173968Y12236450D01*
X11108690Y12345415D02*
G01*
X11124184Y12340336D01*
X11134597Y12324587D01*
X11139677Y12298679D01*
X11139677Y12283186D01*
X11134597Y12257024D01*
X11124184Y12241529D01*
X11108690Y12236450D01*
X11098275Y12236450D01*
X11082527Y12241529D01*
X11072113Y12257024D01*
X11067034Y12283186D01*
X11067034Y12298679D01*
X11072113Y12324587D01*
X11082527Y12340336D01*
X11098275Y12345415D01*
X11108690Y12345415D01*
X13246100Y12104115D02*
G01*
X13246100Y11995150D01*
X13246100Y12104115D02*
G01*
X13209777Y12104115D01*
X13194029Y12099036D01*
X13183870Y12088621D01*
X13178536Y12078208D01*
X13173456Y12062460D01*
X13173456Y12036552D01*
X13178536Y12021058D01*
X13183870Y12010644D01*
X13194029Y12000229D01*
X13209777Y11995150D01*
X13246100Y11995150D01*
X13133831Y12078208D02*
G01*
X13133831Y12083287D01*
X13128752Y12093702D01*
X13123418Y12099036D01*
X13113004Y12104115D01*
X13092429Y12104115D01*
X13082015Y12099036D01*
X13076681Y12093702D01*
X13071602Y12083287D01*
X13071602Y12072874D01*
X13076681Y12062460D01*
X13087095Y12046965D01*
X13139166Y11995150D01*
X13066268Y11995150D01*
X13031977Y12083287D02*
G01*
X13021563Y12088621D01*
X13006070Y12104115D01*
X13006070Y11995150D01*
X1841500Y8535415D02*
G01*
X1841500Y8426450D01*
X1841500Y8535415D02*
G01*
X1805178Y8535415D01*
X1789429Y8530336D01*
X1779270Y8519921D01*
X1773936Y8509508D01*
X1768855Y8493760D01*
X1768855Y8467852D01*
X1773936Y8452358D01*
X1779270Y8441944D01*
X1789429Y8431529D01*
X1805178Y8426450D01*
X1841500Y8426450D01*
X1729231Y8509508D02*
G01*
X1729231Y8514587D01*
X1724152Y8525002D01*
X1718818Y8530336D01*
X1708404Y8535415D01*
X1687829Y8535415D01*
X1677415Y8530336D01*
X1672081Y8525002D01*
X1667002Y8514587D01*
X1667002Y8504174D01*
X1672081Y8493760D01*
X1682495Y8478265D01*
X1734565Y8426450D01*
X1661668Y8426450D01*
X1622297Y8509508D02*
G01*
X1622297Y8514587D01*
X1616963Y8525002D01*
X1611884Y8530336D01*
X1601470Y8535415D01*
X1580642Y8535415D01*
X1570228Y8530336D01*
X1565147Y8525002D01*
X1559813Y8514587D01*
X1559813Y8504174D01*
X1565147Y8493760D01*
X1575562Y8478265D01*
X1627378Y8426450D01*
X1554734Y8426450D01*
X3759200Y9246615D02*
G01*
X3759200Y9137650D01*
X3759200Y9246615D02*
G01*
X3722877Y9246615D01*
X3707129Y9241536D01*
X3696970Y9231121D01*
X3691636Y9220708D01*
X3686556Y9204960D01*
X3686556Y9179052D01*
X3691636Y9163558D01*
X3696970Y9153144D01*
X3707129Y9142729D01*
X3722877Y9137650D01*
X3759200Y9137650D01*
X3646931Y9220708D02*
G01*
X3646931Y9225787D01*
X3641852Y9236202D01*
X3636518Y9241536D01*
X3626104Y9246615D01*
X3605529Y9246615D01*
X3595115Y9241536D01*
X3589781Y9236202D01*
X3584702Y9225787D01*
X3584702Y9215374D01*
X3589781Y9204960D01*
X3600195Y9189465D01*
X3652265Y9137650D01*
X3579368Y9137650D01*
X3534663Y9246615D02*
G01*
X3477513Y9246615D01*
X3508756Y9204960D01*
X3493261Y9204960D01*
X3482847Y9199879D01*
X3477513Y9194800D01*
X3472434Y9179052D01*
X3472434Y9168637D01*
X3477513Y9153144D01*
X3487927Y9142729D01*
X3503675Y9137650D01*
X3519170Y9137650D01*
X3534663Y9142729D01*
X3539997Y9147810D01*
X3545077Y9158224D01*
X5651500Y9957815D02*
G01*
X5651500Y9848850D01*
X5651500Y9957815D02*
G01*
X5615177Y9957815D01*
X5599429Y9952736D01*
X5589270Y9942321D01*
X5583936Y9931908D01*
X5578856Y9916160D01*
X5578856Y9890252D01*
X5583936Y9874758D01*
X5589270Y9864344D01*
X5599429Y9853929D01*
X5615177Y9848850D01*
X5651500Y9848850D01*
X5539231Y9931908D02*
G01*
X5539231Y9936987D01*
X5534152Y9947402D01*
X5528818Y9952736D01*
X5518404Y9957815D01*
X5497829Y9957815D01*
X5487415Y9952736D01*
X5482081Y9947402D01*
X5477002Y9936987D01*
X5477002Y9926574D01*
X5482081Y9916160D01*
X5492495Y9900665D01*
X5544565Y9848850D01*
X5471668Y9848850D01*
X5385561Y9957815D02*
G01*
X5437377Y9885171D01*
X5359400Y9885171D01*
X5385561Y9957815D02*
G01*
X5385561Y9848850D01*
X7556500Y10427715D02*
G01*
X7556500Y10318750D01*
X7556500Y10427715D02*
G01*
X7520177Y10427715D01*
X7504429Y10422636D01*
X7494270Y10412221D01*
X7488936Y10401808D01*
X7483856Y10386060D01*
X7483856Y10360152D01*
X7488936Y10344658D01*
X7494270Y10334244D01*
X7504429Y10323829D01*
X7520177Y10318750D01*
X7556500Y10318750D01*
X7444231Y10401808D02*
G01*
X7444231Y10406887D01*
X7439152Y10417302D01*
X7433818Y10422636D01*
X7423404Y10427715D01*
X7402829Y10427715D01*
X7392415Y10422636D01*
X7387081Y10417302D01*
X7382002Y10406887D01*
X7382002Y10396474D01*
X7387081Y10386060D01*
X7397495Y10370565D01*
X7449565Y10318750D01*
X7376668Y10318750D01*
X7280147Y10427715D02*
G01*
X7331963Y10427715D01*
X7337297Y10380979D01*
X7331963Y10386060D01*
X7316470Y10391394D01*
X7300975Y10391394D01*
X7285227Y10386060D01*
X7274813Y10375900D01*
X7269734Y10360152D01*
X7269734Y10349737D01*
X7274813Y10334244D01*
X7285227Y10323829D01*
X7300975Y10318750D01*
X7316470Y10318750D01*
X7331963Y10323829D01*
X7337297Y10328910D01*
X7342377Y10339324D01*
X9448800Y10681715D02*
G01*
X9448800Y10572750D01*
X9448800Y10681715D02*
G01*
X9412477Y10681715D01*
X9396729Y10676636D01*
X9386570Y10666221D01*
X9381236Y10655808D01*
X9376156Y10640060D01*
X9376156Y10614152D01*
X9381236Y10598658D01*
X9386570Y10588244D01*
X9396729Y10577829D01*
X9412477Y10572750D01*
X9448800Y10572750D01*
X9336531Y10655808D02*
G01*
X9336531Y10660887D01*
X9331452Y10671302D01*
X9326118Y10676636D01*
X9315704Y10681715D01*
X9295129Y10681715D01*
X9284715Y10676636D01*
X9279381Y10671302D01*
X9274302Y10660887D01*
X9274302Y10650474D01*
X9279381Y10640060D01*
X9289795Y10624565D01*
X9341865Y10572750D01*
X9268968Y10572750D01*
X9172447Y10666221D02*
G01*
X9177527Y10676636D01*
X9193275Y10681715D01*
X9203690Y10681715D01*
X9219184Y10676636D01*
X9229597Y10660887D01*
X9234677Y10634979D01*
X9234677Y10609071D01*
X9229597Y10588244D01*
X9219184Y10577829D01*
X9203690Y10572750D01*
X9198356Y10572750D01*
X9182861Y10577829D01*
X9172447Y10588244D01*
X9167113Y10603737D01*
X9167113Y10609071D01*
X9172447Y10624565D01*
X9182861Y10634979D01*
X9198356Y10640060D01*
X9203690Y10640060D01*
X9219184Y10634979D01*
X9229597Y10624565D01*
X9234677Y10609071D01*
X11379200Y10440415D02*
G01*
X11379200Y10331450D01*
X11379200Y10440415D02*
G01*
X11342877Y10440415D01*
X11327129Y10435336D01*
X11316970Y10424921D01*
X11311636Y10414508D01*
X11306556Y10398760D01*
X11306556Y10372852D01*
X11311636Y10357358D01*
X11316970Y10346944D01*
X11327129Y10336529D01*
X11342877Y10331450D01*
X11379200Y10331450D01*
X11266931Y10414508D02*
G01*
X11266931Y10419587D01*
X11261852Y10430002D01*
X11256518Y10435336D01*
X11246104Y10440415D01*
X11225529Y10440415D01*
X11215115Y10435336D01*
X11209781Y10430002D01*
X11204702Y10419587D01*
X11204702Y10409174D01*
X11209781Y10398760D01*
X11220195Y10383265D01*
X11272265Y10331450D01*
X11199368Y10331450D01*
X11092434Y10440415D02*
G01*
X11144250Y10331450D01*
X11165077Y10440415D02*
G01*
X11092434Y10440415D01*
X13271500Y10199115D02*
G01*
X13271500Y10090150D01*
X13271500Y10199115D02*
G01*
X13235177Y10199115D01*
X13219429Y10194036D01*
X13209270Y10183621D01*
X13203936Y10173208D01*
X13198856Y10157460D01*
X13198856Y10131552D01*
X13203936Y10116058D01*
X13209270Y10105644D01*
X13219429Y10095229D01*
X13235177Y10090150D01*
X13271500Y10090150D01*
X13159231Y10173208D02*
G01*
X13159231Y10178287D01*
X13154152Y10188702D01*
X13148818Y10194036D01*
X13138404Y10199115D01*
X13117829Y10199115D01*
X13107416Y10194036D01*
X13102081Y10188702D01*
X13097002Y10178287D01*
X13097002Y10167874D01*
X13102081Y10157460D01*
X13112495Y10141965D01*
X13164566Y10090150D01*
X13091668Y10090150D01*
X13031470Y10199115D02*
G01*
X13046963Y10194036D01*
X13052297Y10183621D01*
X13052297Y10173208D01*
X13046963Y10162794D01*
X13036550Y10157460D01*
X13015975Y10152379D01*
X13000227Y10147300D01*
X12989813Y10136886D01*
X12984734Y10126471D01*
X12984734Y10110724D01*
X12989813Y10100310D01*
X12995147Y10095229D01*
X13010641Y10090150D01*
X13031470Y10090150D01*
X13046963Y10095229D01*
X13052297Y10100310D01*
X13057377Y10110724D01*
X13057377Y10126471D01*
X13052297Y10136886D01*
X13041884Y10147300D01*
X13026390Y10152379D01*
X13005561Y10157460D01*
X12995147Y10162794D01*
X12989813Y10173208D01*
X12989813Y10183621D01*
X12995147Y10194036D01*
X13010641Y10199115D01*
X13031470Y10199115D01*
X1828800Y6630415D02*
G01*
X1828800Y6521450D01*
X1828800Y6630415D02*
G01*
X1792478Y6630415D01*
X1776729Y6625336D01*
X1766570Y6614921D01*
X1761236Y6604508D01*
X1756155Y6588760D01*
X1756155Y6562852D01*
X1761236Y6547357D01*
X1766570Y6536944D01*
X1776729Y6526529D01*
X1792478Y6521450D01*
X1828800Y6521450D01*
X1716531Y6604508D02*
G01*
X1716531Y6609587D01*
X1711452Y6620002D01*
X1706118Y6625336D01*
X1695704Y6630415D01*
X1675129Y6630415D01*
X1664715Y6625336D01*
X1659381Y6620002D01*
X1654302Y6609587D01*
X1654302Y6599173D01*
X1659381Y6588760D01*
X1669795Y6573265D01*
X1721865Y6521450D01*
X1648968Y6521450D01*
X1547113Y6594094D02*
G01*
X1552447Y6578600D01*
X1562862Y6568186D01*
X1578355Y6562852D01*
X1583689Y6562852D01*
X1599184Y6568186D01*
X1609597Y6578600D01*
X1614678Y6594094D01*
X1614678Y6599173D01*
X1609597Y6614921D01*
X1599184Y6625336D01*
X1583689Y6630415D01*
X1578355Y6630415D01*
X1562862Y6625336D01*
X1552447Y6614921D01*
X1547113Y6594094D01*
X1547113Y6568186D01*
X1552447Y6542023D01*
X1562862Y6526529D01*
X1578355Y6521450D01*
X1588770Y6521450D01*
X1604263Y6526529D01*
X1609597Y6536944D01*
X3733800Y7341615D02*
G01*
X3733800Y7232650D01*
X3733800Y7341615D02*
G01*
X3697477Y7341615D01*
X3681729Y7336536D01*
X3671570Y7326121D01*
X3666236Y7315708D01*
X3661156Y7299960D01*
X3661156Y7274052D01*
X3666236Y7258558D01*
X3671570Y7248144D01*
X3681729Y7237729D01*
X3697477Y7232650D01*
X3733800Y7232650D01*
X3616452Y7341615D02*
G01*
X3559302Y7341615D01*
X3590290Y7299960D01*
X3574795Y7299960D01*
X3564381Y7294879D01*
X3559302Y7289800D01*
X3553968Y7274052D01*
X3553968Y7263637D01*
X3559302Y7248144D01*
X3569715Y7237729D01*
X3585209Y7232650D01*
X3600704Y7232650D01*
X3616452Y7237729D01*
X3621531Y7242810D01*
X3626865Y7253223D01*
X3488690Y7341615D02*
G01*
X3504184Y7336536D01*
X3514597Y7320787D01*
X3519677Y7294879D01*
X3519677Y7279386D01*
X3514597Y7253223D01*
X3504184Y7237729D01*
X3488690Y7232650D01*
X3478275Y7232650D01*
X3462527Y7237729D01*
X3452113Y7253223D01*
X3447034Y7279386D01*
X3447034Y7294879D01*
X3452113Y7320787D01*
X3462527Y7336536D01*
X3478275Y7341615D01*
X3488690Y7341615D01*
X5626100Y8052815D02*
G01*
X5626100Y7943850D01*
X5626100Y8052815D02*
G01*
X5589777Y8052815D01*
X5574029Y8047736D01*
X5563870Y8037321D01*
X5558536Y8026908D01*
X5553456Y8011160D01*
X5553456Y7985252D01*
X5558536Y7969758D01*
X5563870Y7959344D01*
X5574029Y7948929D01*
X5589777Y7943850D01*
X5626100Y7943850D01*
X5508752Y8052815D02*
G01*
X5451602Y8052815D01*
X5482590Y8011160D01*
X5467095Y8011160D01*
X5456681Y8006079D01*
X5451602Y8001000D01*
X5446268Y7985252D01*
X5446268Y7974837D01*
X5451602Y7959344D01*
X5462015Y7948929D01*
X5477509Y7943850D01*
X5493004Y7943850D01*
X5508752Y7948929D01*
X5513831Y7954010D01*
X5519165Y7964423D01*
X5411977Y8031987D02*
G01*
X5401563Y8037321D01*
X5386070Y8052815D01*
X5386070Y7943850D01*
X7543800Y8522715D02*
G01*
X7543800Y8413750D01*
X7543800Y8522715D02*
G01*
X7507477Y8522715D01*
X7491729Y8517636D01*
X7481570Y8507221D01*
X7476236Y8496808D01*
X7471156Y8481060D01*
X7471156Y8455152D01*
X7476236Y8439658D01*
X7481570Y8429244D01*
X7491729Y8418829D01*
X7507477Y8413750D01*
X7543800Y8413750D01*
X7426452Y8522715D02*
G01*
X7369302Y8522715D01*
X7400290Y8481060D01*
X7384795Y8481060D01*
X7374381Y8475979D01*
X7369302Y8470900D01*
X7363968Y8455152D01*
X7363968Y8444737D01*
X7369302Y8429244D01*
X7379715Y8418829D01*
X7395209Y8413750D01*
X7410704Y8413750D01*
X7426452Y8418829D01*
X7431531Y8423910D01*
X7436865Y8434324D01*
X7324597Y8496808D02*
G01*
X7324597Y8501887D01*
X7319263Y8512302D01*
X7314184Y8517636D01*
X7303770Y8522715D01*
X7282941Y8522715D01*
X7272527Y8517636D01*
X7267447Y8512302D01*
X7262113Y8501887D01*
X7262113Y8491474D01*
X7267447Y8481060D01*
X7277861Y8465565D01*
X7329677Y8413750D01*
X7257034Y8413750D01*
X9461500Y8776715D02*
G01*
X9461500Y8667750D01*
X9461500Y8776715D02*
G01*
X9425177Y8776715D01*
X9409429Y8771636D01*
X9399270Y8761221D01*
X9393936Y8750808D01*
X9388856Y8735060D01*
X9388856Y8709152D01*
X9393936Y8693658D01*
X9399270Y8683244D01*
X9409429Y8672829D01*
X9425177Y8667750D01*
X9461500Y8667750D01*
X9344152Y8776715D02*
G01*
X9287002Y8776715D01*
X9317990Y8735060D01*
X9302495Y8735060D01*
X9292081Y8729979D01*
X9287002Y8724900D01*
X9281668Y8709152D01*
X9281668Y8698737D01*
X9287002Y8683244D01*
X9297415Y8672829D01*
X9312909Y8667750D01*
X9328404Y8667750D01*
X9344152Y8672829D01*
X9349231Y8677910D01*
X9354565Y8688324D01*
X9236963Y8776715D02*
G01*
X9179813Y8776715D01*
X9211056Y8735060D01*
X9195561Y8735060D01*
X9185147Y8729979D01*
X9179813Y8724900D01*
X9174734Y8709152D01*
X9174734Y8698737D01*
X9179813Y8683244D01*
X9190227Y8672829D01*
X9205975Y8667750D01*
X9221470Y8667750D01*
X9236963Y8672829D01*
X9242297Y8677910D01*
X9247377Y8688324D01*
X12331700Y8306815D02*
G01*
X12331700Y8197850D01*
X12331700Y8306815D02*
G01*
X12295377Y8306815D01*
X12279629Y8301736D01*
X12269470Y8291321D01*
X12264136Y8280908D01*
X12259056Y8265160D01*
X12259056Y8239252D01*
X12264136Y8223758D01*
X12269470Y8213344D01*
X12279629Y8202929D01*
X12295377Y8197850D01*
X12331700Y8197850D01*
X12214352Y8306815D02*
G01*
X12157202Y8306815D01*
X12188190Y8265160D01*
X12172695Y8265160D01*
X12162281Y8260079D01*
X12157202Y8255000D01*
X12151868Y8239252D01*
X12151868Y8228837D01*
X12157202Y8213344D01*
X12167615Y8202929D01*
X12183109Y8197850D01*
X12198604Y8197850D01*
X12214352Y8202929D01*
X12219431Y8208010D01*
X12224765Y8218423D01*
X12065761Y8306815D02*
G01*
X12117577Y8234171D01*
X12039600Y8234171D01*
X12065761Y8306815D02*
G01*
X12065761Y8197850D01*
X15176500Y8065515D02*
G01*
X15176500Y7956550D01*
X15176500Y8065515D02*
G01*
X15140177Y8065515D01*
X15124429Y8060436D01*
X15114270Y8050021D01*
X15108936Y8039608D01*
X15103856Y8023860D01*
X15103856Y7997952D01*
X15108936Y7982458D01*
X15114270Y7972044D01*
X15124429Y7961629D01*
X15140177Y7956550D01*
X15176500Y7956550D01*
X15059152Y8065515D02*
G01*
X15002002Y8065515D01*
X15032990Y8023860D01*
X15017495Y8023860D01*
X15007081Y8018779D01*
X15002002Y8013700D01*
X14996668Y7997952D01*
X14996668Y7987537D01*
X15002002Y7972044D01*
X15012416Y7961629D01*
X15027909Y7956550D01*
X15043404Y7956550D01*
X15059152Y7961629D01*
X15064231Y7966710D01*
X15069566Y7977123D01*
X14900147Y8065515D02*
G01*
X14951963Y8065515D01*
X14957297Y8018779D01*
X14951963Y8023860D01*
X14936470Y8029194D01*
X14920975Y8029194D01*
X14905227Y8023860D01*
X14894813Y8013700D01*
X14889734Y7997952D01*
X14889734Y7987537D01*
X14894813Y7972044D01*
X14905227Y7961629D01*
X14920975Y7956550D01*
X14936470Y7956550D01*
X14951963Y7961629D01*
X14957297Y7966710D01*
X14962377Y7977123D01*
X15163800Y9970515D02*
G01*
X15163800Y9861550D01*
X15163800Y9970515D02*
G01*
X15127477Y9970515D01*
X15111729Y9965436D01*
X15101570Y9955021D01*
X15096236Y9944608D01*
X15091156Y9928860D01*
X15091156Y9902952D01*
X15096236Y9887458D01*
X15101570Y9877044D01*
X15111729Y9866629D01*
X15127477Y9861550D01*
X15163800Y9861550D01*
X15046452Y9970515D02*
G01*
X14989302Y9970515D01*
X15020290Y9928860D01*
X15004795Y9928860D01*
X14994381Y9923779D01*
X14989302Y9918700D01*
X14983968Y9902952D01*
X14983968Y9892537D01*
X14989302Y9877044D01*
X14999716Y9866629D01*
X15015209Y9861550D01*
X15030704Y9861550D01*
X15046452Y9866629D01*
X15051531Y9871710D01*
X15056866Y9882124D01*
X14887447Y9955021D02*
G01*
X14892527Y9965436D01*
X14908275Y9970515D01*
X14918690Y9970515D01*
X14934184Y9965436D01*
X14944597Y9949687D01*
X14949677Y9923779D01*
X14949677Y9897871D01*
X14944597Y9877044D01*
X14934184Y9866629D01*
X14918690Y9861550D01*
X14913356Y9861550D01*
X14897861Y9866629D01*
X14887447Y9877044D01*
X14882113Y9892537D01*
X14882113Y9897871D01*
X14887447Y9913365D01*
X14897861Y9923779D01*
X14913356Y9928860D01*
X14918690Y9928860D01*
X14934184Y9923779D01*
X14944597Y9913365D01*
X14949677Y9897871D01*
G36*
X14391843Y10540898D02*
G01*
X14391843Y10510418D01*
X15013838Y10510418D01*
X15013838Y10540898D01*
G37*
G36*
X13383361Y10540898D02*
G01*
X13383361Y10510418D01*
X14005356Y10510418D01*
X14005356Y10540898D01*
G37*
G36*
X1736394Y14380819D02*
G01*
X1736394Y14358823D01*
X1766874Y14358823D01*
X1766874Y14380819D01*
G37*
G36*
X1732381Y14292376D02*
G01*
X1732381Y14270380D01*
X1762861Y14270380D01*
X1762861Y14292376D01*
G37*
G36*
X3628694Y15104719D02*
G01*
X3628694Y15082723D01*
X3659174Y15082723D01*
X3659174Y15104719D01*
G37*
G36*
X3624681Y15016276D02*
G01*
X3624681Y14994280D01*
X3655161Y14994280D01*
X3655161Y15016276D01*
G37*
G36*
X5559094Y15803219D02*
G01*
X5559094Y15781223D01*
X5589574Y15781223D01*
X5589574Y15803219D01*
G37*
G36*
X5555081Y15714776D02*
G01*
X5555081Y15692780D01*
X5585561Y15692780D01*
X5585561Y15714776D01*
G37*
G36*
X7451394Y16273119D02*
G01*
X7451394Y16251123D01*
X7481874Y16251123D01*
X7481874Y16273119D01*
G37*
G36*
X7447381Y16184676D02*
G01*
X7447381Y16162680D01*
X7477861Y16162680D01*
X7477861Y16184676D01*
G37*
G36*
X9356394Y16527119D02*
G01*
X9356394Y16505123D01*
X9386874Y16505123D01*
X9386874Y16527119D01*
G37*
G36*
X9352381Y16438676D02*
G01*
X9352381Y16416680D01*
X9382861Y16416680D01*
X9382861Y16438676D01*
G37*
G36*
X11261394Y16285819D02*
G01*
X11261394Y16263823D01*
X11291874Y16263823D01*
X11291874Y16285819D01*
G37*
G36*
X11257381Y16197376D02*
G01*
X11257381Y16175380D01*
X11287861Y16175380D01*
X11287861Y16197376D01*
G37*
G36*
X13166394Y16044519D02*
G01*
X13166394Y16022523D01*
X13196874Y16022523D01*
X13196874Y16044519D01*
G37*
G36*
X13162381Y15956076D02*
G01*
X13162381Y15934080D01*
X13192861Y15934080D01*
X13192861Y15956076D01*
G37*
G36*
X1736394Y12475819D02*
G01*
X1736394Y12453823D01*
X1766874Y12453823D01*
X1766874Y12475819D01*
G37*
G36*
X1732381Y12387376D02*
G01*
X1732381Y12365380D01*
X1762861Y12365380D01*
X1762861Y12387376D01*
G37*
G36*
X3641394Y13187019D02*
G01*
X3641394Y13165023D01*
X3671874Y13165023D01*
X3671874Y13187019D01*
G37*
G36*
X3637381Y13098576D02*
G01*
X3637381Y13076580D01*
X3667861Y13076580D01*
X3667861Y13098576D01*
G37*
G36*
X5559094Y13898219D02*
G01*
X5559094Y13876223D01*
X5589574Y13876223D01*
X5589574Y13898219D01*
G37*
G36*
X5555081Y13809776D02*
G01*
X5555081Y13787780D01*
X5585561Y13787780D01*
X5585561Y13809776D01*
G37*
G36*
X7451394Y14368119D02*
G01*
X7451394Y14346123D01*
X7481874Y14346123D01*
X7481874Y14368119D01*
G37*
G36*
X7447381Y14279676D02*
G01*
X7447381Y14257680D01*
X7477861Y14257680D01*
X7477861Y14279676D01*
G37*
G36*
X9356394Y14622119D02*
G01*
X9356394Y14600123D01*
X9386874Y14600123D01*
X9386874Y14622119D01*
G37*
G36*
X9352381Y14533676D02*
G01*
X9352381Y14511680D01*
X9382861Y14511680D01*
X9382861Y14533676D01*
G37*
G36*
X11261394Y14380819D02*
G01*
X11261394Y14358823D01*
X11291874Y14358823D01*
X11291874Y14380819D01*
G37*
G36*
X11257381Y14292376D02*
G01*
X11257381Y14270380D01*
X11287861Y14270380D01*
X11287861Y14292376D01*
G37*
G36*
X13166394Y14139519D02*
G01*
X13166394Y14117523D01*
X13196874Y14117523D01*
X13196874Y14139519D01*
G37*
G36*
X13162381Y14051076D02*
G01*
X13162381Y14029080D01*
X13192861Y14029080D01*
X13192861Y14051076D01*
G37*
G36*
X1736394Y10570819D02*
G01*
X1736394Y10548823D01*
X1766874Y10548823D01*
X1766874Y10570819D01*
G37*
G36*
X1732381Y10482376D02*
G01*
X1732381Y10460380D01*
X1762861Y10460380D01*
X1762861Y10482376D01*
G37*
G36*
X3641394Y11294719D02*
G01*
X3641394Y11272723D01*
X3671874Y11272723D01*
X3671874Y11294719D01*
G37*
G36*
X3637381Y11206276D02*
G01*
X3637381Y11184280D01*
X3667861Y11184280D01*
X3667861Y11206276D01*
G37*
G36*
X5559094Y11993219D02*
G01*
X5559094Y11971223D01*
X5589574Y11971223D01*
X5589574Y11993219D01*
G37*
G36*
X5555081Y11904776D02*
G01*
X5555081Y11882780D01*
X5585561Y11882780D01*
X5585561Y11904776D01*
G37*
G36*
X7451394Y12463119D02*
G01*
X7451394Y12441123D01*
X7481874Y12441123D01*
X7481874Y12463119D01*
G37*
G36*
X7447381Y12374676D02*
G01*
X7447381Y12352680D01*
X7477861Y12352680D01*
X7477861Y12374676D01*
G37*
G36*
X9356394Y12717119D02*
G01*
X9356394Y12695123D01*
X9386874Y12695123D01*
X9386874Y12717119D01*
G37*
G36*
X9352381Y12628676D02*
G01*
X9352381Y12606680D01*
X9382861Y12606680D01*
X9382861Y12628676D01*
G37*
G36*
X11261394Y12475819D02*
G01*
X11261394Y12453823D01*
X11291874Y12453823D01*
X11291874Y12475819D01*
G37*
G36*
X11257381Y12387376D02*
G01*
X11257381Y12365380D01*
X11287861Y12365380D01*
X11287861Y12387376D01*
G37*
G36*
X13166394Y12234519D02*
G01*
X13166394Y12212523D01*
X13196874Y12212523D01*
X13196874Y12234519D01*
G37*
G36*
X13162381Y12146076D02*
G01*
X13162381Y12124080D01*
X13192861Y12124080D01*
X13192861Y12146076D01*
G37*
G36*
X1736394Y8665819D02*
G01*
X1736394Y8643823D01*
X1766874Y8643823D01*
X1766874Y8665819D01*
G37*
G36*
X1732381Y8577376D02*
G01*
X1732381Y8555380D01*
X1762861Y8555380D01*
X1762861Y8577376D01*
G37*
G36*
X3641394Y9377019D02*
G01*
X3641394Y9355023D01*
X3671874Y9355023D01*
X3671874Y9377019D01*
G37*
G36*
X3637381Y9288576D02*
G01*
X3637381Y9266580D01*
X3667861Y9266580D01*
X3667861Y9288576D01*
G37*
G36*
X5546394Y10088219D02*
G01*
X5546394Y10066223D01*
X5576874Y10066223D01*
X5576874Y10088219D01*
G37*
G36*
X5542381Y9999776D02*
G01*
X5542381Y9977780D01*
X5572861Y9977780D01*
X5572861Y9999776D01*
G37*
G36*
X7451394Y10558119D02*
G01*
X7451394Y10536123D01*
X7481874Y10536123D01*
X7481874Y10558119D01*
G37*
G36*
X7447381Y10469676D02*
G01*
X7447381Y10447680D01*
X7477861Y10447680D01*
X7477861Y10469676D01*
G37*
G36*
X9356394Y10812119D02*
G01*
X9356394Y10790123D01*
X9386874Y10790123D01*
X9386874Y10812119D01*
G37*
G36*
X9352381Y10723676D02*
G01*
X9352381Y10701680D01*
X9382861Y10701680D01*
X9382861Y10723676D01*
G37*
G36*
X11261394Y10570819D02*
G01*
X11261394Y10548823D01*
X11291874Y10548823D01*
X11291874Y10570819D01*
G37*
G36*
X11257381Y10482376D02*
G01*
X11257381Y10460380D01*
X11287861Y10460380D01*
X11287861Y10482376D01*
G37*
G36*
X13166394Y10329519D02*
G01*
X13166394Y10307523D01*
X13196874Y10307523D01*
X13196874Y10329519D01*
G37*
G36*
X13162381Y10241076D02*
G01*
X13162381Y10219080D01*
X13192861Y10219080D01*
X13192861Y10241076D01*
G37*
G36*
X1736394Y6760819D02*
G01*
X1736394Y6738823D01*
X1766874Y6738823D01*
X1766874Y6760819D01*
G37*
G36*
X1732381Y6672376D02*
G01*
X1732381Y6650380D01*
X1762861Y6650380D01*
X1762861Y6672376D01*
G37*
G36*
X3641394Y7472019D02*
G01*
X3641394Y7450023D01*
X3671874Y7450023D01*
X3671874Y7472019D01*
G37*
G36*
X3637381Y7383576D02*
G01*
X3637381Y7361580D01*
X3667861Y7361580D01*
X3667861Y7383576D01*
G37*
G36*
X5546394Y8183219D02*
G01*
X5546394Y8161223D01*
X5576874Y8161223D01*
X5576874Y8183219D01*
G37*
G36*
X5542381Y8094776D02*
G01*
X5542381Y8072780D01*
X5572861Y8072780D01*
X5572861Y8094776D01*
G37*
G36*
X7451394Y8653119D02*
G01*
X7451394Y8631123D01*
X7481874Y8631123D01*
X7481874Y8653119D01*
G37*
G36*
X7447381Y8564676D02*
G01*
X7447381Y8542680D01*
X7477861Y8542680D01*
X7477861Y8564676D01*
G37*
G36*
X9356394Y8907119D02*
G01*
X9356394Y8885123D01*
X9386874Y8885123D01*
X9386874Y8907119D01*
G37*
G36*
X9352381Y8818676D02*
G01*
X9352381Y8796680D01*
X9382861Y8796680D01*
X9382861Y8818676D01*
G37*
G36*
X12213894Y8437219D02*
G01*
X12213894Y8415223D01*
X12244374Y8415223D01*
X12244374Y8437219D01*
G37*
G36*
X12209881Y8348776D02*
G01*
X12209881Y8326780D01*
X12240361Y8326780D01*
X12240361Y8348776D01*
G37*
G36*
X15071394Y8195919D02*
G01*
X15071394Y8173923D01*
X15101874Y8173923D01*
X15101874Y8195919D01*
G37*
G36*
X15067381Y8107476D02*
G01*
X15067381Y8085480D01*
X15097861Y8085480D01*
X15097861Y8107476D01*
G37*
G36*
X15071394Y10100919D02*
G01*
X15071394Y10078923D01*
X15101874Y10078923D01*
X15101874Y10100919D01*
G37*
G36*
X15067381Y10012476D02*
G01*
X15067381Y9990480D01*
X15097861Y9990480D01*
X15097861Y10012476D01*
G37*
D10*
X10667900Y8144197D02*
G01*
X10667900Y8264199D01*
X10462902Y8124197D02*
G01*
X10362900Y8124197D01*
X10462902Y8284202D02*
G01*
X10362900Y8284202D01*
X10542910Y8124197D02*
G01*
X10642899Y8124197D01*
X10542910Y8284202D02*
G01*
X10642899Y8284202D01*
X10337899Y8144197D02*
G01*
X10337899Y8264199D01*
X10357899Y8124197D02*
G01*
X10362900Y8124197D01*
X10357901Y8284202D02*
G01*
X10362900Y8284202D01*
X10647900Y8124197D02*
G01*
X10642899Y8124197D01*
X10647898Y8284202D02*
G01*
X10642899Y8284202D01*
D43*
X15011400Y15595600D02*
G01*
X14757400Y15595600D01*
X14757400Y14579600D01*
X15011400Y14579600D01*
X15011400Y14770100D01*
D44*
X15011400Y15595600D02*
G01*
X15011400Y14770100D01*
D10*
X4212597Y14950495D02*
G01*
X4372602Y14950495D01*
X4372091Y14765434D02*
G01*
X4372091Y14640438D01*
X4212087Y14765434D02*
G01*
X4212087Y14640438D01*
X4372602Y14825492D02*
G01*
X4372602Y14950495D01*
X4212597Y14825492D02*
G01*
X4212597Y14950495D01*
X4212087Y14640438D02*
G01*
X4372091Y14640438D01*
X4103624Y14145511D02*
G01*
X4293615Y14145511D01*
X4383786Y14235681D01*
X4383786Y14415513D01*
X4283709Y14515589D01*
X4113784Y14515589D01*
X4023613Y14425419D01*
X4023613Y14225521D01*
X4103624Y14145511D01*
X4331208Y14070581D02*
G01*
X4420715Y14160088D01*
X4458715Y14208757D02*
G01*
X4458715Y14442437D01*
X4420715Y14491106D02*
G01*
X4331208Y14580613D01*
X3948684Y14208757D02*
G01*
X3948684Y14442437D01*
X3986684Y14491106D02*
G01*
X4076191Y14580613D01*
X4076191Y14070581D02*
G01*
X3986684Y14160088D01*
X4076191Y14580613D02*
G01*
X4331208Y14580613D01*
X4076191Y14070581D02*
G01*
X4331208Y14070581D01*
X2424175Y14137386D02*
G01*
X2234184Y14137386D01*
X2144013Y14047216D01*
X2144013Y13867384D01*
X2244090Y13767307D01*
X2414015Y13767307D01*
X2504186Y13857478D01*
X2504186Y14057376D01*
X2424175Y14137386D01*
X2196591Y14212316D02*
G01*
X2107084Y14122808D01*
X2069084Y14074139D02*
G01*
X2069084Y13840460D01*
X2107084Y13791791D02*
G01*
X2196591Y13702284D01*
X2579115Y14074139D02*
G01*
X2579115Y13840460D01*
X2541115Y13791791D02*
G01*
X2451608Y13702284D01*
X2451608Y14212316D02*
G01*
X2541115Y14122808D01*
X2451608Y13702284D02*
G01*
X2196591Y13702284D01*
X2451608Y14212316D02*
G01*
X2196591Y14212316D01*
X3234697Y15814095D02*
G01*
X3394702Y15814095D01*
X3394191Y15629034D02*
G01*
X3394191Y15504038D01*
X3234187Y15629034D02*
G01*
X3234187Y15504038D01*
X3394702Y15689092D02*
G01*
X3394702Y15814095D01*
X3234697Y15689092D02*
G01*
X3234697Y15814095D01*
X3234187Y15504038D02*
G01*
X3394191Y15504038D01*
X3191502Y15504104D02*
G01*
X3031497Y15504104D01*
X3032008Y15689165D02*
G01*
X3032008Y15814161D01*
X3192012Y15689165D02*
G01*
X3192012Y15814161D01*
X3031497Y15629107D02*
G01*
X3031497Y15504104D01*
X3191502Y15629107D02*
G01*
X3191502Y15504104D01*
X3192012Y15814161D02*
G01*
X3032008Y15814161D01*
D45*
X1785823Y14875586D02*
G01*
X973785Y14875586D01*
X973785Y15299512D01*
X1997913Y15299512D01*
X1997913Y15087676D01*
X1785823Y15087676D01*
X1785823Y14875586D01*
X1885899Y14875586D02*
G01*
X1997913Y14875586D01*
X1997913Y14987600D01*
D42*
X15006220Y10533280D02*
G01*
X15006220Y12758519D01*
X15006220Y12758519D02*
G01*
X14396920Y12758519D01*
X13390979Y10533280D02*
G01*
X13390979Y12758519D01*
X13390979Y12758519D02*
G01*
X14000279Y12758519D01*
X15006220Y10384221D02*
G01*
X13390979Y10384221D01*
D46*
X2819400Y16379400D02*
G01*
X2659379Y16379027D01*
X2819400Y16480909D02*
G01*
X2819400Y16165949D01*
X2659379Y16483449D02*
G01*
X2659379Y16163409D01*
X1765300Y16310399D02*
G01*
X1925320Y16310772D01*
X1765300Y16208890D02*
G01*
X1765300Y16523850D01*
X1925320Y16206350D02*
G01*
X1925320Y16526390D01*
D10*
X4965799Y16392202D02*
G01*
X4965799Y16272200D01*
X5170797Y16412202D02*
G01*
X5270799Y16412202D01*
X5170797Y16252197D02*
G01*
X5270799Y16252197D01*
X5090789Y16412202D02*
G01*
X4990800Y16412202D01*
X5090789Y16252197D02*
G01*
X4990800Y16252197D01*
X5295800Y16392202D02*
G01*
X5295800Y16272200D01*
X5275800Y16412202D02*
G01*
X5270799Y16412202D01*
X5275798Y16252197D02*
G01*
X5270799Y16252197D01*
X4985799Y16412202D02*
G01*
X4990800Y16412202D01*
X4985801Y16252197D02*
G01*
X4990800Y16252197D01*
X4965799Y16189002D02*
G01*
X4965799Y16069000D01*
X5170797Y16209002D02*
G01*
X5270799Y16209002D01*
X5170797Y16048997D02*
G01*
X5270799Y16048997D01*
X5090789Y16209002D02*
G01*
X4990800Y16209002D01*
X5090789Y16048997D02*
G01*
X4990800Y16048997D01*
X5295800Y16189002D02*
G01*
X5295800Y16069000D01*
X5275800Y16209002D02*
G01*
X5270799Y16209002D01*
X5275798Y16048997D02*
G01*
X5270799Y16048997D01*
X4985799Y16209002D02*
G01*
X4990800Y16209002D01*
X4985801Y16048997D02*
G01*
X4990800Y16048997D01*
X3470597Y16421199D02*
G01*
X3590599Y16421199D01*
X3450597Y16626197D02*
G01*
X3450597Y16726199D01*
X3610602Y16626197D02*
G01*
X3610602Y16726199D01*
X3450597Y16546189D02*
G01*
X3450597Y16446200D01*
X3610602Y16546189D02*
G01*
X3610602Y16446200D01*
X3470597Y16751200D02*
G01*
X3590599Y16751200D01*
X3450597Y16731200D02*
G01*
X3450597Y16726199D01*
X3610602Y16731198D02*
G01*
X3610602Y16726199D01*
X3450597Y16441199D02*
G01*
X3450597Y16446200D01*
X3610602Y16441201D02*
G01*
X3610602Y16446200D01*
X4330799Y16570002D02*
G01*
X4330799Y16450000D01*
X4535797Y16590002D02*
G01*
X4635799Y16590002D01*
X4535797Y16429997D02*
G01*
X4635799Y16429997D01*
X4455789Y16590002D02*
G01*
X4355800Y16590002D01*
X4455789Y16429997D02*
G01*
X4355800Y16429997D01*
X4660800Y16570002D02*
G01*
X4660800Y16450000D01*
X4640800Y16590002D02*
G01*
X4635799Y16590002D01*
X4640798Y16429997D02*
G01*
X4635799Y16429997D01*
X4350799Y16590002D02*
G01*
X4355800Y16590002D01*
X4350801Y16429997D02*
G01*
X4355800Y16429997D01*
X3616002Y15697100D02*
G01*
X3496000Y15697100D01*
X3636002Y15492102D02*
G01*
X3636002Y15392100D01*
X3475997Y15492102D02*
G01*
X3475997Y15392100D01*
X3636002Y15572110D02*
G01*
X3636002Y15672099D01*
X3475997Y15572110D02*
G01*
X3475997Y15672099D01*
X3616002Y15367099D02*
G01*
X3496000Y15367099D01*
X3636002Y15387099D02*
G01*
X3636002Y15392100D01*
X3475997Y15387101D02*
G01*
X3475997Y15392100D01*
X3636002Y15677100D02*
G01*
X3636002Y15672099D01*
X3475997Y15677098D02*
G01*
X3475997Y15672099D01*
X4873302Y16001900D02*
G01*
X4753300Y16001900D01*
X4893302Y15796902D02*
G01*
X4893302Y15696900D01*
X4733297Y15796902D02*
G01*
X4733297Y15696900D01*
X4893302Y15876910D02*
G01*
X4893302Y15976899D01*
X4733297Y15876910D02*
G01*
X4733297Y15976899D01*
X4873302Y15671899D02*
G01*
X4753300Y15671899D01*
X4893302Y15691899D02*
G01*
X4893302Y15696900D01*
X4733297Y15691901D02*
G01*
X4733297Y15696900D01*
X4893302Y15981900D02*
G01*
X4893302Y15976899D01*
X4733297Y15981898D02*
G01*
X4733297Y15976899D01*
X7035805Y16827507D02*
G01*
X7035805Y16826323D01*
X6919948Y16611607D02*
G01*
X6846854Y16611607D01*
X6919948Y16814807D02*
G01*
X6846859Y16814807D01*
X10845805Y16586207D02*
G01*
X10845805Y16585023D01*
X10729948Y16370307D02*
G01*
X10656854Y16370307D01*
X10729948Y16573507D02*
G01*
X10656859Y16573507D01*
X15354307Y13995394D02*
G01*
X15353123Y13995394D01*
X15138407Y14111251D02*
G01*
X15138407Y14184345D01*
X15341607Y14111251D02*
G01*
X15341607Y14184340D01*
X15341607Y9372594D02*
G01*
X15340423Y9372594D01*
X15125707Y9488451D02*
G01*
X15125707Y9561545D01*
X15328907Y9488451D02*
G01*
X15328907Y9561540D01*
X11493494Y6769092D02*
G01*
X11493494Y6770276D01*
X11609351Y6984992D02*
G01*
X11682445Y6984992D01*
X11609351Y6781792D02*
G01*
X11682440Y6781792D01*
X6730994Y7213592D02*
G01*
X6730994Y7214776D01*
X6846851Y7429492D02*
G01*
X6919945Y7429492D01*
X6846851Y7226292D02*
G01*
X6919940Y7226292D01*
X2920994Y6032492D02*
G01*
X2920994Y6033676D01*
X3036851Y6248392D02*
G01*
X3109945Y6248392D01*
X3036851Y6045192D02*
G01*
X3109940Y6045192D01*
X292092Y8255005D02*
G01*
X293276Y8255005D01*
X507992Y8139148D02*
G01*
X507992Y8066054D01*
X304792Y8139148D02*
G01*
X304792Y8066059D01*
X279392Y12065005D02*
G01*
X280576Y12065005D01*
X495292Y11949148D02*
G01*
X495292Y11876054D01*
X292092Y11949148D02*
G01*
X292092Y11876059D01*
X9465302Y7757104D02*
G01*
X9305297Y7757104D01*
X9305808Y7942165D02*
G01*
X9305808Y8067161D01*
X9465812Y7942165D02*
G01*
X9465812Y8067161D01*
X9305297Y7882107D02*
G01*
X9305297Y7757104D01*
X9465302Y7882107D02*
G01*
X9465302Y7757104D01*
X9465812Y8067161D02*
G01*
X9305808Y8067161D01*
X9668502Y7833304D02*
G01*
X9508497Y7833304D01*
X9509008Y8018365D02*
G01*
X9509008Y8143361D01*
X9669012Y8018365D02*
G01*
X9669012Y8143361D01*
X9508497Y7958307D02*
G01*
X9508497Y7833304D01*
X9668502Y7958307D02*
G01*
X9668502Y7833304D01*
X9669012Y8143361D02*
G01*
X9509008Y8143361D01*
D42*
X2618620Y16606339D02*
G01*
X1953379Y16606339D01*
X1953379Y16312060D01*
X2618620Y16312060D01*
X2618620Y16606339D01*
D10*
X4889500Y16179800D02*
G01*
X4889500Y16281400D01*
X4737100Y16281400D02*
G01*
X4737100Y16179800D01*
D47*
X3187700Y15862300D02*
G01*
X3352800Y15862300D01*
X3352800Y16014700D01*
X3073400Y16014700D01*
X3073400Y15862300D01*
X3187700Y15862300D01*
D10*
X1278897Y15890295D02*
G01*
X1438902Y15890295D01*
X1438391Y15705234D02*
G01*
X1438391Y15580238D01*
X1278387Y15705234D02*
G01*
X1278387Y15580238D01*
X1438902Y15765292D02*
G01*
X1438902Y15890295D01*
X1278897Y15765292D02*
G01*
X1278897Y15890295D01*
X1278387Y15580238D02*
G01*
X1438391Y15580238D01*
X910597Y15890295D02*
G01*
X1070602Y15890295D01*
X1070091Y15705234D02*
G01*
X1070091Y15580238D01*
X910087Y15705234D02*
G01*
X910087Y15580238D01*
X1070602Y15765292D02*
G01*
X1070602Y15890295D01*
X910597Y15765292D02*
G01*
X910597Y15890295D01*
X910087Y15580238D02*
G01*
X1070091Y15580238D01*
X759404Y15934697D02*
G01*
X759404Y16094702D01*
X944465Y16094191D02*
G01*
X1069461Y16094191D01*
X944465Y15934187D02*
G01*
X1069461Y15934187D01*
X884407Y16094702D02*
G01*
X759404Y16094702D01*
X884407Y15934697D02*
G01*
X759404Y15934697D01*
X1069461Y15934187D02*
G01*
X1069461Y16094191D01*
X1602795Y16094702D02*
G01*
X1602795Y15934697D01*
X1417734Y15935208D02*
G01*
X1292738Y15935208D01*
X1417734Y16095212D02*
G01*
X1292738Y16095212D01*
X1477792Y15934697D02*
G01*
X1602795Y15934697D01*
X1477792Y16094702D02*
G01*
X1602795Y16094702D01*
X1292738Y16095212D02*
G01*
X1292738Y15935208D01*
D42*
X9831948Y7980019D02*
G01*
X9774580Y7980019D01*
X9774580Y7922651D01*
X9831948Y7564780D02*
G01*
X9774580Y7564780D01*
X9774580Y7622148D01*
X10132451Y7980019D02*
G01*
X10189819Y7980019D01*
X10189819Y7922651D01*
X10132451Y7564780D02*
G01*
X10189819Y7564780D01*
X10189819Y7622148D01*
D10*
X10494002Y7757104D02*
G01*
X10333997Y7757104D01*
X10334508Y7942165D02*
G01*
X10334508Y8067161D01*
X10494512Y7942165D02*
G01*
X10494512Y8067161D01*
X10333997Y7882107D02*
G01*
X10333997Y7757104D01*
X10494002Y7882107D02*
G01*
X10494002Y7757104D01*
X10494512Y8067161D02*
G01*
X10334508Y8067161D01*
X10494002Y7376104D02*
G01*
X10333997Y7376104D01*
X10334508Y7561165D02*
G01*
X10334508Y7686161D01*
X10494512Y7561165D02*
G01*
X10494512Y7686161D01*
X10333997Y7501107D02*
G01*
X10333997Y7376104D01*
X10494002Y7501107D02*
G01*
X10494002Y7376104D01*
X10494512Y7686161D02*
G01*
X10334508Y7686161D01*
X2353302Y14589704D02*
G01*
X2193297Y14589704D01*
X2193808Y14774765D02*
G01*
X2193808Y14899761D01*
X2353812Y14774765D02*
G01*
X2353812Y14899761D01*
X2193297Y14714707D02*
G01*
X2193297Y14589704D01*
X2353302Y14714707D02*
G01*
X2353302Y14589704D01*
X2353812Y14899761D02*
G01*
X2193808Y14899761D01*
D48*
X1091097Y15848101D02*
G01*
X1091097Y15978103D01*
X1271097Y15848101D02*
G01*
X1271097Y15978103D01*
D10*
X3238505Y16827507D02*
G01*
X3238505Y16826323D01*
X3122648Y16611607D02*
G01*
X3049554Y16611607D01*
X3122648Y16814807D02*
G01*
X3049559Y16814807D01*
D49*
X3641090Y16380460D02*
G01*
X3641090Y15760700D01*
X4306570Y15760700D01*
X4306570Y16423639D01*
X3641090Y16423639D01*
X3641090Y16347439D01*
D43*
X14757400Y12941300D02*
G01*
X15011400Y12941300D01*
X15011400Y13957300D01*
X14757400Y13957300D01*
X14757400Y13766800D01*
D44*
X14757400Y12941300D02*
G01*
X14757400Y13766800D01*
D10*
X15473045Y16296817D02*
G01*
X15473045Y15686811D01*
X15665043Y16242817D02*
G01*
X15665043Y15742818D01*
X15665043Y16245814D02*
G01*
X15476042Y16245814D01*
X15473045Y16248811D01*
X15665043Y15744825D02*
G01*
X15665043Y15741827D01*
X15476042Y15741827D01*
X15473045Y15741827D01*
X15473045Y15741827D01*
X15473045Y16296817D02*
G01*
X15293621Y16296817D01*
X15004260Y16296817D02*
G01*
X14959738Y16296817D01*
X14670351Y16296817D02*
G01*
X14559739Y16296817D01*
X14270352Y16296817D02*
G01*
X14261058Y16296817D01*
X15473045Y15686811D02*
G01*
X14462064Y15686811D01*
X14261058Y16296817D02*
G01*
X14261058Y15866948D01*
X723950Y16929112D02*
G01*
X723950Y17081512D01*
X1638350Y17081512D01*
X1638350Y16929112D01*
X723953Y16529065D02*
G01*
X723953Y16694165D01*
X1638353Y16529065D02*
G01*
X1638353Y16694165D01*
X848156Y16590263D02*
G01*
X1025956Y16590263D01*
X1025956Y16666463D01*
X848156Y16666463D01*
X848156Y16590263D01*
X1330756Y16590263D02*
G01*
X1508556Y16590263D01*
X1508556Y16666463D01*
X1330756Y16666463D01*
X1330756Y16590263D01*
D50*
X1767799Y14289298D02*
G01*
X1767799Y14278013D01*
X1743976Y14278013D01*
X1744017Y14373219D02*
G01*
X1767839Y14373219D01*
X1767839Y14361160D01*
D42*
X1744017Y14373219D02*
G01*
X1608782Y14373219D01*
X1744017Y14277980D02*
G01*
X1608782Y14277980D01*
D50*
X3660099Y15013198D02*
G01*
X3660099Y15001913D01*
X3636276Y15001913D01*
X3636317Y15097119D02*
G01*
X3660140Y15097119D01*
X3660140Y15085060D01*
D42*
X3636317Y15097119D02*
G01*
X3501082Y15097119D01*
X3636317Y15001880D02*
G01*
X3501082Y15001880D01*
D50*
X5590499Y15711698D02*
G01*
X5590499Y15700413D01*
X5566676Y15700413D01*
X5566717Y15795619D02*
G01*
X5590540Y15795619D01*
X5590540Y15783560D01*
D42*
X5566717Y15795619D02*
G01*
X5431482Y15795619D01*
X5566717Y15700380D02*
G01*
X5431482Y15700380D01*
D50*
X7482799Y16181598D02*
G01*
X7482799Y16170313D01*
X7458976Y16170313D01*
X7459017Y16265519D02*
G01*
X7482840Y16265519D01*
X7482840Y16253460D01*
D42*
X7459017Y16265519D02*
G01*
X7323782Y16265519D01*
X7459017Y16170280D02*
G01*
X7323782Y16170280D01*
D50*
X9387799Y16435598D02*
G01*
X9387799Y16424313D01*
X9363976Y16424313D01*
X9364017Y16519519D02*
G01*
X9387840Y16519519D01*
X9387840Y16507460D01*
D42*
X9364017Y16519519D02*
G01*
X9228782Y16519519D01*
X9364017Y16424280D02*
G01*
X9228782Y16424280D01*
D50*
X11292799Y16194298D02*
G01*
X11292799Y16183013D01*
X11268976Y16183013D01*
X11269017Y16278219D02*
G01*
X11292840Y16278219D01*
X11292840Y16266160D01*
D42*
X11269017Y16278219D02*
G01*
X11133782Y16278219D01*
X11269017Y16182980D02*
G01*
X11133782Y16182980D01*
D50*
X13197799Y15952998D02*
G01*
X13197799Y15941713D01*
X13173976Y15941713D01*
X13174017Y16036919D02*
G01*
X13197840Y16036919D01*
X13197840Y16024860D01*
D42*
X13174017Y16036919D02*
G01*
X13038782Y16036919D01*
X13174017Y15941680D02*
G01*
X13038782Y15941680D01*
D50*
X1767799Y12384298D02*
G01*
X1767799Y12373013D01*
X1743976Y12373013D01*
X1744017Y12468219D02*
G01*
X1767839Y12468219D01*
X1767839Y12456160D01*
D42*
X1744017Y12468219D02*
G01*
X1608782Y12468219D01*
X1744017Y12372980D02*
G01*
X1608782Y12372980D01*
D50*
X3672799Y13095498D02*
G01*
X3672799Y13084213D01*
X3648976Y13084213D01*
X3649017Y13179419D02*
G01*
X3672840Y13179419D01*
X3672840Y13167360D01*
D42*
X3649017Y13179419D02*
G01*
X3513782Y13179419D01*
X3649017Y13084180D02*
G01*
X3513782Y13084180D01*
D50*
X5590499Y13806698D02*
G01*
X5590499Y13795413D01*
X5566676Y13795413D01*
X5566717Y13890619D02*
G01*
X5590540Y13890619D01*
X5590540Y13878560D01*
D42*
X5566717Y13890619D02*
G01*
X5431482Y13890619D01*
X5566717Y13795380D02*
G01*
X5431482Y13795380D01*
D50*
X7482799Y14276598D02*
G01*
X7482799Y14265313D01*
X7458976Y14265313D01*
X7459017Y14360519D02*
G01*
X7482840Y14360519D01*
X7482840Y14348460D01*
D42*
X7459017Y14360519D02*
G01*
X7323782Y14360519D01*
X7459017Y14265280D02*
G01*
X7323782Y14265280D01*
D50*
X9387799Y14530598D02*
G01*
X9387799Y14519313D01*
X9363976Y14519313D01*
X9364017Y14614519D02*
G01*
X9387840Y14614519D01*
X9387840Y14602460D01*
D42*
X9364017Y14614519D02*
G01*
X9228782Y14614519D01*
X9364017Y14519280D02*
G01*
X9228782Y14519280D01*
D50*
X11292799Y14289298D02*
G01*
X11292799Y14278013D01*
X11268976Y14278013D01*
X11269017Y14373219D02*
G01*
X11292840Y14373219D01*
X11292840Y14361160D01*
D42*
X11269017Y14373219D02*
G01*
X11133782Y14373219D01*
X11269017Y14277980D02*
G01*
X11133782Y14277980D01*
D50*
X13197799Y14047998D02*
G01*
X13197799Y14036713D01*
X13173976Y14036713D01*
X13174017Y14131919D02*
G01*
X13197840Y14131919D01*
X13197840Y14119860D01*
D42*
X13174017Y14131919D02*
G01*
X13038782Y14131919D01*
X13174017Y14036680D02*
G01*
X13038782Y14036680D01*
D50*
X1767799Y10479298D02*
G01*
X1767799Y10468013D01*
X1743976Y10468013D01*
X1744017Y10563219D02*
G01*
X1767839Y10563219D01*
X1767839Y10551160D01*
D42*
X1744017Y10563219D02*
G01*
X1608782Y10563219D01*
X1744017Y10467980D02*
G01*
X1608782Y10467980D01*
D50*
X3672799Y11203198D02*
G01*
X3672799Y11191913D01*
X3648976Y11191913D01*
X3649017Y11287119D02*
G01*
X3672840Y11287119D01*
X3672840Y11275060D01*
D42*
X3649017Y11287119D02*
G01*
X3513782Y11287119D01*
X3649017Y11191880D02*
G01*
X3513782Y11191880D01*
D50*
X5590499Y11901698D02*
G01*
X5590499Y11890413D01*
X5566676Y11890413D01*
X5566717Y11985619D02*
G01*
X5590540Y11985619D01*
X5590540Y11973560D01*
D42*
X5566717Y11985619D02*
G01*
X5431482Y11985619D01*
X5566717Y11890380D02*
G01*
X5431482Y11890380D01*
D50*
X7482799Y12371598D02*
G01*
X7482799Y12360313D01*
X7458976Y12360313D01*
X7459017Y12455519D02*
G01*
X7482840Y12455519D01*
X7482840Y12443460D01*
D42*
X7459017Y12455519D02*
G01*
X7323782Y12455519D01*
X7459017Y12360280D02*
G01*
X7323782Y12360280D01*
D50*
X9387799Y12625598D02*
G01*
X9387799Y12614313D01*
X9363976Y12614313D01*
X9364017Y12709519D02*
G01*
X9387840Y12709519D01*
X9387840Y12697460D01*
D42*
X9364017Y12709519D02*
G01*
X9228782Y12709519D01*
X9364017Y12614280D02*
G01*
X9228782Y12614280D01*
D50*
X11292799Y12384298D02*
G01*
X11292799Y12373013D01*
X11268976Y12373013D01*
X11269017Y12468219D02*
G01*
X11292840Y12468219D01*
X11292840Y12456160D01*
D42*
X11269017Y12468219D02*
G01*
X11133782Y12468219D01*
X11269017Y12372980D02*
G01*
X11133782Y12372980D01*
D50*
X13197799Y12142998D02*
G01*
X13197799Y12131713D01*
X13173976Y12131713D01*
X13174017Y12226919D02*
G01*
X13197840Y12226919D01*
X13197840Y12214860D01*
D42*
X13174017Y12226919D02*
G01*
X13038782Y12226919D01*
X13174017Y12131680D02*
G01*
X13038782Y12131680D01*
D50*
X1767799Y8574298D02*
G01*
X1767799Y8563013D01*
X1743976Y8563013D01*
X1744017Y8658219D02*
G01*
X1767839Y8658219D01*
X1767839Y8646160D01*
D42*
X1744017Y8658219D02*
G01*
X1608782Y8658219D01*
X1744017Y8562980D02*
G01*
X1608782Y8562980D01*
D50*
X3672799Y9285498D02*
G01*
X3672799Y9274213D01*
X3648976Y9274213D01*
X3649017Y9369419D02*
G01*
X3672840Y9369419D01*
X3672840Y9357360D01*
D42*
X3649017Y9369419D02*
G01*
X3513782Y9369419D01*
X3649017Y9274180D02*
G01*
X3513782Y9274180D01*
D50*
X5577799Y9996698D02*
G01*
X5577799Y9985413D01*
X5553976Y9985413D01*
X5554017Y10080619D02*
G01*
X5577840Y10080619D01*
X5577840Y10068560D01*
D42*
X5554017Y10080619D02*
G01*
X5418782Y10080619D01*
X5554017Y9985380D02*
G01*
X5418782Y9985380D01*
D50*
X7482799Y10466598D02*
G01*
X7482799Y10455313D01*
X7458976Y10455313D01*
X7459017Y10550519D02*
G01*
X7482840Y10550519D01*
X7482840Y10538460D01*
D42*
X7459017Y10550519D02*
G01*
X7323782Y10550519D01*
X7459017Y10455280D02*
G01*
X7323782Y10455280D01*
D50*
X9387799Y10720598D02*
G01*
X9387799Y10709313D01*
X9363976Y10709313D01*
X9364017Y10804519D02*
G01*
X9387840Y10804519D01*
X9387840Y10792460D01*
D42*
X9364017Y10804519D02*
G01*
X9228782Y10804519D01*
X9364017Y10709280D02*
G01*
X9228782Y10709280D01*
D50*
X11292799Y10479298D02*
G01*
X11292799Y10468013D01*
X11268976Y10468013D01*
X11269017Y10563219D02*
G01*
X11292840Y10563219D01*
X11292840Y10551160D01*
D42*
X11269017Y10563219D02*
G01*
X11133782Y10563219D01*
X11269017Y10467980D02*
G01*
X11133782Y10467980D01*
D50*
X13197799Y10237998D02*
G01*
X13197799Y10226713D01*
X13173976Y10226713D01*
X13174017Y10321919D02*
G01*
X13197840Y10321919D01*
X13197840Y10309860D01*
D42*
X13174017Y10321919D02*
G01*
X13038782Y10321919D01*
X13174017Y10226680D02*
G01*
X13038782Y10226680D01*
D50*
X1767799Y6669298D02*
G01*
X1767799Y6658013D01*
X1743976Y6658013D01*
X1744017Y6753219D02*
G01*
X1767839Y6753219D01*
X1767839Y6741160D01*
D42*
X1744017Y6753219D02*
G01*
X1608782Y6753219D01*
X1744017Y6657980D02*
G01*
X1608782Y6657980D01*
D50*
X3672799Y7380498D02*
G01*
X3672799Y7369213D01*
X3648976Y7369213D01*
X3649017Y7464419D02*
G01*
X3672840Y7464419D01*
X3672840Y7452360D01*
D42*
X3649017Y7464419D02*
G01*
X3513782Y7464419D01*
X3649017Y7369180D02*
G01*
X3513782Y7369180D01*
D50*
X5577799Y8091698D02*
G01*
X5577799Y8080413D01*
X5553976Y8080413D01*
X5554017Y8175619D02*
G01*
X5577840Y8175619D01*
X5577840Y8163560D01*
D42*
X5554017Y8175619D02*
G01*
X5418782Y8175619D01*
X5554017Y8080380D02*
G01*
X5418782Y8080380D01*
D50*
X7482799Y8561598D02*
G01*
X7482799Y8550313D01*
X7458976Y8550313D01*
X7459017Y8645519D02*
G01*
X7482840Y8645519D01*
X7482840Y8633460D01*
D42*
X7459017Y8645519D02*
G01*
X7323782Y8645519D01*
X7459017Y8550280D02*
G01*
X7323782Y8550280D01*
D50*
X9387799Y8815598D02*
G01*
X9387799Y8804313D01*
X9363976Y8804313D01*
X9364017Y8899519D02*
G01*
X9387840Y8899519D01*
X9387840Y8887460D01*
D42*
X9364017Y8899519D02*
G01*
X9228782Y8899519D01*
X9364017Y8804280D02*
G01*
X9228782Y8804280D01*
D50*
X12245299Y8345698D02*
G01*
X12245299Y8334413D01*
X12221476Y8334413D01*
X12221517Y8429619D02*
G01*
X12245340Y8429619D01*
X12245340Y8417560D01*
D42*
X12221517Y8429619D02*
G01*
X12086282Y8429619D01*
X12221517Y8334380D02*
G01*
X12086282Y8334380D01*
D50*
X15102799Y8104398D02*
G01*
X15102799Y8093113D01*
X15078976Y8093113D01*
X15079017Y8188319D02*
G01*
X15102840Y8188319D01*
X15102840Y8176260D01*
D42*
X15079017Y8188319D02*
G01*
X14943782Y8188319D01*
X15079017Y8093080D02*
G01*
X14943782Y8093080D01*
D50*
X15102799Y10009398D02*
G01*
X15102799Y9998113D01*
X15078976Y9998113D01*
X15079017Y10093319D02*
G01*
X15102840Y10093319D01*
X15102840Y10081260D01*
D42*
X15079017Y10093319D02*
G01*
X14943782Y10093319D01*
X15079017Y9998080D02*
G01*
X14943782Y9998080D01*
D10*
G75*
G01*
X10337899Y8144198D02*
G03*
X10357899Y8124198I20000J0D01*
G75*
G01*
X10337899Y8264200D02*
G02*
X10357902Y8284202I20003J0D01*
G75*
G01*
X10667901Y8144198D02*
G02*
X10647901Y8124198I-20000J0D01*
G75*
G01*
X10667901Y8264200D02*
G03*
X10647898Y8284202I-20003J0D01*
G75*
G01*
X5295801Y16392202D02*
G03*
X5275801Y16412202I-20000J0D01*
G75*
G01*
X5295801Y16272200D02*
G02*
X5275798Y16252198I-20003J0D01*
G75*
G01*
X4965799Y16392202D02*
G02*
X4985799Y16412202I20000J0D01*
G75*
G01*
X4965799Y16272200D02*
G03*
X4985802Y16252198I20003J0D01*
G75*
G01*
X5295801Y16189002D02*
G03*
X5275801Y16209002I-20000J0D01*
G75*
G01*
X5295801Y16069000D02*
G02*
X5275798Y16048998I-20003J0D01*
G75*
G01*
X4965799Y16189002D02*
G02*
X4985799Y16209002I20000J0D01*
G75*
G01*
X4965799Y16069000D02*
G03*
X4985802Y16048998I20003J0D01*
G75*
G01*
X3470598Y16751201D02*
G03*
X3450598Y16731201I0J-20000D01*
G75*
G01*
X3590600Y16751201D02*
G02*
X3610602Y16731198I0J-20003D01*
G75*
G01*
X3470598Y16421199D02*
G02*
X3450598Y16441199I0J20000D01*
G75*
G01*
X3590600Y16421199D02*
G03*
X3610602Y16441202I0J20003D01*
G75*
G01*
X4660801Y16570002D02*
G03*
X4640801Y16590002I-20000J0D01*
G75*
G01*
X4660801Y16450000D02*
G02*
X4640798Y16429998I-20003J0D01*
G75*
G01*
X4330799Y16570002D02*
G02*
X4350799Y16590002I20000J0D01*
G75*
G01*
X4330799Y16450000D02*
G03*
X4350802Y16429998I20003J0D01*
G75*
G01*
X3616002Y15367099D02*
G03*
X3636002Y15387099I0J20000D01*
G75*
G01*
X3496000Y15367099D02*
G02*
X3475998Y15387102I0J20003D01*
G75*
G01*
X3616002Y15697101D02*
G02*
X3636002Y15677101I0J-20000D01*
G75*
G01*
X3496000Y15697101D02*
G03*
X3475998Y15677098I0J-20003D01*
G75*
G01*
X4873302Y15671899D02*
G03*
X4893302Y15691899I0J20000D01*
G75*
G01*
X4753300Y15671899D02*
G02*
X4733298Y15691902I0J20003D01*
G75*
G01*
X4873302Y16001901D02*
G02*
X4893302Y15981901I0J-20000D01*
G75*
G01*
X4753300Y16001901D02*
G03*
X4733298Y15981898I0J-20003D01*
D43*
G75*
G01*
X1280597Y15806603D02*
G02*
X1280597Y15806603I0J0D01*
D51*
G75*
G01*
X4218099Y16355027D02*
G02*
X4218099Y16354773I20000J-127D01*
D10*
G75*
G01
X4331208Y14325600D02*
G03X4331208Y14325600I-127508J0D01*
G75*
G01
X2451608Y13957300D02*
G03X2451608Y13957300I-127508J0D01*
D48*
G75*
G01
X10243693Y7892390D02*
G03X10243693Y7892390I-7493J0D01*
M02*
