G04 Layer: BottomSolderMaskLayer*
G04 EasyEDA v6.4.20.2, 2021-06-30T10:48:07+02:00*
G04 d10c3ea4707d49af85f46b29c2d7dc23,563db0ff5b334ec4995e7372edb549dc,10*
G04 Gerber Generator version 0.2*
G04 Scale: 100 percent, Rotated: No, Reflected: No *
G04 Dimensions in millimeters *
G04 leading zeros omitted , absolute positions ,4 integer and 5 decimal *
%FSLAX45Y45*%
%MOMM*%

%ADD52C,1.1016*%
%ADD53C,1.8016*%
%ADD55C,1.5532*%
%ADD58C,2.3876*%
%ADD59C,1.7272*%
%ADD60C,0.3700*%
%ADD73R,0.7666X0.3256*%
%ADD74R,0.3256X0.7666*%

%LPD*%
D60*
X4338594Y16365905D02*
G01*
X4461591Y16365905D01*
X4338594Y16315893D02*
G01*
X4461591Y16315893D01*
X4338594Y16265905D02*
G01*
X4461591Y16265905D01*
X4338594Y16215893D02*
G01*
X4461591Y16215893D01*
X4338594Y16165906D02*
G01*
X4461591Y16165906D01*
X4338594Y16115893D02*
G01*
X4461591Y16115893D01*
X4338594Y16065906D02*
G01*
X4461591Y16065906D01*
X4338594Y16015893D02*
G01*
X4461591Y16015893D01*
X4338594Y15965906D02*
G01*
X4461591Y15965906D01*
X4338594Y15915894D02*
G01*
X4461591Y15915894D01*
X4338594Y15865906D02*
G01*
X4461591Y15865906D01*
X4338594Y15815894D02*
G01*
X4461591Y15815894D01*
X4250105Y15604406D02*
G01*
X4250105Y15727408D01*
X4200093Y15604406D02*
G01*
X4200093Y15727408D01*
X4150106Y15604406D02*
G01*
X4150106Y15727408D01*
X4100093Y15604406D02*
G01*
X4100093Y15727408D01*
X4050106Y15604406D02*
G01*
X4050106Y15727408D01*
X4000093Y15604406D02*
G01*
X4000093Y15727408D01*
X3950106Y15604406D02*
G01*
X3950106Y15727408D01*
X3900093Y15604406D02*
G01*
X3900093Y15727408D01*
X3850106Y15604406D02*
G01*
X3850106Y15727408D01*
X3800093Y15604406D02*
G01*
X3800093Y15727408D01*
X3750106Y15604406D02*
G01*
X3750106Y15727408D01*
X3700094Y15604406D02*
G01*
X3700094Y15727408D01*
X3488608Y15815894D02*
G01*
X3611605Y15815894D01*
X3488608Y15865906D02*
G01*
X3611605Y15865906D01*
X3488608Y15915894D02*
G01*
X3611605Y15915894D01*
X3488608Y15965906D02*
G01*
X3611605Y15965906D01*
X3488608Y16015893D02*
G01*
X3611605Y16015893D01*
X3488608Y16065906D02*
G01*
X3611605Y16065906D01*
X3488608Y16115893D02*
G01*
X3611605Y16115893D01*
X3488608Y16165906D02*
G01*
X3611605Y16165906D01*
X3488608Y16215893D02*
G01*
X3611605Y16215893D01*
X3488608Y16265905D02*
G01*
X3611605Y16265905D01*
X3488608Y16315893D02*
G01*
X3611605Y16315893D01*
X3488608Y16365905D02*
G01*
X3611605Y16365905D01*
X3700094Y16454391D02*
G01*
X3700094Y16577393D01*
X3750106Y16454391D02*
G01*
X3750106Y16577393D01*
X3800093Y16454391D02*
G01*
X3800093Y16577393D01*
X3850106Y16454391D02*
G01*
X3850106Y16577393D01*
X3900093Y16454391D02*
G01*
X3900093Y16577393D01*
X3950106Y16454391D02*
G01*
X3950106Y16577393D01*
X4000093Y16454391D02*
G01*
X4000093Y16577393D01*
X4050106Y16454391D02*
G01*
X4050106Y16577393D01*
X4100093Y16454391D02*
G01*
X4100093Y16577393D01*
X4150106Y16454391D02*
G01*
X4150106Y16577393D01*
X4200093Y16454391D02*
G01*
X4200093Y16577393D01*
X4250105Y16454391D02*
G01*
X4250105Y16577393D01*
D52*
X1613154Y16770761D02*
G01*
X1613154Y16850761D01*
X749147Y16770761D02*
G01*
X749147Y16850761D01*
X1613154Y16337754D02*
G01*
X1613154Y16447754D01*
X749147Y16337754D02*
G01*
X749147Y16447754D01*
G36*
X10352786Y8138921D02*
G01*
X10352786Y8269478D01*
X10473181Y8269478D01*
X10473181Y8138921D01*
G37*
G36*
X10532872Y8138921D02*
G01*
X10532872Y8269478D01*
X10653013Y8269478D01*
X10653013Y8138921D01*
G37*
G36*
X14794229Y14616429D02*
G01*
X14794229Y14796770D01*
X14974570Y14796770D01*
X14974570Y14616429D01*
G37*
D53*
G01*
X14884400Y14960600D03*
G01*
X14884400Y15214600D03*
G01*
X14884400Y15468600D03*
G36*
X4232402Y14660371D02*
G01*
X4232402Y14770607D01*
X4352797Y14770607D01*
X4352797Y14660371D01*
G37*
G36*
X4232402Y14820392D02*
G01*
X4232402Y14930628D01*
X4352797Y14930628D01*
X4352797Y14820392D01*
G37*
G36*
X3783584Y14085570D02*
G01*
X3783584Y14195805D01*
X3963670Y14195805D01*
X3963670Y14085570D01*
G37*
G36*
X4443729Y14085570D02*
G01*
X4443729Y14195552D01*
X4623815Y14195552D01*
X4623815Y14085570D01*
G37*
G36*
X3783584Y14455647D02*
G01*
X3783584Y14565629D01*
X3963670Y14565629D01*
X3963670Y14455647D01*
G37*
G36*
X4443729Y14455647D02*
G01*
X4443729Y14565629D01*
X4623815Y14565629D01*
X4623815Y14455647D01*
G37*
G36*
X2564129Y14087094D02*
G01*
X2564129Y14197329D01*
X2744215Y14197329D01*
X2744215Y14087094D01*
G37*
G36*
X1903984Y14087347D02*
G01*
X1903984Y14197329D01*
X2084070Y14197329D01*
X2084070Y14087347D01*
G37*
G36*
X2564129Y13717270D02*
G01*
X2564129Y13827252D01*
X2744215Y13827252D01*
X2744215Y13717270D01*
G37*
G36*
X1903984Y13717270D02*
G01*
X1903984Y13827252D01*
X2084070Y13827252D01*
X2084070Y13717270D01*
G37*
G36*
X3254502Y15523971D02*
G01*
X3254502Y15634207D01*
X3374897Y15634207D01*
X3374897Y15523971D01*
G37*
G36*
X3254502Y15683992D02*
G01*
X3254502Y15794228D01*
X3374897Y15794228D01*
X3374897Y15683992D01*
G37*
G36*
X3051302Y15683992D02*
G01*
X3051302Y15794228D01*
X3171697Y15794228D01*
X3171697Y15683992D01*
G37*
G36*
X3051302Y15523971D02*
G01*
X3051302Y15634207D01*
X3171697Y15634207D01*
X3171697Y15523971D01*
G37*
G36*
X1808226Y14910054D02*
G01*
X1808226Y15065247D01*
X1963674Y15065247D01*
X1963674Y14910054D01*
G37*
D55*
G01*
X1885899Y15187599D03*
G01*
X1685899Y14987600D03*
G01*
X1685899Y15187599D03*
G01*
X1485900Y14987600D03*
G01*
X1485900Y15187599D03*
G01*
X1285900Y14987600D03*
G01*
X1285900Y15187599D03*
G01*
X1085900Y14987600D03*
G01*
X1085900Y15187599D03*
G36*
X14015466Y12922758D02*
G01*
X14015466Y13246100D01*
X14381734Y13246100D01*
X14381734Y12922758D01*
G37*
G36*
X14015466Y10045700D02*
G01*
X14015466Y10369042D01*
X14381734Y10369042D01*
X14381734Y10045700D01*
G37*
G36*
X2670302Y16359378D02*
G01*
X2670302Y16519652D01*
X2816352Y16519652D01*
X2816352Y16359378D01*
G37*
G36*
X2670302Y16119347D02*
G01*
X2670302Y16279621D01*
X2816352Y16279621D01*
X2816352Y16119347D01*
G37*
G36*
X1768602Y16170147D02*
G01*
X1768602Y16330421D01*
X1914652Y16330421D01*
X1914652Y16170147D01*
G37*
G36*
X1768602Y16410178D02*
G01*
X1768602Y16570452D01*
X1914652Y16570452D01*
X1914652Y16410178D01*
G37*
G36*
X5160518Y16266921D02*
G01*
X5160518Y16397478D01*
X5280913Y16397478D01*
X5280913Y16266921D01*
G37*
G36*
X4980686Y16266921D02*
G01*
X4980686Y16397478D01*
X5100827Y16397478D01*
X5100827Y16266921D01*
G37*
G36*
X5160518Y16063721D02*
G01*
X5160518Y16194278D01*
X5280913Y16194278D01*
X5280913Y16063721D01*
G37*
G36*
X4980686Y16063721D02*
G01*
X4980686Y16194278D01*
X5100827Y16194278D01*
X5100827Y16063721D01*
G37*
G36*
X3465322Y16615918D02*
G01*
X3465322Y16736313D01*
X3595877Y16736313D01*
X3595877Y16615918D01*
G37*
G36*
X3465322Y16436086D02*
G01*
X3465322Y16556228D01*
X3595877Y16556228D01*
X3595877Y16436086D01*
G37*
G36*
X4525518Y16444721D02*
G01*
X4525518Y16575278D01*
X4645913Y16575278D01*
X4645913Y16444721D01*
G37*
G36*
X4345686Y16444721D02*
G01*
X4345686Y16575278D01*
X4465827Y16575278D01*
X4465827Y16444721D01*
G37*
G36*
X3490722Y15381986D02*
G01*
X3490722Y15502381D01*
X3621277Y15502381D01*
X3621277Y15381986D01*
G37*
G36*
X3490722Y15562071D02*
G01*
X3490722Y15682213D01*
X3621277Y15682213D01*
X3621277Y15562071D01*
G37*
G36*
X4748022Y15686786D02*
G01*
X4748022Y15807181D01*
X4878577Y15807181D01*
X4878577Y15686786D01*
G37*
G36*
X4748022Y15866871D02*
G01*
X4748022Y15987013D01*
X4878577Y15987013D01*
X4878577Y15866871D01*
G37*
G36*
X6924802Y16728186D02*
G01*
X6924802Y16808195D01*
X7024877Y16808195D01*
X7024877Y16728186D01*
G37*
G36*
X6924802Y16618204D02*
G01*
X6924802Y16698213D01*
X7024877Y16698213D01*
X7024877Y16618204D01*
G37*
G36*
X6741922Y16618204D02*
G01*
X6741922Y16698213D01*
X6841997Y16698213D01*
X6841997Y16618204D01*
G37*
G36*
X6741922Y16728186D02*
G01*
X6741922Y16808195D01*
X6841997Y16808195D01*
X6841997Y16728186D01*
G37*
G36*
X10734802Y16486886D02*
G01*
X10734802Y16566895D01*
X10834877Y16566895D01*
X10834877Y16486886D01*
G37*
G36*
X10734802Y16376904D02*
G01*
X10734802Y16456913D01*
X10834877Y16456913D01*
X10834877Y16376904D01*
G37*
G36*
X10551922Y16376904D02*
G01*
X10551922Y16456913D01*
X10651997Y16456913D01*
X10651997Y16376904D01*
G37*
G36*
X10551922Y16486886D02*
G01*
X10551922Y16566895D01*
X10651997Y16566895D01*
X10651997Y16486886D01*
G37*
G36*
X15254986Y14006321D02*
G01*
X15254986Y14106397D01*
X15334995Y14106397D01*
X15334995Y14006321D01*
G37*
G36*
X15145004Y14006321D02*
G01*
X15145004Y14106397D01*
X15225013Y14106397D01*
X15225013Y14006321D01*
G37*
G36*
X15145004Y14189202D02*
G01*
X15145004Y14289278D01*
X15225013Y14289278D01*
X15225013Y14189202D01*
G37*
G36*
X15254986Y14189202D02*
G01*
X15254986Y14289278D01*
X15334995Y14289278D01*
X15334995Y14189202D01*
G37*
G36*
X15242286Y9383521D02*
G01*
X15242286Y9483597D01*
X15322295Y9483597D01*
X15322295Y9383521D01*
G37*
G36*
X15132304Y9383521D02*
G01*
X15132304Y9483597D01*
X15212313Y9483597D01*
X15212313Y9383521D01*
G37*
G36*
X15132304Y9566402D02*
G01*
X15132304Y9666478D01*
X15212313Y9666478D01*
X15212313Y9566402D01*
G37*
G36*
X15242286Y9566402D02*
G01*
X15242286Y9666478D01*
X15322295Y9666478D01*
X15322295Y9566402D01*
G37*
G36*
X11504422Y6788404D02*
G01*
X11504422Y6868413D01*
X11604497Y6868413D01*
X11604497Y6788404D01*
G37*
G36*
X11504422Y6898386D02*
G01*
X11504422Y6978395D01*
X11604497Y6978395D01*
X11604497Y6898386D01*
G37*
G36*
X11687302Y6898386D02*
G01*
X11687302Y6978395D01*
X11787377Y6978395D01*
X11787377Y6898386D01*
G37*
G36*
X11687302Y6788404D02*
G01*
X11687302Y6868413D01*
X11787377Y6868413D01*
X11787377Y6788404D01*
G37*
G36*
X6741922Y7232904D02*
G01*
X6741922Y7312913D01*
X6841997Y7312913D01*
X6841997Y7232904D01*
G37*
G36*
X6741922Y7342886D02*
G01*
X6741922Y7422895D01*
X6841997Y7422895D01*
X6841997Y7342886D01*
G37*
G36*
X6924802Y7342886D02*
G01*
X6924802Y7422895D01*
X7024877Y7422895D01*
X7024877Y7342886D01*
G37*
G36*
X6924802Y7232904D02*
G01*
X6924802Y7312913D01*
X7024877Y7312913D01*
X7024877Y7232904D01*
G37*
G36*
X2931922Y6051804D02*
G01*
X2931922Y6131813D01*
X3031997Y6131813D01*
X3031997Y6051804D01*
G37*
G36*
X2931922Y6161786D02*
G01*
X2931922Y6241795D01*
X3031997Y6241795D01*
X3031997Y6161786D01*
G37*
G36*
X3114802Y6161786D02*
G01*
X3114802Y6241795D01*
X3214877Y6241795D01*
X3214877Y6161786D01*
G37*
G36*
X3114802Y6051804D02*
G01*
X3114802Y6131813D01*
X3214877Y6131813D01*
X3214877Y6051804D01*
G37*
G36*
X311404Y8144002D02*
G01*
X311404Y8244078D01*
X391413Y8244078D01*
X391413Y8144002D01*
G37*
G36*
X421386Y8144002D02*
G01*
X421386Y8244078D01*
X501395Y8244078D01*
X501395Y8144002D01*
G37*
G36*
X421386Y7961121D02*
G01*
X421386Y8061197D01*
X501395Y8061197D01*
X501395Y7961121D01*
G37*
G36*
X311404Y7961121D02*
G01*
X311404Y8061197D01*
X391413Y8061197D01*
X391413Y7961121D01*
G37*
G36*
X298704Y11954002D02*
G01*
X298704Y12054078D01*
X378713Y12054078D01*
X378713Y11954002D01*
G37*
G36*
X408686Y11954002D02*
G01*
X408686Y12054078D01*
X488695Y12054078D01*
X488695Y11954002D01*
G37*
G36*
X408686Y11771121D02*
G01*
X408686Y11871197D01*
X488695Y11871197D01*
X488695Y11771121D01*
G37*
G36*
X298704Y11771121D02*
G01*
X298704Y11871197D01*
X378713Y11871197D01*
X378713Y11771121D01*
G37*
G36*
X9325102Y7936992D02*
G01*
X9325102Y8047228D01*
X9445497Y8047228D01*
X9445497Y7936992D01*
G37*
G36*
X9325102Y7776971D02*
G01*
X9325102Y7887208D01*
X9445497Y7887208D01*
X9445497Y7776971D01*
G37*
G36*
X9528302Y8013192D02*
G01*
X9528302Y8123428D01*
X9648697Y8123428D01*
X9648697Y8013192D01*
G37*
G36*
X9528302Y7853171D02*
G01*
X9528302Y7963408D01*
X9648697Y7963408D01*
X9648697Y7853171D01*
G37*
G36*
X2462022Y16050005D02*
G01*
X2462022Y16294354D01*
X2569972Y16294354D01*
X2569972Y16050005D01*
G37*
G36*
X2231897Y16050005D02*
G01*
X2231897Y16294354D01*
X2340102Y16294354D01*
X2340102Y16050005D01*
G37*
G36*
X2002027Y16050005D02*
G01*
X2002027Y16294354D01*
X2109977Y16294354D01*
X2109977Y16050005D01*
G37*
G36*
X2100834Y16624045D02*
G01*
X2100834Y16868394D01*
X2471165Y16868394D01*
X2471165Y16624045D01*
G37*
G36*
X4718304Y16050513D02*
G01*
X4718304Y16160750D01*
X4908295Y16160750D01*
X4908295Y16050513D01*
G37*
G36*
X4718304Y16300450D02*
G01*
X4718304Y16410686D01*
X4908295Y16410686D01*
X4908295Y16300450D01*
G37*
G36*
X3176270Y15878302D02*
G01*
X3152140Y15938500D01*
X3176270Y15998697D01*
X3249929Y15998697D01*
X3274059Y15938500D01*
X3249929Y15878302D01*
G37*
G36*
X3262375Y15878302D02*
G01*
X3286506Y15938500D01*
X3262375Y15998697D01*
X3337559Y15998697D01*
X3337559Y15878302D01*
G37*
G36*
X3088640Y15878302D02*
G01*
X3088640Y15998697D01*
X3163824Y15998697D01*
X3139693Y15938500D01*
X3163824Y15878302D01*
G37*
G36*
X1298702Y15600171D02*
G01*
X1298702Y15710407D01*
X1419097Y15710407D01*
X1419097Y15600171D01*
G37*
G36*
X1298702Y15760192D02*
G01*
X1298702Y15870428D01*
X1419097Y15870428D01*
X1419097Y15760192D01*
G37*
G36*
X930402Y15600171D02*
G01*
X930402Y15710407D01*
X1050797Y15710407D01*
X1050797Y15600171D01*
G37*
G36*
X930402Y15760192D02*
G01*
X930402Y15870428D01*
X1050797Y15870428D01*
X1050797Y15760192D01*
G37*
G36*
X939292Y15954502D02*
G01*
X939292Y16074897D01*
X1049528Y16074897D01*
X1049528Y15954502D01*
G37*
G36*
X779271Y15954502D02*
G01*
X779271Y16074897D01*
X889507Y16074897D01*
X889507Y15954502D01*
G37*
G36*
X1312671Y15954502D02*
G01*
X1312671Y16074897D01*
X1422907Y16074897D01*
X1422907Y15954502D01*
G37*
G36*
X1472692Y15954502D02*
G01*
X1472692Y16074897D01*
X1582928Y16074897D01*
X1582928Y15954502D01*
G37*
G36*
X10134600Y7876031D02*
G01*
X10134600Y7908797D01*
X10211308Y7908797D01*
X10211308Y7876031D01*
G37*
D73*
G01*
X10172954Y7852410D03*
G36*
X10134600Y7796021D02*
G01*
X10134600Y7828787D01*
X10211308Y7828787D01*
X10211308Y7796021D01*
G37*
G01*
X10172954Y7772400D03*
G36*
X10134600Y7716012D02*
G01*
X10134600Y7748778D01*
X10211308Y7748778D01*
X10211308Y7716012D01*
G37*
G01*
X10172954Y7692389D03*
G36*
X10134600Y7636002D02*
G01*
X10134600Y7668768D01*
X10211308Y7668768D01*
X10211308Y7636002D01*
G37*
G36*
X10085831Y7543292D02*
G01*
X10085831Y7620000D01*
X10118597Y7620000D01*
X10118597Y7543292D01*
G37*
D74*
G01*
X10062209Y7581645D03*
G36*
X10005822Y7543292D02*
G01*
X10005822Y7620000D01*
X10038588Y7620000D01*
X10038588Y7543292D01*
G37*
G01*
X9982200Y7581645D03*
G36*
X9925811Y7543292D02*
G01*
X9925811Y7620000D01*
X9958577Y7620000D01*
X9958577Y7543292D01*
G37*
G01*
X9902190Y7581645D03*
G36*
X9845802Y7543292D02*
G01*
X9845802Y7620000D01*
X9878568Y7620000D01*
X9878568Y7543292D01*
G37*
G36*
X9753091Y7636002D02*
G01*
X9753091Y7668768D01*
X9829800Y7668768D01*
X9829800Y7636002D01*
G37*
D73*
G01*
X9791445Y7692389D03*
G36*
X9753091Y7716012D02*
G01*
X9753091Y7748778D01*
X9829800Y7748778D01*
X9829800Y7716012D01*
G37*
G01*
X9791445Y7772400D03*
G36*
X9753091Y7796021D02*
G01*
X9753091Y7828787D01*
X9829800Y7828787D01*
X9829800Y7796021D01*
G37*
G01*
X9791445Y7852410D03*
G36*
X9753091Y7876031D02*
G01*
X9753091Y7908797D01*
X9829800Y7908797D01*
X9829800Y7876031D01*
G37*
G36*
X9845802Y7924800D02*
G01*
X9845802Y8001508D01*
X9878568Y8001508D01*
X9878568Y7924800D01*
G37*
D74*
G01*
X9902190Y7963154D03*
G36*
X9925811Y7924800D02*
G01*
X9925811Y8001508D01*
X9958577Y8001508D01*
X9958577Y7924800D01*
G37*
G01*
X9982200Y7963154D03*
G36*
X10005822Y7924800D02*
G01*
X10005822Y8001508D01*
X10038588Y8001508D01*
X10038588Y7924800D01*
G37*
G01*
X10062209Y7963154D03*
G36*
X10085831Y7924800D02*
G01*
X10085831Y8001508D01*
X10118597Y8001508D01*
X10118597Y7924800D01*
G37*
G36*
X9842245Y7632192D02*
G01*
X9842245Y7912354D01*
X10122154Y7912354D01*
X10122154Y7632192D01*
G37*
G36*
X10353802Y7936992D02*
G01*
X10353802Y8047228D01*
X10474197Y8047228D01*
X10474197Y7936992D01*
G37*
G36*
X10353802Y7776971D02*
G01*
X10353802Y7887208D01*
X10474197Y7887208D01*
X10474197Y7776971D01*
G37*
G36*
X10353802Y7555992D02*
G01*
X10353802Y7666228D01*
X10474197Y7666228D01*
X10474197Y7555992D01*
G37*
G36*
X10353802Y7395971D02*
G01*
X10353802Y7506208D01*
X10474197Y7506208D01*
X10474197Y7395971D01*
G37*
G36*
X2213102Y14769592D02*
G01*
X2213102Y14879828D01*
X2333497Y14879828D01*
X2333497Y14769592D01*
G37*
G36*
X2213102Y14609571D02*
G01*
X2213102Y14719807D01*
X2333497Y14719807D01*
X2333497Y14609571D01*
G37*
G36*
X1211071Y15937992D02*
G01*
X1211071Y16033242D01*
X1251204Y16033242D01*
X1251204Y15937992D01*
G37*
G36*
X1161034Y15937992D02*
G01*
X1161034Y16033242D01*
X1201165Y16033242D01*
X1201165Y15937992D01*
G37*
G36*
X1110995Y15937992D02*
G01*
X1110995Y16033242D01*
X1151128Y16033242D01*
X1151128Y15937992D01*
G37*
G36*
X1110995Y15792957D02*
G01*
X1110995Y15888207D01*
X1151128Y15888207D01*
X1151128Y15792957D01*
G37*
G36*
X1161034Y15792957D02*
G01*
X1161034Y15888207D01*
X1201165Y15888207D01*
X1201165Y15792957D01*
G37*
G36*
X1211071Y15792957D02*
G01*
X1211071Y15888207D01*
X1251204Y15888207D01*
X1251204Y15792957D01*
G37*
G36*
X3127502Y16728186D02*
G01*
X3127502Y16808195D01*
X3227577Y16808195D01*
X3227577Y16728186D01*
G37*
G36*
X3127502Y16618204D02*
G01*
X3127502Y16698213D01*
X3227577Y16698213D01*
X3227577Y16618204D01*
G37*
G36*
X2944622Y16618204D02*
G01*
X2944622Y16698213D01*
X3044697Y16698213D01*
X3044697Y16618204D01*
G37*
G36*
X2944622Y16728186D02*
G01*
X2944622Y16808195D01*
X3044697Y16808195D01*
X3044697Y16728186D01*
G37*
G36*
X14794229Y13740129D02*
G01*
X14794229Y13920470D01*
X14974570Y13920470D01*
X14974570Y13740129D01*
G37*
D53*
G01*
X14884400Y13576300D03*
G01*
X14884400Y13322300D03*
G01*
X14884400Y13068300D03*
G36*
X14284959Y16129762D02*
G01*
X14284959Y16289781D01*
X14545056Y16289781D01*
X14545056Y16129762D01*
G37*
G36*
X14184884Y15688818D02*
G01*
X14184884Y15848837D01*
X14445234Y15848837D01*
X14445234Y15688818D01*
G37*
G36*
X14685009Y16129762D02*
G01*
X14685009Y16289781D01*
X14945106Y16289781D01*
X14945106Y16129762D01*
G37*
G36*
X15018766Y16129762D02*
G01*
X15018766Y16289781D01*
X15279116Y16289781D01*
X15279116Y16129762D01*
G37*
G36*
X1466087Y16273779D02*
G01*
X1466087Y16398747D01*
X1536192Y16398747D01*
X1536192Y16273779D01*
G37*
G36*
X1386078Y16273779D02*
G01*
X1386078Y16398747D01*
X1456181Y16398747D01*
X1456181Y16273779D01*
G37*
G36*
X826007Y16273779D02*
G01*
X826007Y16398747D01*
X896112Y16398747D01*
X896112Y16273779D01*
G37*
G36*
X906018Y16273779D02*
G01*
X906018Y16398747D01*
X976121Y16398747D01*
X976121Y16273779D01*
G37*
G36*
X1336039Y16273779D02*
G01*
X1336039Y16398747D01*
X1376171Y16398747D01*
X1376171Y16273779D01*
G37*
G36*
X1286002Y16273779D02*
G01*
X1286002Y16398747D01*
X1326134Y16398747D01*
X1326134Y16273779D01*
G37*
G36*
X1235963Y16273779D02*
G01*
X1235963Y16398747D01*
X1276350Y16398747D01*
X1276350Y16273779D01*
G37*
G36*
X1186179Y16273779D02*
G01*
X1186179Y16398747D01*
X1226312Y16398747D01*
X1226312Y16273779D01*
G37*
G36*
X1136142Y16273779D02*
G01*
X1136142Y16398747D01*
X1176273Y16398747D01*
X1176273Y16273779D01*
G37*
G36*
X1086104Y16273779D02*
G01*
X1086104Y16398747D01*
X1126236Y16398747D01*
X1126236Y16273779D01*
G37*
G36*
X1036065Y16273779D02*
G01*
X1036065Y16398747D01*
X1076197Y16398747D01*
X1076197Y16273779D01*
G37*
G36*
X986028Y16273779D02*
G01*
X986028Y16398747D01*
X1026160Y16398747D01*
X1026160Y16273779D01*
G37*
G36*
X1561337Y14302486D02*
G01*
X1561337Y14348713D01*
X1664462Y14348713D01*
X1664462Y14302486D01*
G37*
G36*
X1688337Y14302486D02*
G01*
X1688337Y14348713D01*
X1791462Y14348713D01*
X1791462Y14302486D01*
G37*
G36*
X3453638Y15026386D02*
G01*
X3453638Y15072613D01*
X3556761Y15072613D01*
X3556761Y15026386D01*
G37*
G36*
X3580638Y15026386D02*
G01*
X3580638Y15072613D01*
X3683761Y15072613D01*
X3683761Y15026386D01*
G37*
G36*
X5384038Y15724886D02*
G01*
X5384038Y15771113D01*
X5487161Y15771113D01*
X5487161Y15724886D01*
G37*
G36*
X5511038Y15724886D02*
G01*
X5511038Y15771113D01*
X5614161Y15771113D01*
X5614161Y15724886D01*
G37*
G36*
X7276338Y16194786D02*
G01*
X7276338Y16241013D01*
X7379461Y16241013D01*
X7379461Y16194786D01*
G37*
G36*
X7403338Y16194786D02*
G01*
X7403338Y16241013D01*
X7506461Y16241013D01*
X7506461Y16194786D01*
G37*
G36*
X9181338Y16448786D02*
G01*
X9181338Y16495013D01*
X9284461Y16495013D01*
X9284461Y16448786D01*
G37*
G36*
X9308338Y16448786D02*
G01*
X9308338Y16495013D01*
X9411461Y16495013D01*
X9411461Y16448786D01*
G37*
G36*
X11086338Y16207486D02*
G01*
X11086338Y16253713D01*
X11189461Y16253713D01*
X11189461Y16207486D01*
G37*
G36*
X11213338Y16207486D02*
G01*
X11213338Y16253713D01*
X11316461Y16253713D01*
X11316461Y16207486D01*
G37*
G36*
X12991338Y15966186D02*
G01*
X12991338Y16012413D01*
X13094461Y16012413D01*
X13094461Y15966186D01*
G37*
G36*
X13118338Y15966186D02*
G01*
X13118338Y16012413D01*
X13221461Y16012413D01*
X13221461Y15966186D01*
G37*
G36*
X1561337Y12397486D02*
G01*
X1561337Y12443713D01*
X1664462Y12443713D01*
X1664462Y12397486D01*
G37*
G36*
X1688337Y12397486D02*
G01*
X1688337Y12443713D01*
X1791462Y12443713D01*
X1791462Y12397486D01*
G37*
G36*
X3466338Y13108686D02*
G01*
X3466338Y13154913D01*
X3569461Y13154913D01*
X3569461Y13108686D01*
G37*
G36*
X3593338Y13108686D02*
G01*
X3593338Y13154913D01*
X3696461Y13154913D01*
X3696461Y13108686D01*
G37*
G36*
X5384038Y13819886D02*
G01*
X5384038Y13866113D01*
X5487161Y13866113D01*
X5487161Y13819886D01*
G37*
G36*
X5511038Y13819886D02*
G01*
X5511038Y13866113D01*
X5614161Y13866113D01*
X5614161Y13819886D01*
G37*
G36*
X7276338Y14289786D02*
G01*
X7276338Y14336013D01*
X7379461Y14336013D01*
X7379461Y14289786D01*
G37*
G36*
X7403338Y14289786D02*
G01*
X7403338Y14336013D01*
X7506461Y14336013D01*
X7506461Y14289786D01*
G37*
G36*
X9181338Y14543786D02*
G01*
X9181338Y14590013D01*
X9284461Y14590013D01*
X9284461Y14543786D01*
G37*
G36*
X9308338Y14543786D02*
G01*
X9308338Y14590013D01*
X9411461Y14590013D01*
X9411461Y14543786D01*
G37*
G36*
X11086338Y14302486D02*
G01*
X11086338Y14348713D01*
X11189461Y14348713D01*
X11189461Y14302486D01*
G37*
G36*
X11213338Y14302486D02*
G01*
X11213338Y14348713D01*
X11316461Y14348713D01*
X11316461Y14302486D01*
G37*
G36*
X12991338Y14061186D02*
G01*
X12991338Y14107413D01*
X13094461Y14107413D01*
X13094461Y14061186D01*
G37*
G36*
X13118338Y14061186D02*
G01*
X13118338Y14107413D01*
X13221461Y14107413D01*
X13221461Y14061186D01*
G37*
G36*
X1561337Y10492486D02*
G01*
X1561337Y10538713D01*
X1664462Y10538713D01*
X1664462Y10492486D01*
G37*
G36*
X1688337Y10492486D02*
G01*
X1688337Y10538713D01*
X1791462Y10538713D01*
X1791462Y10492486D01*
G37*
G36*
X3466338Y11216386D02*
G01*
X3466338Y11262613D01*
X3569461Y11262613D01*
X3569461Y11216386D01*
G37*
G36*
X3593338Y11216386D02*
G01*
X3593338Y11262613D01*
X3696461Y11262613D01*
X3696461Y11216386D01*
G37*
G36*
X5384038Y11914886D02*
G01*
X5384038Y11961113D01*
X5487161Y11961113D01*
X5487161Y11914886D01*
G37*
G36*
X5511038Y11914886D02*
G01*
X5511038Y11961113D01*
X5614161Y11961113D01*
X5614161Y11914886D01*
G37*
G36*
X7276338Y12384786D02*
G01*
X7276338Y12431013D01*
X7379461Y12431013D01*
X7379461Y12384786D01*
G37*
G36*
X7403338Y12384786D02*
G01*
X7403338Y12431013D01*
X7506461Y12431013D01*
X7506461Y12384786D01*
G37*
G36*
X9181338Y12638786D02*
G01*
X9181338Y12685013D01*
X9284461Y12685013D01*
X9284461Y12638786D01*
G37*
G36*
X9308338Y12638786D02*
G01*
X9308338Y12685013D01*
X9411461Y12685013D01*
X9411461Y12638786D01*
G37*
G36*
X11086338Y12397486D02*
G01*
X11086338Y12443713D01*
X11189461Y12443713D01*
X11189461Y12397486D01*
G37*
G36*
X11213338Y12397486D02*
G01*
X11213338Y12443713D01*
X11316461Y12443713D01*
X11316461Y12397486D01*
G37*
G36*
X12991338Y12156186D02*
G01*
X12991338Y12202413D01*
X13094461Y12202413D01*
X13094461Y12156186D01*
G37*
G36*
X13118338Y12156186D02*
G01*
X13118338Y12202413D01*
X13221461Y12202413D01*
X13221461Y12156186D01*
G37*
G36*
X1561337Y8587486D02*
G01*
X1561337Y8633713D01*
X1664462Y8633713D01*
X1664462Y8587486D01*
G37*
G36*
X1688337Y8587486D02*
G01*
X1688337Y8633713D01*
X1791462Y8633713D01*
X1791462Y8587486D01*
G37*
G36*
X3466338Y9298686D02*
G01*
X3466338Y9344913D01*
X3569461Y9344913D01*
X3569461Y9298686D01*
G37*
G36*
X3593338Y9298686D02*
G01*
X3593338Y9344913D01*
X3696461Y9344913D01*
X3696461Y9298686D01*
G37*
G36*
X5371338Y10009886D02*
G01*
X5371338Y10056113D01*
X5474461Y10056113D01*
X5474461Y10009886D01*
G37*
G36*
X5498338Y10009886D02*
G01*
X5498338Y10056113D01*
X5601461Y10056113D01*
X5601461Y10009886D01*
G37*
G36*
X7276338Y10479786D02*
G01*
X7276338Y10526013D01*
X7379461Y10526013D01*
X7379461Y10479786D01*
G37*
G36*
X7403338Y10479786D02*
G01*
X7403338Y10526013D01*
X7506461Y10526013D01*
X7506461Y10479786D01*
G37*
G36*
X9181338Y10733786D02*
G01*
X9181338Y10780013D01*
X9284461Y10780013D01*
X9284461Y10733786D01*
G37*
G36*
X9308338Y10733786D02*
G01*
X9308338Y10780013D01*
X9411461Y10780013D01*
X9411461Y10733786D01*
G37*
G36*
X11086338Y10492486D02*
G01*
X11086338Y10538713D01*
X11189461Y10538713D01*
X11189461Y10492486D01*
G37*
G36*
X11213338Y10492486D02*
G01*
X11213338Y10538713D01*
X11316461Y10538713D01*
X11316461Y10492486D01*
G37*
G36*
X12991338Y10251186D02*
G01*
X12991338Y10297413D01*
X13094461Y10297413D01*
X13094461Y10251186D01*
G37*
G36*
X13118338Y10251186D02*
G01*
X13118338Y10297413D01*
X13221461Y10297413D01*
X13221461Y10251186D01*
G37*
G36*
X1561337Y6682486D02*
G01*
X1561337Y6728713D01*
X1664462Y6728713D01*
X1664462Y6682486D01*
G37*
G36*
X1688337Y6682486D02*
G01*
X1688337Y6728713D01*
X1791462Y6728713D01*
X1791462Y6682486D01*
G37*
G36*
X3466338Y7393686D02*
G01*
X3466338Y7439913D01*
X3569461Y7439913D01*
X3569461Y7393686D01*
G37*
G36*
X3593338Y7393686D02*
G01*
X3593338Y7439913D01*
X3696461Y7439913D01*
X3696461Y7393686D01*
G37*
G36*
X5371338Y8104886D02*
G01*
X5371338Y8151113D01*
X5474461Y8151113D01*
X5474461Y8104886D01*
G37*
G36*
X5498338Y8104886D02*
G01*
X5498338Y8151113D01*
X5601461Y8151113D01*
X5601461Y8104886D01*
G37*
G36*
X7276338Y8574786D02*
G01*
X7276338Y8621013D01*
X7379461Y8621013D01*
X7379461Y8574786D01*
G37*
G36*
X7403338Y8574786D02*
G01*
X7403338Y8621013D01*
X7506461Y8621013D01*
X7506461Y8574786D01*
G37*
G36*
X9181338Y8828786D02*
G01*
X9181338Y8875013D01*
X9284461Y8875013D01*
X9284461Y8828786D01*
G37*
G36*
X9308338Y8828786D02*
G01*
X9308338Y8875013D01*
X9411461Y8875013D01*
X9411461Y8828786D01*
G37*
G36*
X12038838Y8358886D02*
G01*
X12038838Y8405113D01*
X12141961Y8405113D01*
X12141961Y8358886D01*
G37*
G36*
X12165838Y8358886D02*
G01*
X12165838Y8405113D01*
X12268961Y8405113D01*
X12268961Y8358886D01*
G37*
G36*
X14896338Y8117586D02*
G01*
X14896338Y8163813D01*
X14999461Y8163813D01*
X14999461Y8117586D01*
G37*
G36*
X15023338Y8117586D02*
G01*
X15023338Y8163813D01*
X15126461Y8163813D01*
X15126461Y8117586D01*
G37*
G36*
X14896338Y10022586D02*
G01*
X14896338Y10068813D01*
X14999461Y10068813D01*
X14999461Y10022586D01*
G37*
G36*
X15023338Y10022586D02*
G01*
X15023338Y10068813D01*
X15126461Y10068813D01*
X15126461Y10022586D01*
G37*
D58*
G01*
X787400Y14071600D03*
G01*
X1422400Y14325600D03*
D59*
G01*
X1295400Y13309600D03*
G01*
X1041400Y13309600D03*
D58*
G01*
X787400Y12166600D03*
G01*
X1422400Y12420600D03*
D59*
G01*
X1295400Y11404600D03*
G01*
X1041400Y11404600D03*
D58*
G01*
X787400Y10261600D03*
G01*
X1422400Y10515600D03*
D59*
G01*
X1295400Y9499600D03*
G01*
X1041400Y9499600D03*
D58*
G01*
X787400Y8356600D03*
G01*
X1422400Y8610600D03*
D59*
G01*
X1295400Y7594600D03*
G01*
X1041400Y7594600D03*
D58*
G01*
X787400Y6451600D03*
G01*
X1422400Y6705600D03*
D59*
G01*
X1295400Y5689600D03*
G01*
X1041400Y5689600D03*
D58*
G01*
X14122400Y9791700D03*
G01*
X14757400Y10045700D03*
D59*
G01*
X14630400Y9029700D03*
G01*
X14376400Y9029700D03*
D58*
G01*
X2692400Y14795500D03*
G01*
X3327400Y15049500D03*
D59*
G01*
X3200400Y14033500D03*
G01*
X2946400Y14033500D03*
D58*
G01*
X4597400Y15494000D03*
G01*
X5232400Y15748000D03*
D59*
G01*
X5105400Y14732000D03*
G01*
X4851400Y14732000D03*
D58*
G01*
X6502400Y15963900D03*
G01*
X7137400Y16217900D03*
D59*
G01*
X7010400Y15201900D03*
G01*
X6756400Y15201900D03*
D58*
G01*
X8407400Y16217900D03*
G01*
X9042400Y16471900D03*
D59*
G01*
X8915400Y15455900D03*
G01*
X8661400Y15455900D03*
D58*
G01*
X10312400Y15976600D03*
G01*
X10947400Y16230600D03*
D59*
G01*
X10820400Y15214600D03*
G01*
X10566400Y15214600D03*
D58*
G01*
X12217400Y15735300D03*
G01*
X12852400Y15989300D03*
D59*
G01*
X12725400Y14973300D03*
G01*
X12471400Y14973300D03*
D58*
G01*
X2692400Y12877800D03*
G01*
X3327400Y13131800D03*
D59*
G01*
X3200400Y12115800D03*
G01*
X2946400Y12115800D03*
D58*
G01*
X4597400Y13589000D03*
G01*
X5232400Y13843000D03*
D59*
G01*
X5105400Y12827000D03*
G01*
X4851400Y12827000D03*
D58*
G01*
X6502400Y14058900D03*
G01*
X7137400Y14312900D03*
D59*
G01*
X7010400Y13296900D03*
G01*
X6756400Y13296900D03*
D58*
G01*
X8407400Y14312900D03*
G01*
X9042400Y14566900D03*
D59*
G01*
X8915400Y13550900D03*
G01*
X8661400Y13550900D03*
D58*
G01*
X10312400Y14071600D03*
G01*
X10947400Y14325600D03*
D59*
G01*
X10820400Y13309600D03*
G01*
X10566400Y13309600D03*
D58*
G01*
X12217400Y13830300D03*
G01*
X12852400Y14084300D03*
D59*
G01*
X12725400Y13068300D03*
G01*
X12471400Y13068300D03*
D58*
G01*
X2692400Y10985500D03*
G01*
X3327400Y11239500D03*
D59*
G01*
X3200400Y10223500D03*
G01*
X2946400Y10223500D03*
D58*
G01*
X4597400Y11684000D03*
G01*
X5232400Y11938000D03*
D59*
G01*
X5105400Y10922000D03*
G01*
X4851400Y10922000D03*
D58*
G01*
X6502400Y12153900D03*
G01*
X7137400Y12407900D03*
D59*
G01*
X7010400Y11391900D03*
G01*
X6756400Y11391900D03*
D58*
G01*
X8407400Y12407900D03*
G01*
X9042400Y12661900D03*
D59*
G01*
X8915400Y11645900D03*
G01*
X8661400Y11645900D03*
D58*
G01*
X10312400Y12166600D03*
G01*
X10947400Y12420600D03*
D59*
G01*
X10820400Y11404600D03*
G01*
X10566400Y11404600D03*
D58*
G01*
X12217400Y11925300D03*
G01*
X12852400Y12179300D03*
D59*
G01*
X12725400Y11163300D03*
G01*
X12471400Y11163300D03*
D58*
G01*
X2692400Y9067800D03*
G01*
X3327400Y9321800D03*
D59*
G01*
X3200400Y8305800D03*
G01*
X2946400Y8305800D03*
D58*
G01*
X4597400Y9779000D03*
G01*
X5232400Y10033000D03*
D59*
G01*
X5105400Y9017000D03*
G01*
X4851400Y9017000D03*
D58*
G01*
X6502400Y10248900D03*
G01*
X7137400Y10502900D03*
D59*
G01*
X7010400Y9486900D03*
G01*
X6756400Y9486900D03*
D58*
G01*
X8407400Y10502900D03*
G01*
X9042400Y10756900D03*
D59*
G01*
X8915400Y9740900D03*
G01*
X8661400Y9740900D03*
D58*
G01*
X10312400Y10261600D03*
G01*
X10947400Y10515600D03*
D59*
G01*
X10820400Y9499600D03*
G01*
X10566400Y9499600D03*
D58*
G01*
X12217400Y10020300D03*
G01*
X12852400Y10274300D03*
D59*
G01*
X12725400Y9258300D03*
G01*
X12471400Y9258300D03*
D58*
G01*
X2692400Y7162800D03*
G01*
X3327400Y7416800D03*
D59*
G01*
X3200400Y6400800D03*
G01*
X2946400Y6400800D03*
D58*
G01*
X4597400Y7874000D03*
G01*
X5232400Y8128000D03*
D59*
G01*
X5105400Y7112000D03*
G01*
X4851400Y7112000D03*
D58*
G01*
X6502400Y8343900D03*
G01*
X7137400Y8597900D03*
D59*
G01*
X7010400Y7581900D03*
G01*
X6756400Y7581900D03*
D58*
G01*
X8407400Y8597900D03*
G01*
X9042400Y8851900D03*
D59*
G01*
X8915400Y7835900D03*
G01*
X8661400Y7835900D03*
D58*
G01*
X11264900Y8128000D03*
G01*
X11899900Y8382000D03*
D59*
G01*
X11772900Y7366000D03*
G01*
X11518900Y7366000D03*
D58*
G01*
X14122400Y7886700D03*
G01*
X14757400Y8140700D03*
D59*
G01*
X14630400Y7124700D03*
G01*
X14376400Y7124700D03*
M02*
