  0
SECTION
  2
HEADER
  9
$ACADVER
  1
AC1009
  9
$EXTMIN
 10
0.0
 20
0.0
 30
0.0
  9
$EXTMAX
 10
1000.0
 20
1000.0
 30
0.0
  9
$FILLMODE
 70
 0
  9
$SPLFRAME
 70
 1
  0
ENDSEC
  0
SECTION
  2
TABLES
  0
TABLE
  2
LAYER
 70
1
  0
LAYER
  2
0
 70
     0
 62
     7
  6
CONTINUOUS
  0
ENDTAB
  0
ENDSEC
  0
SECTION
  2
ENTITIES
  0
LINE
  8
0
 62
     0
 10
0.0950846
 20
154.421
 30
0.0
 11
413.24
 21
154.421
 31
0.0
  0
LINE
  8
0
 62
     0
 10
413.24
 20
154.421
 30
0.0
 11
413.24
 21
0.239779
 31
0.0
  0
LINE
  8
0
 62
     0
 10
413.24
 20
0.239779
 30
0.0
 11
0.0950846
 21
0.239779
 31
0.0
  0
LINE
  8
0
 62
     0
 10
0.0950846
 20
0.239779
 30
0.0
 11
0.0950846
 21
154.421
 31
0.0
  0
LINE
  8
0
 62
     0
 10
2.28479
 20
3.69175
 30
0.0
 11
2.00642
 21
3.54983
 31
0.0
  0
LINE
  8
0
 62
     0
 10
2.00642
 20
3.54983
 30
0.0
 11
1.78456
 21
3.32796
 31
0.0
  0
LINE
  8
0
 62
     0
 10
1.78456
 20
3.32796
 30
0.0
 11
1.64262
 21
3.0496
 31
0.0
  0
LINE
  8
0
 62
     0
 10
1.64262
 20
3.0496
 30
0.0
 11
1.59301
 21
2.73954
 31
0.0
  0
LINE
  8
0
 62
     0
 10
1.59301
 20
2.73954
 30
0.0
 11
1.64262
 21
2.43086
 31
0.0
  0
LINE
  8
0
 62
     0
 10
1.64262
 20
2.43086
 30
0.0
 11
1.78456
 21
2.15249
 31
0.0
  0
LINE
  8
0
 62
     0
 10
1.78456
 20
2.15249
 30
0.0
 11
2.00642
 21
1.93063
 31
0.0
  0
LINE
  8
0
 62
     0
 10
2.00642
 20
1.93063
 30
0.0
 11
2.28479
 21
1.78869
 31
0.0
  0
LINE
  8
0
 62
     0
 10
2.28479
 20
1.78869
 30
0.0
 11
2.59347
 21
1.74046
 31
0.0
  0
LINE
  8
0
 62
     0
 10
2.59347
 20
1.74046
 30
0.0
 11
2.90353
 21
1.78869
 31
0.0
  0
LINE
  8
0
 62
     0
 10
2.90353
 20
1.78869
 30
0.0
 11
3.18189
 21
1.93063
 31
0.0
  0
LINE
  8
0
 62
     0
 10
3.18189
 20
1.93063
 30
0.0
 11
3.40376
 21
2.15249
 31
0.0
  0
LINE
  8
0
 62
     0
 10
3.40376
 20
2.15249
 30
0.0
 11
3.5457
 21
2.43086
 31
0.0
  0
LINE
  8
0
 62
     0
 10
3.5457
 20
2.43086
 30
0.0
 11
3.59392
 21
2.73954
 31
0.0
  0
LINE
  8
0
 62
     0
 10
3.59392
 20
2.73954
 30
0.0
 11
3.5457
 21
3.0496
 31
0.0
  0
LINE
  8
0
 62
     0
 10
3.5457
 20
3.0496
 30
0.0
 11
3.40376
 21
3.32796
 31
0.0
  0
LINE
  8
0
 62
     0
 10
3.40376
 20
3.32796
 30
0.0
 11
3.18189
 21
3.54983
 31
0.0
  0
LINE
  8
0
 62
     0
 10
3.18189
 20
3.54983
 30
0.0
 11
2.90353
 21
3.69175
 31
0.0
  0
LINE
  8
0
 62
     0
 10
2.90353
 20
3.69175
 30
0.0
 11
2.59485
 21
3.74001
 31
0.0
  0
LINE
  8
0
 62
     0
 10
2.59485
 20
3.74001
 30
0.0
 11
2.28479
 21
3.69175
 31
0.0
  0
LINE
  8
0
 62
     0
 10
206.358
 20
3.69175
 30
0.0
 11
206.08
 21
3.54983
 31
0.0
  0
LINE
  8
0
 62
     0
 10
206.08
 20
3.54983
 30
0.0
 11
205.858
 21
3.32796
 31
0.0
  0
LINE
  8
0
 62
     0
 10
205.858
 20
3.32796
 30
0.0
 11
205.716
 21
3.0496
 31
0.0
  0
LINE
  8
0
 62
     0
 10
205.716
 20
3.0496
 30
0.0
 11
205.668
 21
2.73954
 31
0.0
  0
LINE
  8
0
 62
     0
 10
205.668
 20
2.73954
 30
0.0
 11
205.716
 21
2.43086
 31
0.0
  0
LINE
  8
0
 62
     0
 10
205.716
 20
2.43086
 30
0.0
 11
205.858
 21
2.15249
 31
0.0
  0
LINE
  8
0
 62
     0
 10
205.858
 20
2.15249
 30
0.0
 11
206.08
 21
1.93063
 31
0.0
  0
LINE
  8
0
 62
     0
 10
206.08
 20
1.93063
 30
0.0
 11
206.358
 21
1.78869
 31
0.0
  0
LINE
  8
0
 62
     0
 10
206.358
 20
1.78869
 30
0.0
 11
206.667
 21
1.74046
 31
0.0
  0
LINE
  8
0
 62
     0
 10
206.667
 20
1.74046
 30
0.0
 11
206.976
 21
1.78869
 31
0.0
  0
LINE
  8
0
 62
     0
 10
206.976
 20
1.78869
 30
0.0
 11
207.256
 21
1.93063
 31
0.0
  0
LINE
  8
0
 62
     0
 10
207.256
 20
1.93063
 30
0.0
 11
207.476
 21
2.15249
 31
0.0
  0
LINE
  8
0
 62
     0
 10
207.476
 20
2.15249
 30
0.0
 11
207.618
 21
2.43086
 31
0.0
  0
LINE
  8
0
 62
     0
 10
207.618
 20
2.43086
 30
0.0
 11
207.668
 21
2.73954
 31
0.0
  0
LINE
  8
0
 62
     0
 10
207.668
 20
2.73954
 30
0.0
 11
207.618
 21
3.0496
 31
0.0
  0
LINE
  8
0
 62
     0
 10
207.618
 20
3.0496
 30
0.0
 11
207.476
 21
3.32796
 31
0.0
  0
LINE
  8
0
 62
     0
 10
207.476
 20
3.32796
 30
0.0
 11
207.256
 21
3.54983
 31
0.0
  0
LINE
  8
0
 62
     0
 10
207.256
 20
3.54983
 30
0.0
 11
206.976
 21
3.69175
 31
0.0
  0
LINE
  8
0
 62
     0
 10
206.976
 20
3.69175
 30
0.0
 11
206.667
 21
3.74001
 31
0.0
  0
LINE
  8
0
 62
     0
 10
206.667
 20
3.74001
 30
0.0
 11
206.358
 21
3.69175
 31
0.0
  0
LINE
  8
0
 62
     0
 10
410.432
 20
3.69175
 30
0.0
 11
410.154
 21
3.54983
 31
0.0
  0
LINE
  8
0
 62
     0
 10
410.154
 20
3.54983
 30
0.0
 11
409.931
 21
3.32796
 31
0.0
  0
LINE
  8
0
 62
     0
 10
409.931
 20
3.32796
 30
0.0
 11
409.79
 21
3.0496
 31
0.0
  0
LINE
  8
0
 62
     0
 10
409.79
 20
3.0496
 30
0.0
 11
409.741
 21
2.73954
 31
0.0
  0
LINE
  8
0
 62
     0
 10
409.741
 20
2.73954
 30
0.0
 11
409.79
 21
2.43086
 31
0.0
  0
LINE
  8
0
 62
     0
 10
409.79
 20
2.43086
 30
0.0
 11
409.931
 21
2.15249
 31
0.0
  0
LINE
  8
0
 62
     0
 10
409.931
 20
2.15249
 30
0.0
 11
410.154
 21
1.93063
 31
0.0
  0
LINE
  8
0
 62
     0
 10
410.154
 20
1.93063
 30
0.0
 11
410.432
 21
1.78869
 31
0.0
  0
LINE
  8
0
 62
     0
 10
410.432
 20
1.78869
 30
0.0
 11
410.739
 21
1.74046
 31
0.0
  0
LINE
  8
0
 62
     0
 10
410.739
 20
1.74046
 30
0.0
 11
411.05
 21
1.78869
 31
0.0
  0
LINE
  8
0
 62
     0
 10
411.05
 20
1.78869
 30
0.0
 11
411.328
 21
1.93063
 31
0.0
  0
LINE
  8
0
 62
     0
 10
411.328
 20
1.93063
 30
0.0
 11
411.551
 21
2.15249
 31
0.0
  0
LINE
  8
0
 62
     0
 10
411.551
 20
2.15249
 30
0.0
 11
411.692
 21
2.43086
 31
0.0
  0
LINE
  8
0
 62
     0
 10
411.692
 20
2.43086
 30
0.0
 11
411.741
 21
2.73954
 31
0.0
  0
LINE
  8
0
 62
     0
 10
411.741
 20
2.73954
 30
0.0
 11
411.692
 21
3.0496
 31
0.0
  0
LINE
  8
0
 62
     0
 10
411.692
 20
3.0496
 30
0.0
 11
411.551
 21
3.32796
 31
0.0
  0
LINE
  8
0
 62
     0
 10
411.551
 20
3.32796
 30
0.0
 11
411.328
 21
3.54983
 31
0.0
  0
LINE
  8
0
 62
     0
 10
411.328
 20
3.54983
 30
0.0
 11
411.05
 21
3.69175
 31
0.0
  0
LINE
  8
0
 62
     0
 10
411.05
 20
3.69175
 30
0.0
 11
410.739
 21
3.74001
 31
0.0
  0
LINE
  8
0
 62
     0
 10
410.739
 20
3.74001
 30
0.0
 11
410.432
 21
3.69175
 31
0.0
  0
LINE
  8
0
 62
     0
 10
258.385
 20
22.2856
 30
0.0
 11
264.301
 21
9.59665
 31
0.0
  0
LINE
  8
0
 62
     0
 10
264.301
 20
9.59665
 30
0.0
 11
276.99
 21
15.514
 31
0.0
  0
LINE
  8
0
 62
     0
 10
276.99
 20
15.514
 30
0.0
 11
271.073
 21
28.2015
 31
0.0
  0
LINE
  8
0
 62
     0
 10
271.073
 20
28.2015
 30
0.0
 11
258.385
 21
22.2856
 31
0.0
  0
LINE
  8
0
 62
     0
 10
140.012
 20
15.514
 30
0.0
 11
152.699
 21
9.59665
 31
0.0
  0
LINE
  8
0
 62
     0
 10
152.699
 20
9.59665
 30
0.0
 11
158.616
 21
22.2856
 31
0.0
  0
LINE
  8
0
 62
     0
 10
158.616
 20
22.2856
 30
0.0
 11
145.927
 21
28.2015
 31
0.0
  0
LINE
  8
0
 62
     0
 10
145.927
 20
28.2015
 30
0.0
 11
140.012
 21
15.514
 31
0.0
  0
LINE
  8
0
 62
     0
 10
297.928
 20
41.8359
 30
0.0
 11
299.292
 21
38.9075
 31
0.0
  0
LINE
  8
0
 62
     0
 10
299.292
 20
38.9075
 30
0.0
 11
297.91
 21
38.2626
 31
0.0
  0
LINE
  8
0
 62
     0
 10
297.91
 20
38.2626
 30
0.0
 11
295.924
 21
42.5235
 31
0.0
  0
LINE
  8
0
 62
     0
 10
295.924
 20
42.5235
 30
0.0
 11
283.235
 21
36.6063
 31
0.0
  0
LINE
  8
0
 62
     0
 10
283.235
 20
36.6063
 30
0.0
 11
285.221
 21
32.3467
 31
0.0
  0
LINE
  8
0
 62
     0
 10
285.221
 20
32.3467
 30
0.0
 11
283.84
 21
31.7018
 31
0.0
  0
LINE
  8
0
 62
     0
 10
283.84
 20
31.7018
 30
0.0
 11
282.474
 21
34.6301
 31
0.0
  0
LINE
  8
0
 62
     0
 10
282.474
 20
34.6301
 30
0.0
 11
276.357
 21
31.7776
 31
0.0
  0
LINE
  8
0
 62
     0
 10
276.357
 20
31.7776
 30
0.0
 11
277.723
 21
28.8506
 31
0.0
  0
LINE
  8
0
 62
     0
 10
277.723
 20
28.8506
 30
0.0
 11
276.975
 21
28.5034
 31
0.0
  0
LINE
  8
0
 62
     0
 10
276.975
 20
28.5034
 30
0.0
 11
278.157
 21
25.9636
 31
0.0
  0
LINE
  8
0
 62
     0
 10
278.157
 20
25.9636
 30
0.0
 11
278.905
 21
26.3122
 31
0.0
  0
LINE
  8
0
 62
     0
 10
278.905
 20
26.3122
 30
0.0
 11
281.555
 21
20.6292
 31
0.0
  0
LINE
  8
0
 62
     0
 10
281.555
 20
20.6292
 30
0.0
 11
283.118
 21
21.3582
 31
0.0
  0
LINE
  8
0
 62
     0
 10
283.118
 20
21.3582
 30
0.0
 11
283.625
 21
20.2709
 31
0.0
  0
LINE
  8
0
 62
     0
 10
283.625
 20
20.2709
 30
0.0
 11
286.617
 21
21.6655
 31
0.0
  0
LINE
  8
0
 62
     0
 10
286.617
 20
21.6655
 30
0.0
 11
286.11
 21
22.7528
 31
0.0
  0
LINE
  8
0
 62
     0
 10
286.11
 20
22.7528
 30
0.0
 11
287.672
 21
23.4818
 31
0.0
  0
LINE
  8
0
 62
     0
 10
287.672
 20
23.4818
 30
0.0
 11
285.783
 21
27.5332
 31
0.0
  0
LINE
  8
0
 62
     0
 10
285.783
 20
27.5332
 30
0.0
 11
287.167
 21
28.1781
 31
0.0
  0
LINE
  8
0
 62
     0
 10
287.167
 20
28.1781
 30
0.0
 11
289.153
 21
23.9186
 31
0.0
  0
LINE
  8
0
 62
     0
 10
289.153
 20
23.9186
 30
0.0
 11
301.84
 21
29.8359
 31
0.0
  0
LINE
  8
0
 62
     0
 10
301.84
 20
29.8359
 30
0.0
 11
299.854
 21
34.094
 31
0.0
  0
LINE
  8
0
 62
     0
 10
299.854
 20
34.094
 30
0.0
 11
301.236
 21
34.739
 31
0.0
  0
LINE
  8
0
 62
     0
 10
301.236
 20
34.739
 30
0.0
 11
303.126
 21
30.6875
 31
0.0
  0
LINE
  8
0
 62
     0
 10
303.126
 20
30.6875
 30
0.0
 11
304.689
 21
31.4165
 31
0.0
  0
LINE
  8
0
 62
     0
 10
304.689
 20
31.4165
 30
0.0
 11
305.195
 21
30.3306
 31
0.0
  0
LINE
  8
0
 62
     0
 10
305.195
 20
30.3306
 30
0.0
 11
308.186
 21
31.7238
 31
0.0
  0
LINE
  8
0
 62
     0
 10
308.186
 20
31.7238
 30
0.0
 11
307.68
 21
32.8111
 31
0.0
  0
LINE
  8
0
 62
     0
 10
307.68
 20
32.8111
 30
0.0
 11
309.243
 21
33.5401
 31
0.0
  0
LINE
  8
0
 62
     0
 10
309.243
 20
33.5401
 30
0.0
 11
306.593
 21
39.2232
 31
0.0
  0
LINE
  8
0
 62
     0
 10
306.593
 20
39.2232
 30
0.0
 11
307.341
 21
39.5718
 31
0.0
  0
LINE
  8
0
 62
     0
 10
307.341
 20
39.5718
 30
0.0
 11
306.157
 21
42.1086
 31
0.0
  0
LINE
  8
0
 62
     0
 10
306.157
 20
42.1086
 30
0.0
 11
305.409
 21
41.7615
 31
0.0
  0
LINE
  8
0
 62
     0
 10
305.409
 20
41.7615
 30
0.0
 11
304.045
 21
44.6885
 31
0.0
  0
LINE
  8
0
 62
     0
 10
304.045
 20
44.6885
 30
0.0
 11
297.928
 21
41.8359
 31
0.0
  0
LINE
  8
0
 62
     0
 10
115.044
 20
45.0825
 30
0.0
 11
113.48
 21
45.8114
 31
0.0
  0
LINE
  8
0
 62
     0
 10
113.48
 20
45.8114
 30
0.0
 11
110.83
 21
40.1299
 31
0.0
  0
LINE
  8
0
 62
     0
 10
110.83
 20
40.1299
 30
0.0
 11
110.082
 21
40.4784
 31
0.0
  0
LINE
  8
0
 62
     0
 10
110.082
 20
40.4784
 30
0.0
 11
108.898
 21
37.9402
 31
0.0
  0
LINE
  8
0
 62
     0
 10
108.898
 20
37.9402
 30
0.0
 11
109.647
 21
37.5916
 31
0.0
  0
LINE
  8
0
 62
     0
 10
109.647
 20
37.5916
 30
0.0
 11
108.282
 21
34.6645
 31
0.0
  0
LINE
  8
0
 62
     0
 10
108.282
 20
34.6645
 30
0.0
 11
114.399
 21
31.8106
 31
0.0
  0
LINE
  8
0
 62
     0
 10
114.399
 20
31.8106
 30
0.0
 11
115.765
 21
34.739
 31
0.0
  0
LINE
  8
0
 62
     0
 10
115.765
 20
34.739
 30
0.0
 11
117.147
 21
34.094
 31
0.0
  0
LINE
  8
0
 62
     0
 10
117.147
 20
34.094
 30
0.0
 11
115.16
 21
29.8359
 31
0.0
  0
LINE
  8
0
 62
     0
 10
115.16
 20
29.8359
 30
0.0
 11
127.849
 21
23.9186
 31
0.0
  0
LINE
  8
0
 62
     0
 10
127.849
 20
23.9186
 30
0.0
 11
129.835
 21
28.1767
 31
0.0
  0
LINE
  8
0
 62
     0
 10
129.835
 20
28.1767
 30
0.0
 11
131.217
 21
27.5332
 31
0.0
  0
LINE
  8
0
 62
     0
 10
131.217
 20
27.5332
 30
0.0
 11
129.851
 21
24.6063
 31
0.0
  0
LINE
  8
0
 62
     0
 10
129.851
 20
24.6063
 30
0.0
 11
135.97
 21
21.7537
 31
0.0
  0
LINE
  8
0
 62
     0
 10
135.97
 20
21.7537
 30
0.0
 11
137.334
 21
24.6807
 31
0.0
  0
LINE
  8
0
 62
     0
 10
137.334
 20
24.6807
 30
0.0
 11
138.082
 21
24.332
 31
0.0
  0
LINE
  8
0
 62
     0
 10
138.082
 20
24.332
 30
0.0
 11
139.266
 21
26.8704
 31
0.0
  0
LINE
  8
0
 62
     0
 10
139.266
 20
26.8704
 30
0.0
 11
138.517
 21
27.2176
 31
0.0
  0
LINE
  8
0
 62
     0
 10
138.517
 20
27.2176
 30
0.0
 11
141.168
 21
32.9007
 31
0.0
  0
LINE
  8
0
 62
     0
 10
141.168
 20
32.9007
 30
0.0
 11
139.605
 21
33.6296
 31
0.0
  0
LINE
  8
0
 62
     0
 10
139.605
 20
33.6296
 30
0.0
 11
140.112
 21
34.7169
 31
0.0
  0
LINE
  8
0
 62
     0
 10
140.112
 20
34.7169
 30
0.0
 11
137.12
 21
36.1114
 31
0.0
  0
LINE
  8
0
 62
     0
 10
137.12
 20
36.1114
 30
0.0
 11
136.613
 21
35.0242
 31
0.0
  0
LINE
  8
0
 62
     0
 10
136.613
 20
35.0242
 30
0.0
 11
135.049
 21
35.7533
 31
0.0
  0
LINE
  8
0
 62
     0
 10
135.049
 20
35.7533
 30
0.0
 11
133.16
 21
31.7018
 31
0.0
  0
LINE
  8
0
 62
     0
 10
133.16
 20
31.7018
 30
0.0
 11
131.779
 21
32.3467
 31
0.0
  0
LINE
  8
0
 62
     0
 10
131.779
 20
32.3467
 30
0.0
 11
133.766
 21
36.6063
 31
0.0
  0
LINE
  8
0
 62
     0
 10
133.766
 20
36.6063
 30
0.0
 11
121.076
 21
42.5235
 31
0.0
  0
LINE
  8
0
 62
     0
 10
121.076
 20
42.5235
 30
0.0
 11
119.09
 21
38.264
 31
0.0
  0
LINE
  8
0
 62
     0
 10
119.09
 20
38.264
 30
0.0
 11
117.708
 21
38.9075
 31
0.0
  0
LINE
  8
0
 62
     0
 10
117.708
 20
38.9075
 30
0.0
 11
119.597
 21
42.9588
 31
0.0
  0
LINE
  8
0
 62
     0
 10
119.597
 20
42.9588
 30
0.0
 11
118.035
 21
43.688
 31
0.0
  0
LINE
  8
0
 62
     0
 10
118.035
 20
43.688
 30
0.0
 11
118.541
 21
44.7767
 31
0.0
  0
LINE
  8
0
 62
     0
 10
118.541
 20
44.7767
 30
0.0
 11
115.55
 21
46.1698
 31
0.0
  0
LINE
  8
0
 62
     0
 10
115.55
 20
46.1698
 30
0.0
 11
115.044
 21
45.0825
 31
0.0
  0
LINE
  8
0
 62
     0
 10
250.333
 20
39.551
 30
0.0
 11
256.25
 21
26.8621
 31
0.0
  0
LINE
  8
0
 62
     0
 10
256.25
 20
26.8621
 30
0.0
 11
268.938
 21
32.7794
 31
0.0
  0
LINE
  8
0
 62
     0
 10
268.938
 20
32.7794
 30
0.0
 11
263.022
 21
45.4671
 31
0.0
  0
LINE
  8
0
 62
     0
 10
263.022
 20
45.4671
 30
0.0
 11
250.333
 21
39.551
 31
0.0
  0
LINE
  8
0
 62
     0
 10
148.062
 20
32.7794
 30
0.0
 11
160.751
 21
26.8621
 31
0.0
  0
LINE
  8
0
 62
     0
 10
160.751
 20
26.8621
 30
0.0
 11
166.667
 21
39.551
 31
0.0
  0
LINE
  8
0
 62
     0
 10
166.667
 20
39.551
 30
0.0
 11
153.978
 21
45.4671
 31
0.0
  0
LINE
  8
0
 62
     0
 10
153.978
 20
45.4671
 30
0.0
 11
148.062
 21
32.7794
 31
0.0
  0
LINE
  8
0
 62
     0
 10
266.553
 20
49.8464
 30
0.0
 11
272.469
 21
37.1588
 31
0.0
  0
LINE
  8
0
 62
     0
 10
272.469
 20
37.1588
 30
0.0
 11
285.156
 21
43.0749
 31
0.0
  0
LINE
  8
0
 62
     0
 10
285.156
 20
43.0749
 30
0.0
 11
279.24
 21
55.7636
 31
0.0
  0
LINE
  8
0
 62
     0
 10
279.24
 20
55.7636
 30
0.0
 11
266.553
 21
49.8464
 31
0.0
  0
LINE
  8
0
 62
     0
 10
131.844
 20
43.0749
 30
0.0
 11
144.531
 21
37.1588
 31
0.0
  0
LINE
  8
0
 62
     0
 10
144.531
 20
37.1588
 30
0.0
 11
150.449
 21
49.8464
 31
0.0
  0
LINE
  8
0
 62
     0
 10
150.449
 20
49.8464
 30
0.0
 11
137.761
 21
55.7636
 31
0.0
  0
LINE
  8
0
 62
     0
 10
137.761
 20
55.7636
 30
0.0
 11
131.844
 21
43.0749
 31
0.0
  0
LINE
  8
0
 62
     0
 10
307.121
 20
52.9992
 30
0.0
 11
313.038
 21
40.3119
 31
0.0
  0
LINE
  8
0
 62
     0
 10
313.038
 20
40.3119
 30
0.0
 11
325.725
 21
46.2276
 31
0.0
  0
LINE
  8
0
 62
     0
 10
325.725
 20
46.2276
 30
0.0
 11
319.808
 21
58.9167
 31
0.0
  0
LINE
  8
0
 62
     0
 10
319.808
 20
58.9167
 30
0.0
 11
307.121
 21
52.9992
 31
0.0
  0
LINE
  8
0
 62
     0
 10
91.2756
 20
46.2276
 30
0.0
 11
103.963
 21
40.3119
 31
0.0
  0
LINE
  8
0
 62
     0
 10
103.963
 20
40.3119
 30
0.0
 11
109.881
 21
52.9992
 31
0.0
  0
LINE
  8
0
 62
     0
 10
109.881
 20
52.9992
 30
0.0
 11
97.1917
 21
58.9167
 31
0.0
  0
LINE
  8
0
 62
     0
 10
97.1917
 20
58.9167
 30
0.0
 11
91.2756
 21
46.2276
 31
0.0
  0
LINE
  8
0
 62
     0
 10
325.432
 20
58.8049
 30
0.0
 11
331.348
 21
46.1176
 31
0.0
  0
LINE
  8
0
 62
     0
 10
331.348
 20
46.1176
 30
0.0
 11
344.037
 21
52.0347
 31
0.0
  0
LINE
  8
0
 62
     0
 10
344.037
 20
52.0347
 30
0.0
 11
338.121
 21
64.7224
 31
0.0
  0
LINE
  8
0
 62
     0
 10
338.121
 20
64.7224
 30
0.0
 11
325.432
 21
58.8049
 31
0.0
  0
LINE
  8
0
 62
     0
 10
72.9629
 20
52.0347
 30
0.0
 11
85.652
 21
46.1176
 31
0.0
  0
LINE
  8
0
 62
     0
 10
85.652
 20
46.1176
 30
0.0
 11
91.5681
 21
58.8049
 31
0.0
  0
LINE
  8
0
 62
     0
 10
91.5681
 20
58.8049
 30
0.0
 11
78.879
 21
64.7224
 31
0.0
  0
LINE
  8
0
 62
     0
 10
78.879
 20
64.7224
 30
0.0
 11
72.9629
 21
52.0347
 31
0.0
  0
LINE
  8
0
 62
     0
 10
282.852
 20
59.9694
 30
0.0
 11
288.768
 21
47.2803
 31
0.0
  0
LINE
  8
0
 62
     0
 10
288.768
 20
47.2803
 30
0.0
 11
301.457
 21
53.1978
 31
0.0
  0
LINE
  8
0
 62
     0
 10
301.457
 20
53.1978
 30
0.0
 11
295.54
 21
65.8855
 31
0.0
  0
LINE
  8
0
 62
     0
 10
295.54
 20
65.8855
 30
0.0
 11
282.852
 21
59.9694
 31
0.0
  0
LINE
  8
0
 62
     0
 10
115.544
 20
53.1978
 30
0.0
 11
128.232
 21
47.2803
 31
0.0
  0
LINE
  8
0
 62
     0
 10
128.232
 20
47.2803
 30
0.0
 11
134.149
 21
59.9694
 31
0.0
  0
LINE
  8
0
 62
     0
 10
134.149
 20
59.9694
 30
0.0
 11
121.462
 21
65.8855
 31
0.0
  0
LINE
  8
0
 62
     0
 10
121.462
 20
65.8855
 30
0.0
 11
115.544
 21
53.1978
 31
0.0
  0
LINE
  8
0
 62
     0
 10
344.711
 20
62.5394
 30
0.0
 11
350.627
 21
49.8521
 31
0.0
  0
LINE
  8
0
 62
     0
 10
350.627
 20
49.8521
 30
0.0
 11
363.315
 21
55.7678
 31
0.0
  0
LINE
  8
0
 62
     0
 10
363.315
 20
55.7678
 30
0.0
 11
357.399
 21
68.4569
 31
0.0
  0
LINE
  8
0
 62
     0
 10
357.399
 20
68.4569
 30
0.0
 11
344.711
 21
62.5394
 31
0.0
  0
LINE
  8
0
 62
     0
 10
53.6857
 20
55.7678
 30
0.0
 11
66.3734
 21
49.8521
 31
0.0
  0
LINE
  8
0
 62
     0
 10
66.3734
 20
49.8521
 30
0.0
 11
72.2905
 21
62.5394
 31
0.0
  0
LINE
  8
0
 62
     0
 10
72.2905
 20
62.5394
 30
0.0
 11
59.6015
 21
68.4569
 31
0.0
  0
LINE
  8
0
 62
     0
 10
59.6015
 20
68.4569
 30
0.0
 11
53.6857
 21
55.7678
 31
0.0
  0
LINE
  8
0
 62
     0
 10
364.956
 20
64.2027
 30
0.0
 11
370.872
 21
51.5137
 31
0.0
  0
LINE
  8
0
 62
     0
 10
370.872
 20
51.5137
 30
0.0
 11
383.558
 21
57.4312
 31
0.0
  0
LINE
  8
0
 62
     0
 10
383.558
 20
57.4312
 30
0.0
 11
377.642
 21
70.1188
 31
0.0
  0
LINE
  8
0
 62
     0
 10
377.642
 20
70.1188
 30
0.0
 11
364.956
 21
64.2027
 31
0.0
  0
LINE
  8
0
 62
     0
 10
33.4409
 20
57.4312
 30
0.0
 11
46.1299
 21
51.5137
 31
0.0
  0
LINE
  8
0
 62
     0
 10
46.1299
 20
51.5137
 30
0.0
 11
52.0471
 21
64.2027
 31
0.0
  0
LINE
  8
0
 62
     0
 10
52.0471
 20
64.2027
 30
0.0
 11
39.358
 21
70.1188
 31
0.0
  0
LINE
  8
0
 62
     0
 10
39.358
 20
70.1188
 30
0.0
 11
33.4409
 21
57.4312
 31
0.0
  0
LINE
  8
0
 62
     0
 10
385.279
 20
65.6939
 30
0.0
 11
391.195
 21
53.0049
 31
0.0
  0
LINE
  8
0
 62
     0
 10
391.195
 20
53.0049
 30
0.0
 11
403.885
 21
58.9209
 31
0.0
  0
LINE
  8
0
 62
     0
 10
403.885
 20
58.9209
 30
0.0
 11
397.965
 21
71.6097
 31
0.0
  0
LINE
  8
0
 62
     0
 10
397.965
 20
71.6097
 30
0.0
 11
385.279
 21
65.6939
 31
0.0
  0
LINE
  8
0
 62
     0
 10
13.1162
 20
58.9209
 30
0.0
 11
25.8051
 21
53.0049
 31
0.0
  0
LINE
  8
0
 62
     0
 10
25.8051
 20
53.0049
 30
0.0
 11
31.7211
 21
65.6939
 31
0.0
  0
LINE
  8
0
 62
     0
 10
31.7211
 20
65.6939
 30
0.0
 11
19.0335
 21
71.6097
 31
0.0
  0
LINE
  8
0
 62
     0
 10
19.0335
 20
71.6097
 30
0.0
 11
13.1162
 21
58.9209
 31
0.0
  0
LINE
  8
0
 62
     0
 10
258.502
 20
67.1117
 30
0.0
 11
264.418
 21
54.423
 31
0.0
  0
LINE
  8
0
 62
     0
 10
264.418
 20
54.423
 30
0.0
 11
277.107
 21
60.3402
 31
0.0
  0
LINE
  8
0
 62
     0
 10
277.107
 20
60.3402
 30
0.0
 11
271.19
 21
73.0278
 31
0.0
  0
LINE
  8
0
 62
     0
 10
271.19
 20
73.0278
 30
0.0
 11
258.502
 21
67.1117
 31
0.0
  0
LINE
  8
0
 62
     0
 10
139.894
 20
60.3402
 30
0.0
 11
152.582
 21
54.423
 31
0.0
  0
LINE
  8
0
 62
     0
 10
152.582
 20
54.423
 30
0.0
 11
158.499
 21
67.1117
 31
0.0
  0
LINE
  8
0
 62
     0
 10
158.499
 20
67.1117
 30
0.0
 11
145.812
 21
73.0278
 31
0.0
  0
LINE
  8
0
 62
     0
 10
145.812
 20
73.0278
 30
0.0
 11
139.894
 21
60.3402
 31
0.0
  0
LINE
  8
0
 62
     0
 10
299.07
 20
70.2649
 30
0.0
 11
304.986
 21
57.5758
 31
0.0
  0
LINE
  8
0
 62
     0
 10
304.986
 20
57.5758
 30
0.0
 11
317.675
 21
63.4919
 31
0.0
  0
LINE
  8
0
 62
     0
 10
317.675
 20
63.4919
 30
0.0
 11
311.758
 21
76.1806
 31
0.0
  0
LINE
  8
0
 62
     0
 10
311.758
 20
76.1806
 30
0.0
 11
299.07
 21
70.2649
 31
0.0
  0
LINE
  8
0
 62
     0
 10
99.3249
 20
63.4919
 30
0.0
 11
112.014
 21
57.5758
 31
0.0
  0
LINE
  8
0
 62
     0
 10
112.014
 20
57.5758
 30
0.0
 11
117.931
 21
70.2649
 31
0.0
  0
LINE
  8
0
 62
     0
 10
117.931
 20
70.2649
 30
0.0
 11
105.242
 21
76.1806
 31
0.0
  0
LINE
  8
0
 62
     0
 10
105.242
 20
76.1806
 30
0.0
 11
99.3249
 21
63.4919
 31
0.0
  0
LINE
  8
0
 62
     0
 10
317.381
 20
76.0719
 30
0.0
 11
323.299
 21
63.3815
 31
0.0
  0
LINE
  8
0
 62
     0
 10
323.299
 20
63.3815
 30
0.0
 11
335.986
 21
69.299
 31
0.0
  0
LINE
  8
0
 62
     0
 10
335.986
 20
69.299
 30
0.0
 11
330.069
 21
81.9877
 31
0.0
  0
LINE
  8
0
 62
     0
 10
330.069
 20
81.9877
 30
0.0
 11
317.381
 21
76.0719
 31
0.0
  0
LINE
  8
0
 62
     0
 10
81.0147
 20
69.299
 30
0.0
 11
93.7024
 21
63.3815
 31
0.0
  0
LINE
  8
0
 62
     0
 10
93.7024
 20
63.3815
 30
0.0
 11
99.6199
 21
76.0719
 31
0.0
  0
LINE
  8
0
 62
     0
 10
99.6199
 20
76.0719
 30
0.0
 11
86.9308
 21
81.9877
 31
0.0
  0
LINE
  8
0
 62
     0
 10
86.9308
 20
81.9877
 30
0.0
 11
81.0147
 21
69.299
 31
0.0
  0
LINE
  8
0
 62
     0
 10
274.8
 20
77.2336
 30
0.0
 11
280.716
 21
64.546
 31
0.0
  0
LINE
  8
0
 62
     0
 10
280.716
 20
64.546
 30
0.0
 11
293.405
 21
70.4617
 31
0.0
  0
LINE
  8
0
 62
     0
 10
293.405
 20
70.4617
 30
0.0
 11
287.489
 21
83.1508
 31
0.0
  0
LINE
  8
0
 62
     0
 10
287.489
 20
83.1508
 30
0.0
 11
274.8
 21
77.2336
 31
0.0
  0
LINE
  8
0
 62
     0
 10
123.595
 20
70.4617
 30
0.0
 11
136.284
 21
64.546
 31
0.0
  0
LINE
  8
0
 62
     0
 10
136.284
 20
64.546
 30
0.0
 11
142.201
 21
77.2336
 31
0.0
  0
LINE
  8
0
 62
     0
 10
142.201
 20
77.2336
 30
0.0
 11
129.512
 21
83.1508
 31
0.0
  0
LINE
  8
0
 62
     0
 10
129.512
 20
83.1508
 30
0.0
 11
123.595
 21
70.4617
 31
0.0
  0
LINE
  8
0
 62
     0
 10
336.659
 20
79.805
 30
0.0
 11
342.576
 21
67.1174
 31
0.0
  0
LINE
  8
0
 62
     0
 10
342.576
 20
67.1174
 30
0.0
 11
355.265
 21
73.0331
 31
0.0
  0
LINE
  8
0
 62
     0
 10
355.265
 20
73.0331
 30
0.0
 11
349.348
 21
85.7222
 31
0.0
  0
LINE
  8
0
 62
     0
 10
349.348
 20
85.7222
 30
0.0
 11
336.659
 21
79.805
 31
0.0
  0
LINE
  8
0
 62
     0
 10
61.7361
 20
73.0331
 30
0.0
 11
74.4252
 21
67.1174
 31
0.0
  0
LINE
  8
0
 62
     0
 10
74.4252
 20
67.1174
 30
0.0
 11
80.3409
 21
79.805
 31
0.0
  0
LINE
  8
0
 62
     0
 10
80.3409
 20
79.805
 30
0.0
 11
67.6522
 21
85.7222
 31
0.0
  0
LINE
  8
0
 62
     0
 10
67.6522
 20
85.7222
 30
0.0
 11
61.7361
 21
73.0331
 31
0.0
  0
LINE
  8
0
 62
     0
 10
356.905
 20
81.4684
 30
0.0
 11
362.818
 21
68.7807
 31
0.0
  0
LINE
  8
0
 62
     0
 10
362.818
 20
68.7807
 30
0.0
 11
375.507
 21
74.6965
 31
0.0
  0
LINE
  8
0
 62
     0
 10
375.507
 20
74.6965
 30
0.0
 11
369.591
 21
87.3855
 31
0.0
  0
LINE
  8
0
 62
     0
 10
369.591
 20
87.3855
 30
0.0
 11
356.905
 21
81.4684
 31
0.0
  0
LINE
  8
0
 62
     0
 10
41.4927
 20
74.6965
 30
0.0
 11
54.1803
 21
68.7807
 31
0.0
  0
LINE
  8
0
 62
     0
 10
54.1803
 20
68.7807
 30
0.0
 11
60.0975
 21
81.4684
 31
0.0
  0
LINE
  8
0
 62
     0
 10
60.0975
 20
81.4684
 30
0.0
 11
47.4087
 21
87.3855
 31
0.0
  0
LINE
  8
0
 62
     0
 10
47.4087
 20
87.3855
 30
0.0
 11
41.4927
 21
74.6965
 31
0.0
  0
LINE
  8
0
 62
     0
 10
21.168
 20
76.1862
 30
0.0
 11
33.857
 21
70.2702
 31
0.0
  0
LINE
  8
0
 62
     0
 10
33.857
 20
70.2702
 30
0.0
 11
39.7729
 21
82.9578
 31
0.0
  0
LINE
  8
0
 62
     0
 10
39.7729
 20
82.9578
 30
0.0
 11
27.0839
 21
88.8753
 31
0.0
  0
LINE
  8
0
 62
     0
 10
27.0839
 20
88.8753
 30
0.0
 11
21.168
 21
76.1862
 31
0.0
  0
LINE
  8
0
 62
     0
 10
378.135
 20
103.021
 30
0.0
 11
377.786
 21
103.768
 31
0.0
  0
LINE
  8
0
 62
     0
 10
377.786
 20
103.768
 30
0.0
 11
375.25
 21
102.585
 31
0.0
  0
LINE
  8
0
 62
     0
 10
375.25
 20
102.585
 30
0.0
 11
375.595
 21
101.837
 31
0.0
  0
LINE
  8
0
 62
     0
 10
375.595
 20
101.837
 30
0.0
 11
369.912
 21
99.187
 31
0.0
  0
LINE
  8
0
 62
     0
 10
369.912
 20
99.187
 30
0.0
 11
370.642
 21
97.6242
 31
0.0
  0
LINE
  8
0
 62
     0
 10
370.642
 20
97.6242
 30
0.0
 11
369.556
 21
97.1173
 31
0.0
  0
LINE
  8
0
 62
     0
 10
369.556
 20
97.1173
 30
0.0
 11
370.949
 21
94.1257
 31
0.0
  0
LINE
  8
0
 62
     0
 10
370.949
 20
94.1257
 30
0.0
 11
372.036
 21
94.6326
 31
0.0
  0
LINE
  8
0
 62
     0
 10
372.036
 20
94.6326
 30
0.0
 11
372.766
 21
93.0698
 31
0.0
  0
LINE
  8
0
 62
     0
 10
372.766
 20
93.0698
 30
0.0
 11
376.816
 21
94.9607
 31
0.0
  0
LINE
  8
0
 62
     0
 10
376.816
 20
94.9607
 30
0.0
 11
377.462
 21
93.5771
 31
0.0
  0
LINE
  8
0
 62
     0
 10
377.462
 20
93.5771
 30
0.0
 11
373.204
 21
91.5913
 31
0.0
  0
LINE
  8
0
 62
     0
 10
373.204
 20
91.5913
 30
0.0
 11
379.12
 21
78.9023
 31
0.0
  0
LINE
  8
0
 62
     0
 10
379.12
 20
78.9023
 30
0.0
 11
383.378
 21
80.8895
 31
0.0
  0
LINE
  8
0
 62
     0
 10
383.378
 20
80.8895
 30
0.0
 11
384.023
 21
79.5059
 31
0.0
  0
LINE
  8
0
 62
     0
 10
384.023
 20
79.5059
 30
0.0
 11
379.973
 21
77.6168
 31
0.0
  0
LINE
  8
0
 62
     0
 10
379.973
 20
77.6168
 30
0.0
 11
380.7
 21
76.0539
 31
0.0
  0
LINE
  8
0
 62
     0
 10
380.7
 20
76.0539
 30
0.0
 11
379.614
 21
75.5467
 31
0.0
  0
LINE
  8
0
 62
     0
 10
379.614
 20
75.5467
 30
0.0
 11
381.007
 21
72.5565
 31
0.0
  0
LINE
  8
0
 62
     0
 10
381.007
 20
72.5565
 30
0.0
 11
382.097
 21
73.0635
 31
0.0
  0
LINE
  8
0
 62
     0
 10
382.097
 20
73.0635
 30
0.0
 11
382.824
 21
71.4996
 31
0.0
  0
LINE
  8
0
 62
     0
 10
382.824
 20
71.4996
 30
0.0
 11
388.507
 21
74.1507
 31
0.0
  0
LINE
  8
0
 62
     0
 10
388.507
 20
74.1507
 30
0.0
 11
388.856
 21
73.4025
 31
0.0
  0
LINE
  8
0
 62
     0
 10
388.856
 20
73.4025
 30
0.0
 11
391.393
 21
74.585
 31
0.0
  0
LINE
  8
0
 62
     0
 10
391.393
 20
74.585
 30
0.0
 11
391.044
 21
75.3332
 31
0.0
  0
LINE
  8
0
 62
     0
 10
391.044
 20
75.3332
 30
0.0
 11
393.972
 21
76.6988
 31
0.0
  0
LINE
  8
0
 62
     0
 10
393.972
 20
76.6988
 30
0.0
 11
391.118
 21
82.816
 31
0.0
  0
LINE
  8
0
 62
     0
 10
391.118
 20
82.816
 30
0.0
 11
388.193
 21
81.4518
 31
0.0
  0
LINE
  8
0
 62
     0
 10
388.193
 20
81.4518
 30
0.0
 11
387.548
 21
82.8326
 31
0.0
  0
LINE
  8
0
 62
     0
 10
387.548
 20
82.8326
 30
0.0
 11
391.809
 21
84.8198
 31
0.0
  0
LINE
  8
0
 62
     0
 10
391.809
 20
84.8198
 30
0.0
 11
385.889
 21
97.5071
 31
0.0
  0
LINE
  8
0
 62
     0
 10
385.889
 20
97.5071
 30
0.0
 11
381.631
 21
95.5216
 31
0.0
  0
LINE
  8
0
 62
     0
 10
381.631
 20
95.5216
 30
0.0
 11
380.986
 21
96.9038
 31
0.0
  0
LINE
  8
0
 62
     0
 10
380.986
 20
96.9038
 30
0.0
 11
383.914
 21
98.268
 31
0.0
  0
LINE
  8
0
 62
     0
 10
383.914
 20
98.268
 30
0.0
 11
381.064
 21
104.386
 31
0.0
  0
LINE
  8
0
 62
     0
 10
381.064
 20
104.386
 30
0.0
 11
378.135
 21
103.021
 31
0.0
  0
LINE
  8
0
 62
     0
 10
250.45
 20
84.376
 30
0.0
 11
256.366
 21
71.6883
 31
0.0
  0
LINE
  8
0
 62
     0
 10
256.366
 20
71.6883
 30
0.0
 11
269.055
 21
77.6055
 31
0.0
  0
LINE
  8
0
 62
     0
 10
269.055
 20
77.6055
 30
0.0
 11
263.139
 21
90.2931
 31
0.0
  0
LINE
  8
0
 62
     0
 10
263.139
 20
90.2931
 30
0.0
 11
250.45
 21
84.376
 31
0.0
  0
LINE
  8
0
 62
     0
 10
147.945
 20
77.6055
 30
0.0
 11
160.634
 21
71.6883
 31
0.0
  0
LINE
  8
0
 62
     0
 10
160.634
 20
71.6883
 30
0.0
 11
166.551
 21
84.376
 31
0.0
  0
LINE
  8
0
 62
     0
 10
166.551
 20
84.376
 30
0.0
 11
153.862
 21
90.2931
 31
0.0
  0
LINE
  8
0
 62
     0
 10
153.862
 20
90.2931
 30
0.0
 11
147.945
 21
77.6055
 31
0.0
  0
LINE
  8
0
 62
     0
 10
291.018
 20
87.5288
 30
0.0
 11
296.936
 21
74.8411
 31
0.0
  0
LINE
  8
0
 62
     0
 10
296.936
 20
74.8411
 30
0.0
 11
309.623
 21
80.7586
 31
0.0
  0
LINE
  8
0
 62
     0
 10
309.623
 20
80.7586
 30
0.0
 11
303.707
 21
93.4462
 31
0.0
  0
LINE
  8
0
 62
     0
 10
303.707
 20
93.4462
 30
0.0
 11
291.018
 21
87.5288
 31
0.0
  0
LINE
  8
0
 62
     0
 10
107.377
 20
80.7586
 30
0.0
 11
120.066
 21
74.8411
 31
0.0
  0
LINE
  8
0
 62
     0
 10
120.066
 20
74.8411
 30
0.0
 11
125.982
 21
87.5288
 31
0.0
  0
LINE
  8
0
 62
     0
 10
125.982
 20
87.5288
 30
0.0
 11
113.294
 21
93.4462
 31
0.0
  0
LINE
  8
0
 62
     0
 10
113.294
 20
93.4462
 30
0.0
 11
107.377
 21
80.7586
 31
0.0
  0
LINE
  8
0
 62
     0
 10
309.331
 20
93.3358
 30
0.0
 11
315.247
 21
80.6468
 31
0.0
  0
LINE
  8
0
 62
     0
 10
315.247
 20
80.6468
 30
0.0
 11
327.936
 21
86.5643
 31
0.0
  0
LINE
  8
0
 62
     0
 10
327.936
 20
86.5643
 30
0.0
 11
322.019
 21
99.2519
 31
0.0
  0
LINE
  8
0
 62
     0
 10
322.019
 20
99.2519
 30
0.0
 11
309.331
 21
93.3358
 31
0.0
  0
LINE
  8
0
 62
     0
 10
89.0655
 20
86.5643
 30
0.0
 11
101.753
 21
80.6468
 31
0.0
  0
LINE
  8
0
 62
     0
 10
101.753
 20
80.6468
 30
0.0
 11
107.669
 21
93.3358
 31
0.0
  0
LINE
  8
0
 62
     0
 10
107.669
 20
93.3358
 30
0.0
 11
94.9812
 21
99.2519
 31
0.0
  0
LINE
  8
0
 62
     0
 10
94.9812
 20
99.2519
 30
0.0
 11
89.0655
 21
86.5643
 31
0.0
  0
LINE
  8
0
 62
     0
 10
266.75
 20
94.4989
 30
0.0
 11
272.665
 21
81.8113
 31
0.0
  0
LINE
  8
0
 62
     0
 10
272.665
 20
81.8113
 30
0.0
 11
285.355
 21
87.7274
 31
0.0
  0
LINE
  8
0
 62
     0
 10
285.355
 20
87.7274
 30
0.0
 11
279.437
 21
100.416
 31
0.0
  0
LINE
  8
0
 62
     0
 10
279.437
 20
100.416
 30
0.0
 11
266.75
 21
94.4989
 31
0.0
  0
LINE
  8
0
 62
     0
 10
131.647
 20
87.7274
 30
0.0
 11
144.334
 21
81.8113
 31
0.0
  0
LINE
  8
0
 62
     0
 10
144.334
 20
81.8113
 30
0.0
 11
150.252
 21
94.4989
 31
0.0
  0
LINE
  8
0
 62
     0
 10
150.252
 20
94.4989
 30
0.0
 11
137.563
 21
100.416
 31
0.0
  0
LINE
  8
0
 62
     0
 10
137.563
 20
100.416
 30
0.0
 11
131.647
 21
87.7274
 31
0.0
  0
LINE
  8
0
 62
     0
 10
328.608
 20
97.0703
 30
0.0
 11
334.526
 21
84.3827
 31
0.0
  0
LINE
  8
0
 62
     0
 10
334.526
 20
84.3827
 30
0.0
 11
347.213
 21
90.2988
 31
0.0
  0
LINE
  8
0
 62
     0
 10
347.213
 20
90.2988
 30
0.0
 11
341.296
 21
102.988
 31
0.0
  0
LINE
  8
0
 62
     0
 10
341.296
 20
102.988
 30
0.0
 11
328.608
 21
97.0703
 31
0.0
  0
LINE
  8
0
 62
     0
 10
69.7879
 20
90.2988
 30
0.0
 11
82.4756
 21
84.3827
 31
0.0
  0
LINE
  8
0
 62
     0
 10
82.4756
 20
84.3827
 30
0.0
 11
88.3931
 21
97.0703
 31
0.0
  0
LINE
  8
0
 62
     0
 10
88.3931
 20
97.0703
 30
0.0
 11
75.704
 21
102.988
 31
0.0
  0
LINE
  8
0
 62
     0
 10
75.704
 20
102.988
 30
0.0
 11
69.7879
 21
90.2988
 31
0.0
  0
LINE
  8
0
 62
     0
 10
348.853
 20
98.7337
 30
0.0
 11
354.767
 21
86.0446
 31
0.0
  0
LINE
  8
0
 62
     0
 10
354.767
 20
86.0446
 30
0.0
 11
367.457
 21
91.9607
 31
0.0
  0
LINE
  8
0
 62
     0
 10
367.457
 20
91.9607
 30
0.0
 11
361.541
 21
104.65
 31
0.0
  0
LINE
  8
0
 62
     0
 10
361.541
 20
104.65
 30
0.0
 11
348.853
 21
98.7337
 31
0.0
  0
LINE
  8
0
 62
     0
 10
49.5434
 20
91.9607
 30
0.0
 11
62.2307
 21
86.0446
 31
0.0
  0
LINE
  8
0
 62
     0
 10
62.2307
 20
86.0446
 30
0.0
 11
68.1482
 21
98.7337
 31
0.0
  0
LINE
  8
0
 62
     0
 10
68.1482
 20
98.7337
 30
0.0
 11
55.4591
 21
104.65
 31
0.0
  0
LINE
  8
0
 62
     0
 10
55.4591
 20
104.65
 30
0.0
 11
49.5434
 21
91.9607
 31
0.0
  0
LINE
  8
0
 62
     0
 10
29.2185
 20
93.4515
 30
0.0
 11
41.9061
 21
87.5358
 31
0.0
  0
LINE
  8
0
 62
     0
 10
41.9061
 20
87.5358
 30
0.0
 11
47.8236
 21
100.223
 31
0.0
  0
LINE
  8
0
 62
     0
 10
47.8236
 20
100.223
 30
0.0
 11
35.1359
 21
106.141
 31
0.0
  0
LINE
  8
0
 62
     0
 10
35.1359
 20
106.141
 30
0.0
 11
29.2185
 21
93.4515
 31
0.0
  0
LINE
  8
0
 62
     0
 10
242.4
 20
101.643
 30
0.0
 11
248.317
 21
88.9536
 31
0.0
  0
LINE
  8
0
 62
     0
 10
248.317
 20
88.9536
 30
0.0
 11
261.004
 21
94.8697
 31
0.0
  0
LINE
  8
0
 62
     0
 10
261.004
 20
94.8697
 30
0.0
 11
255.087
 21
107.559
 31
0.0
  0
LINE
  8
0
 62
     0
 10
255.087
 20
107.559
 30
0.0
 11
242.4
 21
101.643
 31
0.0
  0
LINE
  8
0
 62
     0
 10
155.997
 20
94.8697
 30
0.0
 11
168.684
 21
88.9536
 31
0.0
  0
LINE
  8
0
 62
     0
 10
168.684
 20
88.9536
 30
0.0
 11
174.602
 21
101.643
 31
0.0
  0
LINE
  8
0
 62
     0
 10
174.602
 20
101.643
 30
0.0
 11
161.913
 21
107.559
 31
0.0
  0
LINE
  8
0
 62
     0
 10
161.913
 20
107.559
 30
0.0
 11
155.997
 21
94.8697
 31
0.0
  0
LINE
  8
0
 62
     0
 10
282.968
 20
104.794
 30
0.0
 11
288.885
 21
92.1067
 31
0.0
  0
LINE
  8
0
 62
     0
 10
288.885
 20
92.1067
 30
0.0
 11
301.573
 21
98.0225
 31
0.0
  0
LINE
  8
0
 62
     0
 10
301.573
 20
98.0225
 30
0.0
 11
295.657
 21
110.712
 31
0.0
  0
LINE
  8
0
 62
     0
 10
295.657
 20
110.712
 30
0.0
 11
282.968
 21
104.794
 31
0.0
  0
LINE
  8
0
 62
     0
 10
115.427
 20
98.0225
 30
0.0
 11
128.115
 21
92.1067
 31
0.0
  0
LINE
  8
0
 62
     0
 10
128.115
 20
92.1067
 30
0.0
 11
134.032
 21
104.794
 31
0.0
  0
LINE
  8
0
 62
     0
 10
134.032
 20
104.794
 30
0.0
 11
121.345
 21
110.712
 31
0.0
  0
LINE
  8
0
 62
     0
 10
121.345
 20
110.712
 30
0.0
 11
115.427
 21
98.0225
 31
0.0
  0
LINE
  8
0
 62
     0
 10
301.279
 20
110.601
 30
0.0
 11
307.196
 21
97.9138
 31
0.0
  0
LINE
  8
0
 62
     0
 10
307.196
 20
97.9138
 30
0.0
 11
319.884
 21
103.83
 31
0.0
  0
LINE
  8
0
 62
     0
 10
319.884
 20
103.83
 30
0.0
 11
313.968
 21
116.519
 31
0.0
  0
LINE
  8
0
 62
     0
 10
313.968
 20
116.519
 30
0.0
 11
301.279
 21
110.601
 31
0.0
  0
LINE
  8
0
 62
     0
 10
97.1158
 20
103.83
 30
0.0
 11
109.805
 21
97.9138
 31
0.0
  0
LINE
  8
0
 62
     0
 10
109.805
 20
97.9138
 30
0.0
 11
115.721
 21
110.601
 31
0.0
  0
LINE
  8
0
 62
     0
 10
115.721
 20
110.601
 30
0.0
 11
103.033
 21
116.519
 31
0.0
  0
LINE
  8
0
 62
     0
 10
103.033
 20
116.519
 30
0.0
 11
97.1158
 21
103.83
 31
0.0
  0
LINE
  8
0
 62
     0
 10
258.699
 20
111.765
 30
0.0
 11
264.615
 21
99.0769
 31
0.0
  0
LINE
  8
0
 62
     0
 10
264.615
 20
99.0769
 30
0.0
 11
277.304
 21
104.993
 31
0.0
  0
LINE
  8
0
 62
     0
 10
277.304
 20
104.993
 30
0.0
 11
271.387
 21
117.682
 31
0.0
  0
LINE
  8
0
 62
     0
 10
271.387
 20
117.682
 30
0.0
 11
258.699
 21
111.765
 31
0.0
  0
LINE
  8
0
 62
     0
 10
139.697
 20
104.993
 30
0.0
 11
152.385
 21
99.0769
 31
0.0
  0
LINE
  8
0
 62
     0
 10
152.385
 20
99.0769
 30
0.0
 11
158.302
 21
111.765
 31
0.0
  0
LINE
  8
0
 62
     0
 10
158.302
 20
111.765
 30
0.0
 11
145.613
 21
117.682
 31
0.0
  0
LINE
  8
0
 62
     0
 10
145.613
 20
117.682
 30
0.0
 11
139.697
 21
104.993
 31
0.0
  0
LINE
  8
0
 62
     0
 10
320.558
 20
114.336
 30
0.0
 11
326.475
 21
101.647
 31
0.0
  0
LINE
  8
0
 62
     0
 10
326.475
 20
101.647
 30
0.0
 11
339.163
 21
107.564
 31
0.0
  0
LINE
  8
0
 62
     0
 10
339.163
 20
107.564
 30
0.0
 11
333.246
 21
120.252
 31
0.0
  0
LINE
  8
0
 62
     0
 10
333.246
 20
120.252
 30
0.0
 11
320.558
 21
114.336
 31
0.0
  0
LINE
  8
0
 62
     0
 10
77.8387
 20
107.564
 30
0.0
 11
90.526
 21
101.647
 31
0.0
  0
LINE
  8
0
 62
     0
 10
90.526
 20
101.647
 30
0.0
 11
96.442
 21
114.336
 31
0.0
  0
LINE
  8
0
 62
     0
 10
96.442
 20
114.336
 30
0.0
 11
83.7544
 21
120.252
 31
0.0
  0
LINE
  8
0
 62
     0
 10
83.7544
 20
120.252
 30
0.0
 11
77.8387
 21
107.564
 31
0.0
  0
LINE
  8
0
 62
     0
 10
340.801
 20
115.998
 30
0.0
 11
346.718
 21
103.31
 31
0.0
  0
LINE
  8
0
 62
     0
 10
346.718
 20
103.31
 30
0.0
 11
359.406
 21
109.227
 31
0.0
  0
LINE
  8
0
 62
     0
 10
359.406
 20
109.227
 30
0.0
 11
353.49
 21
121.915
 31
0.0
  0
LINE
  8
0
 62
     0
 10
353.49
 20
121.915
 30
0.0
 11
340.801
 21
115.998
 31
0.0
  0
LINE
  8
0
 62
     0
 10
57.5952
 20
109.227
 30
0.0
 11
70.2829
 21
103.31
 31
0.0
  0
LINE
  8
0
 62
     0
 10
70.2829
 20
103.31
 30
0.0
 11
76.1986
 21
115.998
 31
0.0
  0
LINE
  8
0
 62
     0
 10
76.1986
 20
115.998
 30
0.0
 11
63.5109
 21
121.915
 31
0.0
  0
LINE
  8
0
 62
     0
 10
63.5109
 20
121.915
 30
0.0
 11
57.5952
 21
109.227
 31
0.0
  0
LINE
  8
0
 62
     0
 10
361.124
 20
117.489
 30
0.0
 11
367.041
 21
104.8
 31
0.0
  0
LINE
  8
0
 62
     0
 10
367.041
 20
104.8
 30
0.0
 11
379.73
 21
110.717
 31
0.0
  0
LINE
  8
0
 62
     0
 10
379.73
 20
110.717
 30
0.0
 11
373.814
 21
123.405
 31
0.0
  0
LINE
  8
0
 62
     0
 10
373.814
 20
123.405
 30
0.0
 11
361.124
 21
117.489
 31
0.0
  0
LINE
  8
0
 62
     0
 10
37.2692
 20
110.717
 30
0.0
 11
49.9579
 21
104.8
 31
0.0
  0
LINE
  8
0
 62
     0
 10
49.9579
 20
104.8
 30
0.0
 11
55.874
 21
117.489
 31
0.0
  0
LINE
  8
0
 62
     0
 10
55.874
 20
117.489
 30
0.0
 11
43.1863
 21
123.405
 31
0.0
  0
LINE
  8
0
 62
     0
 10
43.1863
 20
123.405
 30
0.0
 11
37.2692
 21
110.717
 31
0.0
  0
LINE
  8
0
 62
     0
 10
274.916
 20
122.06
 30
0.0
 11
280.833
 21
109.371
 31
0.0
  0
LINE
  8
0
 62
     0
 10
280.833
 20
109.371
 30
0.0
 11
293.522
 21
115.288
 31
0.0
  0
LINE
  8
0
 62
     0
 10
293.522
 20
115.288
 30
0.0
 11
287.605
 21
127.976
 31
0.0
  0
LINE
  8
0
 62
     0
 10
287.605
 20
127.976
 30
0.0
 11
274.916
 21
122.06
 31
0.0
  0
LINE
  8
0
 62
     0
 10
123.478
 20
115.288
 30
0.0
 11
136.167
 21
109.371
 31
0.0
  0
LINE
  8
0
 62
     0
 10
136.167
 20
109.371
 30
0.0
 11
142.084
 21
122.06
 31
0.0
  0
LINE
  8
0
 62
     0
 10
142.084
 20
122.06
 30
0.0
 11
129.395
 21
127.976
 31
0.0
  0
LINE
  8
0
 62
     0
 10
129.395
 20
127.976
 30
0.0
 11
123.478
 21
115.288
 31
0.0
  0
LINE
  8
0
 62
     0
 10
293.229
 20
127.867
 30
0.0
 11
299.146
 21
115.178
 31
0.0
  0
LINE
  8
0
 62
     0
 10
299.146
 20
115.178
 30
0.0
 11
311.834
 21
121.094
 31
0.0
  0
LINE
  8
0
 62
     0
 10
311.834
 20
121.094
 30
0.0
 11
305.918
 21
133.783
 31
0.0
  0
LINE
  8
0
 62
     0
 10
305.918
 20
133.783
 30
0.0
 11
293.229
 21
127.867
 31
0.0
  0
LINE
  8
0
 62
     0
 10
105.166
 20
121.094
 30
0.0
 11
117.855
 21
115.178
 31
0.0
  0
LINE
  8
0
 62
     0
 10
117.855
 20
115.178
 30
0.0
 11
123.77
 21
127.867
 31
0.0
  0
LINE
  8
0
 62
     0
 10
123.77
 20
127.867
 30
0.0
 11
111.084
 21
133.783
 31
0.0
  0
LINE
  8
0
 62
     0
 10
111.084
 20
133.783
 30
0.0
 11
105.166
 21
121.094
 31
0.0
  0
LINE
  8
0
 62
     0
 10
312.506
 20
131.601
 30
0.0
 11
318.423
 21
118.912
 31
0.0
  0
LINE
  8
0
 62
     0
 10
318.423
 20
118.912
 30
0.0
 11
331.111
 21
124.83
 31
0.0
  0
LINE
  8
0
 62
     0
 10
331.111
 20
124.83
 30
0.0
 11
325.195
 21
137.517
 31
0.0
  0
LINE
  8
0
 62
     0
 10
325.195
 20
137.517
 30
0.0
 11
312.506
 21
131.601
 31
0.0
  0
LINE
  8
0
 62
     0
 10
85.889
 20
124.83
 30
0.0
 11
98.5781
 21
118.912
 31
0.0
  0
LINE
  8
0
 62
     0
 10
98.5781
 20
118.912
 30
0.0
 11
104.494
 21
131.601
 31
0.0
  0
LINE
  8
0
 62
     0
 10
104.494
 20
131.601
 30
0.0
 11
91.8048
 21
137.517
 31
0.0
  0
LINE
  8
0
 62
     0
 10
91.8048
 20
137.517
 30
0.0
 11
85.889
 21
124.83
 31
0.0
  0
LINE
  8
0
 62
     0
 10
332.751
 20
133.263
 30
0.0
 11
338.668
 21
120.576
 31
0.0
  0
LINE
  8
0
 62
     0
 10
338.668
 20
120.576
 30
0.0
 11
351.356
 21
126.492
 31
0.0
  0
LINE
  8
0
 62
     0
 10
351.356
 20
126.492
 30
0.0
 11
345.438
 21
139.18
 31
0.0
  0
LINE
  8
0
 62
     0
 10
345.438
 20
139.18
 30
0.0
 11
332.751
 21
133.263
 31
0.0
  0
LINE
  8
0
 62
     0
 10
65.6442
 20
126.492
 30
0.0
 11
78.3332
 21
120.576
 31
0.0
  0
LINE
  8
0
 62
     0
 10
78.3332
 20
120.576
 30
0.0
 11
84.249
 21
133.263
 31
0.0
  0
LINE
  8
0
 62
     0
 10
84.249
 20
133.263
 30
0.0
 11
71.5617
 21
139.18
 31
0.0
  0
LINE
  8
0
 62
     0
 10
71.5617
 20
139.18
 30
0.0
 11
65.6442
 21
126.492
 31
0.0
  0
LINE
  8
0
 62
     0
 10
353.074
 20
134.753
 30
0.0
 11
358.99
 21
122.065
 31
0.0
  0
LINE
  8
0
 62
     0
 10
358.99
 20
122.065
 30
0.0
 11
371.68
 21
127.982
 31
0.0
  0
LINE
  8
0
 62
     0
 10
371.68
 20
127.982
 30
0.0
 11
365.764
 21
140.67
 31
0.0
  0
LINE
  8
0
 62
     0
 10
365.764
 20
140.67
 30
0.0
 11
353.074
 21
134.753
 31
0.0
  0
LINE
  8
0
 62
     0
 10
45.321
 20
127.982
 30
0.0
 11
58.0087
 21
122.065
 31
0.0
  0
LINE
  8
0
 62
     0
 10
58.0087
 20
122.065
 30
0.0
 11
63.9258
 21
134.753
 31
0.0
  0
LINE
  8
0
 62
     0
 10
63.9258
 20
134.753
 30
0.0
 11
51.2367
 21
140.67
 31
0.0
  0
LINE
  8
0
 62
     0
 10
51.2367
 20
140.67
 30
0.0
 11
45.321
 21
127.982
 31
0.0
  0
LINE
  8
0
 62
     0
 10
2.28479
 20
152.874
 30
0.0
 11
2.00642
 21
152.732
 31
0.0
  0
LINE
  8
0
 62
     0
 10
2.00642
 20
152.732
 30
0.0
 11
1.78456
 21
152.51
 31
0.0
  0
LINE
  8
0
 62
     0
 10
1.78456
 20
152.51
 30
0.0
 11
1.64262
 21
152.232
 31
0.0
  0
LINE
  8
0
 62
     0
 10
1.64262
 20
152.232
 30
0.0
 11
1.59301
 21
151.923
 31
0.0
  0
LINE
  8
0
 62
     0
 10
1.59301
 20
151.923
 30
0.0
 11
1.64262
 21
151.613
 31
0.0
  0
LINE
  8
0
 62
     0
 10
1.64262
 20
151.613
 30
0.0
 11
1.78456
 21
151.335
 31
0.0
  0
LINE
  8
0
 62
     0
 10
1.78456
 20
151.335
 30
0.0
 11
2.00642
 21
151.113
 31
0.0
  0
LINE
  8
0
 62
     0
 10
2.00642
 20
151.113
 30
0.0
 11
2.28479
 21
150.971
 31
0.0
  0
LINE
  8
0
 62
     0
 10
2.28479
 20
150.971
 30
0.0
 11
2.59347
 21
150.923
 31
0.0
  0
LINE
  8
0
 62
     0
 10
2.59347
 20
150.923
 30
0.0
 11
2.90353
 21
150.971
 31
0.0
  0
LINE
  8
0
 62
     0
 10
2.90353
 20
150.971
 30
0.0
 11
3.18189
 21
151.113
 31
0.0
  0
LINE
  8
0
 62
     0
 10
3.18189
 20
151.113
 30
0.0
 11
3.40376
 21
151.335
 31
0.0
  0
LINE
  8
0
 62
     0
 10
3.40376
 20
151.335
 30
0.0
 11
3.5457
 21
151.613
 31
0.0
  0
LINE
  8
0
 62
     0
 10
3.5457
 20
151.613
 30
0.0
 11
3.59392
 21
151.922
 31
0.0
  0
LINE
  8
0
 62
     0
 10
3.59392
 20
151.922
 30
0.0
 11
3.5457
 21
152.232
 31
0.0
  0
LINE
  8
0
 62
     0
 10
3.5457
 20
152.232
 30
0.0
 11
3.40376
 21
152.51
 31
0.0
  0
LINE
  8
0
 62
     0
 10
3.40376
 20
152.51
 30
0.0
 11
3.18189
 21
152.732
 31
0.0
  0
LINE
  8
0
 62
     0
 10
3.18189
 20
152.732
 30
0.0
 11
2.90353
 21
152.874
 31
0.0
  0
LINE
  8
0
 62
     0
 10
2.90353
 20
152.874
 30
0.0
 11
2.59485
 21
152.922
 31
0.0
  0
LINE
  8
0
 62
     0
 10
2.59485
 20
152.922
 30
0.0
 11
2.28479
 21
152.874
 31
0.0
  0
LINE
  8
0
 62
     0
 10
410.432
 20
152.874
 30
0.0
 11
410.154
 21
152.732
 31
0.0
  0
LINE
  8
0
 62
     0
 10
410.154
 20
152.732
 30
0.0
 11
409.931
 21
152.51
 31
0.0
  0
LINE
  8
0
 62
     0
 10
409.931
 20
152.51
 30
0.0
 11
409.79
 21
152.232
 31
0.0
  0
LINE
  8
0
 62
     0
 10
409.79
 20
152.232
 30
0.0
 11
409.741
 21
151.923
 31
0.0
  0
LINE
  8
0
 62
     0
 10
409.741
 20
151.923
 30
0.0
 11
409.79
 21
151.613
 31
0.0
  0
LINE
  8
0
 62
     0
 10
409.79
 20
151.613
 30
0.0
 11
409.931
 21
151.335
 31
0.0
  0
LINE
  8
0
 62
     0
 10
409.931
 20
151.335
 30
0.0
 11
410.154
 21
151.113
 31
0.0
  0
LINE
  8
0
 62
     0
 10
410.154
 20
151.113
 30
0.0
 11
410.432
 21
150.971
 31
0.0
  0
LINE
  8
0
 62
     0
 10
410.432
 20
150.971
 30
0.0
 11
410.739
 21
150.923
 31
0.0
  0
LINE
  8
0
 62
     0
 10
410.739
 20
150.923
 30
0.0
 11
411.05
 21
150.971
 31
0.0
  0
LINE
  8
0
 62
     0
 10
411.05
 20
150.971
 30
0.0
 11
411.328
 21
151.113
 31
0.0
  0
LINE
  8
0
 62
     0
 10
411.328
 20
151.113
 30
0.0
 11
411.551
 21
151.335
 31
0.0
  0
LINE
  8
0
 62
     0
 10
411.551
 20
151.335
 30
0.0
 11
411.692
 21
151.613
 31
0.0
  0
LINE
  8
0
 62
     0
 10
411.692
 20
151.613
 30
0.0
 11
411.741
 21
151.922
 31
0.0
  0
LINE
  8
0
 62
     0
 10
411.741
 20
151.922
 30
0.0
 11
411.692
 21
152.232
 31
0.0
  0
LINE
  8
0
 62
     0
 10
411.692
 20
152.232
 30
0.0
 11
411.551
 21
152.51
 31
0.0
  0
LINE
  8
0
 62
     0
 10
411.551
 20
152.51
 30
0.0
 11
411.328
 21
152.732
 31
0.0
  0
LINE
  8
0
 62
     0
 10
411.328
 20
152.732
 30
0.0
 11
411.05
 21
152.874
 31
0.0
  0
LINE
  8
0
 62
     0
 10
411.05
 20
152.874
 30
0.0
 11
410.739
 21
152.922
 31
0.0
  0
LINE
  8
0
 62
     0
 10
410.739
 20
152.922
 30
0.0
 11
410.432
 21
152.874
 31
0.0
  0
LINE
  8
0
 62
     0
 10
206.358
 20
152.874
 30
0.0
 11
206.08
 21
152.732
 31
0.0
  0
LINE
  8
0
 62
     0
 10
206.08
 20
152.732
 30
0.0
 11
205.858
 21
152.51
 31
0.0
  0
LINE
  8
0
 62
     0
 10
205.858
 20
152.51
 30
0.0
 11
205.716
 21
152.232
 31
0.0
  0
LINE
  8
0
 62
     0
 10
205.716
 20
152.232
 30
0.0
 11
205.668
 21
151.923
 31
0.0
  0
LINE
  8
0
 62
     0
 10
205.668
 20
151.923
 30
0.0
 11
205.716
 21
151.613
 31
0.0
  0
LINE
  8
0
 62
     0
 10
205.716
 20
151.613
 30
0.0
 11
205.858
 21
151.335
 31
0.0
  0
LINE
  8
0
 62
     0
 10
205.858
 20
151.335
 30
0.0
 11
206.08
 21
151.113
 31
0.0
  0
LINE
  8
0
 62
     0
 10
206.08
 20
151.113
 30
0.0
 11
206.358
 21
150.971
 31
0.0
  0
LINE
  8
0
 62
     0
 10
206.358
 20
150.971
 30
0.0
 11
206.667
 21
150.923
 31
0.0
  0
LINE
  8
0
 62
     0
 10
206.667
 20
150.923
 30
0.0
 11
206.976
 21
150.971
 31
0.0
  0
LINE
  8
0
 62
     0
 10
206.976
 20
150.971
 30
0.0
 11
207.256
 21
151.113
 31
0.0
  0
LINE
  8
0
 62
     0
 10
207.256
 20
151.113
 30
0.0
 11
207.476
 21
151.335
 31
0.0
  0
LINE
  8
0
 62
     0
 10
207.476
 20
151.335
 30
0.0
 11
207.618
 21
151.613
 31
0.0
  0
LINE
  8
0
 62
     0
 10
207.618
 20
151.613
 30
0.0
 11
207.668
 21
151.922
 31
0.0
  0
LINE
  8
0
 62
     0
 10
207.668
 20
151.922
 30
0.0
 11
207.618
 21
152.232
 31
0.0
  0
LINE
  8
0
 62
     0
 10
207.618
 20
152.232
 30
0.0
 11
207.476
 21
152.51
 31
0.0
  0
LINE
  8
0
 62
     0
 10
207.476
 20
152.51
 30
0.0
 11
207.256
 21
152.732
 31
0.0
  0
LINE
  8
0
 62
     0
 10
207.256
 20
152.732
 30
0.0
 11
206.976
 21
152.874
 31
0.0
  0
LINE
  8
0
 62
     0
 10
206.976
 20
152.874
 30
0.0
 11
206.667
 21
152.922
 31
0.0
  0
LINE
  8
0
 62
     0
 10
206.667
 20
152.922
 30
0.0
 11
206.358
 21
152.874
 31
0.0
  0
ENDSEC
  0
EOF
