999
dxfrw 0.6.3
  0
SECTION
  2
HEADER
  9
$ACADVER
  1
AC1021
  9
$DWGCODEPAGE
  3
ANSI_1252
  9
$INSBASE
 10
0
 20
0
 30
0
  9
$EXTMIN
 10
13.0211154
 20
9.356871000000002
 30
0
  9
$EXTMAX
 10
174.5069154
 20
140.430221
 30
0
  9
$LIMMIN
 10
0
 20
0
  9
$LIMMAX
 10
420
 20
297
  9
$ORTHOMODE
 70
    0
  9
$REGENMODE
 70
    1
  9
$FILLMODE
 70
    1
  9
$QTEXTMODE
 70
    0
  9
$MIRRTEXT
 70
    0
  9
$LTSCALE
 40
1
  9
$ATTMODE
 70
    0
  9
$TEXTSIZE
 40
2.5
  9
$TRACEWID
 40
15.68
  9
$TEXTSTYLE
  7
STANDARD
  9
$CLAYER
  8
SwitchPlateL
  9
$CELTYPE
  6
BYLAYER
  9
$CECOLOR
 62
  256
  9
$CELTSCALE
 40
1
  9
$DISPSILH
 70
    0
  9
$DIMSCALE
 40
2.5
  9
$DIMASZ
 40
2.5
  9
$DIMEXO
 40
0.625
  9
$DIMDLI
 40
3.75
  9
$DIMRND
 40
0
  9
$DIMDLE
 40
0
  9
$DIMEXE
 40
1.25
  9
$DIMTP
 40
0
  9
$DIMTM
 40
0
  9
$DIMTXT
 40
2.5
  9
$DIMCEN
 40
2.5
  9
$DIMTSZ
 40
0
  9
$DIMTOL
 70
    0
  9
$DIMLIM
 70
    0
  9
$DIMTIH
 70
    0
  9
$DIMTOH
 70
    0
  9
$DIMSE1
 70
    0
  9
$DIMSE2
 70
    0
  9
$DIMTAD
 70
    1
  9
$DIMZIN
 70
    8
  9
$DIMBLK
  1

  9
$DIMASO
 70
    1
  9
$DIMSHO
 70
    1
  9
$DIMPOST
  1

  9
$DIMAPOST
  1

  9
$DIMALT
 70
    0
  9
$DIMALTD
 70
    3
  9
$DIMALTF
 40
0.03937
  9
$DIMLFAC
 40
1
  9
$DIMTOFL
 70
    1
  9
$DIMTVP
 40
0
  9
$DIMTIX
 70
    0
  9
$DIMSOXD
 70
    0
  9
$DIMSAH
 70
    0
  9
$DIMBLK1
  1

  9
$DIMBLK2
  1

  9
$DIMSTYLE
  2
STANDARD
  9
$DIMCLRD
 70
    0
  9
$DIMCLRE
 70
    0
  9
$DIMCLRT
 70
    0
  9
$DIMTFAC
 40
1
  9
$DIMGAP
 40
0.625
  9
$DIMJUST
 70
    0
  9
$DIMSD1
 70
    0
  9
$DIMSD2
 70
    0
  9
$DIMTOLJ
 70
    0
  9
$DIMTZIN
 70
    8
  9
$DIMALTZ
 70
    0
  9
$DIMALTTZ
 70
    0
  9
$DIMUPT
 70
    0
  9
$DIMDEC
 70
    2
  9
$DIMTDEC
 70
    2
  9
$DIMALTU
 70
    2
  9
$DIMALTTD
 70
    3
  9
$DIMTXSTY
  7
STANDARD
  9
$DIMAUNIT
 70
    0
  9
$DIMADEC
 70
    0
  9
$DIMALTRND
 40
0
  9
$DIMAZIN
 70
    0
  9
$DIMDSEP
 70
   44
  9
$DIMATFIT
 70
    3
  9
$DIMFRAC
 70
    0
  9
$DIMLDRBLK
  1
STANDARD
  9
$DIMLUNIT
 70
    2
  9
$DIMLWD
 70
   -2
  9
$DIMLWE
 70
   -2
  9
$DIMTMOVE
 70
    0
  9
$DIMFXL
 40
1
  9
$DIMFXLON
 70
    0
  9
$DIMJOGANG
 40
0.7854
  9
$DIMTFILL
 70
    0
  9
$DIMTFILLCLR
 70
    0
  9
$DIMARCSYM
 70
    0
  9
$DIMLTYPE
  6

  9
$DIMLTEX1
  6

  9
$DIMLTEX2
  6

  9
$LUNITS
 70
    2
  9
$LUPREC
 70
    4
  9
$SKETCHINC
 40
1
  9
$FILLETRAD
 40
0
  9
$AUNITS
 70
    0
  9
$AUPREC
 70
    2
  9
$MENU
  1
.
  9
$ELEVATION
 40
0
  9
$PELEVATION
 40
0
  9
$THICKNESS
 40
0
  9
$LIMCHECK
 70
    0
  9
$CHAMFERA
 40
0
  9
$CHAMFERB
 40
0
  9
$CHAMFERC
 40
0
  9
$CHAMFERD
 40
0
  9
$SKPOLY
 70
    0
  9
$USRTIMER
 70
    1
  9
$ANGBASE
 50
0
  9
$ANGDIR
 70
    0
  9
$PDMODE
 70
   34
  9
$PDSIZE
 40
0
  9
$PLINEWID
 40
0
  9
$SPLFRAME
 70
    0
  9
$SPLINETYPE
 70
    2
  9
$SPLINESEGS
 70
    8
  9
$HANDSEED
  5
20000
  9
$SURFTAB1
 70
    6
  9
$SURFTAB2
 70
    6
  9
$SURFTYPE
 70
    6
  9
$SURFU
 70
    6
  9
$SURFV
 70
    6
  9
$UCSBASE
  2

  9
$UCSNAME
  2

  9
$UCSORG
 10
0
 20
0
 30
0
  9
$UCSXDIR
 10
1
 20
0
 30
0
  9
$UCSYDIR
 10
0
 20
1
 30
0
  9
$UCSORTHOREF
  2

  9
$UCSORTHOVIEW
 70
    0
  9
$UCSORGTOP
 10
0
 20
0
 30
0
  9
$UCSORGBOTTOM
 10
0
 20
0
 30
0
  9
$UCSORGLEFT
 10
0
 20
0
 30
0
  9
$UCSORGRIGHT
 10
0
 20
0
 30
0
  9
$UCSORGFRONT
 10
0
 20
0
 30
0
  9
$UCSORGBACK
 10
0
 20
0
 30
0
  9
$PUCSBASE
  2

  9
$PUCSNAME
  2

  9
$PUCSORG
 10
0
 20
0
 30
0
  9
$PUCSXDIR
 10
1
 20
0
 30
0
  9
$PUCSYDIR
 10
0
 20
1
 30
0
  9
$PUCSORTHOREF
  2

  9
$PUCSORTHOVIEW
 70
    0
  9
$PUCSORGTOP
 10
0
 20
0
 30
0
  9
$PUCSORGBOTTOM
 10
0
 20
0
 30
0
  9
$PUCSORGLEFT
 10
0
 20
0
 30
0
  9
$PUCSORGRIGHT
 10
0
 20
0
 30
0
  9
$PUCSORGFRONT
 10
0
 20
0
 30
0
  9
$PUCSORGBACK
 10
0
 20
0
 30
0
  9
$USERI1
 70
    0
  9
$USERI2
 70
    0
  9
$USERI3
 70
    0
  9
$USERI4
 70
    0
  9
$USERI5
 70
    0
  9
$USERR1
 40
0
  9
$USERR2
 40
0
  9
$USERR3
 40
0
  9
$USERR4
 40
0
  9
$USERR5
 40
0
  9
$WORLDVIEW
 70
    1
  9
$SHADEDGE
 70
    3
  9
$SHADEDIF
 70
   70
  9
$TILEMODE
 70
    1
  9
$MAXACTVP
 70
   64
  9
$PINSBASE
 10
0
 20
0
 30
0
  9
$PLIMCHECK
 70
    0
  9
$PEXTMIN
 10
0
 20
0
 30
0
  9
$PEXTMAX
 10
0
 20
0
 30
0
  9
$GRIDMODE
 70
    1
  9
$SNAPSTYLE
 70
    0
  9
$PLIMMIN
 10
0
 20
0
  9
$PLIMMAX
 10
297
 20
210
  9
$UNITMODE
 70
    0
  9
$VISRETAIN
 70
    1
  9
$PLINEGEN
 70
    0
  9
$PSLTSCALE
 70
    1
  9
$TREEDEPTH
 70
 3020
  9
$CMLSTYLE
  2
Standard
  9
$CMLJUST
 70
    0
  9
$CMLSCALE
 40
20
  9
$PROXYGRAPHICS
 70
    1
  9
$MEASUREMENT
 70
    1
  9
$CELWEIGHT
370
   -1
  9
$ENDCAPS
280
    0
  9
$JOINSTYLE
280
    0
  9
$LWDISPLAY
290
    0
  9
$INSUNITS
 70
    4
  9
$HYPERLINKBASE
  1

  9
$STYLESHEET
  1

  9
$XEDIT
290
    1
  9
$CEPSNTYPE
380
    0
  9
$PSTYLEMODE
290
    1
  9
$EXTNAMES
290
    1
  9
$PSVPSCALE
 40
1
  9
$OLESTARTUP
290
    0
  9
$SORTENTS
280
  127
  9
$INDEXCTL
280
    0
  9
$HIDETEXT
280
    1
  9
$XCLIPFRAME
290
    0
  9
$HALOGAP
280
    0
  9
$OBSCOLOR
 70
  257
  9
$OBSLTYPE
280
    0
  9
$INTERSECTIONDISPLAY
280
    0
  9
$INTERSECTIONCOLOR
 70
  257
  9
$DIMASSOC
280
    1
  9
$PROJECTNAME
  1

  9
$CAMERADISPLAY
290
    0
  9
$LENSLENGTH
 40
50
  9
$CAMERAHEIGHT
 40
0
  9
$STEPSPERSEC
 40
2
  9
$STEPSIZE
 40
50
  9
$3DDWFPREC
 40
2
  9
$PSOLWIDTH
 40
5
  9
$PSOLHEIGHT
 40
80
  9
$LOFTANG1
 40
1.570796326794897
  9
$LOFTANG2
 40
1.570796326794897
  9
$LOFTMAG1
 40
0
  9
$LOFTMAG2
 40
0
  9
$LOFTPARAM
 70
    7
  9
$LOFTNORMALS
280
    1
  9
$LATITUDE
 40
1
  9
$LONGITUDE
 40
1
  9
$NORTHDIRECTION
 40
0
  9
$TIMEZONE
 70
-8000
  9
$LIGHTGLYPHDISPLAY
280
    1
  9
$TILEMODELIGHTSYNCH
280
    1
  9
$SOLIDHIST
280
    1
  9
$SHOWHIST
280
    1
  9
$DWFFRAME
280
    2
  9
$DGNFRAME
280
    0
  9
$REALWORLDSCALE
290
    1
  9
$INTERFERECOLOR
 62
    1
  9
$CSHADOW
280
    0
  9
$SHADOWPLANELOCATION
 40
0
  0
ENDSEC
  0
SECTION
  2
CLASSES
  0
ENDSEC
  0
SECTION
  2
TABLES
  0
TABLE
  2
VPORT
  5
8
330
0
100
AcDbSymbolTable
 70
    1
  0
VPORT
  5
31
330
2
100
AcDbSymbolTableRecord
100
AcDbViewportTableRecord
  2
*ACTIVE
 70
    0
 10
0
 20
0
 11
1
 21
1
 12
265.880067958438
 22
120.5454598540938
 13
0
 23
0
 14
10
 24
10
 15
10
 25
10
 16
0
 26
0
 36
1
 17
0
 27
0
 37
0
 40
397.9426099641968
 41
1.87651598676957
 42
50
 43
0
 44
0
 50
0
 51
0
 71
    0
 72
  100
 73
    1
 74
    3
 75
    0
 76
    1
 77
    0
 78
    0
281
    0
 65
    1
110
0
120
0
130
0
111
1
121
0
131
0
112
0
122
1
132
0
 79
    0
146
0
348
10020
 60
    7
 61
    5
292
1
282
    1
141
0
142
0
 63
  250
421
3358443
  0
ENDTAB
  0
TABLE
  2
LTYPE
  5
5
330
0
100
AcDbSymbolTable
 70
    4
  0
LTYPE
  5
14
330
5
100
AcDbSymbolTableRecord
100
AcDbLinetypeTableRecord
  2
ByBlock
 70
    0
  3

 72
   65
 73
    0
 40
0
  0
LTYPE
  5
15
330
5
100
AcDbSymbolTableRecord
100
AcDbLinetypeTableRecord
  2
ByLayer
 70
    0
  3

 72
   65
 73
    0
 40
0
  0
LTYPE
  5
16
330
5
100
AcDbSymbolTableRecord
100
AcDbLinetypeTableRecord
  2
Continuous
 70
    0
  3
Solid line
 72
   65
 73
    0
 40
0
  0
LTYPE
  5
32
330
5
100
AcDbSymbolTableRecord
100
AcDbLinetypeTableRecord
  2
DOT
 70
    0
  3
Dot . . . . . . . . . . . . . . . . . . . . . .
 72
   65
 73
    2
 40
6.35
 49
0
 74
    0
 49
-6.35
 74
    0
  0
LTYPE
  5
33
330
5
100
AcDbSymbolTableRecord
100
AcDbLinetypeTableRecord
  2
DOTTINY
 70
    0
  3
Dot (.15x) .....................................
 72
   65
 73
    2
 40
0.9525
 49
0
 74
    0
 49
-0.9525
 74
    0
  0
LTYPE
  5
34
330
5
100
AcDbSymbolTableRecord
100
AcDbLinetypeTableRecord
  2
DOT2
 70
    0
  3
Dot (.5x) .....................................
 72
   65
 73
    2
 40
3.175
 49
0
 74
    0
 49
-3.175
 74
    0
  0
LTYPE
  5
35
330
5
100
AcDbSymbolTableRecord
100
AcDbLinetypeTableRecord
  2
DOTX2
 70
    0
  3
Dot (2x) .  .  .  .  .  .  .  .  .  .  .  .  .
 72
   65
 73
    2
 40
12.7
 49
0
 74
    0
 49
-12.7
 74
    0
  0
LTYPE
  5
36
330
5
100
AcDbSymbolTableRecord
100
AcDbLinetypeTableRecord
  2
DASHED
 70
    0
  3
Dashed _ _ _ _ _ _ _ _ _ _ _ _ _ _ _ _ _
 72
   65
 73
    2
 40
19.05
 49
12.7
 74
    0
 49
-6.35
 74
    0
  0
LTYPE
  5
37
330
5
100
AcDbSymbolTableRecord
100
AcDbLinetypeTableRecord
  2
DASHEDTINY
 70
    0
  3
Dashed (.15x) _ _ _ _ _ _ _ _ _ _ _ _ _ _ _ _ _
 72
   65
 73
    2
 40
2.8575
 49
1.905
 74
    0
 49
-0.9525
 74
    0
  0
LTYPE
  5
38
330
5
100
AcDbSymbolTableRecord
100
AcDbLinetypeTableRecord
  2
DASHED2
 70
    0
  3
Dashed (.5x) _ _ _ _ _ _ _ _ _ _ _ _ _ _ _ _ _
 72
   65
 73
    2
 40
9.524999999999999
 49
6.35
 74
    0
 49
-3.175
 74
    0
  0
LTYPE
  5
39
330
5
100
AcDbSymbolTableRecord
100
AcDbLinetypeTableRecord
  2
DASHEDX2
 70
    0
  3
Dashed (2x) ____  ____  ____  ____  ____  ___
 72
   65
 73
    2
 40
38.09999999999999
 49
25.4
 74
    0
 49
-12.7
 74
    0
  0
LTYPE
  5
3A
330
5
100
AcDbSymbolTableRecord
100
AcDbLinetypeTableRecord
  2
DASHDOT
 70
    0
  3
Dash dot __ . __ . __ . __ . __ . __ . __ . __
 72
   65
 73
    4
 40
25.4
 49
12.7
 74
    0
 49
-6.35
 74
    0
 49
0
 74
    0
 49
-6.35
 74
    0
  0
LTYPE
  5
3B
330
5
100
AcDbSymbolTableRecord
100
AcDbLinetypeTableRecord
  2
DASHDOTTINY
 70
    0
  3
Dash dot (.15x) _._._._._._._._._._._._._._._.
 72
   65
 73
    4
 40
3.81
 49
1.905
 74
    0
 49
-0.9525
 74
    0
 49
0
 74
    0
 49
-0.9525
 74
    0
  0
LTYPE
  5
3C
330
5
100
AcDbSymbolTableRecord
100
AcDbLinetypeTableRecord
  2
DASHDOT2
 70
    0
  3
Dash dot (.5x) _._._._._._._._._._._._._._._.
 72
   65
 73
    4
 40
12.7
 49
6.35
 74
    0
 49
-3.175
 74
    0
 49
0
 74
    0
 49
-3.175
 74
    0
  0
LTYPE
  5
3D
330
5
100
AcDbSymbolTableRecord
100
AcDbLinetypeTableRecord
  2
DASHDOTX2
 70
    0
  3
Dash dot (2x) ____  .  ____  .  ____  .  ___
 72
   65
 73
    4
 40
50.8
 49
25.4
 74
    0
 49
-12.7
 74
    0
 49
0
 74
    0
 49
-12.7
 74
    0
  0
LTYPE
  5
3E
330
5
100
AcDbSymbolTableRecord
100
AcDbLinetypeTableRecord
  2
DIVIDE
 70
    0
  3
Divide ____ . . ____ . . ____ . . ____ . . ____
 72
   65
 73
    6
 40
31.75
 49
12.7
 74
    0
 49
-6.35
 74
    0
 49
0
 74
    0
 49
-6.35
 74
    0
 49
0
 74
    0
 49
-6.35
 74
    0
  0
LTYPE
  5
3F
330
5
100
AcDbSymbolTableRecord
100
AcDbLinetypeTableRecord
  2
DIVIDETINY
 70
    0
  3
Divide (.15x) __..__..__..__..__..__..__..__.._
 72
   65
 73
    6
 40
4.7625
 49
1.905
 74
    0
 49
-0.9525
 74
    0
 49
0
 74
    0
 49
-0.9525
 74
    0
 49
0
 74
    0
 49
-0.9525
 74
    0
  0
LTYPE
  5
40
330
5
100
AcDbSymbolTableRecord
100
AcDbLinetypeTableRecord
  2
DIVIDE2
 70
    0
  3
Divide (.5x) __..__..__..__..__..__..__..__.._
 72
   65
 73
    6
 40
15.875
 49
6.35
 74
    0
 49
-3.175
 74
    0
 49
0
 74
    0
 49
-3.175
 74
    0
 49
0
 74
    0
 49
-3.175
 74
    0
  0
LTYPE
  5
41
330
5
100
AcDbSymbolTableRecord
100
AcDbLinetypeTableRecord
  2
DIVIDEX2
 70
    0
  3
Divide (2x) ________  .  .  ________  .  .  _
 72
   65
 73
    6
 40
63.5
 49
25.4
 74
    0
 49
-12.7
 74
    0
 49
0
 74
    0
 49
-12.7
 74
    0
 49
0
 74
    0
 49
-12.7
 74
    0
  0
LTYPE
  5
42
330
5
100
AcDbSymbolTableRecord
100
AcDbLinetypeTableRecord
  2
BORDER
 70
    0
  3
Border __ __ . __ __ . __ __ . __ __ . __ __ .
 72
   65
 73
    6
 40
44.45
 49
12.7
 74
    0
 49
-6.35
 74
    0
 49
12.7
 74
    0
 49
-6.35
 74
    0
 49
0
 74
    0
 49
-6.35
 74
    0
  0
LTYPE
  5
43
330
5
100
AcDbSymbolTableRecord
100
AcDbLinetypeTableRecord
  2
BORDERTINY
 70
    0
  3
Border (.15x) __.__.__.__.__.__.__.__.__.__.__.
 72
   65
 73
    6
 40
6.6675
 49
1.905
 74
    0
 49
-0.9525
 74
    0
 49
1.905
 74
    0
 49
-0.9525
 74
    0
 49
0
 74
    0
 49
-0.9525
 74
    0
  0
LTYPE
  5
44
330
5
100
AcDbSymbolTableRecord
100
AcDbLinetypeTableRecord
  2
BORDER2
 70
    0
  3
Border (.5x) __.__.__.__.__.__.__.__.__.__.__.
 72
   65
 73
    6
 40
22.225
 49
6.35
 74
    0
 49
-3.175
 74
    0
 49
6.35
 74
    0
 49
-3.175
 74
    0
 49
0
 74
    0
 49
-3.175
 74
    0
  0
LTYPE
  5
45
330
5
100
AcDbSymbolTableRecord
100
AcDbLinetypeTableRecord
  2
BORDERX2
 70
    0
  3
Border (2x) ____  ____  .  ____  ____  .  ___
 72
   65
 73
    6
 40
88.89999999999999
 49
25.4
 74
    0
 49
-12.7
 74
    0
 49
25.4
 74
    0
 49
-12.7
 74
    0
 49
0
 74
    0
 49
-12.7
 74
    0
  0
LTYPE
  5
46
330
5
100
AcDbSymbolTableRecord
100
AcDbLinetypeTableRecord
  2
CENTER
 70
    0
  3
Center ____ _ ____ _ ____ _ ____ _ ____ _ ____
 72
   65
 73
    4
 40
50.8
 49
31.75
 74
    0
 49
-6.35
 74
    0
 49
6.35
 74
    0
 49
-6.35
 74
    0
  0
LTYPE
  5
47
330
5
100
AcDbSymbolTableRecord
100
AcDbLinetypeTableRecord
  2
CENTERTINY
 70
    0
  3
Center (.15x) ___ _ ___ _ ___ _ ___ _ ___ _ ___
 72
   65
 73
    4
 40
7.62
 49
4.7625
 74
    0
 49
-0.9525
 74
    0
 49
0.9525
 74
    0
 49
-0.9525
 74
    0
  0
LTYPE
  5
48
330
5
100
AcDbSymbolTableRecord
100
AcDbLinetypeTableRecord
  2
CENTER2
 70
    0
  3
Center (.5x) ___ _ ___ _ ___ _ ___ _ ___ _ ___
 72
   65
 73
    4
 40
28.575
 49
19.05
 74
    0
 49
-3.175
 74
    0
 49
3.175
 74
    0
 49
-3.175
 74
    0
  0
LTYPE
  5
49
330
5
100
AcDbSymbolTableRecord
100
AcDbLinetypeTableRecord
  2
CENTERX2
 70
    0
  3
Center (2x) ________  __  ________  __  _____
 72
   65
 73
    4
 40
101.6
 49
63.5
 74
    0
 49
-12.7
 74
    0
 49
12.7
 74
    0
 49
-12.7
 74
    0
  0
ENDTAB
  0
TABLE
  2
LAYER
  5
2
330
0
100
AcDbSymbolTable
 70
    1
  0
LAYER
  5
10
330
2
100
AcDbSymbolTableRecord
100
AcDbLayerTableRecord
  2
0
 70
    1
 62
    7
  6
CONTINUOUS
370
    0
390
F
  0
LAYER
  5
4A
330
2
100
AcDbSymbolTableRecord
100
AcDbLayerTableRecord
  2
Board
 70
    1
 62
    7
  6
CONTINUOUS
370
    0
390
F
  0
LAYER
  5
4B
330
2
100
AcDbSymbolTableRecord
100
AcDbLayerTableRecord
  2
Display
 70
    1
 62
    7
  6
CONTINUOUS
370
   -3
390
F
  0
LAYER
  5
4C
330
2
100
AcDbSymbolTableRecord
100
AcDbLayerTableRecord
  2
SwitchPlateL
 70
    0
 62
    7
  6
CONTINUOUS
370
    0
390
F
  0
LAYER
  5
4D
330
2
100
AcDbSymbolTableRecord
100
AcDbLayerTableRecord
  2
SwitchPlateR
 70
    1
 62
    7
  6
CONTINUOUS
370
    0
390
F
  0
LAYER
  5
4E
330
2
100
AcDbSymbolTableRecord
100
AcDbLayerTableRecord
  2
Top
 70
    1
 62
    7
  6
CONTINUOUS
370
    0
390
F
  0
ENDTAB
  0
TABLE
  2
STYLE
  5
3
330
0
100
AcDbSymbolTable
 70
    3
  0
STYLE
  5
4F
330
2
100
AcDbSymbolTableRecord
100
AcDbTextStyleTableRecord
  2
Standard
 70
    0
 40
0
 41
1
 50
0
 71
    0
 42
1
  3
txt
  4

  0
ENDTAB
  0
TABLE
  2
VIEW
  5
6
330
0
100
AcDbSymbolTable
 70
    0
  0
ENDTAB
  0
TABLE
  2
UCS
  5
7
330
0
100
AcDbSymbolTable
 70
    0
  0
ENDTAB
  0
TABLE
  2
APPID
  5
9
330
0
100
AcDbSymbolTable
 70
    1
  0
APPID
  5
12
330
9
100
AcDbSymbolTableRecord
100
AcDbRegAppTableRecord
  2
ACAD
 70
    0
  0
APPID
  5
50
330
9
100
AcDbSymbolTableRecord
100
AcDbRegAppTableRecord
  2
LibreCad
 70
    0
  0
ENDTAB
  0
TABLE
  2
DIMSTYLE
  5
A
330
0
100
AcDbSymbolTable
 70
    1
100
AcDbDimStyleTable
 71
    1
  0
DIMSTYLE
105
51
330
A
100
AcDbSymbolTableRecord
100
AcDbDimStyleTableRecord
  2
Standard
 70
    0
 40
2.5
 41
2.5
 42
0.625
 43
0.38
 44
1.25
 45
0
 46
0
 47
0
 48
0
 49
1
140
2.5
141
0.09
142
0
143
25.4
144
1
145
0
146
1
147
0.625
148
0
 71
    0
 72
    0
 73
    0
 74
    1
 75
    0
 76
    0
 77
    0
 78
    8
 79
    0
170
    0
171
    2
172
    0
173
    0
174
    0
175
    0
176
    0
177
    0
178
    0
179
    0
271
    2
272
    4
273
    2
274
    2
275
    0
276
    0
277
    2
278
   44
279
    0
280
    0
281
    0
282
    0
283
    1
284
    0
285
    0
286
    0
288
    0
289
    3
340
STANDARD
341

371
   -2
372
   -2
  0
ENDTAB
  0
TABLE
  2
BLOCK_RECORD
  5
1
330
0
100
AcDbSymbolTable
 70
    2
  0
BLOCK_RECORD
  5
1F
330
1
100
AcDbSymbolTableRecord
100
AcDbBlockTableRecord
  2
*Model_Space
 70
    0
280
    1
281
    0
  0
BLOCK_RECORD
  5
1E
330
1
100
AcDbSymbolTableRecord
100
AcDbBlockTableRecord
  2
*Paper_Space
 70
    0
280
    1
281
    0
  0
BLOCK_RECORD
  5
52
330
1
100
AcDbSymbolTableRecord
100
AcDbBlockTableRecord
  2
#a91e6dd3f1ff8ce7c12aa567afa1bdc7c28cb6b0_top
 70
    0
280
    1
281
    0
  0
BLOCK_RECORD
  5
55
330
1
100
AcDbSymbolTableRecord
100
AcDbBlockTableRecord
  2
a91e6dd3f1ff8ce7c12aa567afa1bdc7c28cb6b0_switch
 70
    0
280
    1
281
    0
  0
BLOCK_RECORD
  5
58
330
1
100
AcDbSymbolTableRecord
100
AcDbBlockTableRecord
  2
#plate
 70
    0
280
    1
281
    0
  0
ENDTAB
  0
ENDSEC
  0
SECTION
  2
BLOCKS
  0
BLOCK
  5
20
330
1F
100
AcDbEntity
  8
0
100
AcDbBlockBegin
  2
*Model_Space
 70
    0
 10
0
 20
0
 30
0
  3
*Model_Space
  1

  0
ENDBLK
  5
21
330
1F
100
AcDbEntity
  8
0
100
AcDbBlockEnd
  0
BLOCK
  5
1C
330
1B
100
AcDbEntity
  8
0
100
AcDbBlockBegin
  2
*Paper_Space
 70
    0
 10
0
 20
0
 30
0
  3
*Paper_Space
  1

  0
ENDBLK
  5
1D
330
1F
100
AcDbEntity
  8
0
100
AcDbBlockEnd
  0
BLOCK
  5
53
330
52
100
AcDbEntity
  8
0
100
AcDbBlockBegin
  2
#a91e6dd3f1ff8ce7c12aa567afa1bdc7c28cb6b0_top
 70
    0
 10
0
 20
0
  3
#a91e6dd3f1ff8ce7c12aa567afa1bdc7c28cb6b0_top
  1

  0
LINE
  5
5B
100
AcDbEntity
  8
0
  6
ByLayer
 62
    0
370
   -1
100
AcDbLine
 10
0.09508460000000001
 20
154.421
 11
413.24
 21
154.421
  0
LINE
  5
5C
100
AcDbEntity
  8
0
  6
ByLayer
 62
    0
370
   -1
100
AcDbLine
 10
413.24
 20
154.421
 11
413.24
 21
0.239779
  0
LINE
  5
5D
100
AcDbEntity
  8
0
  6
ByLayer
 62
    0
370
   -1
100
AcDbLine
 10
413.24
 20
0.239779
 11
0.09508460000000001
 21
0.239779
  0
LINE
  5
5E
100
AcDbEntity
  8
0
  6
ByLayer
 62
    0
370
   -1
100
AcDbLine
 10
0.09508460000000001
 20
0.239779
 11
0.09508460000000001
 21
154.421
  0
LINE
  5
5F
100
AcDbEntity
  8
0
  6
ByLayer
 62
    0
370
   -1
100
AcDbLine
 10
2.28479
 20
3.69175
 11
2.00642
 21
3.54983
  0
LINE
  5
60
100
AcDbEntity
  8
0
  6
ByLayer
 62
    0
370
   -1
100
AcDbLine
 10
2.00642
 20
3.54983
 11
1.78456
 21
3.32796
  0
LINE
  5
61
100
AcDbEntity
  8
0
  6
ByLayer
 62
    0
370
   -1
100
AcDbLine
 10
1.78456
 20
3.32796
 11
1.64262
 21
3.0496
  0
LINE
  5
62
100
AcDbEntity
  8
0
  6
ByLayer
 62
    0
370
   -1
100
AcDbLine
 10
1.64262
 20
3.0496
 11
1.59301
 21
2.73954
  0
LINE
  5
63
100
AcDbEntity
  8
0
  6
ByLayer
 62
    0
370
   -1
100
AcDbLine
 10
1.59301
 20
2.73954
 11
1.64262
 21
2.43086
  0
LINE
  5
64
100
AcDbEntity
  8
0
  6
ByLayer
 62
    0
370
   -1
100
AcDbLine
 10
1.64262
 20
2.43086
 11
1.78456
 21
2.15249
  0
LINE
  5
65
100
AcDbEntity
  8
0
  6
ByLayer
 62
    0
370
   -1
100
AcDbLine
 10
1.78456
 20
2.15249
 11
2.00642
 21
1.93063
  0
LINE
  5
66
100
AcDbEntity
  8
0
  6
ByLayer
 62
    0
370
   -1
100
AcDbLine
 10
2.00642
 20
1.93063
 11
2.28479
 21
1.78869
  0
LINE
  5
67
100
AcDbEntity
  8
0
  6
ByLayer
 62
    0
370
   -1
100
AcDbLine
 10
2.28479
 20
1.78869
 11
2.59347
 21
1.74046
  0
LINE
  5
68
100
AcDbEntity
  8
0
  6
ByLayer
 62
    0
370
   -1
100
AcDbLine
 10
2.59347
 20
1.74046
 11
2.90353
 21
1.78869
  0
LINE
  5
69
100
AcDbEntity
  8
0
  6
ByLayer
 62
    0
370
   -1
100
AcDbLine
 10
2.90353
 20
1.78869
 11
3.18189
 21
1.93063
  0
LINE
  5
6A
100
AcDbEntity
  8
0
  6
ByLayer
 62
    0
370
   -1
100
AcDbLine
 10
3.18189
 20
1.93063
 11
3.40376
 21
2.15249
  0
LINE
  5
6B
100
AcDbEntity
  8
0
  6
ByLayer
 62
    0
370
   -1
100
AcDbLine
 10
3.40376
 20
2.15249
 11
3.5457
 21
2.43086
  0
LINE
  5
6C
100
AcDbEntity
  8
0
  6
ByLayer
 62
    0
370
   -1
100
AcDbLine
 10
3.5457
 20
2.43086
 11
3.59392
 21
2.73954
  0
LINE
  5
6D
100
AcDbEntity
  8
0
  6
ByLayer
 62
    0
370
   -1
100
AcDbLine
 10
3.59392
 20
2.73954
 11
3.5457
 21
3.0496
  0
LINE
  5
6E
100
AcDbEntity
  8
0
  6
ByLayer
 62
    0
370
   -1
100
AcDbLine
 10
3.5457
 20
3.0496
 11
3.40376
 21
3.32796
  0
LINE
  5
6F
100
AcDbEntity
  8
0
  6
ByLayer
 62
    0
370
   -1
100
AcDbLine
 10
3.40376
 20
3.32796
 11
3.18189
 21
3.54983
  0
LINE
  5
70
100
AcDbEntity
  8
0
  6
ByLayer
 62
    0
370
   -1
100
AcDbLine
 10
3.18189
 20
3.54983
 11
2.90353
 21
3.69175
  0
LINE
  5
71
100
AcDbEntity
  8
0
  6
ByLayer
 62
    0
370
   -1
100
AcDbLine
 10
2.90353
 20
3.69175
 11
2.59485
 21
3.74001
  0
LINE
  5
72
100
AcDbEntity
  8
0
  6
ByLayer
 62
    0
370
   -1
100
AcDbLine
 10
2.59485
 20
3.74001
 11
2.28479
 21
3.69175
  0
LINE
  5
73
100
AcDbEntity
  8
0
  6
ByLayer
 62
    0
370
   -1
100
AcDbLine
 10
206.358
 20
3.69175
 11
206.08
 21
3.54983
  0
LINE
  5
74
100
AcDbEntity
  8
0
  6
ByLayer
 62
    0
370
   -1
100
AcDbLine
 10
206.08
 20
3.54983
 11
205.858
 21
3.32796
  0
LINE
  5
75
100
AcDbEntity
  8
0
  6
ByLayer
 62
    0
370
   -1
100
AcDbLine
 10
205.858
 20
3.32796
 11
205.716
 21
3.0496
  0
LINE
  5
76
100
AcDbEntity
  8
0
  6
ByLayer
 62
    0
370
   -1
100
AcDbLine
 10
205.716
 20
3.0496
 11
205.668
 21
2.73954
  0
LINE
  5
77
100
AcDbEntity
  8
0
  6
ByLayer
 62
    0
370
   -1
100
AcDbLine
 10
205.668
 20
2.73954
 11
205.716
 21
2.43086
  0
LINE
  5
78
100
AcDbEntity
  8
0
  6
ByLayer
 62
    0
370
   -1
100
AcDbLine
 10
205.716
 20
2.43086
 11
205.858
 21
2.15249
  0
LINE
  5
79
100
AcDbEntity
  8
0
  6
ByLayer
 62
    0
370
   -1
100
AcDbLine
 10
205.858
 20
2.15249
 11
206.08
 21
1.93063
  0
LINE
  5
7A
100
AcDbEntity
  8
0
  6
ByLayer
 62
    0
370
   -1
100
AcDbLine
 10
206.08
 20
1.93063
 11
206.358
 21
1.78869
  0
LINE
  5
7B
100
AcDbEntity
  8
0
  6
ByLayer
 62
    0
370
   -1
100
AcDbLine
 10
206.358
 20
1.78869
 11
206.667
 21
1.74046
  0
LINE
  5
7C
100
AcDbEntity
  8
0
  6
ByLayer
 62
    0
370
   -1
100
AcDbLine
 10
206.667
 20
1.74046
 11
206.976
 21
1.78869
  0
LINE
  5
7D
100
AcDbEntity
  8
0
  6
ByLayer
 62
    0
370
   -1
100
AcDbLine
 10
206.976
 20
1.78869
 11
207.256
 21
1.93063
  0
LINE
  5
7E
100
AcDbEntity
  8
0
  6
ByLayer
 62
    0
370
   -1
100
AcDbLine
 10
207.256
 20
1.93063
 11
207.476
 21
2.15249
  0
LINE
  5
7F
100
AcDbEntity
  8
0
  6
ByLayer
 62
    0
370
   -1
100
AcDbLine
 10
207.476
 20
2.15249
 11
207.618
 21
2.43086
  0
LINE
  5
80
100
AcDbEntity
  8
0
  6
ByLayer
 62
    0
370
   -1
100
AcDbLine
 10
207.618
 20
2.43086
 11
207.668
 21
2.73954
  0
LINE
  5
81
100
AcDbEntity
  8
0
  6
ByLayer
 62
    0
370
   -1
100
AcDbLine
 10
207.668
 20
2.73954
 11
207.618
 21
3.0496
  0
LINE
  5
82
100
AcDbEntity
  8
0
  6
ByLayer
 62
    0
370
   -1
100
AcDbLine
 10
207.618
 20
3.0496
 11
207.476
 21
3.32796
  0
LINE
  5
83
100
AcDbEntity
  8
0
  6
ByLayer
 62
    0
370
   -1
100
AcDbLine
 10
207.476
 20
3.32796
 11
207.256
 21
3.54983
  0
LINE
  5
84
100
AcDbEntity
  8
0
  6
ByLayer
 62
    0
370
   -1
100
AcDbLine
 10
207.256
 20
3.54983
 11
206.976
 21
3.69175
  0
LINE
  5
85
100
AcDbEntity
  8
0
  6
ByLayer
 62
    0
370
   -1
100
AcDbLine
 10
206.976
 20
3.69175
 11
206.667
 21
3.74001
  0
LINE
  5
86
100
AcDbEntity
  8
0
  6
ByLayer
 62
    0
370
   -1
100
AcDbLine
 10
206.667
 20
3.74001
 11
206.358
 21
3.69175
  0
LINE
  5
87
100
AcDbEntity
  8
0
  6
ByLayer
 62
    0
370
   -1
100
AcDbLine
 10
410.432
 20
3.69175
 11
410.154
 21
3.54983
  0
LINE
  5
88
100
AcDbEntity
  8
0
  6
ByLayer
 62
    0
370
   -1
100
AcDbLine
 10
410.154
 20
3.54983
 11
409.931
 21
3.32796
  0
LINE
  5
89
100
AcDbEntity
  8
0
  6
ByLayer
 62
    0
370
   -1
100
AcDbLine
 10
409.931
 20
3.32796
 11
409.79
 21
3.0496
  0
LINE
  5
8A
100
AcDbEntity
  8
0
  6
ByLayer
 62
    0
370
   -1
100
AcDbLine
 10
409.79
 20
3.0496
 11
409.741
 21
2.73954
  0
LINE
  5
8B
100
AcDbEntity
  8
0
  6
ByLayer
 62
    0
370
   -1
100
AcDbLine
 10
409.741
 20
2.73954
 11
409.79
 21
2.43086
  0
LINE
  5
8C
100
AcDbEntity
  8
0
  6
ByLayer
 62
    0
370
   -1
100
AcDbLine
 10
409.79
 20
2.43086
 11
409.931
 21
2.15249
  0
LINE
  5
8D
100
AcDbEntity
  8
0
  6
ByLayer
 62
    0
370
   -1
100
AcDbLine
 10
409.931
 20
2.15249
 11
410.154
 21
1.93063
  0
LINE
  5
8E
100
AcDbEntity
  8
0
  6
ByLayer
 62
    0
370
   -1
100
AcDbLine
 10
410.154
 20
1.93063
 11
410.432
 21
1.78869
  0
LINE
  5
8F
100
AcDbEntity
  8
0
  6
ByLayer
 62
    0
370
   -1
100
AcDbLine
 10
410.432
 20
1.78869
 11
410.739
 21
1.74046
  0
LINE
  5
90
100
AcDbEntity
  8
0
  6
ByLayer
 62
    0
370
   -1
100
AcDbLine
 10
410.739
 20
1.74046
 11
411.05
 21
1.78869
  0
LINE
  5
91
100
AcDbEntity
  8
0
  6
ByLayer
 62
    0
370
   -1
100
AcDbLine
 10
411.05
 20
1.78869
 11
411.328
 21
1.93063
  0
LINE
  5
92
100
AcDbEntity
  8
0
  6
ByLayer
 62
    0
370
   -1
100
AcDbLine
 10
411.328
 20
1.93063
 11
411.551
 21
2.15249
  0
LINE
  5
93
100
AcDbEntity
  8
0
  6
ByLayer
 62
    0
370
   -1
100
AcDbLine
 10
411.551
 20
2.15249
 11
411.692
 21
2.43086
  0
LINE
  5
94
100
AcDbEntity
  8
0
  6
ByLayer
 62
    0
370
   -1
100
AcDbLine
 10
411.692
 20
2.43086
 11
411.741
 21
2.73954
  0
LINE
  5
95
100
AcDbEntity
  8
0
  6
ByLayer
 62
    0
370
   -1
100
AcDbLine
 10
411.741
 20
2.73954
 11
411.692
 21
3.0496
  0
LINE
  5
96
100
AcDbEntity
  8
0
  6
ByLayer
 62
    0
370
   -1
100
AcDbLine
 10
411.692
 20
3.0496
 11
411.551
 21
3.32796
  0
LINE
  5
97
100
AcDbEntity
  8
0
  6
ByLayer
 62
    0
370
   -1
100
AcDbLine
 10
411.551
 20
3.32796
 11
411.328
 21
3.54983
  0
LINE
  5
98
100
AcDbEntity
  8
0
  6
ByLayer
 62
    0
370
   -1
100
AcDbLine
 10
411.328
 20
3.54983
 11
411.05
 21
3.69175
  0
LINE
  5
99
100
AcDbEntity
  8
0
  6
ByLayer
 62
    0
370
   -1
100
AcDbLine
 10
411.05
 20
3.69175
 11
410.739
 21
3.74001
  0
LINE
  5
9A
100
AcDbEntity
  8
0
  6
ByLayer
 62
    0
370
   -1
100
AcDbLine
 10
410.739
 20
3.74001
 11
410.432
 21
3.69175
  0
LINE
  5
9B
100
AcDbEntity
  8
0
  6
ByLayer
 62
    0
370
   -1
100
AcDbLine
 10
349.72
 20
135.976
 11
346.661
 21
142.537
  0
LINE
  5
9C
100
AcDbEntity
  8
0
  6
ByLayer
 62
    0
370
   -1
100
AcDbLine
 10
346.661
 20
142.537
 11
329.395
 21
134.486
  0
LINE
  5
9D
100
AcDbEntity
  8
0
  6
ByLayer
 62
    0
370
   -1
100
AcDbLine
 10
329.395
 20
134.486
 11
326.416
 21
140.874
  0
LINE
  5
9E
100
AcDbEntity
  8
0
  6
ByLayer
 62
    0
370
   -1
100
AcDbLine
 10
326.416
 20
140.874
 11
309.152
 21
132.824
  0
LINE
  5
9F
100
AcDbEntity
  8
0
  6
ByLayer
 62
    0
370
   -1
100
AcDbLine
 10
309.152
 20
132.824
 11
307.139
 21
137.14
  0
LINE
  5
A0
100
AcDbEntity
  8
0
  6
ByLayer
 62
    0
370
   -1
100
AcDbLine
 10
307.139
 20
137.14
 11
289.873
 21
129.089
  0
LINE
  5
A1
100
AcDbEntity
  8
0
  6
ByLayer
 62
    0
370
   -1
100
AcDbLine
 10
289.873
 20
129.089
 11
288.827
 21
131.332
  0
LINE
  5
A2
100
AcDbEntity
  8
0
  6
ByLayer
 62
    0
370
   -1
100
AcDbLine
 10
288.827
 20
131.332
 11
271.56
 21
123.281
  0
LINE
  5
A3
100
AcDbEntity
  8
0
  6
ByLayer
 62
    0
370
   -1
100
AcDbLine
 10
271.56
 20
123.281
 11
272.606
 21
121.037
  0
LINE
  5
A4
100
AcDbEntity
  8
0
  6
ByLayer
 62
    0
370
   -1
100
AcDbLine
 10
272.606
 20
121.037
 11
255.341
 21
112.987
  0
LINE
  5
A5
100
AcDbEntity
  8
0
  6
ByLayer
 62
    0
370
   -1
100
AcDbLine
 10
255.341
 20
112.987
 11
256.307
 21
110.914
  0
LINE
  5
A6
100
AcDbEntity
  8
0
  6
ByLayer
 62
    0
370
   -1
100
AcDbLine
 10
256.307
 20
110.914
 11
239.043
 21
102.864
  0
LINE
  5
A7
100
AcDbEntity
  8
0
  6
ByLayer
 62
    0
370
   -1
100
AcDbLine
 10
239.043
 20
102.864
 11
263.195
 21
51.066
  0
LINE
  5
A8
100
AcDbEntity
  8
0
  6
ByLayer
 62
    0
370
   -1
100
AcDbLine
 10
263.195
 20
51.066
 11
263.197
 21
51.066
  0
LINE
  5
A9
100
AcDbEntity
  8
0
  6
ByLayer
 62
    0
370
   -1
100
AcDbLine
 10
263.197
 20
51.066
 11
264.243
 21
48.8227
  0
LINE
  5
AA
100
AcDbEntity
  8
0
  6
ByLayer
 62
    0
370
   -1
100
AcDbLine
 10
264.243
 20
48.8227
 11
246.976
 21
40.7734
  0
LINE
  5
AB
100
AcDbEntity
  8
0
  6
ByLayer
 62
    0
370
   -1
100
AcDbLine
 10
246.976
 20
40.7734
 11
263.08
 21
6.23976
  0
LINE
  5
AC
100
AcDbEntity
  8
0
  6
ByLayer
 62
    0
370
   -1
100
AcDbLine
 10
263.08
 20
6.23976
 11
280.347
 21
14.2916
  0
LINE
  5
AD
100
AcDbEntity
  8
0
  6
ByLayer
 62
    0
370
   -1
100
AcDbLine
 10
280.347
 20
14.2916
 11
279.299
 21
16.5378
  0
LINE
  5
AE
100
AcDbEntity
  8
0
  6
ByLayer
 62
    0
370
   -1
100
AcDbLine
 10
279.299
 20
16.5378
 11
313.829
 21
32.6388
  0
LINE
  5
AF
100
AcDbEntity
  8
0
  6
ByLayer
 62
    0
370
   -1
100
AcDbLine
 10
313.829
 20
32.6388
 11
311.817
 21
36.9549
  0
LINE
  5
B0
100
AcDbEntity
  8
0
  6
ByLayer
 62
    0
370
   -1
100
AcDbLine
 10
311.817
 20
36.9549
 11
329.081
 21
45.0053
  0
LINE
  5
B1
100
AcDbEntity
  8
0
  6
ByLayer
 62
    0
370
   -1
100
AcDbLine
 10
329.081
 20
45.0053
 11
330.127
 21
42.7605
  0
LINE
  5
B2
100
AcDbEntity
  8
0
  6
ByLayer
 62
    0
370
   -1
100
AcDbLine
 10
330.127
 20
42.7605
 11
347.392
 21
50.8109
  0
LINE
  5
B3
100
AcDbEntity
  8
0
  6
ByLayer
 62
    0
370
   -1
100
AcDbLine
 10
347.392
 20
50.8109
 11
349.406
 21
46.4951
  0
LINE
  5
B4
100
AcDbEntity
  8
0
  6
ByLayer
 62
    0
370
   -1
100
AcDbLine
 10
349.406
 20
46.4951
 11
366.67
 21
54.5454
  0
LINE
  5
B5
100
AcDbEntity
  8
0
  6
ByLayer
 62
    0
370
   -1
100
AcDbLine
 10
366.67
 20
54.5454
 11
369.648
 21
48.1584
  0
LINE
  5
B6
100
AcDbEntity
  8
0
  6
ByLayer
 62
    0
370
   -1
100
AcDbLine
 10
369.648
 20
48.1584
 11
386.916
 21
56.2088
  0
LINE
  5
B7
100
AcDbEntity
  8
0
  6
ByLayer
 62
    0
370
   -1
100
AcDbLine
 10
386.916
 20
56.2088
 11
389.975
 21
49.6478
  0
LINE
  5
B8
100
AcDbEntity
  8
0
  6
ByLayer
 62
    0
370
   -1
100
AcDbLine
 10
389.975
 20
49.6478
 11
407.24
 21
57.7
  0
LINE
  5
B9
100
AcDbEntity
  8
0
  6
ByLayer
 62
    0
370
   -1
100
AcDbLine
 10
407.24
 20
57.7
 11
375.035
 21
126.763
  0
LINE
  5
BA
100
AcDbEntity
  8
0
  6
ByLayer
 62
    0
370
   -1
100
AcDbLine
 10
375.035
 20
126.763
 11
366.984
 21
144.027
  0
LINE
  5
BB
100
AcDbEntity
  8
0
  6
ByLayer
 62
    0
370
   -1
100
AcDbLine
 10
366.984
 20
144.027
 11
349.72
 21
135.976
  0
LINE
  5
BC
100
AcDbEntity
  8
0
  6
ByLayer
 62
    0
370
   -1
100
AcDbLine
 10
25.863
 20
92.232
 11
9.76066
 21
57.7
  0
LINE
  5
BD
100
AcDbEntity
  8
0
  6
ByLayer
 62
    0
370
   -1
100
AcDbLine
 10
9.76066
 20
57.7
 11
27.0275
 21
49.6478
  0
LINE
  5
BE
100
AcDbEntity
  8
0
  6
ByLayer
 62
    0
370
   -1
100
AcDbLine
 10
27.0275
 20
49.6478
 11
30.0867
 21
56.2088
  0
LINE
  5
BF
100
AcDbEntity
  8
0
  6
ByLayer
 62
    0
370
   -1
100
AcDbLine
 10
30.0867
 20
56.2088
 11
47.3523
 21
48.1584
  0
LINE
  5
C0
100
AcDbEntity
  8
0
  6
ByLayer
 62
    0
370
   -1
100
AcDbLine
 10
47.3523
 20
48.1584
 11
50.3301
 21
54.5454
  0
LINE
  5
C1
100
AcDbEntity
  8
0
  6
ByLayer
 62
    0
370
   -1
100
AcDbLine
 10
50.3301
 20
54.5454
 11
67.5954
 21
46.4951
  0
LINE
  5
C2
100
AcDbEntity
  8
0
  6
ByLayer
 62
    0
370
   -1
100
AcDbLine
 10
67.5954
 20
46.4951
 11
69.6087
 21
50.8109
  0
LINE
  5
C3
100
AcDbEntity
  8
0
  6
ByLayer
 62
    0
370
   -1
100
AcDbLine
 10
69.6087
 20
50.8109
 11
86.8729
 21
42.7605
  0
LINE
  5
C4
100
AcDbEntity
  8
0
  6
ByLayer
 62
    0
370
   -1
100
AcDbLine
 10
86.8729
 20
42.7605
 11
87.9203
 21
45.0053
  0
LINE
  5
C5
100
AcDbEntity
  8
0
  6
ByLayer
 62
    0
370
   -1
100
AcDbLine
 10
87.9203
 20
45.0053
 11
105.183
 21
36.9549
  0
LINE
  5
C6
100
AcDbEntity
  8
0
  6
ByLayer
 62
    0
370
   -1
100
AcDbLine
 10
105.183
 20
36.9549
 11
103.171
 21
32.6388
  0
LINE
  5
C7
100
AcDbEntity
  8
0
  6
ByLayer
 62
    0
370
   -1
100
AcDbLine
 10
103.171
 20
32.6388
 11
137.702
 21
16.5378
  0
LINE
  5
C8
100
AcDbEntity
  8
0
  6
ByLayer
 62
    0
370
   -1
100
AcDbLine
 10
137.702
 20
16.5378
 11
136.654
 21
14.2916
  0
LINE
  5
C9
100
AcDbEntity
  8
0
  6
ByLayer
 62
    0
370
   -1
100
AcDbLine
 10
136.654
 20
14.2916
 11
153.922
 21
6.23976
  0
LINE
  5
CA
100
AcDbEntity
  8
0
  6
ByLayer
 62
    0
370
   -1
100
AcDbLine
 10
153.922
 20
6.23976
 11
170.024
 21
40.7734
  0
LINE
  5
CB
100
AcDbEntity
  8
0
  6
ByLayer
 62
    0
370
   -1
100
AcDbLine
 10
170.024
 20
40.7734
 11
152.758
 21
48.8227
  0
LINE
  5
CC
100
AcDbEntity
  8
0
  6
ByLayer
 62
    0
370
   -1
100
AcDbLine
 10
152.758
 20
48.8227
 11
177.957
 21
102.864
  0
LINE
  5
CD
100
AcDbEntity
  8
0
  6
ByLayer
 62
    0
370
   -1
100
AcDbLine
 10
177.957
 20
102.864
 11
160.693
 21
110.914
  0
LINE
  5
CE
100
AcDbEntity
  8
0
  6
ByLayer
 62
    0
370
   -1
100
AcDbLine
 10
160.693
 20
110.914
 11
161.659
 21
112.987
  0
LINE
  5
CF
100
AcDbEntity
  8
0
  6
ByLayer
 62
    0
370
   -1
100
AcDbLine
 10
161.659
 20
112.987
 11
144.394
 21
121.037
  0
LINE
  5
D0
100
AcDbEntity
  8
0
  6
ByLayer
 62
    0
370
   -1
100
AcDbLine
 10
144.394
 20
121.037
 11
145.441
 21
123.281
  0
LINE
  5
D1
100
AcDbEntity
  8
0
  6
ByLayer
 62
    0
370
   -1
100
AcDbLine
 10
145.441
 20
123.281
 11
128.174
 21
131.332
  0
LINE
  5
D2
100
AcDbEntity
  8
0
  6
ByLayer
 62
    0
370
   -1
100
AcDbLine
 10
128.174
 20
131.332
 11
127.127
 21
129.089
  0
LINE
  5
D3
100
AcDbEntity
  8
0
  6
ByLayer
 62
    0
370
   -1
100
AcDbLine
 10
127.127
 20
129.089
 11
109.861
 21
137.14
  0
LINE
  5
D4
100
AcDbEntity
  8
0
  6
ByLayer
 62
    0
370
   -1
100
AcDbLine
 10
109.861
 20
137.14
 11
107.848
 21
132.824
  0
LINE
  5
D5
100
AcDbEntity
  8
0
  6
ByLayer
 62
    0
370
   -1
100
AcDbLine
 10
107.848
 20
132.824
 11
90.5838
 21
140.874
  0
LINE
  5
D6
100
AcDbEntity
  8
0
  6
ByLayer
 62
    0
370
   -1
100
AcDbLine
 10
90.5838
 20
140.874
 11
87.6046
 21
134.486
  0
LINE
  5
D7
100
AcDbEntity
  8
0
  6
ByLayer
 62
    0
370
   -1
100
AcDbLine
 10
87.6046
 20
134.486
 11
70.33929999999999
 21
142.537
  0
LINE
  5
D8
100
AcDbEntity
  8
0
  6
ByLayer
 62
    0
370
   -1
100
AcDbLine
 10
70.33929999999999
 20
142.537
 11
67.28
 21
135.976
  0
LINE
  5
D9
100
AcDbEntity
  8
0
  6
ByLayer
 62
    0
370
   -1
100
AcDbLine
 10
67.28
 20
135.976
 11
50.0158
 21
144.027
  0
LINE
  5
DA
100
AcDbEntity
  8
0
  6
ByLayer
 62
    0
370
   -1
100
AcDbLine
 10
50.0158
 20
144.027
 11
25.863
 21
92.232
  0
LINE
  5
DB
100
AcDbEntity
  8
0
  6
ByLayer
 62
    0
370
   -1
100
AcDbLine
 10
305.777
 20
49.9043
 11
288.513
 21
41.8539
  0
LINE
  5
DC
100
AcDbEntity
  8
0
  6
ByLayer
 62
    0
370
   -1
100
AcDbLine
 10
288.513
 20
41.8539
 11
287.547
 21
43.9251
  0
LINE
  5
DD
100
AcDbEntity
  8
0
  6
ByLayer
 62
    0
370
   -1
100
AcDbLine
 10
287.547
 20
43.9251
 11
304.811
 21
51.974
  0
LINE
  5
DE
100
AcDbEntity
  8
0
  6
ByLayer
 62
    0
370
   -1
100
AcDbLine
 10
304.811
 20
51.974
 11
305.777
 21
49.9043
  0
LINE
  5
DF
100
AcDbEntity
  8
0
  6
ByLayer
 62
    0
370
   -1
100
AcDbLine
 10
129.453
 20
43.9251
 11
128.487
 21
41.8553
  0
LINE
  5
E0
100
AcDbEntity
  8
0
  6
ByLayer
 62
    0
370
   -1
100
AcDbLine
 10
128.487
 20
41.8553
 11
111.223
 21
49.9043
  0
LINE
  5
E1
100
AcDbEntity
  8
0
  6
ByLayer
 62
    0
370
   -1
100
AcDbLine
 10
111.223
 20
49.9043
 11
112.189
 21
51.974
  0
LINE
  5
E2
100
AcDbEntity
  8
0
  6
ByLayer
 62
    0
370
   -1
100
AcDbLine
 10
112.189
 20
51.974
 11
129.453
 21
43.9251
  0
LINE
  5
E3
100
AcDbEntity
  8
0
  6
ByLayer
 62
    0
370
   -1
100
AcDbLine
 10
2.28479
 20
152.874
 11
2.00642
 21
152.732
  0
LINE
  5
E4
100
AcDbEntity
  8
0
  6
ByLayer
 62
    0
370
   -1
100
AcDbLine
 10
2.00642
 20
152.732
 11
1.78456
 21
152.51
  0
LINE
  5
E5
100
AcDbEntity
  8
0
  6
ByLayer
 62
    0
370
   -1
100
AcDbLine
 10
1.78456
 20
152.51
 11
1.64262
 21
152.232
  0
LINE
  5
E6
100
AcDbEntity
  8
0
  6
ByLayer
 62
    0
370
   -1
100
AcDbLine
 10
1.64262
 20
152.232
 11
1.59301
 21
151.923
  0
LINE
  5
E7
100
AcDbEntity
  8
0
  6
ByLayer
 62
    0
370
   -1
100
AcDbLine
 10
1.59301
 20
151.923
 11
1.64262
 21
151.613
  0
LINE
  5
E8
100
AcDbEntity
  8
0
  6
ByLayer
 62
    0
370
   -1
100
AcDbLine
 10
1.64262
 20
151.613
 11
1.78456
 21
151.335
  0
LINE
  5
E9
100
AcDbEntity
  8
0
  6
ByLayer
 62
    0
370
   -1
100
AcDbLine
 10
1.78456
 20
151.335
 11
2.00642
 21
151.113
  0
LINE
  5
EA
100
AcDbEntity
  8
0
  6
ByLayer
 62
    0
370
   -1
100
AcDbLine
 10
2.00642
 20
151.113
 11
2.28479
 21
150.971
  0
LINE
  5
EB
100
AcDbEntity
  8
0
  6
ByLayer
 62
    0
370
   -1
100
AcDbLine
 10
2.28479
 20
150.971
 11
2.59347
 21
150.923
  0
LINE
  5
EC
100
AcDbEntity
  8
0
  6
ByLayer
 62
    0
370
   -1
100
AcDbLine
 10
2.59347
 20
150.923
 11
2.90353
 21
150.971
  0
LINE
  5
ED
100
AcDbEntity
  8
0
  6
ByLayer
 62
    0
370
   -1
100
AcDbLine
 10
2.90353
 20
150.971
 11
3.18189
 21
151.113
  0
LINE
  5
EE
100
AcDbEntity
  8
0
  6
ByLayer
 62
    0
370
   -1
100
AcDbLine
 10
3.18189
 20
151.113
 11
3.40376
 21
151.335
  0
LINE
  5
EF
100
AcDbEntity
  8
0
  6
ByLayer
 62
    0
370
   -1
100
AcDbLine
 10
3.40376
 20
151.335
 11
3.5457
 21
151.613
  0
LINE
  5
F0
100
AcDbEntity
  8
0
  6
ByLayer
 62
    0
370
   -1
100
AcDbLine
 10
3.5457
 20
151.613
 11
3.59392
 21
151.922
  0
LINE
  5
F1
100
AcDbEntity
  8
0
  6
ByLayer
 62
    0
370
   -1
100
AcDbLine
 10
3.59392
 20
151.922
 11
3.5457
 21
152.232
  0
LINE
  5
F2
100
AcDbEntity
  8
0
  6
ByLayer
 62
    0
370
   -1
100
AcDbLine
 10
3.5457
 20
152.232
 11
3.40376
 21
152.51
  0
LINE
  5
F3
100
AcDbEntity
  8
0
  6
ByLayer
 62
    0
370
   -1
100
AcDbLine
 10
3.40376
 20
152.51
 11
3.18189
 21
152.732
  0
LINE
  5
F4
100
AcDbEntity
  8
0
  6
ByLayer
 62
    0
370
   -1
100
AcDbLine
 10
3.18189
 20
152.732
 11
2.90353
 21
152.874
  0
LINE
  5
F5
100
AcDbEntity
  8
0
  6
ByLayer
 62
    0
370
   -1
100
AcDbLine
 10
2.90353
 20
152.874
 11
2.59485
 21
152.922
  0
LINE
  5
F6
100
AcDbEntity
  8
0
  6
ByLayer
 62
    0
370
   -1
100
AcDbLine
 10
2.59485
 20
152.922
 11
2.28479
 21
152.874
  0
LINE
  5
F7
100
AcDbEntity
  8
0
  6
ByLayer
 62
    0
370
   -1
100
AcDbLine
 10
410.432
 20
152.874
 11
410.154
 21
152.732
  0
LINE
  5
F8
100
AcDbEntity
  8
0
  6
ByLayer
 62
    0
370
   -1
100
AcDbLine
 10
410.154
 20
152.732
 11
409.931
 21
152.51
  0
LINE
  5
F9
100
AcDbEntity
  8
0
  6
ByLayer
 62
    0
370
   -1
100
AcDbLine
 10
409.931
 20
152.51
 11
409.79
 21
152.232
  0
LINE
  5
FA
100
AcDbEntity
  8
0
  6
ByLayer
 62
    0
370
   -1
100
AcDbLine
 10
409.79
 20
152.232
 11
409.741
 21
151.923
  0
LINE
  5
FB
100
AcDbEntity
  8
0
  6
ByLayer
 62
    0
370
   -1
100
AcDbLine
 10
409.741
 20
151.923
 11
409.79
 21
151.613
  0
LINE
  5
FC
100
AcDbEntity
  8
0
  6
ByLayer
 62
    0
370
   -1
100
AcDbLine
 10
409.79
 20
151.613
 11
409.931
 21
151.335
  0
LINE
  5
FD
100
AcDbEntity
  8
0
  6
ByLayer
 62
    0
370
   -1
100
AcDbLine
 10
409.931
 20
151.335
 11
410.154
 21
151.113
  0
LINE
  5
FE
100
AcDbEntity
  8
0
  6
ByLayer
 62
    0
370
   -1
100
AcDbLine
 10
410.154
 20
151.113
 11
410.432
 21
150.971
  0
LINE
  5
FF
100
AcDbEntity
  8
0
  6
ByLayer
 62
    0
370
   -1
100
AcDbLine
 10
410.432
 20
150.971
 11
410.739
 21
150.923
  0
LINE
  5
100
100
AcDbEntity
  8
0
  6
ByLayer
 62
    0
370
   -1
100
AcDbLine
 10
410.739
 20
150.923
 11
411.05
 21
150.971
  0
LINE
  5
101
100
AcDbEntity
  8
0
  6
ByLayer
 62
    0
370
   -1
100
AcDbLine
 10
411.05
 20
150.971
 11
411.328
 21
151.113
  0
LINE
  5
102
100
AcDbEntity
  8
0
  6
ByLayer
 62
    0
370
   -1
100
AcDbLine
 10
411.328
 20
151.113
 11
411.551
 21
151.335
  0
LINE
  5
103
100
AcDbEntity
  8
0
  6
ByLayer
 62
    0
370
   -1
100
AcDbLine
 10
411.551
 20
151.335
 11
411.692
 21
151.613
  0
LINE
  5
104
100
AcDbEntity
  8
0
  6
ByLayer
 62
    0
370
   -1
100
AcDbLine
 10
411.692
 20
151.613
 11
411.741
 21
151.922
  0
LINE
  5
105
100
AcDbEntity
  8
0
  6
ByLayer
 62
    0
370
   -1
100
AcDbLine
 10
411.741
 20
151.922
 11
411.692
 21
152.232
  0
LINE
  5
106
100
AcDbEntity
  8
0
  6
ByLayer
 62
    0
370
   -1
100
AcDbLine
 10
411.692
 20
152.232
 11
411.551
 21
152.51
  0
LINE
  5
107
100
AcDbEntity
  8
0
  6
ByLayer
 62
    0
370
   -1
100
AcDbLine
 10
411.551
 20
152.51
 11
411.328
 21
152.732
  0
LINE
  5
108
100
AcDbEntity
  8
0
  6
ByLayer
 62
    0
370
   -1
100
AcDbLine
 10
411.328
 20
152.732
 11
411.05
 21
152.874
  0
LINE
  5
109
100
AcDbEntity
  8
0
  6
ByLayer
 62
    0
370
   -1
100
AcDbLine
 10
411.05
 20
152.874
 11
410.739
 21
152.922
  0
LINE
  5
10A
100
AcDbEntity
  8
0
  6
ByLayer
 62
    0
370
   -1
100
AcDbLine
 10
410.739
 20
152.922
 11
410.432
 21
152.874
  0
LINE
  5
10B
100
AcDbEntity
  8
0
  6
ByLayer
 62
    0
370
   -1
100
AcDbLine
 10
206.358
 20
152.874
 11
206.08
 21
152.732
  0
LINE
  5
10C
100
AcDbEntity
  8
0
  6
ByLayer
 62
    0
370
   -1
100
AcDbLine
 10
206.08
 20
152.732
 11
205.858
 21
152.51
  0
LINE
  5
10D
100
AcDbEntity
  8
0
  6
ByLayer
 62
    0
370
   -1
100
AcDbLine
 10
205.858
 20
152.51
 11
205.716
 21
152.232
  0
LINE
  5
10E
100
AcDbEntity
  8
0
  6
ByLayer
 62
    0
370
   -1
100
AcDbLine
 10
205.716
 20
152.232
 11
205.668
 21
151.923
  0
LINE
  5
10F
100
AcDbEntity
  8
0
  6
ByLayer
 62
    0
370
   -1
100
AcDbLine
 10
205.668
 20
151.923
 11
205.716
 21
151.613
  0
LINE
  5
110
100
AcDbEntity
  8
0
  6
ByLayer
 62
    0
370
   -1
100
AcDbLine
 10
205.716
 20
151.613
 11
205.858
 21
151.335
  0
LINE
  5
111
100
AcDbEntity
  8
0
  6
ByLayer
 62
    0
370
   -1
100
AcDbLine
 10
205.858
 20
151.335
 11
206.08
 21
151.113
  0
LINE
  5
112
100
AcDbEntity
  8
0
  6
ByLayer
 62
    0
370
   -1
100
AcDbLine
 10
206.08
 20
151.113
 11
206.358
 21
150.971
  0
LINE
  5
113
100
AcDbEntity
  8
0
  6
ByLayer
 62
    0
370
   -1
100
AcDbLine
 10
206.358
 20
150.971
 11
206.667
 21
150.923
  0
LINE
  5
114
100
AcDbEntity
  8
0
  6
ByLayer
 62
    0
370
   -1
100
AcDbLine
 10
206.667
 20
150.923
 11
206.976
 21
150.971
  0
LINE
  5
115
100
AcDbEntity
  8
0
  6
ByLayer
 62
    0
370
   -1
100
AcDbLine
 10
206.976
 20
150.971
 11
207.256
 21
151.113
  0
LINE
  5
116
100
AcDbEntity
  8
0
  6
ByLayer
 62
    0
370
   -1
100
AcDbLine
 10
207.256
 20
151.113
 11
207.476
 21
151.335
  0
LINE
  5
117
100
AcDbEntity
  8
0
  6
ByLayer
 62
    0
370
   -1
100
AcDbLine
 10
207.476
 20
151.335
 11
207.618
 21
151.613
  0
LINE
  5
118
100
AcDbEntity
  8
0
  6
ByLayer
 62
    0
370
   -1
100
AcDbLine
 10
207.618
 20
151.613
 11
207.668
 21
151.922
  0
LINE
  5
119
100
AcDbEntity
  8
0
  6
ByLayer
 62
    0
370
   -1
100
AcDbLine
 10
207.668
 20
151.922
 11
207.618
 21
152.232
  0
LINE
  5
11A
100
AcDbEntity
  8
0
  6
ByLayer
 62
    0
370
   -1
100
AcDbLine
 10
207.618
 20
152.232
 11
207.476
 21
152.51
  0
LINE
  5
11B
100
AcDbEntity
  8
0
  6
ByLayer
 62
    0
370
   -1
100
AcDbLine
 10
207.476
 20
152.51
 11
207.256
 21
152.732
  0
LINE
  5
11C
100
AcDbEntity
  8
0
  6
ByLayer
 62
    0
370
   -1
100
AcDbLine
 10
207.256
 20
152.732
 11
206.976
 21
152.874
  0
LINE
  5
11D
100
AcDbEntity
  8
0
  6
ByLayer
 62
    0
370
   -1
100
AcDbLine
 10
206.976
 20
152.874
 11
206.667
 21
152.922
  0
LINE
  5
11E
100
AcDbEntity
  8
0
  6
ByLayer
 62
    0
370
   -1
100
AcDbLine
 10
206.667
 20
152.922
 11
206.358
 21
152.874
  0
INSERT
  5
11F
100
AcDbEntity
  8
SwitchPlateL
  6
ByLayer
 62
  256
370
   -1
100
AcDbBlockReference
  2
a91e6dd3f1ff8ce7c12aa567afa1bdc7c28cb6b0_switch
 10
0
 20
0
 30
0
 41
1
 42
1
 43
0
 50
0
 70
    1
 71
    1
 44
0
 45
0
  0
ENDBLK
  5
54
330
52
100
AcDbEntity
  8
0
100
AcDbBlockEnd
  0
BLOCK
  5
56
330
55
100
AcDbEntity
  8
0
100
AcDbBlockBegin
  2
a91e6dd3f1ff8ce7c12aa567afa1bdc7c28cb6b0_switch
 70
    0
 10
0
 20
0
  3
a91e6dd3f1ff8ce7c12aa567afa1bdc7c28cb6b0_switch
  1

  0
LINE
  5
120
100
AcDbEntity
  8
SwitchPlateL
  6
ByLayer
 62
    7
370
   -1
100
AcDbLine
 10
0.1901692
 20
154.660779
 11
413.3350846
 21
154.660779
  0
LINE
  5
121
100
AcDbEntity
  8
SwitchPlateL
  6
ByLayer
 62
    7
370
   -1
100
AcDbLine
 10
413.3350846
 20
154.660779
 11
413.3350846
 21
0.479558
  0
LINE
  5
122
100
AcDbEntity
  8
SwitchPlateL
  6
ByLayer
 62
    7
370
   -1
100
AcDbLine
 10
413.3350846
 20
0.479558
 11
0.1901692
 21
0.479558
  0
LINE
  5
123
100
AcDbEntity
  8
SwitchPlateL
  6
ByLayer
 62
    7
370
   -1
100
AcDbLine
 10
0.1901692
 20
0.479558
 11
0.1901692
 21
154.660779
  0
LINE
  5
124
100
AcDbEntity
  8
SwitchPlateL
  6
ByLayer
 62
    7
370
   -1
100
AcDbLine
 10
2.3798746
 20
3.931529
 11
2.1015046
 21
3.789609
  0
LINE
  5
125
100
AcDbEntity
  8
SwitchPlateL
  6
ByLayer
 62
    7
370
   -1
100
AcDbLine
 10
2.1015046
 20
3.789609
 11
1.8796446
 21
3.567739
  0
LINE
  5
126
100
AcDbEntity
  8
SwitchPlateL
  6
ByLayer
 62
    7
370
   -1
100
AcDbLine
 10
1.8796446
 20
3.567739
 11
1.7377046
 21
3.289379
  0
LINE
  5
127
100
AcDbEntity
  8
SwitchPlateL
  6
ByLayer
 62
    7
370
   -1
100
AcDbLine
 10
1.7377046
 20
3.289379
 11
1.6880946
 21
2.979319
  0
LINE
  5
128
100
AcDbEntity
  8
SwitchPlateL
  6
ByLayer
 62
    7
370
   -1
100
AcDbLine
 10
1.6880946
 20
2.979319
 11
1.7377046
 21
2.670639
  0
LINE
  5
129
100
AcDbEntity
  8
SwitchPlateL
  6
ByLayer
 62
    7
370
   -1
100
AcDbLine
 10
1.7377046
 20
2.670639
 11
1.8796446
 21
2.392269
  0
LINE
  5
12A
100
AcDbEntity
  8
SwitchPlateL
  6
ByLayer
 62
    7
370
   -1
100
AcDbLine
 10
1.8796446
 20
2.392269
 11
2.1015046
 21
2.170409
  0
LINE
  5
12B
100
AcDbEntity
  8
SwitchPlateL
  6
ByLayer
 62
    7
370
   -1
100
AcDbLine
 10
2.1015046
 20
2.170409
 11
2.3798746
 21
2.028469
  0
LINE
  5
12C
100
AcDbEntity
  8
SwitchPlateL
  6
ByLayer
 62
    7
370
   -1
100
AcDbLine
 10
2.3798746
 20
2.028469
 11
2.6885546
 21
1.980239
  0
LINE
  5
12D
100
AcDbEntity
  8
SwitchPlateL
  6
ByLayer
 62
    7
370
   -1
100
AcDbLine
 10
2.6885546
 20
1.980239
 11
2.9986146
 21
2.028469
  0
LINE
  5
12E
100
AcDbEntity
  8
SwitchPlateL
  6
ByLayer
 62
    7
370
   -1
100
AcDbLine
 10
2.9986146
 20
2.028469
 11
3.2769746
 21
2.170409
  0
LINE
  5
12F
100
AcDbEntity
  8
SwitchPlateL
  6
ByLayer
 62
    7
370
   -1
100
AcDbLine
 10
3.2769746
 20
2.170409
 11
3.4988446
 21
2.392269
  0
LINE
  5
130
100
AcDbEntity
  8
SwitchPlateL
  6
ByLayer
 62
    7
370
   -1
100
AcDbLine
 10
3.4988446
 20
2.392269
 11
3.6407846
 21
2.670639
  0
LINE
  5
131
100
AcDbEntity
  8
SwitchPlateL
  6
ByLayer
 62
    7
370
   -1
100
AcDbLine
 10
3.6407846
 20
2.670639
 11
3.6890046
 21
2.979319
  0
LINE
  5
132
100
AcDbEntity
  8
SwitchPlateL
  6
ByLayer
 62
    7
370
   -1
100
AcDbLine
 10
3.6890046
 20
2.979319
 11
3.6407846
 21
3.289379
  0
LINE
  5
133
100
AcDbEntity
  8
SwitchPlateL
  6
ByLayer
 62
    7
370
   -1
100
AcDbLine
 10
3.6407846
 20
3.289379
 11
3.4988446
 21
3.567739
  0
LINE
  5
134
100
AcDbEntity
  8
SwitchPlateL
  6
ByLayer
 62
    7
370
   -1
100
AcDbLine
 10
3.4988446
 20
3.567739
 11
3.2769746
 21
3.789609
  0
LINE
  5
135
100
AcDbEntity
  8
SwitchPlateL
  6
ByLayer
 62
    7
370
   -1
100
AcDbLine
 10
3.2769746
 20
3.789609
 11
2.9986146
 21
3.931529
  0
LINE
  5
136
100
AcDbEntity
  8
SwitchPlateL
  6
ByLayer
 62
    7
370
   -1
100
AcDbLine
 10
2.9986146
 20
3.931529
 11
2.6899346
 21
3.979789
  0
LINE
  5
137
100
AcDbEntity
  8
SwitchPlateL
  6
ByLayer
 62
    7
370
   -1
100
AcDbLine
 10
2.6899346
 20
3.979789
 11
2.3798746
 21
3.931529
  0
LINE
  5
138
100
AcDbEntity
  8
SwitchPlateL
  6
ByLayer
 62
    7
370
   -1
100
AcDbLine
 10
206.4530846
 20
3.931529
 11
206.1750846
 21
3.789609
  0
LINE
  5
139
100
AcDbEntity
  8
SwitchPlateL
  6
ByLayer
 62
    7
370
   -1
100
AcDbLine
 10
206.1750846
 20
3.789609
 11
205.9530846
 21
3.567739
  0
LINE
  5
13A
100
AcDbEntity
  8
SwitchPlateL
  6
ByLayer
 62
    7
370
   -1
100
AcDbLine
 10
205.9530846
 20
3.567739
 11
205.8110846
 21
3.289379
  0
LINE
  5
13B
100
AcDbEntity
  8
SwitchPlateL
  6
ByLayer
 62
    7
370
   -1
100
AcDbLine
 10
205.8110846
 20
3.289379
 11
205.7630846
 21
2.979319
  0
LINE
  5
13C
100
AcDbEntity
  8
SwitchPlateL
  6
ByLayer
 62
    7
370
   -1
100
AcDbLine
 10
205.7630846
 20
2.979319
 11
205.8110846
 21
2.670639
  0
LINE
  5
13D
100
AcDbEntity
  8
SwitchPlateL
  6
ByLayer
 62
    7
370
   -1
100
AcDbLine
 10
205.8110846
 20
2.670639
 11
205.9530846
 21
2.392269
  0
LINE
  5
13E
100
AcDbEntity
  8
SwitchPlateL
  6
ByLayer
 62
    7
370
   -1
100
AcDbLine
 10
205.9530846
 20
2.392269
 11
206.1750846
 21
2.170409
  0
LINE
  5
13F
100
AcDbEntity
  8
SwitchPlateL
  6
ByLayer
 62
    7
370
   -1
100
AcDbLine
 10
206.1750846
 20
2.170409
 11
206.4530846
 21
2.028469
  0
LINE
  5
140
100
AcDbEntity
  8
SwitchPlateL
  6
ByLayer
 62
    7
370
   -1
100
AcDbLine
 10
206.4530846
 20
2.028469
 11
206.7620846
 21
1.980239
  0
LINE
  5
141
100
AcDbEntity
  8
SwitchPlateL
  6
ByLayer
 62
    7
370
   -1
100
AcDbLine
 10
206.7620846
 20
1.980239
 11
207.0710846
 21
2.028469
  0
LINE
  5
142
100
AcDbEntity
  8
SwitchPlateL
  6
ByLayer
 62
    7
370
   -1
100
AcDbLine
 10
207.0710846
 20
2.028469
 11
207.3510846
 21
2.170409
  0
LINE
  5
143
100
AcDbEntity
  8
SwitchPlateL
  6
ByLayer
 62
    7
370
   -1
100
AcDbLine
 10
207.3510846
 20
2.170409
 11
207.5710846
 21
2.392269
  0
LINE
  5
144
100
AcDbEntity
  8
SwitchPlateL
  6
ByLayer
 62
    7
370
   -1
100
AcDbLine
 10
207.5710846
 20
2.392269
 11
207.7130846
 21
2.670639
  0
LINE
  5
145
100
AcDbEntity
  8
SwitchPlateL
  6
ByLayer
 62
    7
370
   -1
100
AcDbLine
 10
207.7130846
 20
2.670639
 11
207.7630846
 21
2.979319
  0
LINE
  5
146
100
AcDbEntity
  8
SwitchPlateL
  6
ByLayer
 62
    7
370
   -1
100
AcDbLine
 10
207.7630846
 20
2.979319
 11
207.7130846
 21
3.289379
  0
LINE
  5
147
100
AcDbEntity
  8
SwitchPlateL
  6
ByLayer
 62
    7
370
   -1
100
AcDbLine
 10
207.7130846
 20
3.289379
 11
207.5710846
 21
3.567739
  0
LINE
  5
148
100
AcDbEntity
  8
SwitchPlateL
  6
ByLayer
 62
    7
370
   -1
100
AcDbLine
 10
207.5710846
 20
3.567739
 11
207.3510846
 21
3.789609
  0
LINE
  5
149
100
AcDbEntity
  8
SwitchPlateL
  6
ByLayer
 62
    7
370
   -1
100
AcDbLine
 10
207.3510846
 20
3.789609
 11
207.0710846
 21
3.931529
  0
LINE
  5
14A
100
AcDbEntity
  8
SwitchPlateL
  6
ByLayer
 62
    7
370
   -1
100
AcDbLine
 10
207.0710846
 20
3.931529
 11
206.7620846
 21
3.979789
  0
LINE
  5
14B
100
AcDbEntity
  8
SwitchPlateL
  6
ByLayer
 62
    7
370
   -1
100
AcDbLine
 10
206.7620846
 20
3.979789
 11
206.4530846
 21
3.931529
  0
LINE
  5
14C
100
AcDbEntity
  8
SwitchPlateL
  6
ByLayer
 62
    7
370
   -1
100
AcDbLine
 10
410.5270846
 20
3.931529
 11
410.2490846
 21
3.789609
  0
LINE
  5
14D
100
AcDbEntity
  8
SwitchPlateL
  6
ByLayer
 62
    7
370
   -1
100
AcDbLine
 10
410.2490846
 20
3.789609
 11
410.0260846
 21
3.567739
  0
LINE
  5
14E
100
AcDbEntity
  8
SwitchPlateL
  6
ByLayer
 62
    7
370
   -1
100
AcDbLine
 10
410.0260846
 20
3.567739
 11
409.8850846
 21
3.289379
  0
LINE
  5
14F
100
AcDbEntity
  8
SwitchPlateL
  6
ByLayer
 62
    7
370
   -1
100
AcDbLine
 10
409.8850846
 20
3.289379
 11
409.8360846
 21
2.979319
  0
LINE
  5
150
100
AcDbEntity
  8
SwitchPlateL
  6
ByLayer
 62
    7
370
   -1
100
AcDbLine
 10
409.8360846
 20
2.979319
 11
409.8850846
 21
2.670639
  0
LINE
  5
151
100
AcDbEntity
  8
SwitchPlateL
  6
ByLayer
 62
    7
370
   -1
100
AcDbLine
 10
409.8850846
 20
2.670639
 11
410.0260846
 21
2.392269
  0
LINE
  5
152
100
AcDbEntity
  8
SwitchPlateL
  6
ByLayer
 62
    7
370
   -1
100
AcDbLine
 10
410.0260846
 20
2.392269
 11
410.2490846
 21
2.170409
  0
LINE
  5
153
100
AcDbEntity
  8
SwitchPlateL
  6
ByLayer
 62
    7
370
   -1
100
AcDbLine
 10
410.2490846
 20
2.170409
 11
410.5270846
 21
2.028469
  0
LINE
  5
154
100
AcDbEntity
  8
SwitchPlateL
  6
ByLayer
 62
    7
370
   -1
100
AcDbLine
 10
410.5270846
 20
2.028469
 11
410.8340846
 21
1.980239
  0
LINE
  5
155
100
AcDbEntity
  8
SwitchPlateL
  6
ByLayer
 62
    7
370
   -1
100
AcDbLine
 10
410.8340846
 20
1.980239
 11
411.1450846
 21
2.028469
  0
LINE
  5
156
100
AcDbEntity
  8
SwitchPlateL
  6
ByLayer
 62
    7
370
   -1
100
AcDbLine
 10
411.1450846
 20
2.028469
 11
411.4230846
 21
2.170409
  0
LINE
  5
157
100
AcDbEntity
  8
SwitchPlateL
  6
ByLayer
 62
    7
370
   -1
100
AcDbLine
 10
411.4230846
 20
2.170409
 11
411.6460846
 21
2.392269
  0
LINE
  5
158
100
AcDbEntity
  8
SwitchPlateL
  6
ByLayer
 62
    7
370
   -1
100
AcDbLine
 10
411.6460846
 20
2.392269
 11
411.7870846
 21
2.670639
  0
LINE
  5
159
100
AcDbEntity
  8
SwitchPlateL
  6
ByLayer
 62
    7
370
   -1
100
AcDbLine
 10
411.7870846
 20
2.670639
 11
411.8360846
 21
2.979319
  0
LINE
  5
15A
100
AcDbEntity
  8
SwitchPlateL
  6
ByLayer
 62
    7
370
   -1
100
AcDbLine
 10
411.8360846
 20
2.979319
 11
411.7870846
 21
3.289379
  0
LINE
  5
15B
100
AcDbEntity
  8
SwitchPlateL
  6
ByLayer
 62
    7
370
   -1
100
AcDbLine
 10
411.7870846
 20
3.289379
 11
411.6460846
 21
3.567739
  0
LINE
  5
15C
100
AcDbEntity
  8
SwitchPlateL
  6
ByLayer
 62
    7
370
   -1
100
AcDbLine
 10
411.6460846
 20
3.567739
 11
411.4230846
 21
3.789609
  0
LINE
  5
15D
100
AcDbEntity
  8
SwitchPlateL
  6
ByLayer
 62
    7
370
   -1
100
AcDbLine
 10
411.4230846
 20
3.789609
 11
411.1450846
 21
3.931529
  0
LINE
  5
15E
100
AcDbEntity
  8
SwitchPlateL
  6
ByLayer
 62
    7
370
   -1
100
AcDbLine
 10
411.1450846
 20
3.931529
 11
410.8340846
 21
3.979789
  0
LINE
  5
15F
100
AcDbEntity
  8
SwitchPlateL
  6
ByLayer
 62
    7
370
   -1
100
AcDbLine
 10
410.8340846
 20
3.979789
 11
410.5270846
 21
3.931529
  0
LINE
  5
160
100
AcDbEntity
  8
SwitchPlateL
  6
ByLayer
 62
    7
370
   -1
100
AcDbLine
 10
258.4800846
 20
22.525379
 11
264.3960846
 21
9.836429000000001
  0
LINE
  5
161
100
AcDbEntity
  8
SwitchPlateL
  6
ByLayer
 62
    7
370
   -1
100
AcDbLine
 10
264.3960846
 20
9.836429000000001
 11
277.0850846
 21
15.753779
  0
LINE
  5
162
100
AcDbEntity
  8
SwitchPlateL
  6
ByLayer
 62
    7
370
   -1
100
AcDbLine
 10
277.0850846
 20
15.753779
 11
271.1680846
 21
28.441279
  0
LINE
  5
163
100
AcDbEntity
  8
SwitchPlateL
  6
ByLayer
 62
    7
370
   -1
100
AcDbLine
 10
271.1680846
 20
28.441279
 11
258.4800846
 21
22.525379
  0
LINE
  5
164
100
AcDbEntity
  8
SwitchPlateL
  6
ByLayer
 62
    7
370
   -1
100
AcDbLine
 10
140.1070846
 20
15.753779
 11
152.7940846
 21
9.836429000000001
  0
LINE
  5
165
100
AcDbEntity
  8
SwitchPlateL
  6
ByLayer
 62
    7
370
   -1
100
AcDbLine
 10
152.7940846
 20
9.836429000000001
 11
158.7110846
 21
22.525379
  0
LINE
  5
166
100
AcDbEntity
  8
SwitchPlateL
  6
ByLayer
 62
    7
370
   -1
100
AcDbLine
 10
158.7110846
 20
22.525379
 11
146.0220846
 21
28.441279
  0
LINE
  5
167
100
AcDbEntity
  8
SwitchPlateL
  6
ByLayer
 62
    7
370
   -1
100
AcDbLine
 10
146.0220846
 20
28.441279
 11
140.1070846
 21
15.753779
  0
LINE
  5
168
100
AcDbEntity
  8
SwitchPlateL
  6
ByLayer
 62
    7
370
   -1
100
AcDbLine
 10
298.0230846
 20
42.075679
 11
299.3870846
 21
39.147279
  0
LINE
  5
169
100
AcDbEntity
  8
SwitchPlateL
  6
ByLayer
 62
    7
370
   -1
100
AcDbLine
 10
299.3870846
 20
39.147279
 11
298.0050846
 21
38.502379
  0
LINE
  5
16A
100
AcDbEntity
  8
SwitchPlateL
  6
ByLayer
 62
    7
370
   -1
100
AcDbLine
 10
298.0050846
 20
38.502379
 11
296.0190846
 21
42.763279
  0
LINE
  5
16B
100
AcDbEntity
  8
SwitchPlateL
  6
ByLayer
 62
    7
370
   -1
100
AcDbLine
 10
296.0190846
 20
42.763279
 11
283.3300846
 21
36.846079
  0
LINE
  5
16C
100
AcDbEntity
  8
SwitchPlateL
  6
ByLayer
 62
    7
370
   -1
100
AcDbLine
 10
283.3300846
 20
36.846079
 11
285.3160846
 21
32.586479
  0
LINE
  5
16D
100
AcDbEntity
  8
SwitchPlateL
  6
ByLayer
 62
    7
370
   -1
100
AcDbLine
 10
285.3160846
 20
32.586479
 11
283.9350846
 21
31.941579
  0
LINE
  5
16E
100
AcDbEntity
  8
SwitchPlateL
  6
ByLayer
 62
    7
370
   -1
100
AcDbLine
 10
283.9350846
 20
31.941579
 11
282.5690846
 21
34.869879
  0
LINE
  5
16F
100
AcDbEntity
  8
SwitchPlateL
  6
ByLayer
 62
    7
370
   -1
100
AcDbLine
 10
282.5690846
 20
34.869879
 11
276.4520846
 21
32.017379
  0
LINE
  5
170
100
AcDbEntity
  8
SwitchPlateL
  6
ByLayer
 62
    7
370
   -1
100
AcDbLine
 10
276.4520846
 20
32.017379
 11
277.8180846
 21
29.090379
  0
LINE
  5
171
100
AcDbEntity
  8
SwitchPlateL
  6
ByLayer
 62
    7
370
   -1
100
AcDbLine
 10
277.8180846
 20
29.090379
 11
277.0700846
 21
28.743179
  0
LINE
  5
172
100
AcDbEntity
  8
SwitchPlateL
  6
ByLayer
 62
    7
370
   -1
100
AcDbLine
 10
277.0700846
 20
28.743179
 11
278.2520846
 21
26.203379
  0
LINE
  5
173
100
AcDbEntity
  8
SwitchPlateL
  6
ByLayer
 62
    7
370
   -1
100
AcDbLine
 10
278.2520846
 20
26.203379
 11
279.0000846
 21
26.551979
  0
LINE
  5
174
100
AcDbEntity
  8
SwitchPlateL
  6
ByLayer
 62
    7
370
   -1
100
AcDbLine
 10
279.0000846
 20
26.551979
 11
281.6500846
 21
20.868979
  0
LINE
  5
175
100
AcDbEntity
  8
SwitchPlateL
  6
ByLayer
 62
    7
370
   -1
100
AcDbLine
 10
281.6500846
 20
20.868979
 11
283.2130846
 21
21.597979
  0
LINE
  5
176
100
AcDbEntity
  8
SwitchPlateL
  6
ByLayer
 62
    7
370
   -1
100
AcDbLine
 10
283.2130846
 20
21.597979
 11
283.7200846
 21
20.510679
  0
LINE
  5
177
100
AcDbEntity
  8
SwitchPlateL
  6
ByLayer
 62
    7
370
   -1
100
AcDbLine
 10
283.7200846
 20
20.510679
 11
286.7120846
 21
21.905279
  0
LINE
  5
178
100
AcDbEntity
  8
SwitchPlateL
  6
ByLayer
 62
    7
370
   -1
100
AcDbLine
 10
286.7120846
 20
21.905279
 11
286.2050846
 21
22.992579
  0
LINE
  5
179
100
AcDbEntity
  8
SwitchPlateL
  6
ByLayer
 62
    7
370
   -1
100
AcDbLine
 10
286.2050846
 20
22.992579
 11
287.7670846
 21
23.721579
  0
LINE
  5
17A
100
AcDbEntity
  8
SwitchPlateL
  6
ByLayer
 62
    7
370
   -1
100
AcDbLine
 10
287.7670846
 20
23.721579
 11
285.8780846
 21
27.772979
  0
LINE
  5
17B
100
AcDbEntity
  8
SwitchPlateL
  6
ByLayer
 62
    7
370
   -1
100
AcDbLine
 10
285.8780846
 20
27.772979
 11
287.2620846
 21
28.417879
  0
LINE
  5
17C
100
AcDbEntity
  8
SwitchPlateL
  6
ByLayer
 62
    7
370
   -1
100
AcDbLine
 10
287.2620846
 20
28.417879
 11
289.2480846
 21
24.158379
  0
LINE
  5
17D
100
AcDbEntity
  8
SwitchPlateL
  6
ByLayer
 62
    7
370
   -1
100
AcDbLine
 10
289.2480846
 20
24.158379
 11
301.9350846
 21
30.075679
  0
LINE
  5
17E
100
AcDbEntity
  8
SwitchPlateL
  6
ByLayer
 62
    7
370
   -1
100
AcDbLine
 10
301.9350846
 20
30.075679
 11
299.9490846
 21
34.333779
  0
LINE
  5
17F
100
AcDbEntity
  8
SwitchPlateL
  6
ByLayer
 62
    7
370
   -1
100
AcDbLine
 10
299.9490846
 20
34.333779
 11
301.3310846
 21
34.978779
  0
LINE
  5
180
100
AcDbEntity
  8
SwitchPlateL
  6
ByLayer
 62
    7
370
   -1
100
AcDbLine
 10
301.3310846
 20
34.978779
 11
303.2210846
 21
30.927279
  0
LINE
  5
181
100
AcDbEntity
  8
SwitchPlateL
  6
ByLayer
 62
    7
370
   -1
100
AcDbLine
 10
303.2210846
 20
30.927279
 11
304.7840846
 21
31.656279
  0
LINE
  5
182
100
AcDbEntity
  8
SwitchPlateL
  6
ByLayer
 62
    7
370
   -1
100
AcDbLine
 10
304.7840846
 20
31.656279
 11
305.2900846
 21
30.570379
  0
LINE
  5
183
100
AcDbEntity
  8
SwitchPlateL
  6
ByLayer
 62
    7
370
   -1
100
AcDbLine
 10
305.2900846
 20
30.570379
 11
308.2810846
 21
31.963579
  0
LINE
  5
184
100
AcDbEntity
  8
SwitchPlateL
  6
ByLayer
 62
    7
370
   -1
100
AcDbLine
 10
308.2810846
 20
31.963579
 11
307.7750846
 21
33.050879
  0
LINE
  5
185
100
AcDbEntity
  8
SwitchPlateL
  6
ByLayer
 62
    7
370
   -1
100
AcDbLine
 10
307.7750846
 20
33.050879
 11
309.3380846
 21
33.779879
  0
LINE
  5
186
100
AcDbEntity
  8
SwitchPlateL
  6
ByLayer
 62
    7
370
   -1
100
AcDbLine
 10
309.3380846
 20
33.779879
 11
306.6880846
 21
39.462979
  0
LINE
  5
187
100
AcDbEntity
  8
SwitchPlateL
  6
ByLayer
 62
    7
370
   -1
100
AcDbLine
 10
306.6880846
 20
39.462979
 11
307.4360846
 21
39.811579
  0
LINE
  5
188
100
AcDbEntity
  8
SwitchPlateL
  6
ByLayer
 62
    7
370
   -1
100
AcDbLine
 10
307.4360846
 20
39.811579
 11
306.2520846
 21
42.348379
  0
LINE
  5
189
100
AcDbEntity
  8
SwitchPlateL
  6
ByLayer
 62
    7
370
   -1
100
AcDbLine
 10
306.2520846
 20
42.348379
 11
305.5040846
 21
42.001279
  0
LINE
  5
18A
100
AcDbEntity
  8
SwitchPlateL
  6
ByLayer
 62
    7
370
   -1
100
AcDbLine
 10
305.5040846
 20
42.001279
 11
304.1400846
 21
44.928279
  0
LINE
  5
18B
100
AcDbEntity
  8
SwitchPlateL
  6
ByLayer
 62
    7
370
   -1
100
AcDbLine
 10
304.1400846
 20
44.928279
 11
298.0230846
 21
42.075679
  0
LINE
  5
18C
100
AcDbEntity
  8
SwitchPlateL
  6
ByLayer
 62
    7
370
   -1
100
AcDbLine
 10
115.1390846
 20
45.322279
 11
113.5750846
 21
46.051179
  0
LINE
  5
18D
100
AcDbEntity
  8
SwitchPlateL
  6
ByLayer
 62
    7
370
   -1
100
AcDbLine
 10
113.5750846
 20
46.051179
 11
110.9250846
 21
40.369679
  0
LINE
  5
18E
100
AcDbEntity
  8
SwitchPlateL
  6
ByLayer
 62
    7
370
   -1
100
AcDbLine
 10
110.9250846
 20
40.369679
 11
110.1770846
 21
40.718179
  0
LINE
  5
18F
100
AcDbEntity
  8
SwitchPlateL
  6
ByLayer
 62
    7
370
   -1
100
AcDbLine
 10
110.1770846
 20
40.718179
 11
108.9930846
 21
38.179979
  0
LINE
  5
190
100
AcDbEntity
  8
SwitchPlateL
  6
ByLayer
 62
    7
370
   -1
100
AcDbLine
 10
108.9930846
 20
38.179979
 11
109.7420846
 21
37.831379
  0
LINE
  5
191
100
AcDbEntity
  8
SwitchPlateL
  6
ByLayer
 62
    7
370
   -1
100
AcDbLine
 10
109.7420846
 20
37.831379
 11
108.3770846
 21
34.904279
  0
LINE
  5
192
100
AcDbEntity
  8
SwitchPlateL
  6
ByLayer
 62
    7
370
   -1
100
AcDbLine
 10
108.3770846
 20
34.904279
 11
114.4940846
 21
32.050379
  0
LINE
  5
193
100
AcDbEntity
  8
SwitchPlateL
  6
ByLayer
 62
    7
370
   -1
100
AcDbLine
 10
114.4940846
 20
32.050379
 11
115.8600846
 21
34.978779
  0
LINE
  5
194
100
AcDbEntity
  8
SwitchPlateL
  6
ByLayer
 62
    7
370
   -1
100
AcDbLine
 10
115.8600846
 20
34.978779
 11
117.2420846
 21
34.333779
  0
LINE
  5
195
100
AcDbEntity
  8
SwitchPlateL
  6
ByLayer
 62
    7
370
   -1
100
AcDbLine
 10
117.2420846
 20
34.333779
 11
115.2550846
 21
30.075679
  0
LINE
  5
196
100
AcDbEntity
  8
SwitchPlateL
  6
ByLayer
 62
    7
370
   -1
100
AcDbLine
 10
115.2550846
 20
30.075679
 11
127.9440846
 21
24.158379
  0
LINE
  5
197
100
AcDbEntity
  8
SwitchPlateL
  6
ByLayer
 62
    7
370
   -1
100
AcDbLine
 10
127.9440846
 20
24.158379
 11
129.9300846
 21
28.416479
  0
LINE
  5
198
100
AcDbEntity
  8
SwitchPlateL
  6
ByLayer
 62
    7
370
   -1
100
AcDbLine
 10
129.9300846
 20
28.416479
 11
131.3120846
 21
27.772979
  0
LINE
  5
199
100
AcDbEntity
  8
SwitchPlateL
  6
ByLayer
 62
    7
370
   -1
100
AcDbLine
 10
131.3120846
 20
27.772979
 11
129.9460846
 21
24.846079
  0
LINE
  5
19A
100
AcDbEntity
  8
SwitchPlateL
  6
ByLayer
 62
    7
370
   -1
100
AcDbLine
 10
129.9460846
 20
24.846079
 11
136.0650846
 21
21.993479
  0
LINE
  5
19B
100
AcDbEntity
  8
SwitchPlateL
  6
ByLayer
 62
    7
370
   -1
100
AcDbLine
 10
136.0650846
 20
21.993479
 11
137.4290846
 21
24.920479
  0
LINE
  5
19C
100
AcDbEntity
  8
SwitchPlateL
  6
ByLayer
 62
    7
370
   -1
100
AcDbLine
 10
137.4290846
 20
24.920479
 11
138.1770846
 21
24.571779
  0
LINE
  5
19D
100
AcDbEntity
  8
SwitchPlateL
  6
ByLayer
 62
    7
370
   -1
100
AcDbLine
 10
138.1770846
 20
24.571779
 11
139.3610846
 21
27.110179
  0
LINE
  5
19E
100
AcDbEntity
  8
SwitchPlateL
  6
ByLayer
 62
    7
370
   -1
100
AcDbLine
 10
139.3610846
 20
27.110179
 11
138.6120846
 21
27.457379
  0
LINE
  5
19F
100
AcDbEntity
  8
SwitchPlateL
  6
ByLayer
 62
    7
370
   -1
100
AcDbLine
 10
138.6120846
 20
27.457379
 11
141.2630846
 21
33.140479
  0
LINE
  5
1A0
100
AcDbEntity
  8
SwitchPlateL
  6
ByLayer
 62
    7
370
   -1
100
AcDbLine
 10
141.2630846
 20
33.140479
 11
139.7000846
 21
33.869379
  0
LINE
  5
1A1
100
AcDbEntity
  8
SwitchPlateL
  6
ByLayer
 62
    7
370
   -1
100
AcDbLine
 10
139.7000846
 20
33.869379
 11
140.2070846
 21
34.956679
  0
LINE
  5
1A2
100
AcDbEntity
  8
SwitchPlateL
  6
ByLayer
 62
    7
370
   -1
100
AcDbLine
 10
140.2070846
 20
34.956679
 11
137.2150846
 21
36.351179
  0
LINE
  5
1A3
100
AcDbEntity
  8
SwitchPlateL
  6
ByLayer
 62
    7
370
   -1
100
AcDbLine
 10
137.2150846
 20
36.351179
 11
136.7080846
 21
35.263979
  0
LINE
  5
1A4
100
AcDbEntity
  8
SwitchPlateL
  6
ByLayer
 62
    7
370
   -1
100
AcDbLine
 10
136.7080846
 20
35.263979
 11
135.1440846
 21
35.993079
  0
LINE
  5
1A5
100
AcDbEntity
  8
SwitchPlateL
  6
ByLayer
 62
    7
370
   -1
100
AcDbLine
 10
135.1440846
 20
35.993079
 11
133.2550846
 21
31.941579
  0
LINE
  5
1A6
100
AcDbEntity
  8
SwitchPlateL
  6
ByLayer
 62
    7
370
   -1
100
AcDbLine
 10
133.2550846
 20
31.941579
 11
131.8740846
 21
32.586479
  0
LINE
  5
1A7
100
AcDbEntity
  8
SwitchPlateL
  6
ByLayer
 62
    7
370
   -1
100
AcDbLine
 10
131.8740846
 20
32.586479
 11
133.8610846
 21
36.846079
  0
LINE
  5
1A8
100
AcDbEntity
  8
SwitchPlateL
  6
ByLayer
 62
    7
370
   -1
100
AcDbLine
 10
133.8610846
 20
36.846079
 11
121.1710846
 21
42.763279
  0
LINE
  5
1A9
100
AcDbEntity
  8
SwitchPlateL
  6
ByLayer
 62
    7
370
   -1
100
AcDbLine
 10
121.1710846
 20
42.763279
 11
119.1850846
 21
38.503779
  0
LINE
  5
1AA
100
AcDbEntity
  8
SwitchPlateL
  6
ByLayer
 62
    7
370
   -1
100
AcDbLine
 10
119.1850846
 20
38.503779
 11
117.8030846
 21
39.147279
  0
LINE
  5
1AB
100
AcDbEntity
  8
SwitchPlateL
  6
ByLayer
 62
    7
370
   -1
100
AcDbLine
 10
117.8030846
 20
39.147279
 11
119.6920846
 21
43.198579
  0
LINE
  5
1AC
100
AcDbEntity
  8
SwitchPlateL
  6
ByLayer
 62
    7
370
   -1
100
AcDbLine
 10
119.6920846
 20
43.198579
 11
118.1300846
 21
43.927779
  0
LINE
  5
1AD
100
AcDbEntity
  8
SwitchPlateL
  6
ByLayer
 62
    7
370
   -1
100
AcDbLine
 10
118.1300846
 20
43.927779
 11
118.6360846
 21
45.016479
  0
LINE
  5
1AE
100
AcDbEntity
  8
SwitchPlateL
  6
ByLayer
 62
    7
370
   -1
100
AcDbLine
 10
118.6360846
 20
45.016479
 11
115.6450846
 21
46.409579
  0
LINE
  5
1AF
100
AcDbEntity
  8
SwitchPlateL
  6
ByLayer
 62
    7
370
   -1
100
AcDbLine
 10
115.6450846
 20
46.409579
 11
115.1390846
 21
45.322279
  0
LINE
  5
1B0
100
AcDbEntity
  8
SwitchPlateL
  6
ByLayer
 62
    7
370
   -1
100
AcDbLine
 10
250.4280846
 20
39.790779
 11
256.3450846
 21
27.101879
  0
LINE
  5
1B1
100
AcDbEntity
  8
SwitchPlateL
  6
ByLayer
 62
    7
370
   -1
100
AcDbLine
 10
256.3450846
 20
27.101879
 11
269.0330846
 21
33.019179
  0
LINE
  5
1B2
100
AcDbEntity
  8
SwitchPlateL
  6
ByLayer
 62
    7
370
   -1
100
AcDbLine
 10
269.0330846
 20
33.019179
 11
263.1170846
 21
45.706879
  0
LINE
  5
1B3
100
AcDbEntity
  8
SwitchPlateL
  6
ByLayer
 62
    7
370
   -1
100
AcDbLine
 10
263.1170846
 20
45.706879
 11
250.4280846
 21
39.790779
  0
LINE
  5
1B4
100
AcDbEntity
  8
SwitchPlateL
  6
ByLayer
 62
    7
370
   -1
100
AcDbLine
 10
148.1570846
 20
33.019179
 11
160.8460846
 21
27.101879
  0
LINE
  5
1B5
100
AcDbEntity
  8
SwitchPlateL
  6
ByLayer
 62
    7
370
   -1
100
AcDbLine
 10
160.8460846
 20
27.101879
 11
166.7620846
 21
39.790779
  0
LINE
  5
1B6
100
AcDbEntity
  8
SwitchPlateL
  6
ByLayer
 62
    7
370
   -1
100
AcDbLine
 10
166.7620846
 20
39.790779
 11
154.0730846
 21
45.706879
  0
LINE
  5
1B7
100
AcDbEntity
  8
SwitchPlateL
  6
ByLayer
 62
    7
370
   -1
100
AcDbLine
 10
154.0730846
 20
45.706879
 11
148.1570846
 21
33.019179
  0
LINE
  5
1B8
100
AcDbEntity
  8
SwitchPlateL
  6
ByLayer
 62
    7
370
   -1
100
AcDbLine
 10
266.6480846
 20
50.086179
 11
272.5640846
 21
37.398579
  0
LINE
  5
1B9
100
AcDbEntity
  8
SwitchPlateL
  6
ByLayer
 62
    7
370
   -1
100
AcDbLine
 10
272.5640846
 20
37.398579
 11
285.2510846
 21
43.314679
  0
LINE
  5
1BA
100
AcDbEntity
  8
SwitchPlateL
  6
ByLayer
 62
    7
370
   -1
100
AcDbLine
 10
285.2510846
 20
43.314679
 11
279.3350846
 21
56.003379
  0
LINE
  5
1BB
100
AcDbEntity
  8
SwitchPlateL
  6
ByLayer
 62
    7
370
   -1
100
AcDbLine
 10
279.3350846
 20
56.003379
 11
266.6480846
 21
50.086179
  0
LINE
  5
1BC
100
AcDbEntity
  8
SwitchPlateL
  6
ByLayer
 62
    7
370
   -1
100
AcDbLine
 10
131.9390846
 20
43.314679
 11
144.6260846
 21
37.398579
  0
LINE
  5
1BD
100
AcDbEntity
  8
SwitchPlateL
  6
ByLayer
 62
    7
370
   -1
100
AcDbLine
 10
144.6260846
 20
37.398579
 11
150.5440846
 21
50.086179
  0
LINE
  5
1BE
100
AcDbEntity
  8
SwitchPlateL
  6
ByLayer
 62
    7
370
   -1
100
AcDbLine
 10
150.5440846
 20
50.086179
 11
137.8560846
 21
56.003379
  0
LINE
  5
1BF
100
AcDbEntity
  8
SwitchPlateL
  6
ByLayer
 62
    7
370
   -1
100
AcDbLine
 10
137.8560846
 20
56.003379
 11
131.9390846
 21
43.314679
  0
LINE
  5
1C0
100
AcDbEntity
  8
SwitchPlateL
  6
ByLayer
 62
    7
370
   -1
100
AcDbLine
 10
307.2160846
 20
53.238979
 11
313.1330846
 21
40.551679
  0
LINE
  5
1C1
100
AcDbEntity
  8
SwitchPlateL
  6
ByLayer
 62
    7
370
   -1
100
AcDbLine
 10
313.1330846
 20
40.551679
 11
325.8200846
 21
46.467379
  0
LINE
  5
1C2
100
AcDbEntity
  8
SwitchPlateL
  6
ByLayer
 62
    7
370
   -1
100
AcDbLine
 10
325.8200846
 20
46.467379
 11
319.9030846
 21
59.156479
  0
LINE
  5
1C3
100
AcDbEntity
  8
SwitchPlateL
  6
ByLayer
 62
    7
370
   -1
100
AcDbLine
 10
319.9030846
 20
59.156479
 11
307.2160846
 21
53.238979
  0
LINE
  5
1C4
100
AcDbEntity
  8
SwitchPlateL
  6
ByLayer
 62
    7
370
   -1
100
AcDbLine
 10
91.3706846
 20
46.467379
 11
104.0580846
 21
40.551679
  0
LINE
  5
1C5
100
AcDbEntity
  8
SwitchPlateL
  6
ByLayer
 62
    7
370
   -1
100
AcDbLine
 10
104.0580846
 20
40.551679
 11
109.9760846
 21
53.238979
  0
LINE
  5
1C6
100
AcDbEntity
  8
SwitchPlateL
  6
ByLayer
 62
    7
370
   -1
100
AcDbLine
 10
109.9760846
 20
53.238979
 11
97.2867846
 21
59.156479
  0
LINE
  5
1C7
100
AcDbEntity
  8
SwitchPlateL
  6
ByLayer
 62
    7
370
   -1
100
AcDbLine
 10
97.2867846
 20
59.156479
 11
91.3706846
 21
46.467379
  0
LINE
  5
1C8
100
AcDbEntity
  8
SwitchPlateL
  6
ByLayer
 62
    7
370
   -1
100
AcDbLine
 10
325.5270846
 20
59.044679
 11
331.4430846
 21
46.357379
  0
LINE
  5
1C9
100
AcDbEntity
  8
SwitchPlateL
  6
ByLayer
 62
    7
370
   -1
100
AcDbLine
 10
331.4430846
 20
46.357379
 11
344.1320846
 21
52.274479
  0
LINE
  5
1CA
100
AcDbEntity
  8
SwitchPlateL
  6
ByLayer
 62
    7
370
   -1
100
AcDbLine
 10
344.1320846
 20
52.274479
 11
338.2160846
 21
64.96217899999999
  0
LINE
  5
1CB
100
AcDbEntity
  8
SwitchPlateL
  6
ByLayer
 62
    7
370
   -1
100
AcDbLine
 10
338.2160846
 20
64.96217899999999
 11
325.5270846
 21
59.044679
  0
LINE
  5
1CC
100
AcDbEntity
  8
SwitchPlateL
  6
ByLayer
 62
    7
370
   -1
100
AcDbLine
 10
73.05798460000001
 20
52.274479
 11
85.74708460000001
 21
46.357379
  0
LINE
  5
1CD
100
AcDbEntity
  8
SwitchPlateL
  6
ByLayer
 62
    7
370
   -1
100
AcDbLine
 10
85.74708460000001
 20
46.357379
 11
91.66318460000001
 21
59.044679
  0
LINE
  5
1CE
100
AcDbEntity
  8
SwitchPlateL
  6
ByLayer
 62
    7
370
   -1
100
AcDbLine
 10
91.66318460000001
 20
59.044679
 11
78.97408460000001
 21
64.96217899999999
  0
LINE
  5
1CF
100
AcDbEntity
  8
SwitchPlateL
  6
ByLayer
 62
    7
370
   -1
100
AcDbLine
 10
78.97408460000001
 20
64.96217899999999
 11
73.05798460000001
 21
52.274479
  0
LINE
  5
1D0
100
AcDbEntity
  8
SwitchPlateL
  6
ByLayer
 62
    7
370
   -1
100
AcDbLine
 10
282.9470846
 20
60.209179
 11
288.8630846
 21
47.520079
  0
LINE
  5
1D1
100
AcDbEntity
  8
SwitchPlateL
  6
ByLayer
 62
    7
370
   -1
100
AcDbLine
 10
288.8630846
 20
47.520079
 11
301.5520846
 21
53.437579
  0
LINE
  5
1D2
100
AcDbEntity
  8
SwitchPlateL
  6
ByLayer
 62
    7
370
   -1
100
AcDbLine
 10
301.5520846
 20
53.437579
 11
295.6350846
 21
66.12527899999999
  0
LINE
  5
1D3
100
AcDbEntity
  8
SwitchPlateL
  6
ByLayer
 62
    7
370
   -1
100
AcDbLine
 10
295.6350846
 20
66.12527899999999
 11
282.9470846
 21
60.209179
  0
LINE
  5
1D4
100
AcDbEntity
  8
SwitchPlateL
  6
ByLayer
 62
    7
370
   -1
100
AcDbLine
 10
115.6390846
 20
53.437579
 11
128.3270846
 21
47.520079
  0
LINE
  5
1D5
100
AcDbEntity
  8
SwitchPlateL
  6
ByLayer
 62
    7
370
   -1
100
AcDbLine
 10
128.3270846
 20
47.520079
 11
134.2440846
 21
60.209179
  0
LINE
  5
1D6
100
AcDbEntity
  8
SwitchPlateL
  6
ByLayer
 62
    7
370
   -1
100
AcDbLine
 10
134.2440846
 20
60.209179
 11
121.5570846
 21
66.12527899999999
  0
LINE
  5
1D7
100
AcDbEntity
  8
SwitchPlateL
  6
ByLayer
 62
    7
370
   -1
100
AcDbLine
 10
121.5570846
 20
66.12527899999999
 11
115.6390846
 21
53.437579
  0
LINE
  5
1D8
100
AcDbEntity
  8
SwitchPlateL
  6
ByLayer
 62
    7
370
   -1
100
AcDbLine
 10
344.8060846
 20
62.779179
 11
350.7220846
 21
50.091879
  0
LINE
  5
1D9
100
AcDbEntity
  8
SwitchPlateL
  6
ByLayer
 62
    7
370
   -1
100
AcDbLine
 10
350.7220846
 20
50.091879
 11
363.4100846
 21
56.007579
  0
LINE
  5
1DA
100
AcDbEntity
  8
SwitchPlateL
  6
ByLayer
 62
    7
370
   -1
100
AcDbLine
 10
363.4100846
 20
56.007579
 11
357.4940846
 21
68.696679
  0
LINE
  5
1DB
100
AcDbEntity
  8
SwitchPlateL
  6
ByLayer
 62
    7
370
   -1
100
AcDbLine
 10
357.4940846
 20
68.696679
 11
344.8060846
 21
62.779179
  0
LINE
  5
1DC
100
AcDbEntity
  8
SwitchPlateL
  6
ByLayer
 62
    7
370
   -1
100
AcDbLine
 10
53.7807846
 20
56.007579
 11
66.46848460000001
 21
50.091879
  0
LINE
  5
1DD
100
AcDbEntity
  8
SwitchPlateL
  6
ByLayer
 62
    7
370
   -1
100
AcDbLine
 10
66.46848460000001
 20
50.091879
 11
72.3855846
 21
62.779179
  0
LINE
  5
1DE
100
AcDbEntity
  8
SwitchPlateL
  6
ByLayer
 62
    7
370
   -1
100
AcDbLine
 10
72.3855846
 20
62.779179
 11
59.6965846
 21
68.696679
  0
LINE
  5
1DF
100
AcDbEntity
  8
SwitchPlateL
  6
ByLayer
 62
    7
370
   -1
100
AcDbLine
 10
59.6965846
 20
68.696679
 11
53.7807846
 21
56.007579
  0
LINE
  5
1E0
100
AcDbEntity
  8
SwitchPlateL
  6
ByLayer
 62
    7
370
   -1
100
AcDbLine
 10
365.0510846
 20
64.44247899999999
 11
370.9670846
 21
51.753479
  0
LINE
  5
1E1
100
AcDbEntity
  8
SwitchPlateL
  6
ByLayer
 62
    7
370
   -1
100
AcDbLine
 10
370.9670846
 20
51.753479
 11
383.6530846
 21
57.670979
  0
LINE
  5
1E2
100
AcDbEntity
  8
SwitchPlateL
  6
ByLayer
 62
    7
370
   -1
100
AcDbLine
 10
383.6530846
 20
57.670979
 11
377.7370846
 21
70.35857899999999
  0
LINE
  5
1E3
100
AcDbEntity
  8
SwitchPlateL
  6
ByLayer
 62
    7
370
   -1
100
AcDbLine
 10
377.7370846
 20
70.35857899999999
 11
365.0510846
 21
64.44247899999999
  0
LINE
  5
1E4
100
AcDbEntity
  8
SwitchPlateL
  6
ByLayer
 62
    7
370
   -1
100
AcDbLine
 10
33.5359846
 20
57.670979
 11
46.2249846
 21
51.753479
  0
LINE
  5
1E5
100
AcDbEntity
  8
SwitchPlateL
  6
ByLayer
 62
    7
370
   -1
100
AcDbLine
 10
46.2249846
 20
51.753479
 11
52.1421846
 21
64.44247899999999
  0
LINE
  5
1E6
100
AcDbEntity
  8
SwitchPlateL
  6
ByLayer
 62
    7
370
   -1
100
AcDbLine
 10
52.1421846
 20
64.44247899999999
 11
39.4530846
 21
70.35857899999999
  0
LINE
  5
1E7
100
AcDbEntity
  8
SwitchPlateL
  6
ByLayer
 62
    7
370
   -1
100
AcDbLine
 10
39.4530846
 20
70.35857899999999
 11
33.5359846
 21
57.670979
  0
LINE
  5
1E8
100
AcDbEntity
  8
SwitchPlateL
  6
ByLayer
 62
    7
370
   -1
100
AcDbLine
 10
385.3740846
 20
65.933679
 11
391.2900846
 21
53.244679
  0
LINE
  5
1E9
100
AcDbEntity
  8
SwitchPlateL
  6
ByLayer
 62
    7
370
   -1
100
AcDbLine
 10
391.2900846
 20
53.244679
 11
403.9800846
 21
59.160679
  0
LINE
  5
1EA
100
AcDbEntity
  8
SwitchPlateL
  6
ByLayer
 62
    7
370
   -1
100
AcDbLine
 10
403.9800846
 20
59.160679
 11
398.0600846
 21
71.849479
  0
LINE
  5
1EB
100
AcDbEntity
  8
SwitchPlateL
  6
ByLayer
 62
    7
370
   -1
100
AcDbLine
 10
398.0600846
 20
71.849479
 11
385.3740846
 21
65.933679
  0
LINE
  5
1EC
100
AcDbEntity
  8
SwitchPlateL
  6
ByLayer
 62
    7
370
   -1
100
AcDbLine
 10
13.2112846
 20
59.160679
 11
25.9001846
 21
53.244679
  0
LINE
  5
1ED
100
AcDbEntity
  8
SwitchPlateL
  6
ByLayer
 62
    7
370
   -1
100
AcDbLine
 10
25.9001846
 20
53.244679
 11
31.8161846
 21
65.933679
  0
LINE
  5
1EE
100
AcDbEntity
  8
SwitchPlateL
  6
ByLayer
 62
    7
370
   -1
100
AcDbLine
 10
31.8161846
 20
65.933679
 11
19.1285846
 21
71.849479
  0
LINE
  5
1EF
100
AcDbEntity
  8
SwitchPlateL
  6
ByLayer
 62
    7
370
   -1
100
AcDbLine
 10
19.1285846
 20
71.849479
 11
13.2112846
 21
59.160679
  0
LINE
  5
1F0
100
AcDbEntity
  8
SwitchPlateL
  6
ByLayer
 62
    7
370
   -1
100
AcDbLine
 10
258.5970846
 20
67.351479
 11
264.5130846
 21
54.662779
  0
LINE
  5
1F1
100
AcDbEntity
  8
SwitchPlateL
  6
ByLayer
 62
    7
370
   -1
100
AcDbLine
 10
264.5130846
 20
54.662779
 11
277.2020846
 21
60.579979
  0
LINE
  5
1F2
100
AcDbEntity
  8
SwitchPlateL
  6
ByLayer
 62
    7
370
   -1
100
AcDbLine
 10
277.2020846
 20
60.579979
 11
271.2850846
 21
73.267579
  0
LINE
  5
1F3
100
AcDbEntity
  8
SwitchPlateL
  6
ByLayer
 62
    7
370
   -1
100
AcDbLine
 10
271.2850846
 20
73.267579
 11
258.5970846
 21
67.351479
  0
LINE
  5
1F4
100
AcDbEntity
  8
SwitchPlateL
  6
ByLayer
 62
    7
370
   -1
100
AcDbLine
 10
139.9890846
 20
60.579979
 11
152.6770846
 21
54.662779
  0
LINE
  5
1F5
100
AcDbEntity
  8
SwitchPlateL
  6
ByLayer
 62
    7
370
   -1
100
AcDbLine
 10
152.6770846
 20
54.662779
 11
158.5940846
 21
67.351479
  0
LINE
  5
1F6
100
AcDbEntity
  8
SwitchPlateL
  6
ByLayer
 62
    7
370
   -1
100
AcDbLine
 10
158.5940846
 20
67.351479
 11
145.9070846
 21
73.267579
  0
LINE
  5
1F7
100
AcDbEntity
  8
SwitchPlateL
  6
ByLayer
 62
    7
370
   -1
100
AcDbLine
 10
145.9070846
 20
73.267579
 11
139.9890846
 21
60.579979
  0
LINE
  5
1F8
100
AcDbEntity
  8
SwitchPlateL
  6
ByLayer
 62
    7
370
   -1
100
AcDbLine
 10
299.1650846
 20
70.504679
 11
305.0810846
 21
57.815579
  0
LINE
  5
1F9
100
AcDbEntity
  8
SwitchPlateL
  6
ByLayer
 62
    7
370
   -1
100
AcDbLine
 10
305.0810846
 20
57.815579
 11
317.7700846
 21
63.731679
  0
LINE
  5
1FA
100
AcDbEntity
  8
SwitchPlateL
  6
ByLayer
 62
    7
370
   -1
100
AcDbLine
 10
317.7700846
 20
63.731679
 11
311.8530846
 21
76.420379
  0
LINE
  5
1FB
100
AcDbEntity
  8
SwitchPlateL
  6
ByLayer
 62
    7
370
   -1
100
AcDbLine
 10
311.8530846
 20
76.420379
 11
299.1650846
 21
70.504679
  0
LINE
  5
1FC
100
AcDbEntity
  8
SwitchPlateL
  6
ByLayer
 62
    7
370
   -1
100
AcDbLine
 10
99.41998460000001
 20
63.731679
 11
112.1090846
 21
57.815579
  0
LINE
  5
1FD
100
AcDbEntity
  8
SwitchPlateL
  6
ByLayer
 62
    7
370
   -1
100
AcDbLine
 10
112.1090846
 20
57.815579
 11
118.0260846
 21
70.504679
  0
LINE
  5
1FE
100
AcDbEntity
  8
SwitchPlateL
  6
ByLayer
 62
    7
370
   -1
100
AcDbLine
 10
118.0260846
 20
70.504679
 11
105.3370846
 21
76.420379
  0
LINE
  5
1FF
100
AcDbEntity
  8
SwitchPlateL
  6
ByLayer
 62
    7
370
   -1
100
AcDbLine
 10
105.3370846
 20
76.420379
 11
99.41998460000001
 21
63.731679
  0
LINE
  5
200
100
AcDbEntity
  8
SwitchPlateL
  6
ByLayer
 62
    7
370
   -1
100
AcDbLine
 10
317.4760846
 20
76.311679
 11
323.3940846
 21
63.621279
  0
LINE
  5
201
100
AcDbEntity
  8
SwitchPlateL
  6
ByLayer
 62
    7
370
   -1
100
AcDbLine
 10
323.3940846
 20
63.621279
 11
336.0810846
 21
69.53877900000001
  0
LINE
  5
202
100
AcDbEntity
  8
SwitchPlateL
  6
ByLayer
 62
    7
370
   -1
100
AcDbLine
 10
336.0810846
 20
69.53877900000001
 11
330.1640846
 21
82.227479
  0
LINE
  5
203
100
AcDbEntity
  8
SwitchPlateL
  6
ByLayer
 62
    7
370
   -1
100
AcDbLine
 10
330.1640846
 20
82.227479
 11
317.4760846
 21
76.311679
  0
LINE
  5
204
100
AcDbEntity
  8
SwitchPlateL
  6
ByLayer
 62
    7
370
   -1
100
AcDbLine
 10
81.10978460000001
 20
69.53877900000001
 11
93.7974846
 21
63.621279
  0
LINE
  5
205
100
AcDbEntity
  8
SwitchPlateL
  6
ByLayer
 62
    7
370
   -1
100
AcDbLine
 10
93.7974846
 20
63.621279
 11
99.71498460000001
 21
76.311679
  0
LINE
  5
206
100
AcDbEntity
  8
SwitchPlateL
  6
ByLayer
 62
    7
370
   -1
100
AcDbLine
 10
99.71498460000001
 20
76.311679
 11
87.02588460000001
 21
82.227479
  0
LINE
  5
207
100
AcDbEntity
  8
SwitchPlateL
  6
ByLayer
 62
    7
370
   -1
100
AcDbLine
 10
87.02588460000001
 20
82.227479
 11
81.10978460000001
 21
69.53877900000001
  0
LINE
  5
208
100
AcDbEntity
  8
SwitchPlateL
  6
ByLayer
 62
    7
370
   -1
100
AcDbLine
 10
274.8950846
 20
77.47337899999999
 11
280.8110846
 21
64.78577900000001
  0
LINE
  5
209
100
AcDbEntity
  8
SwitchPlateL
  6
ByLayer
 62
    7
370
   -1
100
AcDbLine
 10
280.8110846
 20
64.78577900000001
 11
293.5000846
 21
70.70147899999999
  0
LINE
  5
20A
100
AcDbEntity
  8
SwitchPlateL
  6
ByLayer
 62
    7
370
   -1
100
AcDbLine
 10
293.5000846
 20
70.70147899999999
 11
287.5840846
 21
83.390579
  0
LINE
  5
20B
100
AcDbEntity
  8
SwitchPlateL
  6
ByLayer
 62
    7
370
   -1
100
AcDbLine
 10
287.5840846
 20
83.390579
 11
274.8950846
 21
77.47337899999999
  0
LINE
  5
20C
100
AcDbEntity
  8
SwitchPlateL
  6
ByLayer
 62
    7
370
   -1
100
AcDbLine
 10
123.6900846
 20
70.70147899999999
 11
136.3790846
 21
64.78577900000001
  0
LINE
  5
20D
100
AcDbEntity
  8
SwitchPlateL
  6
ByLayer
 62
    7
370
   -1
100
AcDbLine
 10
136.3790846
 20
64.78577900000001
 11
142.2960846
 21
77.47337899999999
  0
LINE
  5
20E
100
AcDbEntity
  8
SwitchPlateL
  6
ByLayer
 62
    7
370
   -1
100
AcDbLine
 10
142.2960846
 20
77.47337899999999
 11
129.6070846
 21
83.390579
  0
LINE
  5
20F
100
AcDbEntity
  8
SwitchPlateL
  6
ByLayer
 62
    7
370
   -1
100
AcDbLine
 10
129.6070846
 20
83.390579
 11
123.6900846
 21
70.70147899999999
  0
LINE
  5
210
100
AcDbEntity
  8
SwitchPlateL
  6
ByLayer
 62
    7
370
   -1
100
AcDbLine
 10
336.7540846
 20
80.04477900000001
 11
342.6710846
 21
67.357179
  0
LINE
  5
211
100
AcDbEntity
  8
SwitchPlateL
  6
ByLayer
 62
    7
370
   -1
100
AcDbLine
 10
342.6710846
 20
67.357179
 11
355.3600846
 21
73.272879
  0
LINE
  5
212
100
AcDbEntity
  8
SwitchPlateL
  6
ByLayer
 62
    7
370
   -1
100
AcDbLine
 10
355.3600846
 20
73.272879
 11
349.4430846
 21
85.961979
  0
LINE
  5
213
100
AcDbEntity
  8
SwitchPlateL
  6
ByLayer
 62
    7
370
   -1
100
AcDbLine
 10
349.4430846
 20
85.961979
 11
336.7540846
 21
80.04477900000001
  0
LINE
  5
214
100
AcDbEntity
  8
SwitchPlateL
  6
ByLayer
 62
    7
370
   -1
100
AcDbLine
 10
61.8311846
 20
73.272879
 11
74.52028460000001
 21
67.357179
  0
LINE
  5
215
100
AcDbEntity
  8
SwitchPlateL
  6
ByLayer
 62
    7
370
   -1
100
AcDbLine
 10
74.52028460000001
 20
67.357179
 11
80.43598460000001
 21
80.04477900000001
  0
LINE
  5
216
100
AcDbEntity
  8
SwitchPlateL
  6
ByLayer
 62
    7
370
   -1
100
AcDbLine
 10
80.43598460000001
 20
80.04477900000001
 11
67.7472846
 21
85.961979
  0
LINE
  5
217
100
AcDbEntity
  8
SwitchPlateL
  6
ByLayer
 62
    7
370
   -1
100
AcDbLine
 10
67.7472846
 20
85.961979
 11
61.8311846
 21
73.272879
  0
LINE
  5
218
100
AcDbEntity
  8
SwitchPlateL
  6
ByLayer
 62
    7
370
   -1
100
AcDbLine
 10
357.0000846
 20
81.708179
 11
362.9130846
 21
69.02047899999999
  0
LINE
  5
219
100
AcDbEntity
  8
SwitchPlateL
  6
ByLayer
 62
    7
370
   -1
100
AcDbLine
 10
362.9130846
 20
69.02047899999999
 11
375.6020846
 21
74.936279
  0
LINE
  5
21A
100
AcDbEntity
  8
SwitchPlateL
  6
ByLayer
 62
    7
370
   -1
100
AcDbLine
 10
375.6020846
 20
74.936279
 11
369.6860846
 21
87.62527899999999
  0
LINE
  5
21B
100
AcDbEntity
  8
SwitchPlateL
  6
ByLayer
 62
    7
370
   -1
100
AcDbLine
 10
369.6860846
 20
87.62527899999999
 11
357.0000846
 21
81.708179
  0
LINE
  5
21C
100
AcDbEntity
  8
SwitchPlateL
  6
ByLayer
 62
    7
370
   -1
100
AcDbLine
 10
41.5877846
 20
74.936279
 11
54.2753846
 21
69.02047899999999
  0
LINE
  5
21D
100
AcDbEntity
  8
SwitchPlateL
  6
ByLayer
 62
    7
370
   -1
100
AcDbLine
 10
54.2753846
 20
69.02047899999999
 11
60.1925846
 21
81.708179
  0
LINE
  5
21E
100
AcDbEntity
  8
SwitchPlateL
  6
ByLayer
 62
    7
370
   -1
100
AcDbLine
 10
60.1925846
 20
81.708179
 11
47.5037846
 21
87.62527899999999
  0
LINE
  5
21F
100
AcDbEntity
  8
SwitchPlateL
  6
ByLayer
 62
    7
370
   -1
100
AcDbLine
 10
47.5037846
 20
87.62527899999999
 11
41.5877846
 21
74.936279
  0
LINE
  5
220
100
AcDbEntity
  8
SwitchPlateL
  6
ByLayer
 62
    7
370
   -1
100
AcDbLine
 10
21.2630846
 20
76.425979
 11
33.9520846
 21
70.509979
  0
LINE
  5
221
100
AcDbEntity
  8
SwitchPlateL
  6
ByLayer
 62
    7
370
   -1
100
AcDbLine
 10
33.9520846
 20
70.509979
 11
39.8679846
 21
83.197579
  0
LINE
  5
222
100
AcDbEntity
  8
SwitchPlateL
  6
ByLayer
 62
    7
370
   -1
100
AcDbLine
 10
39.8679846
 20
83.197579
 11
27.1789846
 21
89.11507899999999
  0
LINE
  5
223
100
AcDbEntity
  8
SwitchPlateL
  6
ByLayer
 62
    7
370
   -1
100
AcDbLine
 10
27.1789846
 20
89.11507899999999
 11
21.2630846
 21
76.425979
  0
LINE
  5
224
100
AcDbEntity
  8
SwitchPlateL
  6
ByLayer
 62
    7
370
   -1
100
AcDbLine
 10
378.2300846
 20
103.260779
 11
377.8810846
 21
104.007779
  0
LINE
  5
225
100
AcDbEntity
  8
SwitchPlateL
  6
ByLayer
 62
    7
370
   -1
100
AcDbLine
 10
377.8810846
 20
104.007779
 11
375.3450846
 21
102.824779
  0
LINE
  5
226
100
AcDbEntity
  8
SwitchPlateL
  6
ByLayer
 62
    7
370
   -1
100
AcDbLine
 10
375.3450846
 20
102.824779
 11
375.6900846
 21
102.076779
  0
LINE
  5
227
100
AcDbEntity
  8
SwitchPlateL
  6
ByLayer
 62
    7
370
   -1
100
AcDbLine
 10
375.6900846
 20
102.076779
 11
370.0070846
 21
99.426779
  0
LINE
  5
228
100
AcDbEntity
  8
SwitchPlateL
  6
ByLayer
 62
    7
370
   -1
100
AcDbLine
 10
370.0070846
 20
99.426779
 11
370.7370846
 21
97.863979
  0
LINE
  5
229
100
AcDbEntity
  8
SwitchPlateL
  6
ByLayer
 62
    7
370
   -1
100
AcDbLine
 10
370.7370846
 20
97.863979
 11
369.6510846
 21
97.357079
  0
LINE
  5
22A
100
AcDbEntity
  8
SwitchPlateL
  6
ByLayer
 62
    7
370
   -1
100
AcDbLine
 10
369.6510846
 20
97.357079
 11
371.0440846
 21
94.36547899999999
  0
LINE
  5
22B
100
AcDbEntity
  8
SwitchPlateL
  6
ByLayer
 62
    7
370
   -1
100
AcDbLine
 10
371.0440846
 20
94.36547899999999
 11
372.1310846
 21
94.872379
  0
LINE
  5
22C
100
AcDbEntity
  8
SwitchPlateL
  6
ByLayer
 62
    7
370
   -1
100
AcDbLine
 10
372.1310846
 20
94.872379
 11
372.8610846
 21
93.309579
  0
LINE
  5
22D
100
AcDbEntity
  8
SwitchPlateL
  6
ByLayer
 62
    7
370
   -1
100
AcDbLine
 10
372.8610846
 20
93.309579
 11
376.9110846
 21
95.200479
  0
LINE
  5
22E
100
AcDbEntity
  8
SwitchPlateL
  6
ByLayer
 62
    7
370
   -1
100
AcDbLine
 10
376.9110846
 20
95.200479
 11
377.5570846
 21
93.816879
  0
LINE
  5
22F
100
AcDbEntity
  8
SwitchPlateL
  6
ByLayer
 62
    7
370
   -1
100
AcDbLine
 10
377.5570846
 20
93.816879
 11
373.2990846
 21
91.831079
  0
LINE
  5
230
100
AcDbEntity
  8
SwitchPlateL
  6
ByLayer
 62
    7
370
   -1
100
AcDbLine
 10
373.2990846
 20
91.831079
 11
379.2150846
 21
79.142079
  0
LINE
  5
231
100
AcDbEntity
  8
SwitchPlateL
  6
ByLayer
 62
    7
370
   -1
100
AcDbLine
 10
379.2150846
 20
79.142079
 11
383.4730846
 21
81.129279
  0
LINE
  5
232
100
AcDbEntity
  8
SwitchPlateL
  6
ByLayer
 62
    7
370
   -1
100
AcDbLine
 10
383.4730846
 20
81.129279
 11
384.1180846
 21
79.745679
  0
LINE
  5
233
100
AcDbEntity
  8
SwitchPlateL
  6
ByLayer
 62
    7
370
   -1
100
AcDbLine
 10
384.1180846
 20
79.745679
 11
380.0680846
 21
77.856579
  0
LINE
  5
234
100
AcDbEntity
  8
SwitchPlateL
  6
ByLayer
 62
    7
370
   -1
100
AcDbLine
 10
380.0680846
 20
77.856579
 11
380.7950846
 21
76.293679
  0
LINE
  5
235
100
AcDbEntity
  8
SwitchPlateL
  6
ByLayer
 62
    7
370
   -1
100
AcDbLine
 10
380.7950846
 20
76.293679
 11
379.7090846
 21
75.786479
  0
LINE
  5
236
100
AcDbEntity
  8
SwitchPlateL
  6
ByLayer
 62
    7
370
   -1
100
AcDbLine
 10
379.7090846
 20
75.786479
 11
381.1020846
 21
72.796279
  0
LINE
  5
237
100
AcDbEntity
  8
SwitchPlateL
  6
ByLayer
 62
    7
370
   -1
100
AcDbLine
 10
381.1020846
 20
72.796279
 11
382.1920846
 21
73.303279
  0
LINE
  5
238
100
AcDbEntity
  8
SwitchPlateL
  6
ByLayer
 62
    7
370
   -1
100
AcDbLine
 10
382.1920846
 20
73.303279
 11
382.9190846
 21
71.739379
  0
LINE
  5
239
100
AcDbEntity
  8
SwitchPlateL
  6
ByLayer
 62
    7
370
   -1
100
AcDbLine
 10
382.9190846
 20
71.739379
 11
388.6020846
 21
74.390479
  0
LINE
  5
23A
100
AcDbEntity
  8
SwitchPlateL
  6
ByLayer
 62
    7
370
   -1
100
AcDbLine
 10
388.6020846
 20
74.390479
 11
388.9510846
 21
73.642279
  0
LINE
  5
23B
100
AcDbEntity
  8
SwitchPlateL
  6
ByLayer
 62
    7
370
   -1
100
AcDbLine
 10
388.9510846
 20
73.642279
 11
391.4880846
 21
74.82477899999999
  0
LINE
  5
23C
100
AcDbEntity
  8
SwitchPlateL
  6
ByLayer
 62
    7
370
   -1
100
AcDbLine
 10
391.4880846
 20
74.82477899999999
 11
391.1390846
 21
75.572979
  0
LINE
  5
23D
100
AcDbEntity
  8
SwitchPlateL
  6
ByLayer
 62
    7
370
   -1
100
AcDbLine
 10
391.1390846
 20
75.572979
 11
394.0670846
 21
76.938579
  0
LINE
  5
23E
100
AcDbEntity
  8
SwitchPlateL
  6
ByLayer
 62
    7
370
   -1
100
AcDbLine
 10
394.0670846
 20
76.938579
 11
391.2130846
 21
83.055779
  0
LINE
  5
23F
100
AcDbEntity
  8
SwitchPlateL
  6
ByLayer
 62
    7
370
   -1
100
AcDbLine
 10
391.2130846
 20
83.055779
 11
388.2880846
 21
81.691579
  0
LINE
  5
240
100
AcDbEntity
  8
SwitchPlateL
  6
ByLayer
 62
    7
370
   -1
100
AcDbLine
 10
388.2880846
 20
81.691579
 11
387.6430846
 21
83.072379
  0
LINE
  5
241
100
AcDbEntity
  8
SwitchPlateL
  6
ByLayer
 62
    7
370
   -1
100
AcDbLine
 10
387.6430846
 20
83.072379
 11
391.9040846
 21
85.059579
  0
LINE
  5
242
100
AcDbEntity
  8
SwitchPlateL
  6
ByLayer
 62
    7
370
   -1
100
AcDbLine
 10
391.9040846
 20
85.059579
 11
385.9840846
 21
97.74687899999999
  0
LINE
  5
243
100
AcDbEntity
  8
SwitchPlateL
  6
ByLayer
 62
    7
370
   -1
100
AcDbLine
 10
385.9840846
 20
97.74687899999999
 11
381.7260846
 21
95.76137900000001
  0
LINE
  5
244
100
AcDbEntity
  8
SwitchPlateL
  6
ByLayer
 62
    7
370
   -1
100
AcDbLine
 10
381.7260846
 20
95.76137900000001
 11
381.0810846
 21
97.143579
  0
LINE
  5
245
100
AcDbEntity
  8
SwitchPlateL
  6
ByLayer
 62
    7
370
   -1
100
AcDbLine
 10
381.0810846
 20
97.143579
 11
384.0090846
 21
98.507779
  0
LINE
  5
246
100
AcDbEntity
  8
SwitchPlateL
  6
ByLayer
 62
    7
370
   -1
100
AcDbLine
 10
384.0090846
 20
98.507779
 11
381.1590846
 21
104.625779
  0
LINE
  5
247
100
AcDbEntity
  8
SwitchPlateL
  6
ByLayer
 62
    7
370
   -1
100
AcDbLine
 10
381.1590846
 20
104.625779
 11
378.2300846
 21
103.260779
  0
LINE
  5
248
100
AcDbEntity
  8
SwitchPlateL
  6
ByLayer
 62
    7
370
   -1
100
AcDbLine
 10
250.5450846
 20
84.615779
 11
256.4610846
 21
71.928079
  0
LINE
  5
249
100
AcDbEntity
  8
SwitchPlateL
  6
ByLayer
 62
    7
370
   -1
100
AcDbLine
 10
256.4610846
 20
71.928079
 11
269.1500846
 21
77.845279
  0
LINE
  5
24A
100
AcDbEntity
  8
SwitchPlateL
  6
ByLayer
 62
    7
370
   -1
100
AcDbLine
 10
269.1500846
 20
77.845279
 11
263.2340846
 21
90.53287899999999
  0
LINE
  5
24B
100
AcDbEntity
  8
SwitchPlateL
  6
ByLayer
 62
    7
370
   -1
100
AcDbLine
 10
263.2340846
 20
90.53287899999999
 11
250.5450846
 21
84.615779
  0
LINE
  5
24C
100
AcDbEntity
  8
SwitchPlateL
  6
ByLayer
 62
    7
370
   -1
100
AcDbLine
 10
148.0400846
 20
77.845279
 11
160.7290846
 21
71.928079
  0
LINE
  5
24D
100
AcDbEntity
  8
SwitchPlateL
  6
ByLayer
 62
    7
370
   -1
100
AcDbLine
 10
160.7290846
 20
71.928079
 11
166.6460846
 21
84.615779
  0
LINE
  5
24E
100
AcDbEntity
  8
SwitchPlateL
  6
ByLayer
 62
    7
370
   -1
100
AcDbLine
 10
166.6460846
 20
84.615779
 11
153.9570846
 21
90.53287899999999
  0
LINE
  5
24F
100
AcDbEntity
  8
SwitchPlateL
  6
ByLayer
 62
    7
370
   -1
100
AcDbLine
 10
153.9570846
 20
90.53287899999999
 11
148.0400846
 21
77.845279
  0
LINE
  5
250
100
AcDbEntity
  8
SwitchPlateL
  6
ByLayer
 62
    7
370
   -1
100
AcDbLine
 10
291.1130846
 20
87.768579
 11
297.0310846
 21
75.080879
  0
LINE
  5
251
100
AcDbEntity
  8
SwitchPlateL
  6
ByLayer
 62
    7
370
   -1
100
AcDbLine
 10
297.0310846
 20
75.080879
 11
309.7180846
 21
80.998379
  0
LINE
  5
252
100
AcDbEntity
  8
SwitchPlateL
  6
ByLayer
 62
    7
370
   -1
100
AcDbLine
 10
309.7180846
 20
80.998379
 11
303.8020846
 21
93.685979
  0
LINE
  5
253
100
AcDbEntity
  8
SwitchPlateL
  6
ByLayer
 62
    7
370
   -1
100
AcDbLine
 10
303.8020846
 20
93.685979
 11
291.1130846
 21
87.768579
  0
LINE
  5
254
100
AcDbEntity
  8
SwitchPlateL
  6
ByLayer
 62
    7
370
   -1
100
AcDbLine
 10
107.4720846
 20
80.998379
 11
120.1610846
 21
75.080879
  0
LINE
  5
255
100
AcDbEntity
  8
SwitchPlateL
  6
ByLayer
 62
    7
370
   -1
100
AcDbLine
 10
120.1610846
 20
75.080879
 11
126.0770846
 21
87.768579
  0
LINE
  5
256
100
AcDbEntity
  8
SwitchPlateL
  6
ByLayer
 62
    7
370
   -1
100
AcDbLine
 10
126.0770846
 20
87.768579
 11
113.3890846
 21
93.685979
  0
LINE
  5
257
100
AcDbEntity
  8
SwitchPlateL
  6
ByLayer
 62
    7
370
   -1
100
AcDbLine
 10
113.3890846
 20
93.685979
 11
107.4720846
 21
80.998379
  0
LINE
  5
258
100
AcDbEntity
  8
SwitchPlateL
  6
ByLayer
 62
    7
370
   -1
100
AcDbLine
 10
309.4260846
 20
93.575579
 11
315.3420846
 21
80.886579
  0
LINE
  5
259
100
AcDbEntity
  8
SwitchPlateL
  6
ByLayer
 62
    7
370
   -1
100
AcDbLine
 10
315.3420846
 20
80.886579
 11
328.0310846
 21
86.804079
  0
LINE
  5
25A
100
AcDbEntity
  8
SwitchPlateL
  6
ByLayer
 62
    7
370
   -1
100
AcDbLine
 10
328.0310846
 20
86.804079
 11
322.1140846
 21
99.491679
  0
LINE
  5
25B
100
AcDbEntity
  8
SwitchPlateL
  6
ByLayer
 62
    7
370
   -1
100
AcDbLine
 10
322.1140846
 20
99.491679
 11
309.4260846
 21
93.575579
  0
LINE
  5
25C
100
AcDbEntity
  8
SwitchPlateL
  6
ByLayer
 62
    7
370
   -1
100
AcDbLine
 10
89.16058460000001
 20
86.804079
 11
101.8480846
 21
80.886579
  0
LINE
  5
25D
100
AcDbEntity
  8
SwitchPlateL
  6
ByLayer
 62
    7
370
   -1
100
AcDbLine
 10
101.8480846
 20
80.886579
 11
107.7640846
 21
93.575579
  0
LINE
  5
25E
100
AcDbEntity
  8
SwitchPlateL
  6
ByLayer
 62
    7
370
   -1
100
AcDbLine
 10
107.7640846
 20
93.575579
 11
95.07628460000001
 21
99.491679
  0
LINE
  5
25F
100
AcDbEntity
  8
SwitchPlateL
  6
ByLayer
 62
    7
370
   -1
100
AcDbLine
 10
95.07628460000001
 20
99.491679
 11
89.16058460000001
 21
86.804079
  0
LINE
  5
260
100
AcDbEntity
  8
SwitchPlateL
  6
ByLayer
 62
    7
370
   -1
100
AcDbLine
 10
266.8450846
 20
94.738679
 11
272.7600846
 21
82.051079
  0
LINE
  5
261
100
AcDbEntity
  8
SwitchPlateL
  6
ByLayer
 62
    7
370
   -1
100
AcDbLine
 10
272.7600846
 20
82.051079
 11
285.4500846
 21
87.967179
  0
LINE
  5
262
100
AcDbEntity
  8
SwitchPlateL
  6
ByLayer
 62
    7
370
   -1
100
AcDbLine
 10
285.4500846
 20
87.967179
 11
279.5320846
 21
100.655779
  0
LINE
  5
263
100
AcDbEntity
  8
SwitchPlateL
  6
ByLayer
 62
    7
370
   -1
100
AcDbLine
 10
279.5320846
 20
100.655779
 11
266.8450846
 21
94.738679
  0
LINE
  5
264
100
AcDbEntity
  8
SwitchPlateL
  6
ByLayer
 62
    7
370
   -1
100
AcDbLine
 10
131.7420846
 20
87.967179
 11
144.4290846
 21
82.051079
  0
LINE
  5
265
100
AcDbEntity
  8
SwitchPlateL
  6
ByLayer
 62
    7
370
   -1
100
AcDbLine
 10
144.4290846
 20
82.051079
 11
150.3470846
 21
94.738679
  0
LINE
  5
266
100
AcDbEntity
  8
SwitchPlateL
  6
ByLayer
 62
    7
370
   -1
100
AcDbLine
 10
150.3470846
 20
94.738679
 11
137.6580846
 21
100.655779
  0
LINE
  5
267
100
AcDbEntity
  8
SwitchPlateL
  6
ByLayer
 62
    7
370
   -1
100
AcDbLine
 10
137.6580846
 20
100.655779
 11
131.7420846
 21
87.967179
  0
LINE
  5
268
100
AcDbEntity
  8
SwitchPlateL
  6
ByLayer
 62
    7
370
   -1
100
AcDbLine
 10
328.7030846
 20
97.310079
 11
334.6210846
 21
84.622479
  0
LINE
  5
269
100
AcDbEntity
  8
SwitchPlateL
  6
ByLayer
 62
    7
370
   -1
100
AcDbLine
 10
334.6210846
 20
84.622479
 11
347.3080846
 21
90.538579
  0
LINE
  5
26A
100
AcDbEntity
  8
SwitchPlateL
  6
ByLayer
 62
    7
370
   -1
100
AcDbLine
 10
347.3080846
 20
90.538579
 11
341.3910846
 21
103.227779
  0
LINE
  5
26B
100
AcDbEntity
  8
SwitchPlateL
  6
ByLayer
 62
    7
370
   -1
100
AcDbLine
 10
341.3910846
 20
103.227779
 11
328.7030846
 21
97.310079
  0
LINE
  5
26C
100
AcDbEntity
  8
SwitchPlateL
  6
ByLayer
 62
    7
370
   -1
100
AcDbLine
 10
69.8829846
 20
90.538579
 11
82.57068460000001
 21
84.622479
  0
LINE
  5
26D
100
AcDbEntity
  8
SwitchPlateL
  6
ByLayer
 62
    7
370
   -1
100
AcDbLine
 10
82.57068460000001
 20
84.622479
 11
88.48818460000001
 21
97.310079
  0
LINE
  5
26E
100
AcDbEntity
  8
SwitchPlateL
  6
ByLayer
 62
    7
370
   -1
100
AcDbLine
 10
88.48818460000001
 20
97.310079
 11
75.7990846
 21
103.227779
  0
LINE
  5
26F
100
AcDbEntity
  8
SwitchPlateL
  6
ByLayer
 62
    7
370
   -1
100
AcDbLine
 10
75.7990846
 20
103.227779
 11
69.8829846
 21
90.538579
  0
LINE
  5
270
100
AcDbEntity
  8
SwitchPlateL
  6
ByLayer
 62
    7
370
   -1
100
AcDbLine
 10
348.9480846
 20
98.973479
 11
354.8620846
 21
86.284379
  0
LINE
  5
271
100
AcDbEntity
  8
SwitchPlateL
  6
ByLayer
 62
    7
370
   -1
100
AcDbLine
 10
354.8620846
 20
86.284379
 11
367.5520846
 21
92.200479
  0
LINE
  5
272
100
AcDbEntity
  8
SwitchPlateL
  6
ByLayer
 62
    7
370
   -1
100
AcDbLine
 10
367.5520846
 20
92.200479
 11
361.6360846
 21
104.889779
  0
LINE
  5
273
100
AcDbEntity
  8
SwitchPlateL
  6
ByLayer
 62
    7
370
   -1
100
AcDbLine
 10
361.6360846
 20
104.889779
 11
348.9480846
 21
98.973479
  0
LINE
  5
274
100
AcDbEntity
  8
SwitchPlateL
  6
ByLayer
 62
    7
370
   -1
100
AcDbLine
 10
49.6384846
 20
92.200479
 11
62.3257846
 21
86.284379
  0
LINE
  5
275
100
AcDbEntity
  8
SwitchPlateL
  6
ByLayer
 62
    7
370
   -1
100
AcDbLine
 10
62.3257846
 20
86.284379
 11
68.24328460000001
 21
98.973479
  0
LINE
  5
276
100
AcDbEntity
  8
SwitchPlateL
  6
ByLayer
 62
    7
370
   -1
100
AcDbLine
 10
68.24328460000001
 20
98.973479
 11
55.5541846
 21
104.889779
  0
LINE
  5
277
100
AcDbEntity
  8
SwitchPlateL
  6
ByLayer
 62
    7
370
   -1
100
AcDbLine
 10
55.5541846
 20
104.889779
 11
49.6384846
 21
92.200479
  0
LINE
  5
278
100
AcDbEntity
  8
SwitchPlateL
  6
ByLayer
 62
    7
370
   -1
100
AcDbLine
 10
29.3135846
 20
93.69127899999999
 11
42.0011846
 21
87.77557899999999
  0
LINE
  5
279
100
AcDbEntity
  8
SwitchPlateL
  6
ByLayer
 62
    7
370
   -1
100
AcDbLine
 10
42.0011846
 20
87.77557899999999
 11
47.9186846
 21
100.462779
  0
LINE
  5
27A
100
AcDbEntity
  8
SwitchPlateL
  6
ByLayer
 62
    7
370
   -1
100
AcDbLine
 10
47.9186846
 20
100.462779
 11
35.2309846
 21
106.380779
  0
LINE
  5
27B
100
AcDbEntity
  8
SwitchPlateL
  6
ByLayer
 62
    7
370
   -1
100
AcDbLine
 10
35.2309846
 20
106.380779
 11
29.3135846
 21
93.69127899999999
  0
LINE
  5
27C
100
AcDbEntity
  8
SwitchPlateL
  6
ByLayer
 62
    7
370
   -1
100
AcDbLine
 10
242.4950846
 20
101.882779
 11
248.4120846
 21
89.19337899999999
  0
LINE
  5
27D
100
AcDbEntity
  8
SwitchPlateL
  6
ByLayer
 62
    7
370
   -1
100
AcDbLine
 10
248.4120846
 20
89.19337899999999
 11
261.0990846
 21
95.10947899999999
  0
LINE
  5
27E
100
AcDbEntity
  8
SwitchPlateL
  6
ByLayer
 62
    7
370
   -1
100
AcDbLine
 10
261.0990846
 20
95.10947899999999
 11
255.1820846
 21
107.798779
  0
LINE
  5
27F
100
AcDbEntity
  8
SwitchPlateL
  6
ByLayer
 62
    7
370
   -1
100
AcDbLine
 10
255.1820846
 20
107.798779
 11
242.4950846
 21
101.882779
  0
LINE
  5
280
100
AcDbEntity
  8
SwitchPlateL
  6
ByLayer
 62
    7
370
   -1
100
AcDbLine
 10
156.0920846
 20
95.10947899999999
 11
168.7790846
 21
89.19337899999999
  0
LINE
  5
281
100
AcDbEntity
  8
SwitchPlateL
  6
ByLayer
 62
    7
370
   -1
100
AcDbLine
 10
168.7790846
 20
89.19337899999999
 11
174.6970846
 21
101.882779
  0
LINE
  5
282
100
AcDbEntity
  8
SwitchPlateL
  6
ByLayer
 62
    7
370
   -1
100
AcDbLine
 10
174.6970846
 20
101.882779
 11
162.0080846
 21
107.798779
  0
LINE
  5
283
100
AcDbEntity
  8
SwitchPlateL
  6
ByLayer
 62
    7
370
   -1
100
AcDbLine
 10
162.0080846
 20
107.798779
 11
156.0920846
 21
95.10947899999999
  0
LINE
  5
284
100
AcDbEntity
  8
SwitchPlateL
  6
ByLayer
 62
    7
370
   -1
100
AcDbLine
 10
283.0630846
 20
105.033779
 11
288.9800846
 21
92.346479
  0
LINE
  5
285
100
AcDbEntity
  8
SwitchPlateL
  6
ByLayer
 62
    7
370
   -1
100
AcDbLine
 10
288.9800846
 20
92.346479
 11
301.6680846
 21
98.26227899999999
  0
LINE
  5
286
100
AcDbEntity
  8
SwitchPlateL
  6
ByLayer
 62
    7
370
   -1
100
AcDbLine
 10
301.6680846
 20
98.26227899999999
 11
295.7520846
 21
110.951779
  0
LINE
  5
287
100
AcDbEntity
  8
SwitchPlateL
  6
ByLayer
 62
    7
370
   -1
100
AcDbLine
 10
295.7520846
 20
110.951779
 11
283.0630846
 21
105.033779
  0
LINE
  5
288
100
AcDbEntity
  8
SwitchPlateL
  6
ByLayer
 62
    7
370
   -1
100
AcDbLine
 10
115.5220846
 20
98.26227899999999
 11
128.2100846
 21
92.346479
  0
LINE
  5
289
100
AcDbEntity
  8
SwitchPlateL
  6
ByLayer
 62
    7
370
   -1
100
AcDbLine
 10
128.2100846
 20
92.346479
 11
134.1270846
 21
105.033779
  0
LINE
  5
28A
100
AcDbEntity
  8
SwitchPlateL
  6
ByLayer
 62
    7
370
   -1
100
AcDbLine
 10
134.1270846
 20
105.033779
 11
121.4400846
 21
110.951779
  0
LINE
  5
28B
100
AcDbEntity
  8
SwitchPlateL
  6
ByLayer
 62
    7
370
   -1
100
AcDbLine
 10
121.4400846
 20
110.951779
 11
115.5220846
 21
98.26227899999999
  0
LINE
  5
28C
100
AcDbEntity
  8
SwitchPlateL
  6
ByLayer
 62
    7
370
   -1
100
AcDbLine
 10
301.3740846
 20
110.840779
 11
307.2910846
 21
98.15357899999999
  0
LINE
  5
28D
100
AcDbEntity
  8
SwitchPlateL
  6
ByLayer
 62
    7
370
   -1
100
AcDbLine
 10
307.2910846
 20
98.15357899999999
 11
319.9790846
 21
104.069779
  0
LINE
  5
28E
100
AcDbEntity
  8
SwitchPlateL
  6
ByLayer
 62
    7
370
   -1
100
AcDbLine
 10
319.9790846
 20
104.069779
 11
314.0630846
 21
116.758779
  0
LINE
  5
28F
100
AcDbEntity
  8
SwitchPlateL
  6
ByLayer
 62
    7
370
   -1
100
AcDbLine
 10
314.0630846
 20
116.758779
 11
301.3740846
 21
110.840779
  0
LINE
  5
290
100
AcDbEntity
  8
SwitchPlateL
  6
ByLayer
 62
    7
370
   -1
100
AcDbLine
 10
97.2108846
 20
104.069779
 11
109.9000846
 21
98.15357899999999
  0
LINE
  5
291
100
AcDbEntity
  8
SwitchPlateL
  6
ByLayer
 62
    7
370
   -1
100
AcDbLine
 10
109.9000846
 20
98.15357899999999
 11
115.8160846
 21
110.840779
  0
LINE
  5
292
100
AcDbEntity
  8
SwitchPlateL
  6
ByLayer
 62
    7
370
   -1
100
AcDbLine
 10
115.8160846
 20
110.840779
 11
103.1280846
 21
116.758779
  0
LINE
  5
293
100
AcDbEntity
  8
SwitchPlateL
  6
ByLayer
 62
    7
370
   -1
100
AcDbLine
 10
103.1280846
 20
116.758779
 11
97.2108846
 21
104.069779
  0
LINE
  5
294
100
AcDbEntity
  8
SwitchPlateL
  6
ByLayer
 62
    7
370
   -1
100
AcDbLine
 10
258.7940846
 20
112.004779
 11
264.7100846
 21
99.31667899999999
  0
LINE
  5
295
100
AcDbEntity
  8
SwitchPlateL
  6
ByLayer
 62
    7
370
   -1
100
AcDbLine
 10
264.7100846
 20
99.31667899999999
 11
277.3990846
 21
105.232779
  0
LINE
  5
296
100
AcDbEntity
  8
SwitchPlateL
  6
ByLayer
 62
    7
370
   -1
100
AcDbLine
 10
277.3990846
 20
105.232779
 11
271.4820846
 21
117.921779
  0
LINE
  5
297
100
AcDbEntity
  8
SwitchPlateL
  6
ByLayer
 62
    7
370
   -1
100
AcDbLine
 10
271.4820846
 20
117.921779
 11
258.7940846
 21
112.004779
  0
LINE
  5
298
100
AcDbEntity
  8
SwitchPlateL
  6
ByLayer
 62
    7
370
   -1
100
AcDbLine
 10
139.7920846
 20
105.232779
 11
152.4800846
 21
99.31667899999999
  0
LINE
  5
299
100
AcDbEntity
  8
SwitchPlateL
  6
ByLayer
 62
    7
370
   -1
100
AcDbLine
 10
152.4800846
 20
99.31667899999999
 11
158.3970846
 21
112.004779
  0
LINE
  5
29A
100
AcDbEntity
  8
SwitchPlateL
  6
ByLayer
 62
    7
370
   -1
100
AcDbLine
 10
158.3970846
 20
112.004779
 11
145.7080846
 21
117.921779
  0
LINE
  5
29B
100
AcDbEntity
  8
SwitchPlateL
  6
ByLayer
 62
    7
370
   -1
100
AcDbLine
 10
145.7080846
 20
117.921779
 11
139.7920846
 21
105.232779
  0
LINE
  5
29C
100
AcDbEntity
  8
SwitchPlateL
  6
ByLayer
 62
    7
370
   -1
100
AcDbLine
 10
320.6530846
 20
114.575779
 11
326.5700846
 21
101.886779
  0
LINE
  5
29D
100
AcDbEntity
  8
SwitchPlateL
  6
ByLayer
 62
    7
370
   -1
100
AcDbLine
 10
326.5700846
 20
101.886779
 11
339.2580846
 21
107.803779
  0
LINE
  5
29E
100
AcDbEntity
  8
SwitchPlateL
  6
ByLayer
 62
    7
370
   -1
100
AcDbLine
 10
339.2580846
 20
107.803779
 11
333.3410846
 21
120.491779
  0
LINE
  5
29F
100
AcDbEntity
  8
SwitchPlateL
  6
ByLayer
 62
    7
370
   -1
100
AcDbLine
 10
333.3410846
 20
120.491779
 11
320.6530846
 21
114.575779
  0
LINE
  5
2A0
100
AcDbEntity
  8
SwitchPlateL
  6
ByLayer
 62
    7
370
   -1
100
AcDbLine
 10
77.93378460000001
 20
107.803779
 11
90.6210846
 21
101.886779
  0
LINE
  5
2A1
100
AcDbEntity
  8
SwitchPlateL
  6
ByLayer
 62
    7
370
   -1
100
AcDbLine
 10
90.6210846
 20
101.886779
 11
96.5370846
 21
114.575779
  0
LINE
  5
2A2
100
AcDbEntity
  8
SwitchPlateL
  6
ByLayer
 62
    7
370
   -1
100
AcDbLine
 10
96.5370846
 20
114.575779
 11
83.84948460000001
 21
120.491779
  0
LINE
  5
2A3
100
AcDbEntity
  8
SwitchPlateL
  6
ByLayer
 62
    7
370
   -1
100
AcDbLine
 10
83.84948460000001
 20
120.491779
 11
77.93378460000001
 21
107.803779
  0
LINE
  5
2A4
100
AcDbEntity
  8
SwitchPlateL
  6
ByLayer
 62
    7
370
   -1
100
AcDbLine
 10
340.8960846
 20
116.237779
 11
346.8130846
 21
103.549779
  0
LINE
  5
2A5
100
AcDbEntity
  8
SwitchPlateL
  6
ByLayer
 62
    7
370
   -1
100
AcDbLine
 10
346.8130846
 20
103.549779
 11
359.5010846
 21
109.466779
  0
LINE
  5
2A6
100
AcDbEntity
  8
SwitchPlateL
  6
ByLayer
 62
    7
370
   -1
100
AcDbLine
 10
359.5010846
 20
109.466779
 11
353.5850846
 21
122.154779
  0
LINE
  5
2A7
100
AcDbEntity
  8
SwitchPlateL
  6
ByLayer
 62
    7
370
   -1
100
AcDbLine
 10
353.5850846
 20
122.154779
 11
340.8960846
 21
116.237779
  0
LINE
  5
2A8
100
AcDbEntity
  8
SwitchPlateL
  6
ByLayer
 62
    7
370
   -1
100
AcDbLine
 10
57.6902846
 20
109.466779
 11
70.3779846
 21
103.549779
  0
LINE
  5
2A9
100
AcDbEntity
  8
SwitchPlateL
  6
ByLayer
 62
    7
370
   -1
100
AcDbLine
 10
70.3779846
 20
103.549779
 11
76.29368460000001
 21
116.237779
  0
LINE
  5
2AA
100
AcDbEntity
  8
SwitchPlateL
  6
ByLayer
 62
    7
370
   -1
100
AcDbLine
 10
76.29368460000001
 20
116.237779
 11
63.6059846
 21
122.154779
  0
LINE
  5
2AB
100
AcDbEntity
  8
SwitchPlateL
  6
ByLayer
 62
    7
370
   -1
100
AcDbLine
 10
63.6059846
 20
122.154779
 11
57.6902846
 21
109.466779
  0
LINE
  5
2AC
100
AcDbEntity
  8
SwitchPlateL
  6
ByLayer
 62
    7
370
   -1
100
AcDbLine
 10
361.2190846
 20
117.728779
 11
367.1360846
 21
105.039779
  0
LINE
  5
2AD
100
AcDbEntity
  8
SwitchPlateL
  6
ByLayer
 62
    7
370
   -1
100
AcDbLine
 10
367.1360846
 20
105.039779
 11
379.8250846
 21
110.956779
  0
LINE
  5
2AE
100
AcDbEntity
  8
SwitchPlateL
  6
ByLayer
 62
    7
370
   -1
100
AcDbLine
 10
379.8250846
 20
110.956779
 11
373.9090846
 21
123.644779
  0
LINE
  5
2AF
100
AcDbEntity
  8
SwitchPlateL
  6
ByLayer
 62
    7
370
   -1
100
AcDbLine
 10
373.9090846
 20
123.644779
 11
361.2190846
 21
117.728779
  0
LINE
  5
2B0
100
AcDbEntity
  8
SwitchPlateL
  6
ByLayer
 62
    7
370
   -1
100
AcDbLine
 10
37.3642846
 20
110.956779
 11
50.0529846
 21
105.039779
  0
LINE
  5
2B1
100
AcDbEntity
  8
SwitchPlateL
  6
ByLayer
 62
    7
370
   -1
100
AcDbLine
 10
50.0529846
 20
105.039779
 11
55.9690846
 21
117.728779
  0
LINE
  5
2B2
100
AcDbEntity
  8
SwitchPlateL
  6
ByLayer
 62
    7
370
   -1
100
AcDbLine
 10
55.9690846
 20
117.728779
 11
43.2813846
 21
123.644779
  0
LINE
  5
2B3
100
AcDbEntity
  8
SwitchPlateL
  6
ByLayer
 62
    7
370
   -1
100
AcDbLine
 10
43.2813846
 20
123.644779
 11
37.3642846
 21
110.956779
  0
LINE
  5
2B4
100
AcDbEntity
  8
SwitchPlateL
  6
ByLayer
 62
    7
370
   -1
100
AcDbLine
 10
275.0110846
 20
122.299779
 11
280.9280846
 21
109.610779
  0
LINE
  5
2B5
100
AcDbEntity
  8
SwitchPlateL
  6
ByLayer
 62
    7
370
   -1
100
AcDbLine
 10
280.9280846
 20
109.610779
 11
293.6170846
 21
115.527779
  0
LINE
  5
2B6
100
AcDbEntity
  8
SwitchPlateL
  6
ByLayer
 62
    7
370
   -1
100
AcDbLine
 10
293.6170846
 20
115.527779
 11
287.7000846
 21
128.215779
  0
LINE
  5
2B7
100
AcDbEntity
  8
SwitchPlateL
  6
ByLayer
 62
    7
370
   -1
100
AcDbLine
 10
287.7000846
 20
128.215779
 11
275.0110846
 21
122.299779
  0
LINE
  5
2B8
100
AcDbEntity
  8
SwitchPlateL
  6
ByLayer
 62
    7
370
   -1
100
AcDbLine
 10
123.5730846
 20
115.527779
 11
136.2620846
 21
109.610779
  0
LINE
  5
2B9
100
AcDbEntity
  8
SwitchPlateL
  6
ByLayer
 62
    7
370
   -1
100
AcDbLine
 10
136.2620846
 20
109.610779
 11
142.1790846
 21
122.299779
  0
LINE
  5
2BA
100
AcDbEntity
  8
SwitchPlateL
  6
ByLayer
 62
    7
370
   -1
100
AcDbLine
 10
142.1790846
 20
122.299779
 11
129.4900846
 21
128.215779
  0
LINE
  5
2BB
100
AcDbEntity
  8
SwitchPlateL
  6
ByLayer
 62
    7
370
   -1
100
AcDbLine
 10
129.4900846
 20
128.215779
 11
123.5730846
 21
115.527779
  0
LINE
  5
2BC
100
AcDbEntity
  8
SwitchPlateL
  6
ByLayer
 62
    7
370
   -1
100
AcDbLine
 10
293.3240846
 20
128.106779
 11
299.2410846
 21
115.417779
  0
LINE
  5
2BD
100
AcDbEntity
  8
SwitchPlateL
  6
ByLayer
 62
    7
370
   -1
100
AcDbLine
 10
299.2410846
 20
115.417779
 11
311.9290846
 21
121.333779
  0
LINE
  5
2BE
100
AcDbEntity
  8
SwitchPlateL
  6
ByLayer
 62
    7
370
   -1
100
AcDbLine
 10
311.9290846
 20
121.333779
 11
306.0130846
 21
134.022779
  0
LINE
  5
2BF
100
AcDbEntity
  8
SwitchPlateL
  6
ByLayer
 62
    7
370
   -1
100
AcDbLine
 10
306.0130846
 20
134.022779
 11
293.3240846
 21
128.106779
  0
LINE
  5
2C0
100
AcDbEntity
  8
SwitchPlateL
  6
ByLayer
 62
    7
370
   -1
100
AcDbLine
 10
105.2610846
 20
121.333779
 11
117.9500846
 21
115.417779
  0
LINE
  5
2C1
100
AcDbEntity
  8
SwitchPlateL
  6
ByLayer
 62
    7
370
   -1
100
AcDbLine
 10
117.9500846
 20
115.417779
 11
123.8650846
 21
128.106779
  0
LINE
  5
2C2
100
AcDbEntity
  8
SwitchPlateL
  6
ByLayer
 62
    7
370
   -1
100
AcDbLine
 10
123.8650846
 20
128.106779
 11
111.1790846
 21
134.022779
  0
LINE
  5
2C3
100
AcDbEntity
  8
SwitchPlateL
  6
ByLayer
 62
    7
370
   -1
100
AcDbLine
 10
111.1790846
 20
134.022779
 11
105.2610846
 21
121.333779
  0
LINE
  5
2C4
100
AcDbEntity
  8
SwitchPlateL
  6
ByLayer
 62
    7
370
   -1
100
AcDbLine
 10
312.6010846
 20
131.840779
 11
318.5180846
 21
119.151779
  0
LINE
  5
2C5
100
AcDbEntity
  8
SwitchPlateL
  6
ByLayer
 62
    7
370
   -1
100
AcDbLine
 10
318.5180846
 20
119.151779
 11
331.2060846
 21
125.069779
  0
LINE
  5
2C6
100
AcDbEntity
  8
SwitchPlateL
  6
ByLayer
 62
    7
370
   -1
100
AcDbLine
 10
331.2060846
 20
125.069779
 11
325.2900846
 21
137.756779
  0
LINE
  5
2C7
100
AcDbEntity
  8
SwitchPlateL
  6
ByLayer
 62
    7
370
   -1
100
AcDbLine
 10
325.2900846
 20
137.756779
 11
312.6010846
 21
131.840779
  0
LINE
  5
2C8
100
AcDbEntity
  8
SwitchPlateL
  6
ByLayer
 62
    7
370
   -1
100
AcDbLine
 10
85.9840846
 20
125.069779
 11
98.67318460000001
 21
119.151779
  0
LINE
  5
2C9
100
AcDbEntity
  8
SwitchPlateL
  6
ByLayer
 62
    7
370
   -1
100
AcDbLine
 10
98.67318460000001
 20
119.151779
 11
104.5890846
 21
131.840779
  0
LINE
  5
2CA
100
AcDbEntity
  8
SwitchPlateL
  6
ByLayer
 62
    7
370
   -1
100
AcDbLine
 10
104.5890846
 20
131.840779
 11
91.89988460000001
 21
137.756779
  0
LINE
  5
2CB
100
AcDbEntity
  8
SwitchPlateL
  6
ByLayer
 62
    7
370
   -1
100
AcDbLine
 10
91.89988460000001
 20
137.756779
 11
85.9840846
 21
125.069779
  0
LINE
  5
2CC
100
AcDbEntity
  8
SwitchPlateL
  6
ByLayer
 62
    7
370
   -1
100
AcDbLine
 10
332.8460846
 20
133.502779
 11
338.7630846
 21
120.815779
  0
LINE
  5
2CD
100
AcDbEntity
  8
SwitchPlateL
  6
ByLayer
 62
    7
370
   -1
100
AcDbLine
 10
338.7630846
 20
120.815779
 11
351.4510846
 21
126.731779
  0
LINE
  5
2CE
100
AcDbEntity
  8
SwitchPlateL
  6
ByLayer
 62
    7
370
   -1
100
AcDbLine
 10
351.4510846
 20
126.731779
 11
345.5330846
 21
139.419779
  0
LINE
  5
2CF
100
AcDbEntity
  8
SwitchPlateL
  6
ByLayer
 62
    7
370
   -1
100
AcDbLine
 10
345.5330846
 20
139.419779
 11
332.8460846
 21
133.502779
  0
LINE
  5
2D0
100
AcDbEntity
  8
SwitchPlateL
  6
ByLayer
 62
    7
370
   -1
100
AcDbLine
 10
65.7392846
 20
126.731779
 11
78.42828460000001
 21
120.815779
  0
LINE
  5
2D1
100
AcDbEntity
  8
SwitchPlateL
  6
ByLayer
 62
    7
370
   -1
100
AcDbLine
 10
78.42828460000001
 20
120.815779
 11
84.3440846
 21
133.502779
  0
LINE
  5
2D2
100
AcDbEntity
  8
SwitchPlateL
  6
ByLayer
 62
    7
370
   -1
100
AcDbLine
 10
84.3440846
 20
133.502779
 11
71.65678460000001
 21
139.419779
  0
LINE
  5
2D3
100
AcDbEntity
  8
SwitchPlateL
  6
ByLayer
 62
    7
370
   -1
100
AcDbLine
 10
71.65678460000001
 20
139.419779
 11
65.7392846
 21
126.731779
  0
LINE
  5
2D4
100
AcDbEntity
  8
SwitchPlateL
  6
ByLayer
 62
    7
370
   -1
100
AcDbLine
 10
353.1690846
 20
134.992779
 11
359.0850846
 21
122.304779
  0
LINE
  5
2D5
100
AcDbEntity
  8
SwitchPlateL
  6
ByLayer
 62
    7
370
   -1
100
AcDbLine
 10
359.0850846
 20
122.304779
 11
371.7750846
 21
128.221779
  0
LINE
  5
2D6
100
AcDbEntity
  8
SwitchPlateL
  6
ByLayer
 62
    7
370
   -1
100
AcDbLine
 10
371.7750846
 20
128.221779
 11
365.8590846
 21
140.909779
  0
LINE
  5
2D7
100
AcDbEntity
  8
SwitchPlateL
  6
ByLayer
 62
    7
370
   -1
100
AcDbLine
 10
365.8590846
 20
140.909779
 11
353.1690846
 21
134.992779
  0
LINE
  5
2D8
100
AcDbEntity
  8
SwitchPlateL
  6
ByLayer
 62
    7
370
   -1
100
AcDbLine
 10
45.4160846
 20
128.221779
 11
58.1037846
 21
122.304779
  0
LINE
  5
2D9
100
AcDbEntity
  8
SwitchPlateL
  6
ByLayer
 62
    7
370
   -1
100
AcDbLine
 10
58.1037846
 20
122.304779
 11
64.0208846
 21
134.992779
  0
LINE
  5
2DA
100
AcDbEntity
  8
SwitchPlateL
  6
ByLayer
 62
    7
370
   -1
100
AcDbLine
 10
64.0208846
 20
134.992779
 11
51.3317846
 21
140.909779
  0
LINE
  5
2DB
100
AcDbEntity
  8
SwitchPlateL
  6
ByLayer
 62
    7
370
   -1
100
AcDbLine
 10
51.3317846
 20
140.909779
 11
45.4160846
 21
128.221779
  0
LINE
  5
2DC
100
AcDbEntity
  8
SwitchPlateL
  6
ByLayer
 62
    7
370
   -1
100
AcDbLine
 10
2.3798746
 20
153.113779
 11
2.1015046
 21
152.971779
  0
LINE
  5
2DD
100
AcDbEntity
  8
SwitchPlateL
  6
ByLayer
 62
    7
370
   -1
100
AcDbLine
 10
2.1015046
 20
152.971779
 11
1.8796446
 21
152.749779
  0
LINE
  5
2DE
100
AcDbEntity
  8
SwitchPlateL
  6
ByLayer
 62
    7
370
   -1
100
AcDbLine
 10
1.8796446
 20
152.749779
 11
1.7377046
 21
152.471779
  0
LINE
  5
2DF
100
AcDbEntity
  8
SwitchPlateL
  6
ByLayer
 62
    7
370
   -1
100
AcDbLine
 10
1.7377046
 20
152.471779
 11
1.6880946
 21
152.162779
  0
LINE
  5
2E0
100
AcDbEntity
  8
SwitchPlateL
  6
ByLayer
 62
    7
370
   -1
100
AcDbLine
 10
1.6880946
 20
152.162779
 11
1.7377046
 21
151.852779
  0
LINE
  5
2E1
100
AcDbEntity
  8
SwitchPlateL
  6
ByLayer
 62
    7
370
   -1
100
AcDbLine
 10
1.7377046
 20
151.852779
 11
1.8796446
 21
151.574779
  0
LINE
  5
2E2
100
AcDbEntity
  8
SwitchPlateL
  6
ByLayer
 62
    7
370
   -1
100
AcDbLine
 10
1.8796446
 20
151.574779
 11
2.1015046
 21
151.352779
  0
LINE
  5
2E3
100
AcDbEntity
  8
SwitchPlateL
  6
ByLayer
 62
    7
370
   -1
100
AcDbLine
 10
2.1015046
 20
151.352779
 11
2.3798746
 21
151.210779
  0
LINE
  5
2E4
100
AcDbEntity
  8
SwitchPlateL
  6
ByLayer
 62
    7
370
   -1
100
AcDbLine
 10
2.3798746
 20
151.210779
 11
2.6885546
 21
151.162779
  0
LINE
  5
2E5
100
AcDbEntity
  8
SwitchPlateL
  6
ByLayer
 62
    7
370
   -1
100
AcDbLine
 10
2.6885546
 20
151.162779
 11
2.9986146
 21
151.210779
  0
LINE
  5
2E6
100
AcDbEntity
  8
SwitchPlateL
  6
ByLayer
 62
    7
370
   -1
100
AcDbLine
 10
2.9986146
 20
151.210779
 11
3.2769746
 21
151.352779
  0
LINE
  5
2E7
100
AcDbEntity
  8
SwitchPlateL
  6
ByLayer
 62
    7
370
   -1
100
AcDbLine
 10
3.2769746
 20
151.352779
 11
3.4988446
 21
151.574779
  0
LINE
  5
2E8
100
AcDbEntity
  8
SwitchPlateL
  6
ByLayer
 62
    7
370
   -1
100
AcDbLine
 10
3.4988446
 20
151.574779
 11
3.6407846
 21
151.852779
  0
LINE
  5
2E9
100
AcDbEntity
  8
SwitchPlateL
  6
ByLayer
 62
    7
370
   -1
100
AcDbLine
 10
3.6407846
 20
151.852779
 11
3.6890046
 21
152.161779
  0
LINE
  5
2EA
100
AcDbEntity
  8
SwitchPlateL
  6
ByLayer
 62
    7
370
   -1
100
AcDbLine
 10
3.6890046
 20
152.161779
 11
3.6407846
 21
152.471779
  0
LINE
  5
2EB
100
AcDbEntity
  8
SwitchPlateL
  6
ByLayer
 62
    7
370
   -1
100
AcDbLine
 10
3.6407846
 20
152.471779
 11
3.4988446
 21
152.749779
  0
LINE
  5
2EC
100
AcDbEntity
  8
SwitchPlateL
  6
ByLayer
 62
    7
370
   -1
100
AcDbLine
 10
3.4988446
 20
152.749779
 11
3.2769746
 21
152.971779
  0
LINE
  5
2ED
100
AcDbEntity
  8
SwitchPlateL
  6
ByLayer
 62
    7
370
   -1
100
AcDbLine
 10
3.2769746
 20
152.971779
 11
2.9986146
 21
153.113779
  0
LINE
  5
2EE
100
AcDbEntity
  8
SwitchPlateL
  6
ByLayer
 62
    7
370
   -1
100
AcDbLine
 10
2.9986146
 20
153.113779
 11
2.6899346
 21
153.161779
  0
LINE
  5
2EF
100
AcDbEntity
  8
SwitchPlateL
  6
ByLayer
 62
    7
370
   -1
100
AcDbLine
 10
2.6899346
 20
153.161779
 11
2.3798746
 21
153.113779
  0
LINE
  5
2F0
100
AcDbEntity
  8
SwitchPlateL
  6
ByLayer
 62
    7
370
   -1
100
AcDbLine
 10
410.5270846
 20
153.113779
 11
410.2490846
 21
152.971779
  0
LINE
  5
2F1
100
AcDbEntity
  8
SwitchPlateL
  6
ByLayer
 62
    7
370
   -1
100
AcDbLine
 10
410.2490846
 20
152.971779
 11
410.0260846
 21
152.749779
  0
LINE
  5
2F2
100
AcDbEntity
  8
SwitchPlateL
  6
ByLayer
 62
    7
370
   -1
100
AcDbLine
 10
410.0260846
 20
152.749779
 11
409.8850846
 21
152.471779
  0
LINE
  5
2F3
100
AcDbEntity
  8
SwitchPlateL
  6
ByLayer
 62
    7
370
   -1
100
AcDbLine
 10
409.8850846
 20
152.471779
 11
409.8360846
 21
152.162779
  0
LINE
  5
2F4
100
AcDbEntity
  8
SwitchPlateL
  6
ByLayer
 62
    7
370
   -1
100
AcDbLine
 10
409.8360846
 20
152.162779
 11
409.8850846
 21
151.852779
  0
LINE
  5
2F5
100
AcDbEntity
  8
SwitchPlateL
  6
ByLayer
 62
    7
370
   -1
100
AcDbLine
 10
409.8850846
 20
151.852779
 11
410.0260846
 21
151.574779
  0
LINE
  5
2F6
100
AcDbEntity
  8
SwitchPlateL
  6
ByLayer
 62
    7
370
   -1
100
AcDbLine
 10
410.0260846
 20
151.574779
 11
410.2490846
 21
151.352779
  0
LINE
  5
2F7
100
AcDbEntity
  8
SwitchPlateL
  6
ByLayer
 62
    7
370
   -1
100
AcDbLine
 10
410.2490846
 20
151.352779
 11
410.5270846
 21
151.210779
  0
LINE
  5
2F8
100
AcDbEntity
  8
SwitchPlateL
  6
ByLayer
 62
    7
370
   -1
100
AcDbLine
 10
410.5270846
 20
151.210779
 11
410.8340846
 21
151.162779
  0
LINE
  5
2F9
100
AcDbEntity
  8
SwitchPlateL
  6
ByLayer
 62
    7
370
   -1
100
AcDbLine
 10
410.8340846
 20
151.162779
 11
411.1450846
 21
151.210779
  0
LINE
  5
2FA
100
AcDbEntity
  8
SwitchPlateL
  6
ByLayer
 62
    7
370
   -1
100
AcDbLine
 10
411.1450846
 20
151.210779
 11
411.4230846
 21
151.352779
  0
LINE
  5
2FB
100
AcDbEntity
  8
SwitchPlateL
  6
ByLayer
 62
    7
370
   -1
100
AcDbLine
 10
411.4230846
 20
151.352779
 11
411.6460846
 21
151.574779
  0
LINE
  5
2FC
100
AcDbEntity
  8
SwitchPlateL
  6
ByLayer
 62
    7
370
   -1
100
AcDbLine
 10
411.6460846
 20
151.574779
 11
411.7870846
 21
151.852779
  0
LINE
  5
2FD
100
AcDbEntity
  8
SwitchPlateL
  6
ByLayer
 62
    7
370
   -1
100
AcDbLine
 10
411.7870846
 20
151.852779
 11
411.8360846
 21
152.161779
  0
LINE
  5
2FE
100
AcDbEntity
  8
SwitchPlateL
  6
ByLayer
 62
    7
370
   -1
100
AcDbLine
 10
411.8360846
 20
152.161779
 11
411.7870846
 21
152.471779
  0
LINE
  5
2FF
100
AcDbEntity
  8
SwitchPlateL
  6
ByLayer
 62
    7
370
   -1
100
AcDbLine
 10
411.7870846
 20
152.471779
 11
411.6460846
 21
152.749779
  0
LINE
  5
300
100
AcDbEntity
  8
SwitchPlateL
  6
ByLayer
 62
    7
370
   -1
100
AcDbLine
 10
411.6460846
 20
152.749779
 11
411.4230846
 21
152.971779
  0
LINE
  5
301
100
AcDbEntity
  8
SwitchPlateL
  6
ByLayer
 62
    7
370
   -1
100
AcDbLine
 10
411.4230846
 20
152.971779
 11
411.1450846
 21
153.113779
  0
LINE
  5
302
100
AcDbEntity
  8
SwitchPlateL
  6
ByLayer
 62
    7
370
   -1
100
AcDbLine
 10
411.1450846
 20
153.113779
 11
410.8340846
 21
153.161779
  0
LINE
  5
303
100
AcDbEntity
  8
SwitchPlateL
  6
ByLayer
 62
    7
370
   -1
100
AcDbLine
 10
410.8340846
 20
153.161779
 11
410.5270846
 21
153.113779
  0
LINE
  5
304
100
AcDbEntity
  8
SwitchPlateL
  6
ByLayer
 62
    7
370
   -1
100
AcDbLine
 10
206.4530846
 20
153.113779
 11
206.1750846
 21
152.971779
  0
LINE
  5
305
100
AcDbEntity
  8
SwitchPlateL
  6
ByLayer
 62
    7
370
   -1
100
AcDbLine
 10
206.1750846
 20
152.971779
 11
205.9530846
 21
152.749779
  0
LINE
  5
306
100
AcDbEntity
  8
SwitchPlateL
  6
ByLayer
 62
    7
370
   -1
100
AcDbLine
 10
205.9530846
 20
152.749779
 11
205.8110846
 21
152.471779
  0
LINE
  5
307
100
AcDbEntity
  8
SwitchPlateL
  6
ByLayer
 62
    7
370
   -1
100
AcDbLine
 10
205.8110846
 20
152.471779
 11
205.7630846
 21
152.162779
  0
LINE
  5
308
100
AcDbEntity
  8
SwitchPlateL
  6
ByLayer
 62
    7
370
   -1
100
AcDbLine
 10
205.7630846
 20
152.162779
 11
205.8110846
 21
151.852779
  0
LINE
  5
309
100
AcDbEntity
  8
SwitchPlateL
  6
ByLayer
 62
    7
370
   -1
100
AcDbLine
 10
205.8110846
 20
151.852779
 11
205.9530846
 21
151.574779
  0
LINE
  5
30A
100
AcDbEntity
  8
SwitchPlateL
  6
ByLayer
 62
    7
370
   -1
100
AcDbLine
 10
205.9530846
 20
151.574779
 11
206.1750846
 21
151.352779
  0
LINE
  5
30B
100
AcDbEntity
  8
SwitchPlateL
  6
ByLayer
 62
    7
370
   -1
100
AcDbLine
 10
206.1750846
 20
151.352779
 11
206.4530846
 21
151.210779
  0
LINE
  5
30C
100
AcDbEntity
  8
SwitchPlateL
  6
ByLayer
 62
    7
370
   -1
100
AcDbLine
 10
206.4530846
 20
151.210779
 11
206.7620846
 21
151.162779
  0
LINE
  5
30D
100
AcDbEntity
  8
SwitchPlateL
  6
ByLayer
 62
    7
370
   -1
100
AcDbLine
 10
206.7620846
 20
151.162779
 11
207.0710846
 21
151.210779
  0
LINE
  5
30E
100
AcDbEntity
  8
SwitchPlateL
  6
ByLayer
 62
    7
370
   -1
100
AcDbLine
 10
207.0710846
 20
151.210779
 11
207.3510846
 21
151.352779
  0
LINE
  5
30F
100
AcDbEntity
  8
SwitchPlateL
  6
ByLayer
 62
    7
370
   -1
100
AcDbLine
 10
207.3510846
 20
151.352779
 11
207.5710846
 21
151.574779
  0
LINE
  5
310
100
AcDbEntity
  8
SwitchPlateL
  6
ByLayer
 62
    7
370
   -1
100
AcDbLine
 10
207.5710846
 20
151.574779
 11
207.7130846
 21
151.852779
  0
LINE
  5
311
100
AcDbEntity
  8
SwitchPlateL
  6
ByLayer
 62
    7
370
   -1
100
AcDbLine
 10
207.7130846
 20
151.852779
 11
207.7630846
 21
152.161779
  0
LINE
  5
312
100
AcDbEntity
  8
SwitchPlateL
  6
ByLayer
 62
    7
370
   -1
100
AcDbLine
 10
207.7630846
 20
152.161779
 11
207.7130846
 21
152.471779
  0
LINE
  5
313
100
AcDbEntity
  8
SwitchPlateL
  6
ByLayer
 62
    7
370
   -1
100
AcDbLine
 10
207.7130846
 20
152.471779
 11
207.5710846
 21
152.749779
  0
LINE
  5
314
100
AcDbEntity
  8
SwitchPlateL
  6
ByLayer
 62
    7
370
   -1
100
AcDbLine
 10
207.5710846
 20
152.749779
 11
207.3510846
 21
152.971779
  0
LINE
  5
315
100
AcDbEntity
  8
SwitchPlateL
  6
ByLayer
 62
    7
370
   -1
100
AcDbLine
 10
207.3510846
 20
152.971779
 11
207.0710846
 21
153.113779
  0
LINE
  5
316
100
AcDbEntity
  8
SwitchPlateL
  6
ByLayer
 62
    7
370
   -1
100
AcDbLine
 10
207.0710846
 20
153.113779
 11
206.7620846
 21
153.161779
  0
LINE
  5
317
100
AcDbEntity
  8
SwitchPlateL
  6
ByLayer
 62
    7
370
   -1
100
AcDbLine
 10
206.7620846
 20
153.161779
 11
206.4530846
 21
153.113779
  0
ENDBLK
  5
57
330
55
100
AcDbEntity
  8
0
100
AcDbBlockEnd
  0
BLOCK
  5
59
330
58
100
AcDbEntity
  8
0
100
AcDbBlockBegin
  2
#plate
 70
    0
 10
0
 20
0
  3
#plate
  1

  0
LINE
  5
318
100
AcDbEntity
  8
Display
  6
ByLayer
 62
  256
370
   -1
100
AcDbLine
 10
207.4931749155545
 20
-1.863574
 11
207.5077817945546
 21
113.1364173914978
  0
LWPOLYLINE
  5
319
100
AcDbEntity
  8
Display
  6
ByLayer
 62
  256
370
   -1
100
AcDbPolyline
 90
    4
 70
    1
 43
0
 10
225.2
 20
78.38958581060372
 10
189.8
 20
78.38958581060372
 10
189.8
 20
111.8895858106037
 10
225.2
 20
111.8895858106037
  0
LWPOLYLINE
  5
31A
100
AcDbEntity
  8
Display
  6
ByLayer
 62
  256
370
   -1
100
AcDbPolyline
 90
    4
 70
    1
 43
0
 10
222.21
 20
104.5395858106037
 10
192.79
 20
104.5395858106037
 10
192.79
 20
89.83958581060371
 10
222.21
 20
89.83958581060371
  0
CIRCLE
  5
31B
100
AcDbEntity
  8
Display
  6
ByLayer
 62
  256
370
   -1
100
AcDbCircle
 10
222.7
 20
109.3895858106037
 40
1.5
  0
CIRCLE
  5
31C
100
AcDbEntity
  8
Display
  6
ByLayer
 62
  256
370
   -1
100
AcDbCircle
 10
192.3
 20
109.3895858106037
 40
1.5
  0
CIRCLE
  5
31D
100
AcDbEntity
  8
Display
  6
ByLayer
 62
  256
370
   -1
100
AcDbCircle
 10
222.7
 20
80.88958581060372
 40
1.5
  0
CIRCLE
  5
31E
100
AcDbEntity
  8
Display
  6
ByLayer
 62
  256
370
   -1
100
AcDbCircle
 10
192.3
 20
80.88958581060372
 40
1.5
  0
LINE
  5
31F
100
AcDbEntity
  8
Display
  6
ByLayer
 62
  256
370
   -1
100
AcDbLine
 10
207.5
 20
111.8895858106037
 11
207.5
 21
78.38958581060372
  0
LINE
  5
320
100
AcDbEntity
  8
Display
  6
ByLayer
 62
  253
370
   -1
100
AcDbLine
 10
242.5077780503379
 20
113.136423815706
 11
172.510050186752
 21
113.1364109677053
  0
ENDBLK
  5
5A
330
58
100
AcDbEntity
  8
0
100
AcDbBlockEnd
  0
ENDSEC
  0
SECTION
  2
ENTITIES
  0
LINE
  5
321
100
AcDbEntity
  8
Top
  6
ByLayer
 62
    7
370
   -1
100
AcDbLine
 10
349.6249154
 20
135.736221
 11
346.5659154
 21
142.297221
  0
LINE
  5
322
100
AcDbEntity
  8
Top
  6
ByLayer
 62
    7
370
   -1
100
AcDbLine
 10
346.5659154
 20
142.297221
 11
329.2999154
 21
134.246221
  0
LINE
  5
323
100
AcDbEntity
  8
Top
  6
ByLayer
 62
    7
370
   -1
100
AcDbLine
 10
329.2999154
 20
134.246221
 11
326.3209154
 21
140.634221
  0
LINE
  5
324
100
AcDbEntity
  8
Top
  6
ByLayer
 62
    7
370
   -1
100
AcDbLine
 10
326.3209154
 20
140.634221
 11
309.0569154
 21
132.584221
  0
LINE
  5
325
100
AcDbEntity
  8
Top
  6
ByLayer
 62
    7
370
   -1
100
AcDbLine
 10
309.0569154
 20
132.584221
 11
307.0439154
 21
136.900221
  0
LINE
  5
326
100
AcDbEntity
  8
Top
  6
ByLayer
 62
    7
370
   -1
100
AcDbLine
 10
307.0439154
 20
136.900221
 11
289.7779154
 21
128.849221
  0
LINE
  5
327
100
AcDbEntity
  8
Top
  6
ByLayer
 62
    7
370
   -1
100
AcDbLine
 10
289.7779154
 20
128.849221
 11
288.7319154
 21
131.092221
  0
LINE
  5
328
100
AcDbEntity
  8
Top
  6
ByLayer
 62
    7
370
   -1
100
AcDbLine
 10
288.7319154
 20
131.092221
 11
271.4649154
 21
123.041221
  0
LINE
  5
329
100
AcDbEntity
  8
Top
  6
ByLayer
 62
    7
370
   -1
100
AcDbLine
 10
271.4649154
 20
123.041221
 11
272.5109154
 21
120.797221
  0
LINE
  5
32A
100
AcDbEntity
  8
Top
  6
ByLayer
 62
    7
370
   -1
100
AcDbLine
 10
272.5109154
 20
120.797221
 11
255.2459154
 21
112.747221
  0
LINE
  5
32B
100
AcDbEntity
  8
Top
  6
ByLayer
 62
    7
370
   -1
100
AcDbLine
 10
255.2459154
 20
112.747221
 11
256.2119154
 21
110.674221
  0
LINE
  5
32C
100
AcDbEntity
  8
Top
  6
ByLayer
 62
    7
370
   -1
100
AcDbLine
 10
256.2119154
 20
110.674221
 11
238.9479154
 21
102.624221
  0
LINE
  5
32D
100
AcDbEntity
  8
Top
  6
ByLayer
 62
    7
370
   -1
100
AcDbLine
 10
238.9479154
 20
102.624221
 11
263.0999154
 21
50.826221
  0
LINE
  5
32E
100
AcDbEntity
  8
Top
  6
ByLayer
 62
    7
370
   -1
100
AcDbLine
 10
263.0999154
 20
50.826221
 11
263.1019154
 21
50.826221
  0
LINE
  5
32F
100
AcDbEntity
  8
Top
  6
ByLayer
 62
    7
370
   -1
100
AcDbLine
 10
263.1019154
 20
50.826221
 11
264.1479154
 21
48.582921
  0
LINE
  5
330
100
AcDbEntity
  8
Top
  6
ByLayer
 62
    7
370
   -1
100
AcDbLine
 10
264.1479154
 20
48.582921
 11
246.8809154
 21
40.533621
  0
LINE
  5
331
100
AcDbEntity
  8
Top
  6
ByLayer
 62
    7
370
   -1
100
AcDbLine
 10
246.8809154
 20
40.533621
 11
262.9849154
 21
5.999981
  0
LINE
  5
332
100
AcDbEntity
  8
Top
  6
ByLayer
 62
    7
370
   -1
100
AcDbLine
 10
262.9849154
 20
5.999981
 11
280.2519154
 21
14.051821
  0
LINE
  5
333
100
AcDbEntity
  8
Top
  6
ByLayer
 62
    7
370
   -1
100
AcDbLine
 10
280.2519154
 20
14.051821
 11
279.2039154
 21
16.298021
  0
LINE
  5
334
100
AcDbEntity
  8
Top
  6
ByLayer
 62
    7
370
   -1
100
AcDbLine
 10
279.2039154
 20
16.298021
 11
313.7339154
 21
32.399021
  0
LINE
  5
335
100
AcDbEntity
  8
Top
  6
ByLayer
 62
    7
370
   -1
100
AcDbLine
 10
313.7339154
 20
32.399021
 11
311.7219154
 21
36.715121
  0
LINE
  5
336
100
AcDbEntity
  8
Top
  6
ByLayer
 62
    7
370
   -1
100
AcDbLine
 10
311.7219154
 20
36.715121
 11
328.9859154
 21
44.765521
  0
LINE
  5
337
100
AcDbEntity
  8
Top
  6
ByLayer
 62
    7
370
   -1
100
AcDbLine
 10
328.9859154
 20
44.765521
 11
330.0319154
 21
42.520721
  0
LINE
  5
338
100
AcDbEntity
  8
Top
  6
ByLayer
 62
    7
370
   -1
100
AcDbLine
 10
330.0319154
 20
42.520721
 11
347.2969154
 21
50.571121
  0
LINE
  5
339
100
AcDbEntity
  8
Top
  6
ByLayer
 62
    7
370
   -1
100
AcDbLine
 10
347.2969154
 20
50.571121
 11
349.3109154
 21
46.255321
  0
LINE
  5
33A
100
AcDbEntity
  8
Top
  6
ByLayer
 62
    7
370
   -1
100
AcDbLine
 10
349.3109154
 20
46.255321
 11
366.5749154
 21
54.305621
  0
LINE
  5
33B
100
AcDbEntity
  8
Top
  6
ByLayer
 62
    7
370
   -1
100
AcDbLine
 10
366.5749154
 20
54.305621
 11
369.5529154
 21
47.918621
  0
LINE
  5
33C
100
AcDbEntity
  8
Top
  6
ByLayer
 62
    7
370
   -1
100
AcDbLine
 10
369.5529154
 20
47.918621
 11
386.8209154
 21
55.969021
  0
LINE
  5
33D
100
AcDbEntity
  8
Top
  6
ByLayer
 62
    7
370
   -1
100
AcDbLine
 10
386.8209154
 20
55.969021
 11
389.8799154
 21
49.408021
  0
LINE
  5
33E
100
AcDbEntity
  8
Top
  6
ByLayer
 62
    7
370
   -1
100
AcDbLine
 10
389.8799154
 20
49.408021
 11
407.1449154
 21
57.460221
  0
LINE
  5
33F
100
AcDbEntity
  8
Top
  6
ByLayer
 62
    7
370
   -1
100
AcDbLine
 10
407.1449154
 20
57.460221
 11
374.9399154
 21
126.523221
  0
LINE
  5
340
100
AcDbEntity
  8
Top
  6
ByLayer
 62
    7
370
   -1
100
AcDbLine
 10
374.9399154
 20
126.523221
 11
366.8889154
 21
143.787221
  0
LINE
  5
341
100
AcDbEntity
  8
Top
  6
ByLayer
 62
    7
370
   -1
100
AcDbLine
 10
366.8889154
 20
143.787221
 11
349.6249154
 21
135.736221
  0
LINE
  5
342
100
AcDbEntity
  8
Top
  6
ByLayer
 62
    7
370
   -1
100
AcDbLine
 10
25.7679154
 20
91.992221
 11
9.6655754
 21
57.460221
  0
LINE
  5
343
100
AcDbEntity
  8
Top
  6
ByLayer
 62
    7
370
   -1
100
AcDbLine
 10
9.6655754
 20
57.460221
 11
26.9324154
 21
49.408021
  0
LINE
  5
344
100
AcDbEntity
  8
Top
  6
ByLayer
 62
    7
370
   -1
100
AcDbLine
 10
26.9324154
 20
49.408021
 11
29.9916154
 21
55.969021
  0
LINE
  5
345
100
AcDbEntity
  8
Top
  6
ByLayer
 62
    7
370
   -1
100
AcDbLine
 10
29.9916154
 20
55.969021
 11
47.2572154
 21
47.918621
  0
LINE
  5
346
100
AcDbEntity
  8
Top
  6
ByLayer
 62
    7
370
   -1
100
AcDbLine
 10
47.2572154
 20
47.918621
 11
50.2350154
 21
54.305621
  0
LINE
  5
347
100
AcDbEntity
  8
Top
  6
ByLayer
 62
    7
370
   -1
100
AcDbLine
 10
50.2350154
 20
54.305621
 11
67.50031539999999
 21
46.255321
  0
LINE
  5
348
100
AcDbEntity
  8
Top
  6
ByLayer
 62
    7
370
   -1
100
AcDbLine
 10
67.50031539999999
 20
46.255321
 11
69.51361539999999
 21
50.571121
  0
LINE
  5
349
100
AcDbEntity
  8
Top
  6
ByLayer
 62
    7
370
   -1
100
AcDbLine
 10
69.51361539999999
 20
50.571121
 11
86.77781539999999
 21
42.520721
  0
LINE
  5
34A
100
AcDbEntity
  8
Top
  6
ByLayer
 62
    7
370
   -1
100
AcDbLine
 10
86.77781539999999
 20
42.520721
 11
87.82521539999999
 21
44.765521
  0
LINE
  5
34B
100
AcDbEntity
  8
Top
  6
ByLayer
 62
    7
370
   -1
100
AcDbLine
 10
87.82521539999999
 20
44.765521
 11
105.0879154
 21
36.715121
  0
LINE
  5
34C
100
AcDbEntity
  8
Top
  6
ByLayer
 62
    7
370
   -1
100
AcDbLine
 10
105.0879154
 20
36.715121
 11
103.0759154
 21
32.399021
  0
LINE
  5
34D
100
AcDbEntity
  8
Top
  6
ByLayer
 62
    7
370
   -1
100
AcDbLine
 10
103.0759154
 20
32.399021
 11
137.6069154
 21
16.298021
  0
LINE
  5
34E
100
AcDbEntity
  8
Top
  6
ByLayer
 62
    7
370
   -1
100
AcDbLine
 10
137.6069154
 20
16.298021
 11
136.5589154
 21
14.051821
  0
LINE
  5
34F
100
AcDbEntity
  8
Top
  6
ByLayer
 62
    7
370
   -1
100
AcDbLine
 10
136.5589154
 20
14.051821
 11
153.8269154
 21
5.999981
  0
LINE
  5
350
100
AcDbEntity
  8
Top
  6
ByLayer
 62
    7
370
   -1
100
AcDbLine
 10
153.8269154
 20
5.999981
 11
169.9289154
 21
40.533621
  0
LINE
  5
351
100
AcDbEntity
  8
Top
  6
ByLayer
 62
    7
370
   -1
100
AcDbLine
 10
169.9289154
 20
40.533621
 11
152.6629154
 21
48.582921
  0
LINE
  5
352
100
AcDbEntity
  8
Top
  6
ByLayer
 62
    7
370
   -1
100
AcDbLine
 10
152.6629154
 20
48.582921
 11
177.8619154
 21
102.624221
  0
LINE
  5
353
100
AcDbEntity
  8
Top
  6
ByLayer
 62
    7
370
   -1
100
AcDbLine
 10
177.8619154
 20
102.624221
 11
160.5979154
 21
110.674221
  0
LINE
  5
354
100
AcDbEntity
  8
Top
  6
ByLayer
 62
    7
370
   -1
100
AcDbLine
 10
160.5979154
 20
110.674221
 11
161.5639154
 21
112.747221
  0
LINE
  5
355
100
AcDbEntity
  8
Top
  6
ByLayer
 62
    7
370
   -1
100
AcDbLine
 10
161.5639154
 20
112.747221
 11
144.2989154
 21
120.797221
  0
LINE
  5
356
100
AcDbEntity
  8
Top
  6
ByLayer
 62
    7
370
   -1
100
AcDbLine
 10
144.2989154
 20
120.797221
 11
145.3459154
 21
123.041221
  0
LINE
  5
357
100
AcDbEntity
  8
Top
  6
ByLayer
 62
    7
370
   -1
100
AcDbLine
 10
145.3459154
 20
123.041221
 11
128.0789154
 21
131.092221
  0
LINE
  5
358
100
AcDbEntity
  8
Top
  6
ByLayer
 62
    7
370
   -1
100
AcDbLine
 10
128.0789154
 20
131.092221
 11
127.0319154
 21
128.849221
  0
LINE
  5
359
100
AcDbEntity
  8
Top
  6
ByLayer
 62
    7
370
   -1
100
AcDbLine
 10
127.0319154
 20
128.849221
 11
109.7659154
 21
136.900221
  0
LINE
  5
35A
100
AcDbEntity
  8
Top
  6
ByLayer
 62
    7
370
   -1
100
AcDbLine
 10
109.7659154
 20
136.900221
 11
107.7529154
 21
132.584221
  0
LINE
  5
35B
100
AcDbEntity
  8
Top
  6
ByLayer
 62
    7
370
   -1
100
AcDbLine
 10
107.7529154
 20
132.584221
 11
90.48871539999999
 21
140.634221
  0
LINE
  5
35C
100
AcDbEntity
  8
Top
  6
ByLayer
 62
    7
370
   -1
100
AcDbLine
 10
90.48871539999999
 20
140.634221
 11
87.5095154
 21
134.246221
  0
LINE
  5
35D
100
AcDbEntity
  8
Top
  6
ByLayer
 62
    7
370
   -1
100
AcDbLine
 10
87.5095154
 20
134.246221
 11
70.24421539999999
 21
142.297221
  0
LINE
  5
35E
100
AcDbEntity
  8
Top
  6
ByLayer
 62
    7
370
   -1
100
AcDbLine
 10
70.24421539999999
 20
142.297221
 11
67.18491539999999
 21
135.736221
  0
LINE
  5
35F
100
AcDbEntity
  8
Top
  6
ByLayer
 62
    7
370
   -1
100
AcDbLine
 10
67.18491539999999
 20
135.736221
 11
49.9207154
 21
143.787221
  0
LINE
  5
360
100
AcDbEntity
  8
Top
  6
ByLayer
 62
    7
370
   -1
100
AcDbLine
 10
49.9207154
 20
143.787221
 11
25.7679154
 21
91.992221
  0
LWPOLYLINE
  5
361
100
AcDbEntity
  8
Display
  6
ByLayer
 62
  256
370
   -1
100
AcDbPolyline
 90
    4
 70
    1
 43
0
 10
226.1055088295155
 20
64.70844647733914
 10
190.7055088295155
 20
64.70844647733914
 10
190.7055088295155
 20
98.20844647733912
 10
226.1055088295155
 20
98.20844647733912
  0
LWPOLYLINE
  5
362
100
AcDbEntity
  8
Display
  6
ByLayer
 62
  256
370
   -1
100
AcDbPolyline
 90
    4
 70
    1
 43
0
 10
223.1155088295155
 20
90.85844647733911
 10
193.6955088295155
 20
90.85844647733911
 10
193.6955088295155
 20
76.15844647733913
 10
223.1155088295155
 20
76.15844647733913
  0
CIRCLE
  5
363
100
AcDbEntity
  8
Display
  6
ByLayer
 62
  256
370
   -1
100
AcDbCircle
 10
223.6055088295155
 20
95.70844647733912
 40
1.5
  0
CIRCLE
  5
364
100
AcDbEntity
  8
Display
  6
ByLayer
 62
  256
370
   -1
100
AcDbCircle
 10
193.2055088295155
 20
95.70844647733912
 40
1.5
  0
CIRCLE
  5
365
100
AcDbEntity
  8
Display
  6
ByLayer
 62
  256
370
   -1
100
AcDbCircle
 10
223.6055088295155
 20
67.20844647733914
 40
1.5
  0
CIRCLE
  5
366
100
AcDbEntity
  8
Display
  6
ByLayer
 62
  256
370
   -1
100
AcDbCircle
 10
193.2055088295155
 20
67.20844647733914
 40
1.5
  0
LINE
  5
367
100
AcDbEntity
  8
Display
  6
ByLayer
 62
  256
370
   -1
100
AcDbLine
 10
208.4055088295155
 20
98.20844647733912
 11
208.4055088295155
 21
64.70844647733914
  0
LINE
  5
368
100
AcDbEntity
  8
SwitchPlateL
  6
ByLayer
 62
    7
370
   -1
100
AcDbLine
 10
139.9169154
 20
15.274221
 11
152.6039154
 21
9.356871000000002
  0
LINE
  5
369
100
AcDbEntity
  8
SwitchPlateL
  6
ByLayer
 62
    7
370
   -1
100
AcDbLine
 10
152.6039154
 20
9.356871000000002
 11
158.5209154
 21
22.045821
  0
LINE
  5
36A
100
AcDbEntity
  8
SwitchPlateL
  6
ByLayer
 62
    7
370
   -1
100
AcDbLine
 10
158.5209154
 20
22.045821
 11
145.8319154
 21
27.961721
  0
LINE
  5
36B
100
AcDbEntity
  8
SwitchPlateL
  6
ByLayer
 62
    7
370
   -1
100
AcDbLine
 10
145.8319154
 20
27.961721
 11
139.9169154
 21
15.274221
  0
LINE
  5
36C
100
AcDbEntity
  8
SwitchPlateL
  6
ByLayer
 62
    7
370
   -1
100
AcDbLine
 10
114.9489154
 20
44.842721
 11
113.3849154
 21
45.571621
  0
LINE
  5
36D
100
AcDbEntity
  8
SwitchPlateL
  6
ByLayer
 62
    7
370
   -1
100
AcDbLine
 10
113.3849154
 20
45.571621
 11
110.7349154
 21
39.890121
  0
LINE
  5
36E
100
AcDbEntity
  8
SwitchPlateL
  6
ByLayer
 62
    7
370
   -1
100
AcDbLine
 10
110.7349154
 20
39.890121
 11
109.9869154
 21
40.238621
  0
LINE
  5
36F
100
AcDbEntity
  8
SwitchPlateL
  6
ByLayer
 62
    7
370
   -1
100
AcDbLine
 10
109.9869154
 20
40.238621
 11
108.8029154
 21
37.700421
  0
LINE
  5
370
100
AcDbEntity
  8
SwitchPlateL
  6
ByLayer
 62
    7
370
   -1
100
AcDbLine
 10
108.8029154
 20
37.700421
 11
109.5519154
 21
37.351821
  0
LINE
  5
371
100
AcDbEntity
  8
SwitchPlateL
  6
ByLayer
 62
    7
370
   -1
100
AcDbLine
 10
109.5519154
 20
37.351821
 11
108.1869154
 21
34.424721
  0
LINE
  5
372
100
AcDbEntity
  8
SwitchPlateL
  6
ByLayer
 62
    7
370
   -1
100
AcDbLine
 10
108.1869154
 20
34.424721
 11
114.3039154
 21
31.570821
  0
LINE
  5
373
100
AcDbEntity
  8
SwitchPlateL
  6
ByLayer
 62
    7
370
   -1
100
AcDbLine
 10
114.3039154
 20
31.570821
 11
115.6699154
 21
34.499221
  0
LINE
  5
374
100
AcDbEntity
  8
SwitchPlateL
  6
ByLayer
 62
    7
370
   -1
100
AcDbLine
 10
115.6699154
 20
34.499221
 11
117.0519154
 21
33.854221
  0
LINE
  5
375
100
AcDbEntity
  8
SwitchPlateL
  6
ByLayer
 62
    7
370
   -1
100
AcDbLine
 10
117.0519154
 20
33.854221
 11
115.0649154
 21
29.596121
  0
LINE
  5
376
100
AcDbEntity
  8
SwitchPlateL
  6
ByLayer
 62
    7
370
   -1
100
AcDbLine
 10
115.0649154
 20
29.596121
 11
127.7539154
 21
23.678821
  0
LINE
  5
377
100
AcDbEntity
  8
SwitchPlateL
  6
ByLayer
 62
    7
370
   -1
100
AcDbLine
 10
127.7539154
 20
23.678821
 11
129.7399154
 21
27.936921
  0
LINE
  5
378
100
AcDbEntity
  8
SwitchPlateL
  6
ByLayer
 62
    7
370
   -1
100
AcDbLine
 10
129.7399154
 20
27.936921
 11
131.1219154
 21
27.293421
  0
LINE
  5
379
100
AcDbEntity
  8
SwitchPlateL
  6
ByLayer
 62
    7
370
   -1
100
AcDbLine
 10
131.1219154
 20
27.293421
 11
129.7559154
 21
24.366521
  0
LINE
  5
37A
100
AcDbEntity
  8
SwitchPlateL
  6
ByLayer
 62
    7
370
   -1
100
AcDbLine
 10
129.7559154
 20
24.366521
 11
135.8749154
 21
21.513921
  0
LINE
  5
37B
100
AcDbEntity
  8
SwitchPlateL
  6
ByLayer
 62
    7
370
   -1
100
AcDbLine
 10
135.8749154
 20
21.513921
 11
137.2389154
 21
24.440921
  0
LINE
  5
37C
100
AcDbEntity
  8
SwitchPlateL
  6
ByLayer
 62
    7
370
   -1
100
AcDbLine
 10
137.2389154
 20
24.440921
 11
137.9869154
 21
24.092221
  0
LINE
  5
37D
100
AcDbEntity
  8
SwitchPlateL
  6
ByLayer
 62
    7
370
   -1
100
AcDbLine
 10
137.9869154
 20
24.092221
 11
139.1709154
 21
26.630621
  0
LINE
  5
37E
100
AcDbEntity
  8
SwitchPlateL
  6
ByLayer
 62
    7
370
   -1
100
AcDbLine
 10
139.1709154
 20
26.630621
 11
138.4219154
 21
26.977821
  0
LINE
  5
37F
100
AcDbEntity
  8
SwitchPlateL
  6
ByLayer
 62
    7
370
   -1
100
AcDbLine
 10
138.4219154
 20
26.977821
 11
141.0729154
 21
32.660921
  0
LINE
  5
380
100
AcDbEntity
  8
SwitchPlateL
  6
ByLayer
 62
    7
370
   -1
100
AcDbLine
 10
141.0729154
 20
32.660921
 11
139.5099154
 21
33.389821
  0
LINE
  5
381
100
AcDbEntity
  8
SwitchPlateL
  6
ByLayer
 62
    7
370
   -1
100
AcDbLine
 10
139.5099154
 20
33.389821
 11
140.0169154
 21
34.477121
  0
LINE
  5
382
100
AcDbEntity
  8
SwitchPlateL
  6
ByLayer
 62
    7
370
   -1
100
AcDbLine
 10
140.0169154
 20
34.477121
 11
137.0249154
 21
35.871621
  0
LINE
  5
383
100
AcDbEntity
  8
SwitchPlateL
  6
ByLayer
 62
    7
370
   -1
100
AcDbLine
 10
137.0249154
 20
35.871621
 11
136.5179154
 21
34.784421
  0
LINE
  5
384
100
AcDbEntity
  8
SwitchPlateL
  6
ByLayer
 62
    7
370
   -1
100
AcDbLine
 10
136.5179154
 20
34.784421
 11
134.9539154
 21
35.513521
  0
LINE
  5
385
100
AcDbEntity
  8
SwitchPlateL
  6
ByLayer
 62
    7
370
   -1
100
AcDbLine
 10
134.9539154
 20
35.513521
 11
133.0649154
 21
31.462021
  0
LINE
  5
386
100
AcDbEntity
  8
SwitchPlateL
  6
ByLayer
 62
    7
370
   -1
100
AcDbLine
 10
133.0649154
 20
31.462021
 11
131.6839154
 21
32.106921
  0
LINE
  5
387
100
AcDbEntity
  8
SwitchPlateL
  6
ByLayer
 62
    7
370
   -1
100
AcDbLine
 10
131.6839154
 20
32.106921
 11
133.6709154
 21
36.366521
  0
LINE
  5
388
100
AcDbEntity
  8
SwitchPlateL
  6
ByLayer
 62
    7
370
   -1
100
AcDbLine
 10
133.6709154
 20
36.366521
 11
120.9809154
 21
42.283721
  0
LINE
  5
389
100
AcDbEntity
  8
SwitchPlateL
  6
ByLayer
 62
    7
370
   -1
100
AcDbLine
 10
120.9809154
 20
42.283721
 11
118.9949154
 21
38.024221
  0
LINE
  5
38A
100
AcDbEntity
  8
SwitchPlateL
  6
ByLayer
 62
    7
370
   -1
100
AcDbLine
 10
118.9949154
 20
38.024221
 11
117.6129154
 21
38.667721
  0
LINE
  5
38B
100
AcDbEntity
  8
SwitchPlateL
  6
ByLayer
 62
    7
370
   -1
100
AcDbLine
 10
117.6129154
 20
38.667721
 11
119.5019154
 21
42.719021
  0
LINE
  5
38C
100
AcDbEntity
  8
SwitchPlateL
  6
ByLayer
 62
    7
370
   -1
100
AcDbLine
 10
119.5019154
 20
42.719021
 11
117.9399154
 21
43.448221
  0
LINE
  5
38D
100
AcDbEntity
  8
SwitchPlateL
  6
ByLayer
 62
    7
370
   -1
100
AcDbLine
 10
117.9399154
 20
43.448221
 11
118.4459154
 21
44.536921
  0
LINE
  5
38E
100
AcDbEntity
  8
SwitchPlateL
  6
ByLayer
 62
    7
370
   -1
100
AcDbLine
 10
118.4459154
 20
44.536921
 11
115.4549154
 21
45.930021
  0
LINE
  5
38F
100
AcDbEntity
  8
SwitchPlateL
  6
ByLayer
 62
    7
370
   -1
100
AcDbLine
 10
115.4549154
 20
45.930021
 11
114.9489154
 21
44.842721
  0
LINE
  5
390
100
AcDbEntity
  8
SwitchPlateL
  6
ByLayer
 62
    7
370
   -1
100
AcDbLine
 10
147.9669154
 20
32.539621
 11
160.6559154
 21
26.622321
  0
LINE
  5
391
100
AcDbEntity
  8
SwitchPlateL
  6
ByLayer
 62
    7
370
   -1
100
AcDbLine
 10
160.6559154
 20
26.622321
 11
166.5719154
 21
39.311221
  0
LINE
  5
392
100
AcDbEntity
  8
SwitchPlateL
  6
ByLayer
 62
    7
370
   -1
100
AcDbLine
 10
166.5719154
 20
39.311221
 11
153.8829154
 21
45.227321
  0
LINE
  5
393
100
AcDbEntity
  8
SwitchPlateL
  6
ByLayer
 62
    7
370
   -1
100
AcDbLine
 10
153.8829154
 20
45.227321
 11
147.9669154
 21
32.539621
  0
LINE
  5
394
100
AcDbEntity
  8
SwitchPlateL
  6
ByLayer
 62
    7
370
   -1
100
AcDbLine
 10
131.7489154
 20
42.835121
 11
144.4359154
 21
36.919021
  0
LINE
  5
395
100
AcDbEntity
  8
SwitchPlateL
  6
ByLayer
 62
    7
370
   -1
100
AcDbLine
 10
144.4359154
 20
36.919021
 11
150.3539154
 21
49.606621
  0
LINE
  5
396
100
AcDbEntity
  8
SwitchPlateL
  6
ByLayer
 62
    7
370
   -1
100
AcDbLine
 10
150.3539154
 20
49.606621
 11
137.6659154
 21
55.523821
  0
LINE
  5
397
100
AcDbEntity
  8
SwitchPlateL
  6
ByLayer
 62
    7
370
   -1
100
AcDbLine
 10
137.6659154
 20
55.523821
 11
131.7489154
 21
42.835121
  0
LINE
  5
398
100
AcDbEntity
  8
SwitchPlateL
  6
ByLayer
 62
    7
370
   -1
100
AcDbLine
 10
91.1805154
 20
45.987821
 11
103.8679154
 21
40.072121
  0
LINE
  5
399
100
AcDbEntity
  8
SwitchPlateL
  6
ByLayer
 62
    7
370
   -1
100
AcDbLine
 10
103.8679154
 20
40.072121
 11
109.7859154
 21
52.759421
  0
LINE
  5
39A
100
AcDbEntity
  8
SwitchPlateL
  6
ByLayer
 62
    7
370
   -1
100
AcDbLine
 10
109.7859154
 20
52.759421
 11
97.0966154
 21
58.676921
  0
LINE
  5
39B
100
AcDbEntity
  8
SwitchPlateL
  6
ByLayer
 62
    7
370
   -1
100
AcDbLine
 10
97.0966154
 20
58.676921
 11
91.1805154
 21
45.987821
  0
LINE
  5
39C
100
AcDbEntity
  8
SwitchPlateL
  6
ByLayer
 62
    7
370
   -1
100
AcDbLine
 10
72.86781540000001
 20
51.794921
 11
85.55691540000001
 21
45.877821
  0
LINE
  5
39D
100
AcDbEntity
  8
SwitchPlateL
  6
ByLayer
 62
    7
370
   -1
100
AcDbLine
 10
85.55691540000001
 20
45.877821
 11
91.47301540000001
 21
58.565121
  0
LINE
  5
39E
100
AcDbEntity
  8
SwitchPlateL
  6
ByLayer
 62
    7
370
   -1
100
AcDbLine
 10
91.47301540000001
 20
58.565121
 11
78.78391540000001
 21
64.48262099999999
  0
LINE
  5
39F
100
AcDbEntity
  8
SwitchPlateL
  6
ByLayer
 62
    7
370
   -1
100
AcDbLine
 10
78.78391540000001
 20
64.48262099999999
 11
72.86781540000001
 21
51.794921
  0
LINE
  5
3A0
100
AcDbEntity
  8
SwitchPlateL
  6
ByLayer
 62
    7
370
   -1
100
AcDbLine
 10
115.4489154
 20
52.958021
 11
128.1369154
 21
47.040521
  0
LINE
  5
3A1
100
AcDbEntity
  8
SwitchPlateL
  6
ByLayer
 62
    7
370
   -1
100
AcDbLine
 10
128.1369154
 20
47.040521
 11
134.0539154
 21
59.729621
  0
LINE
  5
3A2
100
AcDbEntity
  8
SwitchPlateL
  6
ByLayer
 62
    7
370
   -1
100
AcDbLine
 10
134.0539154
 20
59.729621
 11
121.3669154
 21
65.64572099999999
  0
LINE
  5
3A3
100
AcDbEntity
  8
SwitchPlateL
  6
ByLayer
 62
    7
370
   -1
100
AcDbLine
 10
121.3669154
 20
65.64572099999999
 11
115.4489154
 21
52.958021
  0
LINE
  5
3A4
100
AcDbEntity
  8
SwitchPlateL
  6
ByLayer
 62
    7
370
   -1
100
AcDbLine
 10
53.5906154
 20
55.528021
 11
66.27831540000001
 21
49.612321
  0
LINE
  5
3A5
100
AcDbEntity
  8
SwitchPlateL
  6
ByLayer
 62
    7
370
   -1
100
AcDbLine
 10
66.27831540000001
 20
49.612321
 11
72.1954154
 21
62.299621
  0
LINE
  5
3A6
100
AcDbEntity
  8
SwitchPlateL
  6
ByLayer
 62
    7
370
   -1
100
AcDbLine
 10
72.1954154
 20
62.299621
 11
59.5064154
 21
68.21712100000001
  0
LINE
  5
3A7
100
AcDbEntity
  8
SwitchPlateL
  6
ByLayer
 62
    7
370
   -1
100
AcDbLine
 10
59.5064154
 20
68.21712100000001
 11
53.5906154
 21
55.528021
  0
LINE
  5
3A8
100
AcDbEntity
  8
SwitchPlateL
  6
ByLayer
 62
    7
370
   -1
100
AcDbLine
 10
33.3458154
 20
57.191421
 11
46.0348154
 21
51.273921
  0
LINE
  5
3A9
100
AcDbEntity
  8
SwitchPlateL
  6
ByLayer
 62
    7
370
   -1
100
AcDbLine
 10
46.0348154
 20
51.273921
 11
51.9520154
 21
63.96292099999999
  0
LINE
  5
3AA
100
AcDbEntity
  8
SwitchPlateL
  6
ByLayer
 62
    7
370
   -1
100
AcDbLine
 10
51.9520154
 20
63.96292099999999
 11
39.2629154
 21
69.87902099999999
  0
LINE
  5
3AB
100
AcDbEntity
  8
SwitchPlateL
  6
ByLayer
 62
    7
370
   -1
100
AcDbLine
 10
39.2629154
 20
69.87902099999999
 11
33.3458154
 21
57.191421
  0
LINE
  5
3AC
100
AcDbEntity
  8
SwitchPlateL
  6
ByLayer
 62
    7
370
   -1
100
AcDbLine
 10
13.0211154
 20
58.681121
 11
25.7100154
 21
52.765121
  0
LINE
  5
3AD
100
AcDbEntity
  8
SwitchPlateL
  6
ByLayer
 62
    7
370
   -1
100
AcDbLine
 10
25.7100154
 20
52.765121
 11
31.6260154
 21
65.454121
  0
LINE
  5
3AE
100
AcDbEntity
  8
SwitchPlateL
  6
ByLayer
 62
    7
370
   -1
100
AcDbLine
 10
31.6260154
 20
65.454121
 11
18.9384154
 21
71.36992100000001
  0
LINE
  5
3AF
100
AcDbEntity
  8
SwitchPlateL
  6
ByLayer
 62
    7
370
   -1
100
AcDbLine
 10
18.9384154
 20
71.36992100000001
 11
13.0211154
 21
58.681121
  0
LINE
  5
3B0
100
AcDbEntity
  8
SwitchPlateL
  6
ByLayer
 62
    7
370
   -1
100
AcDbLine
 10
139.7989154
 20
60.100421
 11
152.4869154
 21
54.183221
  0
LINE
  5
3B1
100
AcDbEntity
  8
SwitchPlateL
  6
ByLayer
 62
    7
370
   -1
100
AcDbLine
 10
152.4869154
 20
54.183221
 11
158.4039154
 21
66.871921
  0
LINE
  5
3B2
100
AcDbEntity
  8
SwitchPlateL
  6
ByLayer
 62
    7
370
   -1
100
AcDbLine
 10
158.4039154
 20
66.871921
 11
145.7169154
 21
72.788021
  0
LINE
  5
3B3
100
AcDbEntity
  8
SwitchPlateL
  6
ByLayer
 62
    7
370
   -1
100
AcDbLine
 10
145.7169154
 20
72.788021
 11
139.7989154
 21
60.100421
  0
LINE
  5
3B4
100
AcDbEntity
  8
SwitchPlateL
  6
ByLayer
 62
    7
370
   -1
100
AcDbLine
 10
99.22981540000001
 20
63.252121
 11
111.9189154
 21
57.336021
  0
LINE
  5
3B5
100
AcDbEntity
  8
SwitchPlateL
  6
ByLayer
 62
    7
370
   -1
100
AcDbLine
 10
111.9189154
 20
57.336021
 11
117.8359154
 21
70.025121
  0
LINE
  5
3B6
100
AcDbEntity
  8
SwitchPlateL
  6
ByLayer
 62
    7
370
   -1
100
AcDbLine
 10
117.8359154
 20
70.025121
 11
105.1469154
 21
75.940821
  0
LINE
  5
3B7
100
AcDbEntity
  8
SwitchPlateL
  6
ByLayer
 62
    7
370
   -1
100
AcDbLine
 10
105.1469154
 20
75.940821
 11
99.22981540000001
 21
63.252121
  0
LINE
  5
3B8
100
AcDbEntity
  8
SwitchPlateL
  6
ByLayer
 62
    7
370
   -1
100
AcDbLine
 10
80.91961540000001
 20
69.05922100000001
 11
93.6073154
 21
63.141721
  0
LINE
  5
3B9
100
AcDbEntity
  8
SwitchPlateL
  6
ByLayer
 62
    7
370
   -1
100
AcDbLine
 10
93.6073154
 20
63.141721
 11
99.52481540000001
 21
75.832121
  0
LINE
  5
3BA
100
AcDbEntity
  8
SwitchPlateL
  6
ByLayer
 62
    7
370
   -1
100
AcDbLine
 10
99.52481540000001
 20
75.832121
 11
86.83571540000001
 21
81.74792100000001
  0
LINE
  5
3BB
100
AcDbEntity
  8
SwitchPlateL
  6
ByLayer
 62
    7
370
   -1
100
AcDbLine
 10
86.83571540000001
 20
81.74792100000001
 11
80.91961540000001
 21
69.05922100000001
  0
LINE
  5
3BC
100
AcDbEntity
  8
SwitchPlateL
  6
ByLayer
 62
    7
370
   -1
100
AcDbLine
 10
123.4999154
 20
70.22192099999999
 11
136.1889154
 21
64.30622100000001
  0
LINE
  5
3BD
100
AcDbEntity
  8
SwitchPlateL
  6
ByLayer
 62
    7
370
   -1
100
AcDbLine
 10
136.1889154
 20
64.30622100000001
 11
142.1059154
 21
76.993821
  0
LINE
  5
3BE
100
AcDbEntity
  8
SwitchPlateL
  6
ByLayer
 62
    7
370
   -1
100
AcDbLine
 10
142.1059154
 20
76.993821
 11
129.4169154
 21
82.91102100000001
  0
LINE
  5
3BF
100
AcDbEntity
  8
SwitchPlateL
  6
ByLayer
 62
    7
370
   -1
100
AcDbLine
 10
129.4169154
 20
82.91102100000001
 11
123.4999154
 21
70.22192099999999
  0
LINE
  5
3C0
100
AcDbEntity
  8
SwitchPlateL
  6
ByLayer
 62
    7
370
   -1
100
AcDbLine
 10
61.6410154
 20
72.79332100000001
 11
74.33011540000001
 21
66.877621
  0
LINE
  5
3C1
100
AcDbEntity
  8
SwitchPlateL
  6
ByLayer
 62
    7
370
   -1
100
AcDbLine
 10
74.33011540000001
 20
66.877621
 11
80.24581540000001
 21
79.56522100000001
  0
LINE
  5
3C2
100
AcDbEntity
  8
SwitchPlateL
  6
ByLayer
 62
    7
370
   -1
100
AcDbLine
 10
80.24581540000001
 20
79.56522100000001
 11
67.5571154
 21
85.482421
  0
LINE
  5
3C3
100
AcDbEntity
  8
SwitchPlateL
  6
ByLayer
 62
    7
370
   -1
100
AcDbLine
 10
67.5571154
 20
85.482421
 11
61.6410154
 21
72.79332100000001
  0
LINE
  5
3C4
100
AcDbEntity
  8
SwitchPlateL
  6
ByLayer
 62
    7
370
   -1
100
AcDbLine
 10
41.3976154
 20
74.456721
 11
54.0852154
 21
68.540921
  0
LINE
  5
3C5
100
AcDbEntity
  8
SwitchPlateL
  6
ByLayer
 62
    7
370
   -1
100
AcDbLine
 10
54.0852154
 20
68.540921
 11
60.0024154
 21
81.228621
  0
LINE
  5
3C6
100
AcDbEntity
  8
SwitchPlateL
  6
ByLayer
 62
    7
370
   -1
100
AcDbLine
 10
60.0024154
 20
81.228621
 11
47.3136154
 21
87.14572099999999
  0
LINE
  5
3C7
100
AcDbEntity
  8
SwitchPlateL
  6
ByLayer
 62
    7
370
   -1
100
AcDbLine
 10
47.3136154
 20
87.14572099999999
 11
41.3976154
 21
74.456721
  0
LINE
  5
3C8
100
AcDbEntity
  8
SwitchPlateL
  6
ByLayer
 62
    7
370
   -1
100
AcDbLine
 10
21.0729154
 20
75.946421
 11
33.7619154
 21
70.030421
  0
LINE
  5
3C9
100
AcDbEntity
  8
SwitchPlateL
  6
ByLayer
 62
    7
370
   -1
100
AcDbLine
 10
33.7619154
 20
70.030421
 11
39.6778154
 21
82.71802100000001
  0
LINE
  5
3CA
100
AcDbEntity
  8
SwitchPlateL
  6
ByLayer
 62
    7
370
   -1
100
AcDbLine
 10
39.6778154
 20
82.71802100000001
 11
26.9888154
 21
88.635521
  0
LINE
  5
3CB
100
AcDbEntity
  8
SwitchPlateL
  6
ByLayer
 62
    7
370
   -1
100
AcDbLine
 10
26.9888154
 20
88.635521
 11
21.0729154
 21
75.946421
  0
LINE
  5
3CC
100
AcDbEntity
  8
SwitchPlateL
  6
ByLayer
 62
    7
370
   -1
100
AcDbLine
 10
147.8499154
 20
77.36572100000001
 11
160.5389154
 21
71.448521
  0
LINE
  5
3CD
100
AcDbEntity
  8
SwitchPlateL
  6
ByLayer
 62
    7
370
   -1
100
AcDbLine
 10
160.5389154
 20
71.448521
 11
166.4559154
 21
84.13622100000001
  0
LINE
  5
3CE
100
AcDbEntity
  8
SwitchPlateL
  6
ByLayer
 62
    7
370
   -1
100
AcDbLine
 10
166.4559154
 20
84.13622100000001
 11
153.7669154
 21
90.053321
  0
LINE
  5
3CF
100
AcDbEntity
  8
SwitchPlateL
  6
ByLayer
 62
    7
370
   -1
100
AcDbLine
 10
153.7669154
 20
90.053321
 11
147.8499154
 21
77.36572100000001
  0
LINE
  5
3D0
100
AcDbEntity
  8
SwitchPlateL
  6
ByLayer
 62
    7
370
   -1
100
AcDbLine
 10
107.2819154
 20
80.518821
 11
119.9709154
 21
74.601321
  0
LINE
  5
3D1
100
AcDbEntity
  8
SwitchPlateL
  6
ByLayer
 62
    7
370
   -1
100
AcDbLine
 10
119.9709154
 20
74.601321
 11
125.8869154
 21
87.28902100000001
  0
LINE
  5
3D2
100
AcDbEntity
  8
SwitchPlateL
  6
ByLayer
 62
    7
370
   -1
100
AcDbLine
 10
125.8869154
 20
87.28902100000001
 11
113.1989154
 21
93.20642100000001
  0
LINE
  5
3D3
100
AcDbEntity
  8
SwitchPlateL
  6
ByLayer
 62
    7
370
   -1
100
AcDbLine
 10
113.1989154
 20
93.20642100000001
 11
107.2819154
 21
80.518821
  0
LINE
  5
3D4
100
AcDbEntity
  8
SwitchPlateL
  6
ByLayer
 62
    7
370
   -1
100
AcDbLine
 10
88.97041540000001
 20
86.324521
 11
101.6579154
 21
80.407021
  0
LINE
  5
3D5
100
AcDbEntity
  8
SwitchPlateL
  6
ByLayer
 62
    7
370
   -1
100
AcDbLine
 10
101.6579154
 20
80.407021
 11
107.5739154
 21
93.09602100000001
  0
LINE
  5
3D6
100
AcDbEntity
  8
SwitchPlateL
  6
ByLayer
 62
    7
370
   -1
100
AcDbLine
 10
107.5739154
 20
93.09602100000001
 11
94.88611540000001
 21
99.01212100000001
  0
LINE
  5
3D7
100
AcDbEntity
  8
SwitchPlateL
  6
ByLayer
 62
    7
370
   -1
100
AcDbLine
 10
94.88611540000001
 20
99.01212100000001
 11
88.97041540000001
 21
86.324521
  0
LINE
  5
3D8
100
AcDbEntity
  8
SwitchPlateL
  6
ByLayer
 62
    7
370
   -1
100
AcDbLine
 10
131.5519154
 20
87.487621
 11
144.2389154
 21
81.571521
  0
LINE
  5
3D9
100
AcDbEntity
  8
SwitchPlateL
  6
ByLayer
 62
    7
370
   -1
100
AcDbLine
 10
144.2389154
 20
81.571521
 11
150.1569154
 21
94.25912100000001
  0
LINE
  5
3DA
100
AcDbEntity
  8
SwitchPlateL
  6
ByLayer
 62
    7
370
   -1
100
AcDbLine
 10
150.1569154
 20
94.25912100000001
 11
137.4679154
 21
100.176221
  0
LINE
  5
3DB
100
AcDbEntity
  8
SwitchPlateL
  6
ByLayer
 62
    7
370
   -1
100
AcDbLine
 10
137.4679154
 20
100.176221
 11
131.5519154
 21
87.487621
  0
LINE
  5
3DC
100
AcDbEntity
  8
SwitchPlateL
  6
ByLayer
 62
    7
370
   -1
100
AcDbLine
 10
69.6928154
 20
90.059021
 11
82.38051540000001
 21
84.142921
  0
LINE
  5
3DD
100
AcDbEntity
  8
SwitchPlateL
  6
ByLayer
 62
    7
370
   -1
100
AcDbLine
 10
82.38051540000001
 20
84.142921
 11
88.29801540000001
 21
96.830521
  0
LINE
  5
3DE
100
AcDbEntity
  8
SwitchPlateL
  6
ByLayer
 62
    7
370
   -1
100
AcDbLine
 10
88.29801540000001
 20
96.830521
 11
75.6089154
 21
102.748221
  0
LINE
  5
3DF
100
AcDbEntity
  8
SwitchPlateL
  6
ByLayer
 62
    7
370
   -1
100
AcDbLine
 10
75.6089154
 20
102.748221
 11
69.6928154
 21
90.059021
  0
LINE
  5
3E0
100
AcDbEntity
  8
SwitchPlateL
  6
ByLayer
 62
    7
370
   -1
100
AcDbLine
 10
49.4483154
 20
91.720921
 11
62.1356154
 21
85.804821
  0
LINE
  5
3E1
100
AcDbEntity
  8
SwitchPlateL
  6
ByLayer
 62
    7
370
   -1
100
AcDbLine
 10
62.1356154
 20
85.804821
 11
68.05311540000001
 21
98.493921
  0
LINE
  5
3E2
100
AcDbEntity
  8
SwitchPlateL
  6
ByLayer
 62
    7
370
   -1
100
AcDbLine
 10
68.05311540000001
 20
98.493921
 11
55.3640154
 21
104.410221
  0
LINE
  5
3E3
100
AcDbEntity
  8
SwitchPlateL
  6
ByLayer
 62
    7
370
   -1
100
AcDbLine
 10
55.3640154
 20
104.410221
 11
49.4483154
 21
91.720921
  0
LINE
  5
3E4
100
AcDbEntity
  8
SwitchPlateL
  6
ByLayer
 62
    7
370
   -1
100
AcDbLine
 10
29.1234154
 20
93.211721
 11
41.8110154
 21
87.296021
  0
LINE
  5
3E5
100
AcDbEntity
  8
SwitchPlateL
  6
ByLayer
 62
    7
370
   -1
100
AcDbLine
 10
41.8110154
 20
87.296021
 11
47.7285154
 21
99.983221
  0
LINE
  5
3E6
100
AcDbEntity
  8
SwitchPlateL
  6
ByLayer
 62
    7
370
   -1
100
AcDbLine
 10
47.7285154
 20
99.983221
 11
35.0408154
 21
105.901221
  0
LINE
  5
3E7
100
AcDbEntity
  8
SwitchPlateL
  6
ByLayer
 62
    7
370
   -1
100
AcDbLine
 10
35.0408154
 20
105.901221
 11
29.1234154
 21
93.211721
  0
LINE
  5
3E8
100
AcDbEntity
  8
SwitchPlateL
  6
ByLayer
 62
    7
370
   -1
100
AcDbLine
 10
155.9019154
 20
94.629921
 11
168.5889154
 21
88.713821
  0
LINE
  5
3E9
100
AcDbEntity
  8
SwitchPlateL
  6
ByLayer
 62
    7
370
   -1
100
AcDbLine
 10
168.5889154
 20
88.713821
 11
174.5069154
 21
101.403221
  0
LINE
  5
3EA
100
AcDbEntity
  8
SwitchPlateL
  6
ByLayer
 62
    7
370
   -1
100
AcDbLine
 10
174.5069154
 20
101.403221
 11
161.8179154
 21
107.319221
  0
LINE
  5
3EB
100
AcDbEntity
  8
SwitchPlateL
  6
ByLayer
 62
    7
370
   -1
100
AcDbLine
 10
161.8179154
 20
107.319221
 11
155.9019154
 21
94.629921
  0
LINE
  5
3EC
100
AcDbEntity
  8
SwitchPlateL
  6
ByLayer
 62
    7
370
   -1
100
AcDbLine
 10
115.3319154
 20
97.782721
 11
128.0199154
 21
91.866921
  0
LINE
  5
3ED
100
AcDbEntity
  8
SwitchPlateL
  6
ByLayer
 62
    7
370
   -1
100
AcDbLine
 10
128.0199154
 20
91.866921
 11
133.9369154
 21
104.554221
  0
LINE
  5
3EE
100
AcDbEntity
  8
SwitchPlateL
  6
ByLayer
 62
    7
370
   -1
100
AcDbLine
 10
133.9369154
 20
104.554221
 11
121.2499154
 21
110.472221
  0
LINE
  5
3EF
100
AcDbEntity
  8
SwitchPlateL
  6
ByLayer
 62
    7
370
   -1
100
AcDbLine
 10
121.2499154
 20
110.472221
 11
115.3319154
 21
97.782721
  0
LINE
  5
3F0
100
AcDbEntity
  8
SwitchPlateL
  6
ByLayer
 62
    7
370
   -1
100
AcDbLine
 10
97.0207154
 20
103.590221
 11
109.7099154
 21
97.674021
  0
LINE
  5
3F1
100
AcDbEntity
  8
SwitchPlateL
  6
ByLayer
 62
    7
370
   -1
100
AcDbLine
 10
109.7099154
 20
97.674021
 11
115.6259154
 21
110.361221
  0
LINE
  5
3F2
100
AcDbEntity
  8
SwitchPlateL
  6
ByLayer
 62
    7
370
   -1
100
AcDbLine
 10
115.6259154
 20
110.361221
 11
102.9379154
 21
116.279221
  0
LINE
  5
3F3
100
AcDbEntity
  8
SwitchPlateL
  6
ByLayer
 62
    7
370
   -1
100
AcDbLine
 10
102.9379154
 20
116.279221
 11
97.0207154
 21
103.590221
  0
LINE
  5
3F4
100
AcDbEntity
  8
SwitchPlateL
  6
ByLayer
 62
    7
370
   -1
100
AcDbLine
 10
139.6019154
 20
104.753221
 11
152.2899154
 21
98.837121
  0
LINE
  5
3F5
100
AcDbEntity
  8
SwitchPlateL
  6
ByLayer
 62
    7
370
   -1
100
AcDbLine
 10
152.2899154
 20
98.837121
 11
158.2069154
 21
111.525221
  0
LINE
  5
3F6
100
AcDbEntity
  8
SwitchPlateL
  6
ByLayer
 62
    7
370
   -1
100
AcDbLine
 10
158.2069154
 20
111.525221
 11
145.5179154
 21
117.442221
  0
LINE
  5
3F7
100
AcDbEntity
  8
SwitchPlateL
  6
ByLayer
 62
    7
370
   -1
100
AcDbLine
 10
145.5179154
 20
117.442221
 11
139.6019154
 21
104.753221
  0
LINE
  5
3F8
100
AcDbEntity
  8
SwitchPlateL
  6
ByLayer
 62
    7
370
   -1
100
AcDbLine
 10
77.74361540000001
 20
107.324221
 11
90.4309154
 21
101.407221
  0
LINE
  5
3F9
100
AcDbEntity
  8
SwitchPlateL
  6
ByLayer
 62
    7
370
   -1
100
AcDbLine
 10
90.4309154
 20
101.407221
 11
96.3469154
 21
114.096221
  0
LINE
  5
3FA
100
AcDbEntity
  8
SwitchPlateL
  6
ByLayer
 62
    7
370
   -1
100
AcDbLine
 10
96.3469154
 20
114.096221
 11
83.65931540000001
 21
120.012221
  0
LINE
  5
3FB
100
AcDbEntity
  8
SwitchPlateL
  6
ByLayer
 62
    7
370
   -1
100
AcDbLine
 10
83.65931540000001
 20
120.012221
 11
77.74361540000001
 21
107.324221
  0
LINE
  5
3FC
100
AcDbEntity
  8
SwitchPlateL
  6
ByLayer
 62
    7
370
   -1
100
AcDbLine
 10
57.5001154
 20
108.987221
 11
70.18781540000001
 21
103.070221
  0
LINE
  5
3FD
100
AcDbEntity
  8
SwitchPlateL
  6
ByLayer
 62
    7
370
   -1
100
AcDbLine
 10
70.18781540000001
 20
103.070221
 11
76.10351540000001
 21
115.758221
  0
LINE
  5
3FE
100
AcDbEntity
  8
SwitchPlateL
  6
ByLayer
 62
    7
370
   -1
100
AcDbLine
 10
76.10351540000001
 20
115.758221
 11
63.4158154
 21
121.675221
  0
LINE
  5
3FF
100
AcDbEntity
  8
SwitchPlateL
  6
ByLayer
 62
    7
370
   -1
100
AcDbLine
 10
63.4158154
 20
121.675221
 11
57.5001154
 21
108.987221
  0
LINE
  5
400
100
AcDbEntity
  8
SwitchPlateL
  6
ByLayer
 62
    7
370
   -1
100
AcDbLine
 10
37.1741154
 20
110.477221
 11
49.8628154
 21
104.560221
  0
LINE
  5
401
100
AcDbEntity
  8
SwitchPlateL
  6
ByLayer
 62
    7
370
   -1
100
AcDbLine
 10
49.8628154
 20
104.560221
 11
55.7789154
 21
117.249221
  0
LINE
  5
402
100
AcDbEntity
  8
SwitchPlateL
  6
ByLayer
 62
    7
370
   -1
100
AcDbLine
 10
55.7789154
 20
117.249221
 11
43.0912154
 21
123.165221
  0
LINE
  5
403
100
AcDbEntity
  8
SwitchPlateL
  6
ByLayer
 62
    7
370
   -1
100
AcDbLine
 10
43.0912154
 20
123.165221
 11
37.1741154
 21
110.477221
  0
LINE
  5
404
100
AcDbEntity
  8
SwitchPlateL
  6
ByLayer
 62
    7
370
   -1
100
AcDbLine
 10
123.3829154
 20
115.048221
 11
136.0719154
 21
109.131221
  0
LINE
  5
405
100
AcDbEntity
  8
SwitchPlateL
  6
ByLayer
 62
    7
370
   -1
100
AcDbLine
 10
136.0719154
 20
109.131221
 11
141.9889154
 21
121.820221
  0
LINE
  5
406
100
AcDbEntity
  8
SwitchPlateL
  6
ByLayer
 62
    7
370
   -1
100
AcDbLine
 10
141.9889154
 20
121.820221
 11
129.2999154
 21
127.736221
  0
LINE
  5
407
100
AcDbEntity
  8
SwitchPlateL
  6
ByLayer
 62
    7
370
   -1
100
AcDbLine
 10
129.2999154
 20
127.736221
 11
123.3829154
 21
115.048221
  0
LINE
  5
408
100
AcDbEntity
  8
SwitchPlateL
  6
ByLayer
 62
    7
370
   -1
100
AcDbLine
 10
105.0709154
 20
120.854221
 11
117.7599154
 21
114.938221
  0
LINE
  5
409
100
AcDbEntity
  8
SwitchPlateL
  6
ByLayer
 62
    7
370
   -1
100
AcDbLine
 10
117.7599154
 20
114.938221
 11
123.6749154
 21
127.627221
  0
LINE
  5
40A
100
AcDbEntity
  8
SwitchPlateL
  6
ByLayer
 62
    7
370
   -1
100
AcDbLine
 10
123.6749154
 20
127.627221
 11
110.9889154
 21
133.543221
  0
LINE
  5
40B
100
AcDbEntity
  8
SwitchPlateL
  6
ByLayer
 62
    7
370
   -1
100
AcDbLine
 10
110.9889154
 20
133.543221
 11
105.0709154
 21
120.854221
  0
LINE
  5
40C
100
AcDbEntity
  8
SwitchPlateL
  6
ByLayer
 62
    7
370
   -1
100
AcDbLine
 10
85.7939154
 20
124.590221
 11
98.48301540000001
 21
118.672221
  0
LINE
  5
40D
100
AcDbEntity
  8
SwitchPlateL
  6
ByLayer
 62
    7
370
   -1
100
AcDbLine
 10
98.48301540000001
 20
118.672221
 11
104.3989154
 21
131.361221
  0
LINE
  5
40E
100
AcDbEntity
  8
SwitchPlateL
  6
ByLayer
 62
    7
370
   -1
100
AcDbLine
 10
104.3989154
 20
131.361221
 11
91.70971540000001
 21
137.277221
  0
LINE
  5
40F
100
AcDbEntity
  8
SwitchPlateL
  6
ByLayer
 62
    7
370
   -1
100
AcDbLine
 10
91.70971540000001
 20
137.277221
 11
85.7939154
 21
124.590221
  0
LINE
  5
410
100
AcDbEntity
  8
SwitchPlateL
  6
ByLayer
 62
    7
370
   -1
100
AcDbLine
 10
65.54911540000001
 20
126.252221
 11
78.23811540000001
 21
120.336221
  0
LINE
  5
411
100
AcDbEntity
  8
SwitchPlateL
  6
ByLayer
 62
    7
370
   -1
100
AcDbLine
 10
78.23811540000001
 20
120.336221
 11
84.1539154
 21
133.023221
  0
LINE
  5
412
100
AcDbEntity
  8
SwitchPlateL
  6
ByLayer
 62
    7
370
   -1
100
AcDbLine
 10
84.1539154
 20
133.023221
 11
71.46661540000001
 21
138.940221
  0
LINE
  5
413
100
AcDbEntity
  8
SwitchPlateL
  6
ByLayer
 62
    7
370
   -1
100
AcDbLine
 10
71.46661540000001
 20
138.940221
 11
65.54911540000001
 21
126.252221
  0
LINE
  5
414
100
AcDbEntity
  8
SwitchPlateL
  6
ByLayer
 62
    7
370
   -1
100
AcDbLine
 10
45.2259154
 20
127.742221
 11
57.9136154
 21
121.825221
  0
LINE
  5
415
100
AcDbEntity
  8
SwitchPlateL
  6
ByLayer
 62
    7
370
   -1
100
AcDbLine
 10
57.9136154
 20
121.825221
 11
63.8307154
 21
134.513221
  0
LINE
  5
416
100
AcDbEntity
  8
SwitchPlateL
  6
ByLayer
 62
    7
370
   -1
100
AcDbLine
 10
63.8307154
 20
134.513221
 11
51.1416154
 21
140.430221
  0
LINE
  5
417
100
AcDbEntity
  8
SwitchPlateL
  6
ByLayer
 62
    7
370
   -1
100
AcDbLine
 10
51.1416154
 20
140.430221
 11
45.2259154
 21
127.742221
  0
SPLINE
  5
418
100
AcDbEntity
  8
Board
  6
ByLayer
 62
  256
370
   -1
100
AcDbSpline
210
0
220
0
230
0
 70
    8
 71
    2
 72
   10
 73
    7
 74
    0
 42
1e-007
 43
1e-007
 40
0
 40
0
 40
0
 40
0.2
 40
0.4
 40
0.6
 40
0.8
 40
1
 40
1
 40
1
 10
365.3632182118457
 20
144.418485200031
 30
0
 10
348.5442296817599
 20
143.1285986975057
 30
0
 10
324.2421664323219
 20
141.575675771038
 30
0
 10
303.6285777653432
 20
137.4867983903349
 30
0
 10
279.6465096292493
 20
129.3620741672458
 30
0
 10
254.5011045972853
 20
113.6695423564062
 30
0
 10
240.1976454253686
 20
104.8036385637584
 30
0
  0
SPLINE
  5
419
100
AcDbEntity
  8
Board
  6
ByLayer
 62
  256
370
   -1
100
AcDbSpline
210
0
220
0
230
0
 70
    8
 71
    2
 72
   10
 73
    7
 74
    0
 42
1e-007
 43
1e-007
 40
0
 40
0
 40
0
 40
0.2
 40
0.4
 40
0.6
 40
0.8
 40
1
 40
1
 40
1
 10
51.44779944718528
 20
144.418485200031
 30
0
 10
68.26678797727114
 20
143.1285986975058
 30
0
 10
92.5688512267091
 20
141.575675771038
 30
0
 10
113.1824398936879
 20
137.4867983903349
 30
0
 10
137.1645080297817
 20
129.3620741672458
 30
0
 10
162.3099130617457
 20
113.6695423564061
 30
0
 10
176.6133722336624
 20
104.8036385637584
 30
0
  0
LWPOLYLINE
  5
41A
100
AcDbEntity
  8
Board
  6
ByLayer
 62
  256
370
   -1
100
AcDbPolyline
 90
    2
 70
    0
 43
0
 10
176.6133722336624
 20
104.8036385637584
 10
240.1976454253686
 20
104.8036385637584
  0
LWPOLYLINE
  5
41B
100
AcDbEntity
  8
Board
  6
ByLayer
 62
  256
370
   -1
100
AcDbPolyline
 90
   10
 70
    0
 43
0
 10
51.44779944718528
 20
144.418485200031
 10
45.99537504736401
 20
144.8341183024509
 10
22.14267636857832
 20
93.68267714112193
 10
4.82071238459319
 20
56.53515322255016
 10
157.5962047789856
 20
1.999981
 10
259.2148128800454
 20
1.999981
 10
411.9903052744378
 20
56.53515322255014
 10
394.6683228219287
 20
93.6827167469168
 10
370.815642611667
 20
144.8341183024509
 10
365.3632182118457
 20
144.418485200031
  0
SPLINE
  5
41C
100
AcDbEntity
  8
Board
  6
ByLayer
 62
  256
370
   -1
100
AcDbSpline
210
0
220
0
230
0
 70
    8
 71
    2
 72
   10
 73
    7
 74
    0
 42
1e-007
 43
1e-007
 40
0
 40
0
 40
0
 40
0.2
 40
0.4
 40
0.6
 40
0.8
 40
1
 40
1
 40
1
 10
365.2102827619887
 20
146.4126293142256
 30
0
 10
348.3975190920213
 20
145.1238888380841
 30
0
 10
323.9650718423951
 20
143.5593181524188
 30
0
 10
303.0999108837771
 20
139.4216812709002
 30
0
 10
278.7964737675218
 20
131.1789303833739
 30
0
 10
253.4674953535217
 20
115.3845420948163
 30
0
 10
239.1439584692477
 20
106.5035632087061
 30
0
  0
SPLINE
  5
41D
100
AcDbEntity
  8
Board
  6
ByLayer
 62
  256
370
   -1
100
AcDbSpline
210
0
220
0
230
0
 70
    8
 71
    2
 72
   10
 73
    7
 74
    0
 42
1e-007
 43
1e-007
 40
0
 40
0
 40
0
 40
0.2
 40
0.4
 40
0.6
 40
0.8
 40
1
 40
1
 40
1
 10
51.60073489704236
 20
146.4126293142256
 30
0
 10
68.4134985670096
 20
145.1238888380841
 30
0
 10
92.84594581663598
 20
143.5593181524187
 30
0
 10
113.7111067752539
 20
139.4216812709002
 30
0
 10
138.0145438915092
 20
131.1789303833739
 30
0
 10
163.3435223055093
 20
115.3845420948163
 30
0
 10
177.6670591897833
 20
106.5035632087061
 30
0
  0
LWPOLYLINE
  5
41E
100
AcDbEntity
  8
Board
  6
ByLayer
 62
  256
370
   -1
100
AcDbPolyline
 90
    2
 70
    0
 43
0
 10
176.6133722336624
 20
106.8036385637584
 10
240.1976454253686
 20
106.8036385637584
  0
LWPOLYLINE
  5
41F
100
AcDbEntity
  8
Board
  6
ByLayer
 62
  256
370
   -1
100
AcDbPolyline
 90
   10
 70
    0
 43
0
 10
51.59981650057823
 20
146.4126995354217
 10
44.76759279134914
 20
146.9335134208534
 10
20.33006146998276
 20
94.5279151132391
 10
2.079930904609853
 20
55.38990730297935
 10
157.2499417389695
 20
-1.899999999999049e-005
 10
259.5610759200616
 20
-1.900000000021405e-005
 10
414.7310867544332
 20
55.38990730298367
 10
396.4809377248876
 20
94.52795470967662
 10
372.0434248676756
 20
146.933513420853
 10
365.2112011584528
 20
146.4126995354217
  0
LINE
  5
420
100
AcDbEntity
  8
SwitchPlateR
  6
ByLayer
 62
    7
370
   -1
100
AcDbLine
 10
258.2899154
 20
22.045821
 11
264.2059154
 21
9.356871000000002
  0
LINE
  5
421
100
AcDbEntity
  8
SwitchPlateR
  6
ByLayer
 62
    7
370
   -1
100
AcDbLine
 10
264.2059154
 20
9.356871000000002
 11
276.8949154
 21
15.274221
  0
LINE
  5
422
100
AcDbEntity
  8
SwitchPlateR
  6
ByLayer
 62
    7
370
   -1
100
AcDbLine
 10
276.8949154
 20
15.274221
 11
270.9779154
 21
27.961721
  0
LINE
  5
423
100
AcDbEntity
  8
SwitchPlateR
  6
ByLayer
 62
    7
370
   -1
100
AcDbLine
 10
270.9779154
 20
27.961721
 11
258.2899154
 21
22.045821
  0
LINE
  5
424
100
AcDbEntity
  8
SwitchPlateR
  6
ByLayer
 62
    7
370
   -1
100
AcDbLine
 10
297.8329154
 20
41.596121
 11
299.1969154
 21
38.667721
  0
LINE
  5
425
100
AcDbEntity
  8
SwitchPlateR
  6
ByLayer
 62
    7
370
   -1
100
AcDbLine
 10
299.1969154
 20
38.667721
 11
297.8149154
 21
38.022821
  0
LINE
  5
426
100
AcDbEntity
  8
SwitchPlateR
  6
ByLayer
 62
    7
370
   -1
100
AcDbLine
 10
297.8149154
 20
38.022821
 11
295.8289154
 21
42.283721
  0
LINE
  5
427
100
AcDbEntity
  8
SwitchPlateR
  6
ByLayer
 62
    7
370
   -1
100
AcDbLine
 10
295.8289154
 20
42.283721
 11
283.1399154
 21
36.366521
  0
LINE
  5
428
100
AcDbEntity
  8
SwitchPlateR
  6
ByLayer
 62
    7
370
   -1
100
AcDbLine
 10
283.1399154
 20
36.366521
 11
285.1259154
 21
32.106921
  0
LINE
  5
429
100
AcDbEntity
  8
SwitchPlateR
  6
ByLayer
 62
    7
370
   -1
100
AcDbLine
 10
285.1259154
 20
32.106921
 11
283.7449154
 21
31.462021
  0
LINE
  5
42A
100
AcDbEntity
  8
SwitchPlateR
  6
ByLayer
 62
    7
370
   -1
100
AcDbLine
 10
283.7449154
 20
31.462021
 11
282.3789154
 21
34.390321
  0
LINE
  5
42B
100
AcDbEntity
  8
SwitchPlateR
  6
ByLayer
 62
    7
370
   -1
100
AcDbLine
 10
282.3789154
 20
34.390321
 11
276.2619154
 21
31.537821
  0
LINE
  5
42C
100
AcDbEntity
  8
SwitchPlateR
  6
ByLayer
 62
    7
370
   -1
100
AcDbLine
 10
276.2619154
 20
31.537821
 11
277.6279154
 21
28.610821
  0
LINE
  5
42D
100
AcDbEntity
  8
SwitchPlateR
  6
ByLayer
 62
    7
370
   -1
100
AcDbLine
 10
277.6279154
 20
28.610821
 11
276.8799154
 21
28.263621
  0
LINE
  5
42E
100
AcDbEntity
  8
SwitchPlateR
  6
ByLayer
 62
    7
370
   -1
100
AcDbLine
 10
276.8799154
 20
28.263621
 11
278.0619154
 21
25.723821
  0
LINE
  5
42F
100
AcDbEntity
  8
SwitchPlateR
  6
ByLayer
 62
    7
370
   -1
100
AcDbLine
 10
278.0619154
 20
25.723821
 11
278.8099154
 21
26.072421
  0
LINE
  5
430
100
AcDbEntity
  8
SwitchPlateR
  6
ByLayer
 62
    7
370
   -1
100
AcDbLine
 10
278.8099154
 20
26.072421
 11
281.4599154
 21
20.389421
  0
LINE
  5
431
100
AcDbEntity
  8
SwitchPlateR
  6
ByLayer
 62
    7
370
   -1
100
AcDbLine
 10
281.4599154
 20
20.389421
 11
283.0229154
 21
21.118421
  0
LINE
  5
432
100
AcDbEntity
  8
SwitchPlateR
  6
ByLayer
 62
    7
370
   -1
100
AcDbLine
 10
283.0229154
 20
21.118421
 11
283.5299154
 21
20.031121
  0
LINE
  5
433
100
AcDbEntity
  8
SwitchPlateR
  6
ByLayer
 62
    7
370
   -1
100
AcDbLine
 10
283.5299154
 20
20.031121
 11
286.5219154
 21
21.425721
  0
LINE
  5
434
100
AcDbEntity
  8
SwitchPlateR
  6
ByLayer
 62
    7
370
   -1
100
AcDbLine
 10
286.5219154
 20
21.425721
 11
286.0149154
 21
22.513021
  0
LINE
  5
435
100
AcDbEntity
  8
SwitchPlateR
  6
ByLayer
 62
    7
370
   -1
100
AcDbLine
 10
286.0149154
 20
22.513021
 11
287.5769154
 21
23.242021
  0
LINE
  5
436
100
AcDbEntity
  8
SwitchPlateR
  6
ByLayer
 62
    7
370
   -1
100
AcDbLine
 10
287.5769154
 20
23.242021
 11
285.6879154
 21
27.293421
  0
LINE
  5
437
100
AcDbEntity
  8
SwitchPlateR
  6
ByLayer
 62
    7
370
   -1
100
AcDbLine
 10
285.6879154
 20
27.293421
 11
287.0719154
 21
27.938321
  0
LINE
  5
438
100
AcDbEntity
  8
SwitchPlateR
  6
ByLayer
 62
    7
370
   -1
100
AcDbLine
 10
287.0719154
 20
27.938321
 11
289.0579154
 21
23.678821
  0
LINE
  5
439
100
AcDbEntity
  8
SwitchPlateR
  6
ByLayer
 62
    7
370
   -1
100
AcDbLine
 10
289.0579154
 20
23.678821
 11
301.7449154
 21
29.596121
  0
LINE
  5
43A
100
AcDbEntity
  8
SwitchPlateR
  6
ByLayer
 62
    7
370
   -1
100
AcDbLine
 10
301.7449154
 20
29.596121
 11
299.7589154
 21
33.854221
  0
LINE
  5
43B
100
AcDbEntity
  8
SwitchPlateR
  6
ByLayer
 62
    7
370
   -1
100
AcDbLine
 10
299.7589154
 20
33.854221
 11
301.1409154
 21
34.499221
  0
LINE
  5
43C
100
AcDbEntity
  8
SwitchPlateR
  6
ByLayer
 62
    7
370
   -1
100
AcDbLine
 10
301.1409154
 20
34.499221
 11
303.0309154
 21
30.447721
  0
LINE
  5
43D
100
AcDbEntity
  8
SwitchPlateR
  6
ByLayer
 62
    7
370
   -1
100
AcDbLine
 10
303.0309154
 20
30.447721
 11
304.5939154
 21
31.176721
  0
LINE
  5
43E
100
AcDbEntity
  8
SwitchPlateR
  6
ByLayer
 62
    7
370
   -1
100
AcDbLine
 10
304.5939154
 20
31.176721
 11
305.0999154
 21
30.090821
  0
LINE
  5
43F
100
AcDbEntity
  8
SwitchPlateR
  6
ByLayer
 62
    7
370
   -1
100
AcDbLine
 10
305.0999154
 20
30.090821
 11
308.0909154
 21
31.484021
  0
LINE
  5
440
100
AcDbEntity
  8
SwitchPlateR
  6
ByLayer
 62
    7
370
   -1
100
AcDbLine
 10
308.0909154
 20
31.484021
 11
307.5849154
 21
32.571321
  0
LINE
  5
441
100
AcDbEntity
  8
SwitchPlateR
  6
ByLayer
 62
    7
370
   -1
100
AcDbLine
 10
307.5849154
 20
32.571321
 11
309.1479154
 21
33.300321
  0
LINE
  5
442
100
AcDbEntity
  8
SwitchPlateR
  6
ByLayer
 62
    7
370
   -1
100
AcDbLine
 10
309.1479154
 20
33.300321
 11
306.4979154
 21
38.983421
  0
LINE
  5
443
100
AcDbEntity
  8
SwitchPlateR
  6
ByLayer
 62
    7
370
   -1
100
AcDbLine
 10
306.4979154
 20
38.983421
 11
307.2459154
 21
39.332021
  0
LINE
  5
444
100
AcDbEntity
  8
SwitchPlateR
  6
ByLayer
 62
    7
370
   -1
100
AcDbLine
 10
307.2459154
 20
39.332021
 11
306.0619154
 21
41.868821
  0
LINE
  5
445
100
AcDbEntity
  8
SwitchPlateR
  6
ByLayer
 62
    7
370
   -1
100
AcDbLine
 10
306.0619154
 20
41.868821
 11
305.3139154
 21
41.521721
  0
LINE
  5
446
100
AcDbEntity
  8
SwitchPlateR
  6
ByLayer
 62
    7
370
   -1
100
AcDbLine
 10
305.3139154
 20
41.521721
 11
303.9499154
 21
44.448721
  0
LINE
  5
447
100
AcDbEntity
  8
SwitchPlateR
  6
ByLayer
 62
    7
370
   -1
100
AcDbLine
 10
303.9499154
 20
44.448721
 11
297.8329154
 21
41.596121
  0
LINE
  5
448
100
AcDbEntity
  8
SwitchPlateR
  6
ByLayer
 62
    7
370
   -1
100
AcDbLine
 10
250.2379154
 20
39.311221
 11
256.1549154
 21
26.622321
  0
LINE
  5
449
100
AcDbEntity
  8
SwitchPlateR
  6
ByLayer
 62
    7
370
   -1
100
AcDbLine
 10
256.1549154
 20
26.622321
 11
268.8429154
 21
32.539621
  0
LINE
  5
44A
100
AcDbEntity
  8
SwitchPlateR
  6
ByLayer
 62
    7
370
   -1
100
AcDbLine
 10
268.8429154
 20
32.539621
 11
262.9269154
 21
45.227321
  0
LINE
  5
44B
100
AcDbEntity
  8
SwitchPlateR
  6
ByLayer
 62
    7
370
   -1
100
AcDbLine
 10
262.9269154
 20
45.227321
 11
250.2379154
 21
39.311221
  0
LINE
  5
44C
100
AcDbEntity
  8
SwitchPlateR
  6
ByLayer
 62
    7
370
   -1
100
AcDbLine
 10
266.4579154
 20
49.606621
 11
272.3739154
 21
36.919021
  0
LINE
  5
44D
100
AcDbEntity
  8
SwitchPlateR
  6
ByLayer
 62
    7
370
   -1
100
AcDbLine
 10
272.3739154
 20
36.919021
 11
285.0609154
 21
42.835121
  0
LINE
  5
44E
100
AcDbEntity
  8
SwitchPlateR
  6
ByLayer
 62
    7
370
   -1
100
AcDbLine
 10
285.0609154
 20
42.835121
 11
279.1449154
 21
55.523821
  0
LINE
  5
44F
100
AcDbEntity
  8
SwitchPlateR
  6
ByLayer
 62
    7
370
   -1
100
AcDbLine
 10
279.1449154
 20
55.523821
 11
266.4579154
 21
49.606621
  0
LINE
  5
450
100
AcDbEntity
  8
SwitchPlateR
  6
ByLayer
 62
    7
370
   -1
100
AcDbLine
 10
307.0259154
 20
52.759421
 11
312.9429154
 21
40.072121
  0
LINE
  5
451
100
AcDbEntity
  8
SwitchPlateR
  6
ByLayer
 62
    7
370
   -1
100
AcDbLine
 10
312.9429154
 20
40.072121
 11
325.6299154
 21
45.987821
  0
LINE
  5
452
100
AcDbEntity
  8
SwitchPlateR
  6
ByLayer
 62
    7
370
   -1
100
AcDbLine
 10
325.6299154
 20
45.987821
 11
319.7129154
 21
58.676921
  0
LINE
  5
453
100
AcDbEntity
  8
SwitchPlateR
  6
ByLayer
 62
    7
370
   -1
100
AcDbLine
 10
319.7129154
 20
58.676921
 11
307.0259154
 21
52.759421
  0
LINE
  5
454
100
AcDbEntity
  8
SwitchPlateR
  6
ByLayer
 62
    7
370
   -1
100
AcDbLine
 10
325.3369154
 20
58.565121
 11
331.2529154
 21
45.877821
  0
LINE
  5
455
100
AcDbEntity
  8
SwitchPlateR
  6
ByLayer
 62
    7
370
   -1
100
AcDbLine
 10
331.2529154
 20
45.877821
 11
343.9419154
 21
51.794921
  0
LINE
  5
456
100
AcDbEntity
  8
SwitchPlateR
  6
ByLayer
 62
    7
370
   -1
100
AcDbLine
 10
343.9419154
 20
51.794921
 11
338.0259154
 21
64.48262099999999
  0
LINE
  5
457
100
AcDbEntity
  8
SwitchPlateR
  6
ByLayer
 62
    7
370
   -1
100
AcDbLine
 10
338.0259154
 20
64.48262099999999
 11
325.3369154
 21
58.565121
  0
LINE
  5
458
100
AcDbEntity
  8
SwitchPlateR
  6
ByLayer
 62
    7
370
   -1
100
AcDbLine
 10
282.7569154
 20
59.729621
 11
288.6729154
 21
47.040521
  0
LINE
  5
459
100
AcDbEntity
  8
SwitchPlateR
  6
ByLayer
 62
    7
370
   -1
100
AcDbLine
 10
288.6729154
 20
47.040521
 11
301.3619154
 21
52.958021
  0
LINE
  5
45A
100
AcDbEntity
  8
SwitchPlateR
  6
ByLayer
 62
    7
370
   -1
100
AcDbLine
 10
301.3619154
 20
52.958021
 11
295.4449154
 21
65.64572099999999
  0
LINE
  5
45B
100
AcDbEntity
  8
SwitchPlateR
  6
ByLayer
 62
    7
370
   -1
100
AcDbLine
 10
295.4449154
 20
65.64572099999999
 11
282.7569154
 21
59.729621
  0
LINE
  5
45C
100
AcDbEntity
  8
SwitchPlateR
  6
ByLayer
 62
    7
370
   -1
100
AcDbLine
 10
344.6159154
 20
62.299621
 11
350.5319154
 21
49.612321
  0
LINE
  5
45D
100
AcDbEntity
  8
SwitchPlateR
  6
ByLayer
 62
    7
370
   -1
100
AcDbLine
 10
350.5319154
 20
49.612321
 11
363.2199154
 21
55.528021
  0
LINE
  5
45E
100
AcDbEntity
  8
SwitchPlateR
  6
ByLayer
 62
    7
370
   -1
100
AcDbLine
 10
363.2199154
 20
55.528021
 11
357.3039154
 21
68.21712100000001
  0
LINE
  5
45F
100
AcDbEntity
  8
SwitchPlateR
  6
ByLayer
 62
    7
370
   -1
100
AcDbLine
 10
357.3039154
 20
68.21712100000001
 11
344.6159154
 21
62.299621
  0
LINE
  5
460
100
AcDbEntity
  8
SwitchPlateR
  6
ByLayer
 62
    7
370
   -1
100
AcDbLine
 10
364.8609154
 20
63.96292099999999
 11
370.7769154
 21
51.273921
  0
LINE
  5
461
100
AcDbEntity
  8
SwitchPlateR
  6
ByLayer
 62
    7
370
   -1
100
AcDbLine
 10
370.7769154
 20
51.273921
 11
383.4629154
 21
57.191421
  0
LINE
  5
462
100
AcDbEntity
  8
SwitchPlateR
  6
ByLayer
 62
    7
370
   -1
100
AcDbLine
 10
383.4629154
 20
57.191421
 11
377.5469154
 21
69.87902099999999
  0
LINE
  5
463
100
AcDbEntity
  8
SwitchPlateR
  6
ByLayer
 62
    7
370
   -1
100
AcDbLine
 10
377.5469154
 20
69.87902099999999
 11
364.8609154
 21
63.96292099999999
  0
LINE
  5
464
100
AcDbEntity
  8
SwitchPlateR
  6
ByLayer
 62
    7
370
   -1
100
AcDbLine
 10
385.1839154
 20
65.454121
 11
391.0999154
 21
52.765121
  0
LINE
  5
465
100
AcDbEntity
  8
SwitchPlateR
  6
ByLayer
 62
    7
370
   -1
100
AcDbLine
 10
391.0999154
 20
52.765121
 11
403.7899154
 21
58.681121
  0
LINE
  5
466
100
AcDbEntity
  8
SwitchPlateR
  6
ByLayer
 62
    7
370
   -1
100
AcDbLine
 10
403.7899154
 20
58.681121
 11
397.8699154
 21
71.36992100000001
  0
LINE
  5
467
100
AcDbEntity
  8
SwitchPlateR
  6
ByLayer
 62
    7
370
   -1
100
AcDbLine
 10
397.8699154
 20
71.36992100000001
 11
385.1839154
 21
65.454121
  0
LINE
  5
468
100
AcDbEntity
  8
SwitchPlateR
  6
ByLayer
 62
    7
370
   -1
100
AcDbLine
 10
258.4069154
 20
66.871921
 11
264.3229154
 21
54.183221
  0
LINE
  5
469
100
AcDbEntity
  8
SwitchPlateR
  6
ByLayer
 62
    7
370
   -1
100
AcDbLine
 10
264.3229154
 20
54.183221
 11
277.0119154
 21
60.100421
  0
LINE
  5
46A
100
AcDbEntity
  8
SwitchPlateR
  6
ByLayer
 62
    7
370
   -1
100
AcDbLine
 10
277.0119154
 20
60.100421
 11
271.0949154
 21
72.788021
  0
LINE
  5
46B
100
AcDbEntity
  8
SwitchPlateR
  6
ByLayer
 62
    7
370
   -1
100
AcDbLine
 10
271.0949154
 20
72.788021
 11
258.4069154
 21
66.871921
  0
LINE
  5
46C
100
AcDbEntity
  8
SwitchPlateR
  6
ByLayer
 62
    7
370
   -1
100
AcDbLine
 10
298.9749154
 20
70.025121
 11
304.8909154
 21
57.336021
  0
LINE
  5
46D
100
AcDbEntity
  8
SwitchPlateR
  6
ByLayer
 62
    7
370
   -1
100
AcDbLine
 10
304.8909154
 20
57.336021
 11
317.5799154
 21
63.252121
  0
LINE
  5
46E
100
AcDbEntity
  8
SwitchPlateR
  6
ByLayer
 62
    7
370
   -1
100
AcDbLine
 10
317.5799154
 20
63.252121
 11
311.6629154
 21
75.940821
  0
LINE
  5
46F
100
AcDbEntity
  8
SwitchPlateR
  6
ByLayer
 62
    7
370
   -1
100
AcDbLine
 10
311.6629154
 20
75.940821
 11
298.9749154
 21
70.025121
  0
LINE
  5
470
100
AcDbEntity
  8
SwitchPlateR
  6
ByLayer
 62
    7
370
   -1
100
AcDbLine
 10
317.2859154
 20
75.832121
 11
323.2039154
 21
63.141721
  0
LINE
  5
471
100
AcDbEntity
  8
SwitchPlateR
  6
ByLayer
 62
    7
370
   -1
100
AcDbLine
 10
323.2039154
 20
63.141721
 11
335.8909154
 21
69.05922100000001
  0
LINE
  5
472
100
AcDbEntity
  8
SwitchPlateR
  6
ByLayer
 62
    7
370
   -1
100
AcDbLine
 10
335.8909154
 20
69.05922100000001
 11
329.9739154
 21
81.74792100000001
  0
LINE
  5
473
100
AcDbEntity
  8
SwitchPlateR
  6
ByLayer
 62
    7
370
   -1
100
AcDbLine
 10
329.9739154
 20
81.74792100000001
 11
317.2859154
 21
75.832121
  0
LINE
  5
474
100
AcDbEntity
  8
SwitchPlateR
  6
ByLayer
 62
    7
370
   -1
100
AcDbLine
 10
274.7049154
 20
76.993821
 11
280.6209154
 21
64.30622100000001
  0
LINE
  5
475
100
AcDbEntity
  8
SwitchPlateR
  6
ByLayer
 62
    7
370
   -1
100
AcDbLine
 10
280.6209154
 20
64.30622100000001
 11
293.3099154
 21
70.22192099999999
  0
LINE
  5
476
100
AcDbEntity
  8
SwitchPlateR
  6
ByLayer
 62
    7
370
   -1
100
AcDbLine
 10
293.3099154
 20
70.22192099999999
 11
287.3939154
 21
82.91102100000001
  0
LINE
  5
477
100
AcDbEntity
  8
SwitchPlateR
  6
ByLayer
 62
    7
370
   -1
100
AcDbLine
 10
287.3939154
 20
82.91102100000001
 11
274.7049154
 21
76.993821
  0
LINE
  5
478
100
AcDbEntity
  8
SwitchPlateR
  6
ByLayer
 62
    7
370
   -1
100
AcDbLine
 10
336.5639154
 20
79.56522100000001
 11
342.4809154
 21
66.877621
  0
LINE
  5
479
100
AcDbEntity
  8
SwitchPlateR
  6
ByLayer
 62
    7
370
   -1
100
AcDbLine
 10
342.4809154
 20
66.877621
 11
355.1699154
 21
72.79332100000001
  0
LINE
  5
47A
100
AcDbEntity
  8
SwitchPlateR
  6
ByLayer
 62
    7
370
   -1
100
AcDbLine
 10
355.1699154
 20
72.79332100000001
 11
349.2529154
 21
85.482421
  0
LINE
  5
47B
100
AcDbEntity
  8
SwitchPlateR
  6
ByLayer
 62
    7
370
   -1
100
AcDbLine
 10
349.2529154
 20
85.482421
 11
336.5639154
 21
79.56522100000001
  0
LINE
  5
47C
100
AcDbEntity
  8
SwitchPlateR
  6
ByLayer
 62
    7
370
   -1
100
AcDbLine
 10
356.8099154
 20
81.228621
 11
362.7229154
 21
68.540921
  0
LINE
  5
47D
100
AcDbEntity
  8
SwitchPlateR
  6
ByLayer
 62
    7
370
   -1
100
AcDbLine
 10
362.7229154
 20
68.540921
 11
375.4119154
 21
74.456721
  0
LINE
  5
47E
100
AcDbEntity
  8
SwitchPlateR
  6
ByLayer
 62
    7
370
   -1
100
AcDbLine
 10
375.4119154
 20
74.456721
 11
369.4959154
 21
87.14572099999999
  0
LINE
  5
47F
100
AcDbEntity
  8
SwitchPlateR
  6
ByLayer
 62
    7
370
   -1
100
AcDbLine
 10
369.4959154
 20
87.14572099999999
 11
356.8099154
 21
81.228621
  0
LINE
  5
480
100
AcDbEntity
  8
SwitchPlateR
  6
ByLayer
 62
    7
370
   -1
100
AcDbLine
 10
378.0399154
 20
102.781221
 11
377.6909154
 21
103.528221
  0
LINE
  5
481
100
AcDbEntity
  8
SwitchPlateR
  6
ByLayer
 62
    7
370
   -1
100
AcDbLine
 10
377.6909154
 20
103.528221
 11
375.1549154
 21
102.345221
  0
LINE
  5
482
100
AcDbEntity
  8
SwitchPlateR
  6
ByLayer
 62
    7
370
   -1
100
AcDbLine
 10
375.1549154
 20
102.345221
 11
375.4999154
 21
101.597221
  0
LINE
  5
483
100
AcDbEntity
  8
SwitchPlateR
  6
ByLayer
 62
    7
370
   -1
100
AcDbLine
 10
375.4999154
 20
101.597221
 11
369.8169154
 21
98.947221
  0
LINE
  5
484
100
AcDbEntity
  8
SwitchPlateR
  6
ByLayer
 62
    7
370
   -1
100
AcDbLine
 10
369.8169154
 20
98.947221
 11
370.5469154
 21
97.384421
  0
LINE
  5
485
100
AcDbEntity
  8
SwitchPlateR
  6
ByLayer
 62
    7
370
   -1
100
AcDbLine
 10
370.5469154
 20
97.384421
 11
369.4609154
 21
96.877521
  0
LINE
  5
486
100
AcDbEntity
  8
SwitchPlateR
  6
ByLayer
 62
    7
370
   -1
100
AcDbLine
 10
369.4609154
 20
96.877521
 11
370.8539154
 21
93.885921
  0
LINE
  5
487
100
AcDbEntity
  8
SwitchPlateR
  6
ByLayer
 62
    7
370
   -1
100
AcDbLine
 10
370.8539154
 20
93.885921
 11
371.9409154
 21
94.392821
  0
LINE
  5
488
100
AcDbEntity
  8
SwitchPlateR
  6
ByLayer
 62
    7
370
   -1
100
AcDbLine
 10
371.9409154
 20
94.392821
 11
372.6709154
 21
92.830021
  0
LINE
  5
489
100
AcDbEntity
  8
SwitchPlateR
  6
ByLayer
 62
    7
370
   -1
100
AcDbLine
 10
372.6709154
 20
92.830021
 11
376.7209154
 21
94.720921
  0
LINE
  5
48A
100
AcDbEntity
  8
SwitchPlateR
  6
ByLayer
 62
    7
370
   -1
100
AcDbLine
 10
376.7209154
 20
94.720921
 11
377.3669154
 21
93.337321
  0
LINE
  5
48B
100
AcDbEntity
  8
SwitchPlateR
  6
ByLayer
 62
    7
370
   -1
100
AcDbLine
 10
377.3669154
 20
93.337321
 11
373.1089154
 21
91.35152100000001
  0
LINE
  5
48C
100
AcDbEntity
  8
SwitchPlateR
  6
ByLayer
 62
    7
370
   -1
100
AcDbLine
 10
373.1089154
 20
91.35152100000001
 11
379.0249154
 21
78.662521
  0
LINE
  5
48D
100
AcDbEntity
  8
SwitchPlateR
  6
ByLayer
 62
    7
370
   -1
100
AcDbLine
 10
379.0249154
 20
78.662521
 11
383.2829154
 21
80.649721
  0
LINE
  5
48E
100
AcDbEntity
  8
SwitchPlateR
  6
ByLayer
 62
    7
370
   -1
100
AcDbLine
 10
383.2829154
 20
80.649721
 11
383.9279154
 21
79.266121
  0
LINE
  5
48F
100
AcDbEntity
  8
SwitchPlateR
  6
ByLayer
 62
    7
370
   -1
100
AcDbLine
 10
383.9279154
 20
79.266121
 11
379.8779154
 21
77.377021
  0
LINE
  5
490
100
AcDbEntity
  8
SwitchPlateR
  6
ByLayer
 62
    7
370
   -1
100
AcDbLine
 10
379.8779154
 20
77.377021
 11
380.6049154
 21
75.814121
  0
LINE
  5
491
100
AcDbEntity
  8
SwitchPlateR
  6
ByLayer
 62
    7
370
   -1
100
AcDbLine
 10
380.6049154
 20
75.814121
 11
379.5189154
 21
75.306921
  0
LINE
  5
492
100
AcDbEntity
  8
SwitchPlateR
  6
ByLayer
 62
    7
370
   -1
100
AcDbLine
 10
379.5189154
 20
75.306921
 11
380.9119154
 21
72.316721
  0
LINE
  5
493
100
AcDbEntity
  8
SwitchPlateR
  6
ByLayer
 62
    7
370
   -1
100
AcDbLine
 10
380.9119154
 20
72.316721
 11
382.0019154
 21
72.82372100000001
  0
LINE
  5
494
100
AcDbEntity
  8
SwitchPlateR
  6
ByLayer
 62
    7
370
   -1
100
AcDbLine
 10
382.0019154
 20
72.82372100000001
 11
382.7289154
 21
71.259821
  0
LINE
  5
495
100
AcDbEntity
  8
SwitchPlateR
  6
ByLayer
 62
    7
370
   -1
100
AcDbLine
 10
382.7289154
 20
71.259821
 11
388.4119154
 21
73.910921
  0
LINE
  5
496
100
AcDbEntity
  8
SwitchPlateR
  6
ByLayer
 62
    7
370
   -1
100
AcDbLine
 10
388.4119154
 20
73.910921
 11
388.7609154
 21
73.162721
  0
LINE
  5
497
100
AcDbEntity
  8
SwitchPlateR
  6
ByLayer
 62
    7
370
   -1
100
AcDbLine
 10
388.7609154
 20
73.162721
 11
391.2979154
 21
74.345221
  0
LINE
  5
498
100
AcDbEntity
  8
SwitchPlateR
  6
ByLayer
 62
    7
370
   -1
100
AcDbLine
 10
391.2979154
 20
74.345221
 11
390.9489154
 21
75.09342100000001
  0
LINE
  5
499
100
AcDbEntity
  8
SwitchPlateR
  6
ByLayer
 62
    7
370
   -1
100
AcDbLine
 10
390.9489154
 20
75.09342100000001
 11
393.8769154
 21
76.45902100000001
  0
LINE
  5
49A
100
AcDbEntity
  8
SwitchPlateR
  6
ByLayer
 62
    7
370
   -1
100
AcDbLine
 10
393.8769154
 20
76.45902100000001
 11
391.0229154
 21
82.576221
  0
LINE
  5
49B
100
AcDbEntity
  8
SwitchPlateR
  6
ByLayer
 62
    7
370
   -1
100
AcDbLine
 10
391.0229154
 20
82.576221
 11
388.0979154
 21
81.21202100000001
  0
LINE
  5
49C
100
AcDbEntity
  8
SwitchPlateR
  6
ByLayer
 62
    7
370
   -1
100
AcDbLine
 10
388.0979154
 20
81.21202100000001
 11
387.4529154
 21
82.592821
  0
LINE
  5
49D
100
AcDbEntity
  8
SwitchPlateR
  6
ByLayer
 62
    7
370
   -1
100
AcDbLine
 10
387.4529154
 20
82.592821
 11
391.7139154
 21
84.580021
  0
LINE
  5
49E
100
AcDbEntity
  8
SwitchPlateR
  6
ByLayer
 62
    7
370
   -1
100
AcDbLine
 10
391.7139154
 20
84.580021
 11
385.7939154
 21
97.267321
  0
LINE
  5
49F
100
AcDbEntity
  8
SwitchPlateR
  6
ByLayer
 62
    7
370
   -1
100
AcDbLine
 10
385.7939154
 20
97.267321
 11
381.5359154
 21
95.28182100000001
  0
LINE
  5
4A0
100
AcDbEntity
  8
SwitchPlateR
  6
ByLayer
 62
    7
370
   -1
100
AcDbLine
 10
381.5359154
 20
95.28182100000001
 11
380.8909154
 21
96.66402100000001
  0
LINE
  5
4A1
100
AcDbEntity
  8
SwitchPlateR
  6
ByLayer
 62
    7
370
   -1
100
AcDbLine
 10
380.8909154
 20
96.66402100000001
 11
383.8189154
 21
98.028221
  0
LINE
  5
4A2
100
AcDbEntity
  8
SwitchPlateR
  6
ByLayer
 62
    7
370
   -1
100
AcDbLine
 10
383.8189154
 20
98.028221
 11
380.9689154
 21
104.146221
  0
LINE
  5
4A3
100
AcDbEntity
  8
SwitchPlateR
  6
ByLayer
 62
    7
370
   -1
100
AcDbLine
 10
380.9689154
 20
104.146221
 11
378.0399154
 21
102.781221
  0
LINE
  5
4A4
100
AcDbEntity
  8
SwitchPlateR
  6
ByLayer
 62
    7
370
   -1
100
AcDbLine
 10
250.3549154
 20
84.13622100000001
 11
256.2709154
 21
71.448521
  0
LINE
  5
4A5
100
AcDbEntity
  8
SwitchPlateR
  6
ByLayer
 62
    7
370
   -1
100
AcDbLine
 10
256.2709154
 20
71.448521
 11
268.9599154
 21
77.36572100000001
  0
LINE
  5
4A6
100
AcDbEntity
  8
SwitchPlateR
  6
ByLayer
 62
    7
370
   -1
100
AcDbLine
 10
268.9599154
 20
77.36572100000001
 11
263.0439154
 21
90.053321
  0
LINE
  5
4A7
100
AcDbEntity
  8
SwitchPlateR
  6
ByLayer
 62
    7
370
   -1
100
AcDbLine
 10
263.0439154
 20
90.053321
 11
250.3549154
 21
84.13622100000001
  0
LINE
  5
4A8
100
AcDbEntity
  8
SwitchPlateR
  6
ByLayer
 62
    7
370
   -1
100
AcDbLine
 10
290.9229154
 20
87.28902100000001
 11
296.8409154
 21
74.601321
  0
LINE
  5
4A9
100
AcDbEntity
  8
SwitchPlateR
  6
ByLayer
 62
    7
370
   -1
100
AcDbLine
 10
296.8409154
 20
74.601321
 11
309.5279154
 21
80.518821
  0
LINE
  5
4AA
100
AcDbEntity
  8
SwitchPlateR
  6
ByLayer
 62
    7
370
   -1
100
AcDbLine
 10
309.5279154
 20
80.518821
 11
303.6119154
 21
93.20642100000001
  0
LINE
  5
4AB
100
AcDbEntity
  8
SwitchPlateR
  6
ByLayer
 62
    7
370
   -1
100
AcDbLine
 10
303.6119154
 20
93.20642100000001
 11
290.9229154
 21
87.28902100000001
  0
LINE
  5
4AC
100
AcDbEntity
  8
SwitchPlateR
  6
ByLayer
 62
    7
370
   -1
100
AcDbLine
 10
309.2359154
 20
93.09602100000001
 11
315.1519154
 21
80.407021
  0
LINE
  5
4AD
100
AcDbEntity
  8
SwitchPlateR
  6
ByLayer
 62
    7
370
   -1
100
AcDbLine
 10
315.1519154
 20
80.407021
 11
327.8409154
 21
86.324521
  0
LINE
  5
4AE
100
AcDbEntity
  8
SwitchPlateR
  6
ByLayer
 62
    7
370
   -1
100
AcDbLine
 10
327.8409154
 20
86.324521
 11
321.9239154
 21
99.01212100000001
  0
LINE
  5
4AF
100
AcDbEntity
  8
SwitchPlateR
  6
ByLayer
 62
    7
370
   -1
100
AcDbLine
 10
321.9239154
 20
99.01212100000001
 11
309.2359154
 21
93.09602100000001
  0
LINE
  5
4B0
100
AcDbEntity
  8
SwitchPlateR
  6
ByLayer
 62
    7
370
   -1
100
AcDbLine
 10
266.6549154
 20
94.25912100000001
 11
272.5699154
 21
81.571521
  0
LINE
  5
4B1
100
AcDbEntity
  8
SwitchPlateR
  6
ByLayer
 62
    7
370
   -1
100
AcDbLine
 10
272.5699154
 20
81.571521
 11
285.2599154
 21
87.487621
  0
LINE
  5
4B2
100
AcDbEntity
  8
SwitchPlateR
  6
ByLayer
 62
    7
370
   -1
100
AcDbLine
 10
285.2599154
 20
87.487621
 11
279.3419154
 21
100.176221
  0
LINE
  5
4B3
100
AcDbEntity
  8
SwitchPlateR
  6
ByLayer
 62
    7
370
   -1
100
AcDbLine
 10
279.3419154
 20
100.176221
 11
266.6549154
 21
94.25912100000001
  0
LINE
  5
4B4
100
AcDbEntity
  8
SwitchPlateR
  6
ByLayer
 62
    7
370
   -1
100
AcDbLine
 10
328.5129154
 20
96.830521
 11
334.4309154
 21
84.142921
  0
LINE
  5
4B5
100
AcDbEntity
  8
SwitchPlateR
  6
ByLayer
 62
    7
370
   -1
100
AcDbLine
 10
334.4309154
 20
84.142921
 11
347.1179154
 21
90.059021
  0
LINE
  5
4B6
100
AcDbEntity
  8
SwitchPlateR
  6
ByLayer
 62
    7
370
   -1
100
AcDbLine
 10
347.1179154
 20
90.059021
 11
341.2009154
 21
102.748221
  0
LINE
  5
4B7
100
AcDbEntity
  8
SwitchPlateR
  6
ByLayer
 62
    7
370
   -1
100
AcDbLine
 10
341.2009154
 20
102.748221
 11
328.5129154
 21
96.830521
  0
LINE
  5
4B8
100
AcDbEntity
  8
SwitchPlateR
  6
ByLayer
 62
    7
370
   -1
100
AcDbLine
 10
348.7579154
 20
98.493921
 11
354.6719154
 21
85.804821
  0
LINE
  5
4B9
100
AcDbEntity
  8
SwitchPlateR
  6
ByLayer
 62
    7
370
   -1
100
AcDbLine
 10
354.6719154
 20
85.804821
 11
367.3619154
 21
91.720921
  0
LINE
  5
4BA
100
AcDbEntity
  8
SwitchPlateR
  6
ByLayer
 62
    7
370
   -1
100
AcDbLine
 10
367.3619154
 20
91.720921
 11
361.4459154
 21
104.410221
  0
LINE
  5
4BB
100
AcDbEntity
  8
SwitchPlateR
  6
ByLayer
 62
    7
370
   -1
100
AcDbLine
 10
361.4459154
 20
104.410221
 11
348.7579154
 21
98.493921
  0
LINE
  5
4BC
100
AcDbEntity
  8
SwitchPlateR
  6
ByLayer
 62
    7
370
   -1
100
AcDbLine
 10
242.3049154
 20
101.403221
 11
248.2219154
 21
88.713821
  0
LINE
  5
4BD
100
AcDbEntity
  8
SwitchPlateR
  6
ByLayer
 62
    7
370
   -1
100
AcDbLine
 10
248.2219154
 20
88.713821
 11
260.9089154
 21
94.629921
  0
LINE
  5
4BE
100
AcDbEntity
  8
SwitchPlateR
  6
ByLayer
 62
    7
370
   -1
100
AcDbLine
 10
260.9089154
 20
94.629921
 11
254.9919154
 21
107.319221
  0
LINE
  5
4BF
100
AcDbEntity
  8
SwitchPlateR
  6
ByLayer
 62
    7
370
   -1
100
AcDbLine
 10
254.9919154
 20
107.319221
 11
242.3049154
 21
101.403221
  0
LINE
  5
4C0
100
AcDbEntity
  8
SwitchPlateR
  6
ByLayer
 62
    7
370
   -1
100
AcDbLine
 10
282.8729154
 20
104.554221
 11
288.7899154
 21
91.866921
  0
LINE
  5
4C1
100
AcDbEntity
  8
SwitchPlateR
  6
ByLayer
 62
    7
370
   -1
100
AcDbLine
 10
288.7899154
 20
91.866921
 11
301.4779154
 21
97.782721
  0
LINE
  5
4C2
100
AcDbEntity
  8
SwitchPlateR
  6
ByLayer
 62
    7
370
   -1
100
AcDbLine
 10
301.4779154
 20
97.782721
 11
295.5619154
 21
110.472221
  0
LINE
  5
4C3
100
AcDbEntity
  8
SwitchPlateR
  6
ByLayer
 62
    7
370
   -1
100
AcDbLine
 10
295.5619154
 20
110.472221
 11
282.8729154
 21
104.554221
  0
LINE
  5
4C4
100
AcDbEntity
  8
SwitchPlateR
  6
ByLayer
 62
    7
370
   -1
100
AcDbLine
 10
301.1839154
 20
110.361221
 11
307.1009154
 21
97.674021
  0
LINE
  5
4C5
100
AcDbEntity
  8
SwitchPlateR
  6
ByLayer
 62
    7
370
   -1
100
AcDbLine
 10
307.1009154
 20
97.674021
 11
319.7889154
 21
103.590221
  0
LINE
  5
4C6
100
AcDbEntity
  8
SwitchPlateR
  6
ByLayer
 62
    7
370
   -1
100
AcDbLine
 10
319.7889154
 20
103.590221
 11
313.8729154
 21
116.279221
  0
LINE
  5
4C7
100
AcDbEntity
  8
SwitchPlateR
  6
ByLayer
 62
    7
370
   -1
100
AcDbLine
 10
313.8729154
 20
116.279221
 11
301.1839154
 21
110.361221
  0
LINE
  5
4C8
100
AcDbEntity
  8
SwitchPlateR
  6
ByLayer
 62
    7
370
   -1
100
AcDbLine
 10
258.6039154
 20
111.525221
 11
264.5199154
 21
98.837121
  0
LINE
  5
4C9
100
AcDbEntity
  8
SwitchPlateR
  6
ByLayer
 62
    7
370
   -1
100
AcDbLine
 10
264.5199154
 20
98.837121
 11
277.2089154
 21
104.753221
  0
LINE
  5
4CA
100
AcDbEntity
  8
SwitchPlateR
  6
ByLayer
 62
    7
370
   -1
100
AcDbLine
 10
277.2089154
 20
104.753221
 11
271.2919154
 21
117.442221
  0
LINE
  5
4CB
100
AcDbEntity
  8
SwitchPlateR
  6
ByLayer
 62
    7
370
   -1
100
AcDbLine
 10
271.2919154
 20
117.442221
 11
258.6039154
 21
111.525221
  0
LINE
  5
4CC
100
AcDbEntity
  8
SwitchPlateR
  6
ByLayer
 62
    7
370
   -1
100
AcDbLine
 10
320.4629154
 20
114.096221
 11
326.3799154
 21
101.407221
  0
LINE
  5
4CD
100
AcDbEntity
  8
SwitchPlateR
  6
ByLayer
 62
    7
370
   -1
100
AcDbLine
 10
326.3799154
 20
101.407221
 11
339.0679154
 21
107.324221
  0
LINE
  5
4CE
100
AcDbEntity
  8
SwitchPlateR
  6
ByLayer
 62
    7
370
   -1
100
AcDbLine
 10
339.0679154
 20
107.324221
 11
333.1509154
 21
120.012221
  0
LINE
  5
4CF
100
AcDbEntity
  8
SwitchPlateR
  6
ByLayer
 62
    7
370
   -1
100
AcDbLine
 10
333.1509154
 20
120.012221
 11
320.4629154
 21
114.096221
  0
LINE
  5
4D0
100
AcDbEntity
  8
SwitchPlateR
  6
ByLayer
 62
    7
370
   -1
100
AcDbLine
 10
340.7059154
 20
115.758221
 11
346.6229154
 21
103.070221
  0
LINE
  5
4D1
100
AcDbEntity
  8
SwitchPlateR
  6
ByLayer
 62
    7
370
   -1
100
AcDbLine
 10
346.6229154
 20
103.070221
 11
359.3109154
 21
108.987221
  0
LINE
  5
4D2
100
AcDbEntity
  8
SwitchPlateR
  6
ByLayer
 62
    7
370
   -1
100
AcDbLine
 10
359.3109154
 20
108.987221
 11
353.3949154
 21
121.675221
  0
LINE
  5
4D3
100
AcDbEntity
  8
SwitchPlateR
  6
ByLayer
 62
    7
370
   -1
100
AcDbLine
 10
353.3949154
 20
121.675221
 11
340.7059154
 21
115.758221
  0
LINE
  5
4D4
100
AcDbEntity
  8
SwitchPlateR
  6
ByLayer
 62
    7
370
   -1
100
AcDbLine
 10
361.0289154
 20
117.249221
 11
366.9459154
 21
104.560221
  0
LINE
  5
4D5
100
AcDbEntity
  8
SwitchPlateR
  6
ByLayer
 62
    7
370
   -1
100
AcDbLine
 10
366.9459154
 20
104.560221
 11
379.6349154
 21
110.477221
  0
LINE
  5
4D6
100
AcDbEntity
  8
SwitchPlateR
  6
ByLayer
 62
    7
370
   -1
100
AcDbLine
 10
379.6349154
 20
110.477221
 11
373.7189154
 21
123.165221
  0
LINE
  5
4D7
100
AcDbEntity
  8
SwitchPlateR
  6
ByLayer
 62
    7
370
   -1
100
AcDbLine
 10
373.7189154
 20
123.165221
 11
361.0289154
 21
117.249221
  0
LINE
  5
4D8
100
AcDbEntity
  8
SwitchPlateR
  6
ByLayer
 62
    7
370
   -1
100
AcDbLine
 10
274.8209154
 20
121.820221
 11
280.7379154
 21
109.131221
  0
LINE
  5
4D9
100
AcDbEntity
  8
SwitchPlateR
  6
ByLayer
 62
    7
370
   -1
100
AcDbLine
 10
280.7379154
 20
109.131221
 11
293.4269154
 21
115.048221
  0
LINE
  5
4DA
100
AcDbEntity
  8
SwitchPlateR
  6
ByLayer
 62
    7
370
   -1
100
AcDbLine
 10
293.4269154
 20
115.048221
 11
287.5099154
 21
127.736221
  0
LINE
  5
4DB
100
AcDbEntity
  8
SwitchPlateR
  6
ByLayer
 62
    7
370
   -1
100
AcDbLine
 10
287.5099154
 20
127.736221
 11
274.8209154
 21
121.820221
  0
LINE
  5
4DC
100
AcDbEntity
  8
SwitchPlateR
  6
ByLayer
 62
    7
370
   -1
100
AcDbLine
 10
293.1339154
 20
127.627221
 11
299.0509154
 21
114.938221
  0
LINE
  5
4DD
100
AcDbEntity
  8
SwitchPlateR
  6
ByLayer
 62
    7
370
   -1
100
AcDbLine
 10
299.0509154
 20
114.938221
 11
311.7389154
 21
120.854221
  0
LINE
  5
4DE
100
AcDbEntity
  8
SwitchPlateR
  6
ByLayer
 62
    7
370
   -1
100
AcDbLine
 10
311.7389154
 20
120.854221
 11
305.8229154
 21
133.543221
  0
LINE
  5
4DF
100
AcDbEntity
  8
SwitchPlateR
  6
ByLayer
 62
    7
370
   -1
100
AcDbLine
 10
305.8229154
 20
133.543221
 11
293.1339154
 21
127.627221
  0
LINE
  5
4E0
100
AcDbEntity
  8
SwitchPlateR
  6
ByLayer
 62
    7
370
   -1
100
AcDbLine
 10
312.4109154
 20
131.361221
 11
318.3279154
 21
118.672221
  0
LINE
  5
4E1
100
AcDbEntity
  8
SwitchPlateR
  6
ByLayer
 62
    7
370
   -1
100
AcDbLine
 10
318.3279154
 20
118.672221
 11
331.0159154
 21
124.590221
  0
LINE
  5
4E2
100
AcDbEntity
  8
SwitchPlateR
  6
ByLayer
 62
    7
370
   -1
100
AcDbLine
 10
331.0159154
 20
124.590221
 11
325.0999154
 21
137.277221
  0
LINE
  5
4E3
100
AcDbEntity
  8
SwitchPlateR
  6
ByLayer
 62
    7
370
   -1
100
AcDbLine
 10
325.0999154
 20
137.277221
 11
312.4109154
 21
131.361221
  0
LINE
  5
4E4
100
AcDbEntity
  8
SwitchPlateR
  6
ByLayer
 62
    7
370
   -1
100
AcDbLine
 10
332.6559154
 20
133.023221
 11
338.5729154
 21
120.336221
  0
LINE
  5
4E5
100
AcDbEntity
  8
SwitchPlateR
  6
ByLayer
 62
    7
370
   -1
100
AcDbLine
 10
338.5729154
 20
120.336221
 11
351.2609154
 21
126.252221
  0
LINE
  5
4E6
100
AcDbEntity
  8
SwitchPlateR
  6
ByLayer
 62
    7
370
   -1
100
AcDbLine
 10
351.2609154
 20
126.252221
 11
345.3429154
 21
138.940221
  0
LINE
  5
4E7
100
AcDbEntity
  8
SwitchPlateR
  6
ByLayer
 62
    7
370
   -1
100
AcDbLine
 10
345.3429154
 20
138.940221
 11
332.6559154
 21
133.023221
  0
LINE
  5
4E8
100
AcDbEntity
  8
SwitchPlateR
  6
ByLayer
 62
    7
370
   -1
100
AcDbLine
 10
352.9789154
 20
134.513221
 11
358.8949154
 21
121.825221
  0
LINE
  5
4E9
100
AcDbEntity
  8
SwitchPlateR
  6
ByLayer
 62
    7
370
   -1
100
AcDbLine
 10
358.8949154
 20
121.825221
 11
371.5849154
 21
127.742221
  0
LINE
  5
4EA
100
AcDbEntity
  8
SwitchPlateR
  6
ByLayer
 62
    7
370
   -1
100
AcDbLine
 10
371.5849154
 20
127.742221
 11
365.6689154
 21
140.430221
  0
LINE
  5
4EB
100
AcDbEntity
  8
SwitchPlateR
  6
ByLayer
 62
    7
370
   -1
100
AcDbLine
 10
365.6689154
 20
140.430221
 11
352.9789154
 21
134.513221
  0
ENDSEC
  0
SECTION
  2
OBJECTS
  0
DICTIONARY
  5
C
330
0
100
AcDbDictionary
281
    1
  3
ACAD_GROUP
350
D
  0
DICTIONARY
  5
D
330
C
100
AcDbDictionary
281
    1
  0
PLOTSETTINGS
  5
4EC
100
AcDbPlotSettings
  6
1x1
 40
0
 41
0
 42
0
 43
0
  0
ENDSEC
  0
EOF
